<?xml version="1.0" encoding="UTF-8" standalone="no"?>
<!-- Created with Inkscape (http://www.inkscape.org/) -->

<svg
   xmlns:dc="http://purl.org/dc/elements/1.1/"
   xmlns:cc="http://creativecommons.org/ns#"
   xmlns:rdf="http://www.w3.org/1999/02/22-rdf-syntax-ns#"
   xmlns:svg="http://www.w3.org/2000/svg"
   xmlns="http://www.w3.org/2000/svg"
   xmlns:sodipodi="http://sodipodi.sourceforge.net/DTD/sodipodi-0.dtd"
   xmlns:inkscape="http://www.inkscape.org/namespaces/inkscape"
   width="64"
   height="64"
   viewBox="0 0 16.933334 16.933333"
   version="1.1"
   id="svg4633"
   inkscape:version="0.92.5 (2060ec1f9f, 2020-04-08)"
   sodipodi:docname="fav2.svg"
   inkscape:export-filename="/home/george/projects/easy-meal/public/fav4.svg.png"
   inkscape:export-xdpi="96"
   inkscape:export-ydpi="96">
  <defs
     id="defs4627" />
  <sodipodi:namedview
     id="base"
     pagecolor="#ffffff"
     bordercolor="#666666"
     borderopacity="1.0"
     inkscape:pageopacity="0.0"
     inkscape:pageshadow="2"
     inkscape:zoom="7.919596"
     inkscape:cx="16.660409"
     inkscape:cy="32.514593"
     inkscape:document-units="mm"
     inkscape:current-layer="layer1"
     showgrid="false"
     inkscape:window-width="1639"
     inkscape:window-height="891"
     inkscape:window-x="171"
     inkscape:window-y="120"
     inkscape:window-maximized="0"
     units="px" />
  <metadata
     id="metadata4630">
    <rdf:RDF>
      <cc:Work
         rdf:about="">
        <dc:format>image/svg+xml</dc:format>
        <dc:type
           rdf:resource="http://purl.org/dc/dcmitype/StillImage" />
        <dc:title />
      </cc:Work>
    </rdf:RDF>
  </metadata>
  <g
     inkscape:label="Layer 1"
     inkscape:groupmode="layer"
     id="layer1"
     transform="translate(-7.220253,-34.550942)">
    <circle
       id="path35"
       cx="15.68692"
       cy="43.017609"
       style="opacity:1;fill:#d7ddb0;fill-opacity:1;stroke-width:0.09918178"
       r="8.4666662" />
    <path
       style="fill:#333333;stroke-width:0.05592922;fill-opacity:1"
       inkscape:connector-curvature="0"
       id="path3984-3"
       d="m 12.528155,41.459152 -0.01334,-0.135002 c 0,-0.117003 0.01334,-0.184503 0.04003,-0.203067 a 0.14235978,0.1440026 0 0 1 0.146809,0 0.22911023,0.23175415 0 0 1 0.120116,0.09451 0.37536266,0.37969432 0 0 1 0.01334,0.189003 v 0.203065 a 2.1687621,2.1937895 0 0 0 0.02669,0.270006 l 0.01334,0.148503 0.01334,0.135002 q 0.01334,0.337505 -0.09343,0.365069 a 0.16682786,0.16875304 0 0 1 -0.200192,-0.0675 0.47045452,0.47588354 0 0 1 -0.06673,-0.216567 v -0.216003 a 0.45988879,0.46519588 0 0 0 -0.01334,-0.162004 c -0.0089,-0.009 -0.04504,-0.009 -0.106769,0 l -0.08008,0.0135 h -0.06673 l -0.187404,-0.0135 -0.186848,-0.02701 -0.389263,-0.0405 a 0.21854449,0.22106648 0 0 1 -0.05561,-0.0135 l -0.08007,-0.0135 c -0.07118,-0.009 -0.111218,-0.009 -0.120117,0 q -0.02669,0.0135 -0.02669,0.175503 a 2.301112,2.3276667 0 0 0 0.01334,0.270005 q 0.02613,0.568135 0.01334,1.296585 l -0.02669,1.310649 q -0.04003,1.715655 0,2.647172 l 0.627272,-0.0135 0.611703,-0.02701 q 0.77408,-0.04049 1.281792,-0.02701 v -0.105736 l -0.01334,-0.122065 a 1.4680851,1.4850267 0 0 1 0,-0.281255 q 0.01334,-0.364508 0.120117,-0.418507 a 0.21854449,0.22106648 0 0 1 0.120117,-0.02701 0.15236944,0.15412777 0 0 1 0.133464,0.02701 q 0.02669,0.02701 0.01334,0.162002 l -0.01334,0.108002 v 0.09451 q -0.04005,0.405006 0.01334,0.594573 l 0.01334,0.0405 0.02669,0.05625 a 0.15848646,0.16031538 0 0 1 0.02669,0.121504 q -0.02669,0.09451 -0.253581,0.081 l -0.07507,-0.02025 -0.08007,-0.0135 q -0.106772,-0.0135 -0.133465,-0.0135 a 9.070986,9.1756646 0 0 0 -0.988174,0 l -0.52106,0.02701 -0.507156,0.02701 -0.360349,0.0135 h -0.38927 q -0.480466,0.0135 -0.774086,0.02701 H 9.9773233 q -0.066732,-0.01352 -0.1201157,-0.02702 -0.1468056,-0.04049 -0.093428,-0.148502 0.026686,-0.05625 0.1468095,-0.05625 h 0.080632 c 0.03504,0 0.05561,-0.009 0.06673,-0.02701 a 0.26970503,0.27281741 0 0 0 0,-0.121501 l -0.01389,-0.0675 a 0.20797872,0.21037878 0 0 1 -0.0128,-0.05625 q -0.01334,-0.43257 0,-1.148084 l 0.0128,-0.594572 0.01389,-0.58051 0.01334,-1.607655 0.01334,-1.59359 q 0.01224,-1.958099 0,-3.133745 a 1.0832688,1.0957697 0 0 0 -0.01334,-0.134995 v -0.186754 a 0.86528047,0.87526575 0 0 0 -0.01334,-0.229504 q -0.01334,-0.0135 -0.1334649,0 h -0.09398 a 0.09119922,0.09225165 0 0 1 -0.066732,-0.02701 0.16682786,0.16875304 0 0 1 -0.040038,-0.08156 0.13735493,0.13894 0 0 1 0.013341,-0.10744 c 0.00886,-0.03657 0.071181,-0.05625 0.1874049,-0.05625 h 0.146809 l 0.146806,0.0135 q 0.08008,0 0.266927,-0.0135 l 0.133461,-0.0135 h 0.120116 q 0.533852,-0.04049 1.321835,-0.02701 h 0.681214 l 0.69456,0.0135 h 0.133461 l 0.160154,0.0135 a 0.94535781,0.95626718 0 0 0 0.240232,0 l 0.02669,-0.02701 q 0.01334,-0.02701 0.02669,-0.02701 c 0.133461,-0.009 0.204641,0.04557 0.213539,0.162003 0,0.03657 -0.0045,0.09957 -0.01334,0.189566 l -0.01334,0.121502 -0.01334,0.121502 a 0.48046421,0.48600874 0 0 0 0,0.162003 l 0.01334,0.0675 v 0.0675 q -0.01334,0.05625 -0.02669,0.05625 l -0.01334,0.0135 a 0.05560928,0.05625101 0 0 0 -0.01334,0.04049 l -0.01334,0.05625 0.01334,0.05625 a 0.07952128,0.08043895 0 0 1 -0.01334,0.081 0.16682786,0.16875304 0 0 1 -0.160154,0 0.22688588,0.22950413 0 0 1 -0.120117,-0.09451 0.79576883,0.80495195 0 0 1 -0.04003,-0.297006 1.7138781,1.7336562 0 0 1 0.02669,-0.310505 v -0.02701 l 0.01334,-0.05625 q 0.02669,-0.05625 0.01334,-0.0675 -0.02669,-0.02701 -0.173502,-0.02701 l -0.106772,0.01294 h -0.0556 q -0.799106,-0.04049 -1.639361,-0.04049 c -0.01778,0 -0.06228,-0.0046 -0.133461,-0.01406 l -0.09343,-0.0135 h -0.106773 c -0.177947,-0.018 -0.278045,-0.0084 -0.306963,0.02757 -0.01836,0.009 -0.02225,0.04894 -0.01334,0.121502 v 0.09451 l 0.01334,0.081 q 0.01334,0.49951 -0.01334,1.350024 l -0.01334,0.702576 c -0.0095,0.270567 -0.01334,0.513572 -0.01334,0.731262 v 0.0675 l -0.01334,0.121502 c -0.0095,0.126566 -0.0045,0.198568 0.01334,0.216005 q 0.01334,0.01406 0.14681,0 l 0.09343,-0.01293 h 0.08008 q 0.213536,0 0.493811,0.02701 c 0.133461,0.009 0.294171,0.02701 0.481018,0.05625 a 0.36535299,0.36956914 0 0 0 0.01224,-0.11194 z m -2.229935,-2.825488 0.01334,0.405007 q 0.02668,0.500072 0.04004,0.797077 v 0.121502 c 0,0.05625 0.0045,0.04557 0.01334,-0.02701 q 0.04003,-0.904516 0.09343,-1.51259 v -0.216 q 0,-0.148504 -0.02669,-0.162003 a 0.18462282,0.18675336 0 0 0 -0.08008,-0.01406 0.209647,0.21206631 0 0 0 -0.08007,0.02701 0.14124759,0.14287758 0 0 0 -0.01334,0.08156 0.18573501,0.18787838 0 0 0 0.01334,0.081 z m 0.04005,5.564912 q 0,-0.364506 -0.01334,-0.527072 v 0.281256 l -0.01334,0.297005 a 4.0394581,4.0860732 0 0 0 0.02669,0.540572 z m 0,1.661092 q 0,-0.310504 -0.01334,-0.432007 v 0.229504 l -0.01334,0.243004 a 2.5302225,2.5594211 0 0 0 0.02669,0.446071 z m 0.293615,-5.942919 q 0,0.135003 0.01334,0.121502 a 3.1747339,3.2113701 0 0 0 0.02669,-0.486008 l -0.01334,-0.243004 v -0.225566 q -0.01334,0.243003 -0.01334,0.64801 a 0.8841876,0.89439107 0 0 0 -0.01334,0.187316 z m 0.14681,2.431169 q 0,-0.081 -0.01334,-0.02701 a 2.461823,2.4902323 0 0 0 -0.02669,0.41907 l 0.01334,0.216003 v 0.234005 a 21.620889,21.870393 0 0 0 0.04004,2.552671 q 0.01334,-0.634511 0,-1.647592 l -0.01334,-0.810577 z"
       class="cls-9" />
    <path
       style="fill:#333333;stroke-width:0.05364718;fill-opacity:1"
       inkscape:connector-curvature="0"
       id="path3986-6"
       d="M 20.095313,40.277201 19.9315,41.040768 q -0.189018,0.921981 -0.302429,1.566051 -0.35388,1.817103 -0.542371,3.224741 l -0.0378,0.237347 -0.0378,0.2368 a 2.437266,2.5444921 0 0 0 -0.05251,0.460442 0.58542687,0.61118238 0 0 0 0.01259,0.210487 c 0.0084,0.105792 0.021,0.164445 0.0378,0.17157 a 0.36753254,0.38370191 0 0 0 0.138613,0.0126 h 0.100808 q 0.05251,0.01425 0.08821,0.02631 l 0.0525,0.05481 0.05251,0.06578 a 0.16066424,0.16773257 0 0 1 0,0.157865 q -0.02522,0.06578 -0.315028,0.07894 h -0.113411 l -0.12601,0.01315 h -0.441565 a 1.3897982,1.4509415 0 0 0 -0.214744,0.01315 l -0.100809,0.01315 -0.100808,0.01315 q -0.138612,0.02631 -0.176416,0 -0.0378,-0.01315 -0.06301,-0.09209 a 0.18849171,0.19678429 0 0 1 -0.01259,-0.1184 0.11761042,0.12278462 0 0 1 0.08821,-0.09209 l 0.06301,-0.01315 a 0.08138221,0.08496257 0 0 0 0.0525,-0.03946 c 0.0084,-0.01754 -0.0084,-0.09648 -0.0525,-0.237348 l -0.01259,-0.09209 -0.02522,-0.07894 a 0.41268656,0.43084246 0 0 1 -0.02522,-0.105246 q -0.07561,-0.302575 -0.151214,-0.803032 l -0.06301,-0.394666 -0.07561,-0.394663 q -0.0761,-0.394646 -0.214714,-1.041458 l -0.214219,-1.026677 q -0.05251,-0.197332 -0.100809,-0.526768 l -0.05251,-0.263109 -0.0525,-0.26311 Q 16.777017,41.370205 16.588002,40.48769 l -0.340757,-1.526585 q -0.0525,1.526586 -0.08821,4.093551 l -0.02364,2.092821 q -0.01259,1.223461 -0.02522,2.053353 a 0.7082878,0.7394485 0 0 0 0.138612,0.01315 l 0.12601,-0.02686 a 0.44313926,0.46263491 0 0 1 0.227346,0.02686 0.22314479,0.23296191 0 0 1 0.08821,0.131556 0.2178943,0.22748043 0 0 1 0.01259,0.197333 c -0.01734,0.03508 -0.08821,0.06139 -0.214747,0.07894 l -0.176413,0.01315 -0.163817,0.01316 a 1.3367685,1.3955788 0 0 0 -0.151211,0.01315 l -0.176416,0.02631 c -0.134412,0.01754 -0.218946,0.01754 -0.252023,0 q -0.05251,-0.01315 -0.08821,-0.1184 a 0.19111694,0.19952502 0 0 1 -0.01259,-0.157866 0.11078482,0.11565873 0 0 1 0.07561,-0.07894 l 0.05251,-0.02631 0.05251,-0.01316 a 0.0992338,0.10359953 0 0 0 0.0378,-0.01315 l 0.07561,-0.01315 a 0.30715222,0.3206652 0 0 0 0.113411,-0.02631 c 0.0084,-0.0088 0.0084,-0.08332 0,-0.224193 v -0.315729 q 0,-0.618308 0.02522,-1.869177 0.02522,-1.250867 0.02522,-1.842317 0,-0.921432 0.02522,-2.38224 0.02522,-1.447653 0.02522,-2.145443 v -0.09264 l 0.01259,-0.09209 a 0.37068286,0.38699083 0 0 0 -0.01259,-0.131556 q -0.01259,-0.02631 -0.100808,-0.02631 l -0.063,-0.0126 -0.07561,-0.02686 a 0.61062912,0.63749338 0 0 1 -0.08821,-0.07894 c -0.03359,-0.0433 -0.04673,-0.074 -0.0378,-0.09209 0.0084,-0.04385 0.08348,-0.07894 0.226818,-0.105244 a 1.7667816,1.8445101 0 0 0 0.189015,-0.01315 l 0.08821,-0.01315 h 0.07351 q 0.75659,-0.07894 1.071619,0.05481 c 0.126537,0.05481 0.20582,0.118401 0.239944,0.197334 0.03412,0.07894 -0.04253,0.109629 -0.227342,0.09209 q 0.341277,1.461356 0.794394,3.77782 l 0.367534,1.921798 0.375405,1.906452 q 0.189019,-1.55235 0.577554,-3.55363 l 0.34023,-1.723917 0.17694,-0.868811 0.176415,-0.881967 0.01259,-0.05481 0.01259,-0.06578 0.0378,-0.14471 c 0.02518,-0.123333 0.03359,-0.188563 0.02518,-0.197881 a 0.26777373,0.27955428 0 0 0 -0.113411,-0.0126 h -0.126007 l -0.06301,-0.06632 a 0.26829877,0.28010241 0 0 1 -0.03781,-0.09209 q -0.01259,-0.171021 0.277224,-0.223643 a 1.1446014,1.1949575 0 0 1 0.25202,-0.03946 l 0.126013,-0.01315 0.114459,-0.0093 0.718263,-0.131554 a 0.35073109,0.3661613 0 0 1 0.23942,0.07894 q 0.126014,0.105244 0.08821,0.223644 a 0.0913581,0.09537735 0 0 1 -0.113411,0.06578 h -0.06301 a 0.07613175,0.07948112 0 0 0 -0.05251,0.01315 q -0.01259,0.01315 0.01259,0.105244 l 0.01259,0.09263 v 0.07838 q 0.0378,0.790426 -0.05251,2.119131 l -0.0546,1.064499 q -0.02522,0.60296 -0.02522,1.07875 v 1.671845 q 0,0.934589 0.01259,1.63183 0.01259,0.185273 0,0.539923 c -0.0084,0.245569 -0.01259,0.430294 -0.01259,0.552531 l 0.0378,0.223644 0.0378,0.06578 0.063,0.05481 a 0.26252328,0.27407284 0 0 1 0.07561,0.131554 q -0.05251,0.131555 -0.07561,0.14471 a 0.20214291,0.21103607 0 0 1 -0.163813,0.01315 L 21.18209,47.57086 21.09388,47.55771 a 1.354095,1.4136676 0 0 0 -0.262523,0 q -0.113411,0 -0.302953,0.01315 a 1.3414939,1.4005121 0 0 0 -0.138612,0.01315 l -0.151215,0.02631 q -0.189015,0.01315 -0.239417,-0.01315 -0.06406,-0.03946 -0.07561,-0.274073 0.0378,-0.07894 0.226822,-0.105244 0.100809,-0.01315 0.100809,-0.237348 0.01259,-0.315731 0.01259,-0.789328 l -0.01259,-0.368903 v -0.355196 q 0.02522,-1.012975 0,-2.922165 v -1.490955 q -0.01259,-0.855108 0,-1.526586 z m -3.150281,-0.49991 0.01259,-0.01315 q -0.06301,-0.32889 -0.100808,-0.605703 -0.06301,-0.383703 -0.100809,-0.657776 l -0.01259,-0.105244 -0.01259,-0.09263 a 0.51349549,0.53608642 0 0 0 -0.0378,-0.157865 c -0.0525,-0.09592 -0.147539,-0.126622 -0.290351,-0.09209 l 0.139136,0.408368 0.151215,0.420976 q 0.151214,0.486754 0.252023,0.868811 z m 0.59278,1.329254 -0.08978,-0.499909 -0.101333,-0.500457 a 4.3269084,4.5172682 0 0 0 -0.277224,-0.881967 l 0.302426,1.699253 q 0.189542,1.013521 0.328154,1.684451 0.367534,1.922347 0.768669,3.237896 -0.541847,-2.501189 -0.932482,-4.739267 z m 0.869477,6.094284 0.07561,-0.01371 h 0.07561 q -0.403238,-1.381327 -0.66786,-2.357026 0.0525,0.501004 0.176416,1.197698 l 0.113408,0.592546 0.100812,0.57939 a 0.30557708,0.31902076 0 0 0 0.124434,0.0011 z m 2.506047,-5.568064 -0.02522,-0.999818 q -0.0378,-1.224009 -0.01312,-2.013887 v -0.06578 l 0.01312,-0.07894 v -0.157866 c 0.0079,-0.140325 0,-0.224192 -0.02522,-0.250502 q 0,-0.0126 -0.02522,0 l -0.0378,0.01315 a 8.4311974,8.8021229 0 0 0 -0.01312,1.092455 c 0.0084,0.157865 0.01312,0.338206 0.01312,0.539923 l -0.01312,0.539375 0.01312,1.092454 0.02522,1.079298 q 0.0378,1.31555 -0.01259,2.158599 l -0.01259,0.657775 -0.01312,0.657774 q -0.01259,0.829893 -0.03728,1.250869 a 0.33918006,0.35410208 0 0 1 0.163817,-0.01371 l 0.0756,0.01371 h 0.07561 l -0.03623,-1.091907 -0.0378,-1.105609 q -0.0378,-1.249773 -0.06301,-2.32962 0,-0.395212 -0.01418,-0.987757 z"
       class="cls-9" />
  </g>
</svg>
