<svg id="Слой_1" data-name="Слой 1" xmlns="http://www.w3.org/2000/svg" viewBox="0 0 1080 1080"><defs><style>.cls-1,.cls-4{fill:#fff;}.cls-1{stroke:#333;}.cls-1,.cls-2,.cls-3,.cls-4{stroke-miterlimit:10;}.cls-1,.cls-3,.cls-4{fill-rule:evenodd;}.cls-2,.cls-3{fill:none;}.cls-2,.cls-3,.cls-4{stroke:#000;}.cls-5{opacity:0.8;}.cls-6{fill:#de4746;}.cls-6,.cls-7,.cls-8{opacity:0.4;}.cls-7{fill:#edd7a3;}.cls-8{fill:#9ca93a;}.cls-9{fill:#333;}</style></defs><title>Дубровской5</title><path class="cls-1" d="M729,755c3.9.7,7.86,1.37,12,2,7.27,1.12,14.95,2.17,23.42,3.56,11.14,1.82,42.73,1.2,42.73,1.2,7.31-.21,14.65-.53,22-1.28,13.43-1.36,26.64-4.12,38.88-10.23,5.83-2.91,11.62-6,16.58-10.33a43.24,43.24,0,0,0,4.53-4.55,14.19,14.19,0,0,1-1.14,3.7c-3.33,5.56-8.79,9.43-14.33,12.59-14.44,8.23-27,12.65-43.15,15.71h0c-13.31,2.56-38.84,3.77-50.28,2.78l-37.26-3.82c-.67-.09-1.43-.18-2.25-.32-3.34-.45-7.85-1.14-11.87-1.89"/><path class="cls-1" d="M729,755c-14.52-2.69-28.2-6.45-44.3-14.48a29.55,29.55,0,0,1-6.13-3.77,9,9,0,0,0,.33,1.87c4.56,5.49,8.92,10.24,15.08,13.58a121.25,121.25,0,0,0,27.77,10.51c1.78.45,4.29.94,7,1.41"/><path class="cls-1" d="M902.44,394c-10.24,1.83-18.67,3.12-27.27,4.12-10.07,1.12-20.32,1.8-33.92,2.55-15.68.86-38.15.08-55.09.59-16.57.45-29.31.46-44.84-.29-6-.29-12.5-.69-19.69-1.25-20.62-1.53-41-4.82-61.52-7.57,0,0-17.34-1.56-30.34-5.85.15.71.3,1.45.41,2.13,2.44,13.68,3.6,27.59,5.15,41.4q3.17,28.27,6.17,56.58c8,69.44,12.46,151,27.67,223.4q1.55,7.35,3.27,14.61c.82,3.53,1.79,7.21,3.94,10.07a11.34,11.34,0,0,0,1.09,1.2v0a10.56,10.56,0,0,0,1.11,1,29.55,29.55,0,0,0,6.13,3.77c16.1,8,29.78,11.78,44.3,14.48,3.9.7,7.86,1.37,12,2,7.27,1.12,14.95,2.17,23.42,3.56,11.14,1.82,42.73,1.2,42.73,1.2,7.31-.21,14.65-.53,22-1.28,13.43-1.36,26.64-4.12,38.88-10.23,5.83-2.91,11.62-6,16.58-10.33a43.24,43.24,0,0,0,4.53-4.55c12.63-14.63,16.09-36.61,18.59-56.79,7.59-61.34,13-110,19.53-171.46.73-6.55,1.46-13.07,2.22-19.62,2.1-18.82,4.35-37.66,6.6-56.5,1.64-13.81,2.94-27.7,5.46-41.37.44-2.35,1.13-4.9,1.59-7.4C928.32,388.62,905,393.59,902.44,394Z"/><path class="cls-1" d="M943.48,379.54c-.08.88-.25,1.8-.41,2.71C928.32,388.62,905,393.59,902.45,394c-10.25,1.83-18.68,3.12-27.28,4.12-10.06,1.12-20.31,1.8-33.92,2.55-15.67.86-38.15.08-55.08.59-16.58.45-29.32.46-44.85-.29-6-.28-12.49-.69-19.69-1.24-20.61-1.54-41-4.83-61.51-7.58,0,0-17.35-1.56-30.34-5.85a62,62,0,0,1-1.5-8c9.67,5.43,30.43,9.84,58,12.91,18.07,2,39,3.43,61.68,4.17,10.82.38,22,.58,33.49.6l2.71,0,4.89,0h1.18c11.48.06,22.68,0,33.5-.36,22.66-.55,43.65-1.81,61.77-3.68C913,389.15,933.76,384.9,943.48,379.54Z"/><line class="cls-2" x1="695.72" y1="344.53" x2="695.74" y2="344.53"/><path class="cls-3" d="M761.87,395.5c8.21.29,16.64.47,25.23.53"/><path class="cls-3" d="M713.85,392.28h0"/><path class="cls-1" d="M628.27,378.32c9.68,5.43,30.44,9.84,58,12.91,18.08,2,39,3.42,61.68,4.17,10.84.37,22,.56,33.51.61l8.77,0c11.47,0,22.67-.06,33.51-.35,22.65-.57,43.65-1.84,61.74-3.69,27.52-2.86,48.31-7.11,58-12.47,4.26-2.36,6.4-4.94,6-7.7-2.07-15.66-32.12-24.62-77.42-29l-1-.08c-8.23-.79-25.95-1.93-39.71-2l-104.25-.4h0c-9.12.42-17.83,1-26.07,1.72l-1,.08c-45.33,4.05-75.45,12.78-77.64,28.42C621.93,373.33,624,375.92,628.27,378.32Z"/><path class="cls-3" d="M787.1,396c7.7,0,15.25-.15,22.64-.35"/><path class="cls-3" d="M915.73,308.78c0,7.5-28.2,13.82-69.22,16.73-16.88,1.2-36,1.82-56.13,1.7-68.15-.41-123.55-9-125.09-19.47,0-.14,0-.3,0-.45.08-10.58,56.19-18.84,125.37-18.43,68,.4,123.32,9.05,125.06,19.41A2.15,2.15,0,0,1,915.73,308.78Z"/><path class="cls-4" d="M945.67,349a6.75,6.75,0,0,1-1.55,4c-6.9,9.21-36.85,16.87-78.46,20.9A723.41,723.41,0,0,1,793,377c-3.72,0-7.42-.07-11.07-.15l0,0c-66.35-1.33-120.13-13.29-135.63-20.43,0,0-3.76-2.07-4.7-3.37-1.37-1.95-1.93-3.58-1.34-5.63a0,0,0,0,1,0,0,16,16,0,0,1,.85-2.31c1.7-4.3,8.29-8.28,18.74-11.78,1.39-7.55,2.72-15.16,3.9-22.77a4.51,4.51,0,0,1,.62-2,3,3,0,0,1,.91-.85c1.54,10.42,56.94,19.06,125.09,19.47,20.17.12,39.25-.5,56.13-1.7,41-2.91,69.18-9.23,69.22-16.73a2.15,2.15,0,0,0,0-.51.6.6,0,0,1,.11.21,56,56,0,0,1,5.38,17.92c.3,2.3.44,4.63.6,7,10.78,3.26,18.31,6.92,21.75,10.85A7.34,7.34,0,0,1,945.67,349Z"/><path class="cls-3" d="M655,351.56c1.7-2.46,2.35-5.45,2.93-8.39.66-3.27,1.28-6.55,1.9-9.82"/><path class="cls-3" d="M925.56,351.18c-3-5.38-3.36-11.6-3.78-17.83"/><path class="cls-4" d="M947.83,355.17a18.13,18.13,0,0,1-5.56,10c-4.09,3.83-9.42,6-14.69,7.93a239,239,0,0,1-57.08,13.14c-6.37.67-12.77,1.08-19.16,1.23-6.81.18-13.62,0-20.45,0q-16.08-.33-32.17-.61-38.52-.71-77-1.39c-11-.21-22.19-.43-32.9-3.07-7.27-1.82-14.26-4.72-21.57-6.37-4.87-1.1-9.89-1.62-14.72-2.83,0,0-21.8-.66-18.38-14.7a19.72,19.72,0,0,1,1.86-4.71,29.8,29.8,0,0,1,4.27-6.27c-.6,2.05,0,3.68,1.34,5.63.93,1.3,4.7,3.37,4.7,3.37,15.5,7.14,69.28,19.1,135.63,20.43l0,0c3.64.08,7.34.11,11.06.15a723.28,723.28,0,0,0,72.65-3c41.62-4,71.57-11.69,78.47-20.9a6.68,6.68,0,0,0,1.54-4,7.34,7.34,0,0,0-2.14-4.84,10.56,10.56,0,0,1,4.08,5.86A11.94,11.94,0,0,1,947.83,355.17Z"/><path class="cls-3" d="M781.92,376.89c-2.07,0-4.14-.08-6.19-.14"/><path class="cls-4" d="M955.15,373.82a13.73,13.73,0,0,1-4.91,4.72,49.94,49.94,0,0,1-7.17,3.71C928.32,388.62,905,393.59,902.45,394c-10.25,1.83-18.68,3.12-27.28,4.12-10.06,1.12-20.31,1.8-33.92,2.55-15.67.86-38.15.08-55.08.59-16.58.45-29.32.46-44.85-.29-6-.28-12.49-.69-19.69-1.24-20.61-1.54-41-4.83-61.51-7.58,0,0-17.35-1.56-30.34-5.85a39.54,39.54,0,0,1-9.55-4.36c-9-6.14-2-18.58,9.55-22.47a21.54,21.54,0,0,1,4.33-1c-3.42,14,18.39,14.69,18.39,14.69,4.84,1.2,9.84,1.72,14.74,2.83,7.28,1.63,14.28,4.54,21.55,6.35,10.7,2.65,21.86,2.88,32.9,3.09q38.5.65,77,1.38,16.11.27,32.17.63c6.82.07,13.65.21,20.46,0,6.38-.16,12.78-.56,19.16-1.23a240.42,240.42,0,0,0,57.06-13.15c5.28-1.93,10.6-4.08,14.7-7.93a22,22,0,0,0,2.21-2.43,17.13,17.13,0,0,0,3.35-7.55,20.56,20.56,0,0,1,6.8,7.86C956.25,366.39,956.89,370.52,955.15,373.82Z"/><g class="cls-5"><path class="cls-6" d="M287.43,576.39c-2.31,1.49-4.67,3-7,4.79-8,6.09-16.2,11.22-25.71,14.63-18.4,6.59-39.4,6.89-57.2-1.75-7.45-3.61-14.36-8.78-18.75-15.81-6.32-10.12-6.74-22.75-10.87-34-6-16.31-20.1-30.34-19.6-47.73.48-16.2,13.84-29.23,28.19-36.76a99.82,99.82,0,0,1,39.7-11.19,84.07,84.07,0,0,1,22.6,1.53c8.92,1.88,16.77,4.75,26.14,4.5,15.76-.42,29-10.67,44.54-3.1,8.92,4.34,15.75,12.05,21.42,20.18,4.54,6.51,8.58,13.67,9.54,21.55,1.85,15.17-7.85,29.07-17.05,41.27l-23.7,31.39C296.08,570.69,291.85,573.52,287.43,576.39Z"/><path class="cls-7" d="M396.6,587.1c-8.19,22-27,38.81-47.91,49.53-7.54,3.87-15.6,7.11-24.05,7.57-8.08.43-16-1.68-24-2.84-7.35-1.06-14.8-1.31-22.15-2.2-2.74-.33-5.47-.75-8.17-1.33-10-2.14-19.94-6.94-25.28-15.61-6.74-10.93-4.46-25.26.73-37,3.92-8.86,9.34-17,13.68-25.67a85,85,0,0,0,3.79-8.64c4.08-11,5.19-23.09,9-34.16a52.67,52.67,0,0,1,5.37-11.34c6-9.42,13.94-14.06,23.12-19.75,16.53-10.26,36-14.87,53.59-8.55a50,50,0,0,1,16.05,9.51c7.16,6.22,12.54,14.23,17,22.58C400.15,533,406,561.83,396.6,587.1Z"/><path class="cls-8" d="M412.13,447.07c2.86,21.39-2.24,43.9-16.2,60.17-7.11,8.27-16,14.76-24.9,21.11-6.17,4.42-12.63,8.94-20.1,10.26-11.32,2-22.89-3.65-34.27-2-6.41.92-12.49,4.14-19,3.88-8.91-.35-16.13-7.1-22-13.77-5.45-6.16-10.66-12.8-13.22-20.6-3.89-11.83,2.65-22.4,2.87-34.21.26-14.08,1.85-28.1,2.64-42.15.81-14.38,5.9-28.62,21.08-33.44,13.33-4.25,28.4,1,41.56-3.74,5.14-1.85,9.69-5.15,14.9-6.82,8.36-2.65,17.56-.76,25.61,2.73C394.64,398.69,408.8,422.11,412.13,447.07Z"/></g><path class="cls-9" d="M229.17,656.89c-.86,0-1.94-.08-3.25-.18l-.25,0-.22,0a.57.57,0,0,0-.28,0s-.07.18-.07.46l0,.4v.32c0,1.81,0,4.55.07,8.22a7,7,0,0,1,1.18,0l.61,0h.68l.18,0,.21,0a.7.7,0,0,0,.29,0,.53.53,0,0,0,.11-.25v-.36c0-.33.06-.54.18-.61a.61.61,0,0,1,.43,0c.19.07.29.16.32.25s0,.12,0,.29l0,.25,0,.28a6.1,6.1,0,0,1-.07.9c0,.09,0,.26,0,.5v.54c0,.47,0,.76-.1.85s-.18.07-.4.07a.52.52,0,0,1-.43-.14,1.4,1.4,0,0,1,0-.86l0-.21v-.22a.47.47,0,0,0,0-.35,16.67,16.67,0,0,1-2.29,0l-.18,0-.25,0c-.19,0-.3,0-.32,0s-.11.23-.11.64v.43a1.59,1.59,0,0,1,0,.28q.08,2.48,0,6.76l0,1.76v1.71c0,1.36,0,2.46,0,3.29h.25l.22-.07a.68.68,0,0,1,.43.07.56.56,0,0,1,.17.32.7.7,0,0,1,0,.36c-.07.1-.38.14-.93.14h-.67l-.58,0a11,11,0,0,0-1.14,0h-.64a2.59,2.59,0,0,1-.51,0,.53.53,0,0,1-.17-.29c0-.12,0-.2,0-.25s.14-.09.36-.14c0,0,.09,0,.21,0l.22,0a1.58,1.58,0,0,0,.07-.68l0-.5v-.4c0-.57,0-1.36-.07-2.36s-.07-1.77-.07-2.25v-6.26q0-3.65.14-6.26c0-.88,0-1.63,0-2.25,0-.91,0-1.69,0-2.36v-.43l0-.46a1.56,1.56,0,0,0,0-.68s-.08,0-.18-.07l-.21-.11c-.22-.07-.29-.19-.22-.36s.22-.17.57-.21h.83a32.92,32.92,0,0,1,4.07,0l1,.07,1.07,0q1.22,0,2.22,0h.29l.28,0h.4l0,0,.07-.07.07-.08a.56.56,0,0,1,.33,0,.44.44,0,0,1,.25.29,1.35,1.35,0,0,1,0,.57l-.11.36-.07.35c0,.1,0,.27,0,.5v.75l0,.15,0,.32c0,.26,0,.43,0,.5a.62.62,0,0,1-.29,0l-.18,0-.14,0a1.49,1.49,0,0,1-.21-.78l0-.54,0-.21v-.75a1.36,1.36,0,0,0,0-.5C231.45,657,230.39,656.94,229.17,656.89Zm-5.5.82v-.46c0-.38-.06-.59-.11-.61s-.17,0-.22,0l0,.07v.07a10.75,10.75,0,0,0,0,1.4l0,.75,0,.78c0,1.17,0,2.67,0,4.51l0,2.25v2.11l.07-1.25.07-1.29q.1-1.53.15-2.61c.09-2,.1-3.81,0-5.36A3.58,3.58,0,0,0,223.67,657.71Zm0,21.67a4.33,4.33,0,0,0-.11-.78v.46l0,.43a1.94,1.94,0,0,0,.15.82Zm.21-11a35.31,35.31,0,0,0,0,8.4Z"/><path class="cls-9" d="M241.9,655.85l.18.11.18.11.32.07.32,0a4.47,4.47,0,0,1,2.72,2.51,18.75,18.75,0,0,1,.79,2q.32,1.11.57,2.07a39.76,39.76,0,0,1,.64,4.11v.36c0,.14,0,.23,0,.25s.11.11.25.18l.18.07.14.11a1.11,1.11,0,0,1,.29.53.78.78,0,0,1-.4.58l-.14.1-.14.08a.4.4,0,0,0-.18.25,1.71,1.71,0,0,0,0,.46v.47l-.21,2.61-.11.89-.07.82c-.1.67-.19,1.22-.29,1.65a11.24,11.24,0,0,1-1.78,3.86,10.45,10.45,0,0,1-1.22,1.39,4.88,4.88,0,0,1-1.68,1,4.41,4.41,0,0,1-2.11,0,3.69,3.69,0,0,1-2.47-1.68,10.81,10.81,0,0,1-1.14-2.5,23.92,23.92,0,0,1-1.4-9.52,37.07,37.07,0,0,1,.72-6.61,11.48,11.48,0,0,1,2.18-5,4,4,0,0,1,2.68-1.47A2.42,2.42,0,0,1,241.9,655.85ZM236.11,672a21.92,21.92,0,0,0,.32,2.28,14.32,14.32,0,0,0,1.07,4c-.36-1.57-.63-3-.82-4.18a39.13,39.13,0,0,1-.54-4.54s0,0,0,0A14.15,14.15,0,0,0,236.11,672Zm1.25-7.51a23.29,23.29,0,0,0-.22,6.11,54.74,54.74,0,0,0,.86,5.79A80.58,80.58,0,0,1,237.36,664.51Zm1,15.91a1.37,1.37,0,0,0,.5.57,2.23,2.23,0,0,1-.43-.61l-.18-.35-.21-.36A4.07,4.07,0,0,0,238.4,680.42Zm.53-20.63a47.38,47.38,0,0,0-.28,12c.14,1.91.28,3.36.43,4.36A15.91,15.91,0,0,0,240,680a5.54,5.54,0,0,0,.53,1.11c.31.47.59.72.82.75a1.47,1.47,0,0,0,.61-.08l.29-.1.29-.11a4.52,4.52,0,0,0,.67-.43c.19-.17.37-.33.54-.5q2.76-2.82,3-11a6.73,6.73,0,0,1-3.71-.75,6.26,6.26,0,0,1-2.58-2.25A9.93,9.93,0,0,1,238.93,659.79Zm2.51-2.76a4.34,4.34,0,0,0-1.26,2.15,6.74,6.74,0,0,0-.1,3A11.93,11.93,0,0,1,241.44,657Zm0,3.08a10.35,10.35,0,0,0,.4,5.54l.25.64.21.61a2.62,2.62,0,0,0,.61.93,4.44,4.44,0,0,0,1.18.79,3,3,0,0,0,1.43.43,2.22,2.22,0,0,0,.71-.14c.29-.12.46-.24.5-.36a2.65,2.65,0,0,0,0-.72l0-.46,0-.47c-.21-1.57-.47-3.08-.78-4.54a12.7,12.7,0,0,0-2.08-4.93,1.18,1.18,0,0,0-.21-.18l-.25-.25c-.22-.19-.37-.28-.47-.25s0,0,0,.07A5.58,5.58,0,0,0,241.47,660.11Z"/><path class="cls-9" d="M258.6,655.85l.18.11.18.11.32.07.32,0a4.47,4.47,0,0,1,2.72,2.51,18.75,18.75,0,0,1,.79,2q.31,1.11.57,2.07c.28,1.38.5,2.75.64,4.11v.36c0,.14,0,.23,0,.25s.1.11.25.18l.18.07.14.11a1.11,1.11,0,0,1,.29.53.78.78,0,0,1-.4.58l-.14.1-.14.08a.4.4,0,0,0-.18.25,1.71,1.71,0,0,0,0,.46v.47l-.21,2.61-.11.89-.07.82c-.1.67-.19,1.22-.29,1.65a11.06,11.06,0,0,1-1.79,3.86,9.73,9.73,0,0,1-1.21,1.39,4.88,4.88,0,0,1-1.68,1,4.41,4.41,0,0,1-2.11,0,3.69,3.69,0,0,1-2.47-1.68,10.4,10.4,0,0,1-1.14-2.5,23.74,23.74,0,0,1-1.4-9.52,36.14,36.14,0,0,1,.72-6.61,11.48,11.48,0,0,1,2.18-5,4,4,0,0,1,2.68-1.47A2.42,2.42,0,0,1,258.6,655.85ZM252.81,672a19.51,19.51,0,0,0,.32,2.28,14.32,14.32,0,0,0,1.07,4c-.36-1.57-.63-3-.82-4.18a37.07,37.07,0,0,1-.54-4.54s0,0,0,0A14.15,14.15,0,0,0,252.81,672Zm1.25-7.51a22.87,22.87,0,0,0-.22,6.11,54.74,54.74,0,0,0,.86,5.79A80.58,80.58,0,0,1,254.06,664.51Zm1,15.91a1.37,1.37,0,0,0,.5.57,2.23,2.23,0,0,1-.43-.61L255,680l-.22-.36A4.76,4.76,0,0,0,255.1,680.42Zm.53-20.63a46.92,46.92,0,0,0-.28,12c.14,1.91.28,3.36.42,4.36a16.9,16.9,0,0,0,.93,3.87,5.62,5.62,0,0,0,.54,1.11c.31.47.58.72.82.75a1.47,1.47,0,0,0,.61-.08l.29-.1.28-.11a4.54,4.54,0,0,0,.68-.43c.19-.17.37-.33.54-.5,1.83-1.88,2.84-5.54,3-11a6.79,6.79,0,0,1-3.72-.75,6.3,6.3,0,0,1-2.57-2.25A9.93,9.93,0,0,1,255.63,659.79Zm2.5-2.76a4.41,4.41,0,0,0-1.25,2.15,6.6,6.6,0,0,0-.1,3A12.06,12.06,0,0,1,258.13,657Zm0,3.08a10.35,10.35,0,0,0,.39,5.54l.25.64.22.61a2.62,2.62,0,0,0,.61.93,4.44,4.44,0,0,0,1.18.79,3,3,0,0,0,1.43.43,2.22,2.22,0,0,0,.71-.14c.29-.12.46-.24.5-.36a2.65,2.65,0,0,0,0-.72l0-.46,0-.47c-.21-1.57-.48-3.08-.79-4.54a12.72,12.72,0,0,0-2.07-4.93,1.18,1.18,0,0,0-.21-.18l-.25-.25c-.22-.19-.37-.28-.47-.25s0,0,0,.07A5.58,5.58,0,0,0,258.17,660.11Z"/><path class="cls-9" d="M270.72,656l.82.07.79.07a7.5,7.5,0,0,1,4.72,1.86,9.87,9.87,0,0,1,2.47,4.22,18,18,0,0,1,.64,6.15,49.89,49.89,0,0,1-.68,6.33c-.57,3.31-1.79,5.52-3.64,6.61a7.8,7.8,0,0,1-2.29.83,22.15,22.15,0,0,1-4.37.35l-.39,0h-.39q-.47,0-.54-.18v-.25a.32.32,0,0,1,.18-.25l.18,0,.18,0c.14,0,.23,0,.28,0a2.5,2.5,0,0,0,0-.71v-.82q0-.93,0-2.43l0-1.18v-1.18c0-2.58,0-4.63.07-6.16,0-.71,0-1.51,0-2.39v-2.33c0-1.93,0-3.49.07-4.68,0-.14,0-.39,0-.75v-1.25l0-.5a1.66,1.66,0,0,0,0-.61c-.05-.07-.2-.1-.46-.07l-.29,0a.51.51,0,0,1-.21-.1.3.3,0,0,1,0-.4.56.56,0,0,1,.36-.18l.54-.07.43,0A7,7,0,0,1,270.72,656ZM270,674v-5.26a89.37,89.37,0,0,0,0,10.62C270,677.88,270,676.09,270,674Zm0-13.09v-.64a8.64,8.64,0,0,0-.11-1.11,9.16,9.16,0,0,0,.14,2.36Zm.53-2.18,0-.4,0-.42c0-.67,0-1-.08-1.11s-.06,0-.1,0l0,.64v.68a7.5,7.5,0,0,0,.15,1.25A2,2,0,0,1,270.61,658.68Zm0,22v.14c0,.14,0,.26-.07.36,0,.35,0,.53.11.53s.14-.08.14-.32v-2.29c0-.64,0-1.14,0-1.5l0,.75v.72c0,.57-.05,1.07-.07,1.5Zm.25-15.42,0,2.11,0,2.15c0,1.69,0,3.12,0,4.29Q271,668.88,270.9,665.29Zm0-1.5a6.68,6.68,0,0,0,0-1v.53l0,.54a4.33,4.33,0,0,0,.07,1Zm4.72,16,.25-.5.25-.54a12.78,12.78,0,0,0,.54-2.47,78.69,78.69,0,0,0,.53-11.37l-.07-1.47c0-.54-.05-1-.07-1.43a9.2,9.2,0,0,0-.5-2.46,4,4,0,0,0-2.32-2.36,5.19,5.19,0,0,0-1.47-.25l-.43-.08-.39,0c-.29,0-.43,0-.43.14,0,.64,0,1.65.11,3s.07,2.38.07,3.07,0,1.69,0,3.08,0,2.43,0,3.14q0,7.37-.18,12.34c1.72-.07,2.87-.39,3.47-1A3.28,3.28,0,0,0,275.62,679.78Zm2.32-13.59a41.53,41.53,0,0,1-.1,4.43l-.15,2.15c0,.81-.07,1.51-.07,2.11A33.13,33.13,0,0,0,277.94,666.19Zm.83,5.93-.25,2c-.1.83-.17,1.47-.22,1.93l.15-.93.14-1c.09-.79.18-1.48.25-2.08.19-1.64.31-3.09.36-4.32.12-3.37-.33-5.89-1.33-7.59A47.63,47.63,0,0,1,279,668,31.77,31.77,0,0,1,278.77,672.12Z"/><path class="cls-9" d="M294.79,656l.82.07.79.07a7.55,7.55,0,0,1,4.72,1.86,10,10,0,0,1,2.46,4.22,18,18,0,0,1,.65,6.15,51.81,51.81,0,0,1-.68,6.33c-.57,3.31-1.79,5.52-3.65,6.61a7.61,7.61,0,0,1-2.29.83,22,22,0,0,1-4.36.35l-.39,0h-.4c-.31,0-.49-.06-.53-.18v-.25a.32.32,0,0,1,.18-.25l.17,0,.18,0c.15,0,.24,0,.29,0a3.52,3.52,0,0,0,0-.71v-.82q0-.93,0-2.43l0-1.18v-1.18q0-3.87.07-6.16c0-.71,0-1.51,0-2.39v-2.33c0-1.93,0-3.49.07-4.68q0-.21,0-.75v-1.25l0-.5a2.47,2.47,0,0,0,0-.61c-.05-.07-.2-.1-.47-.07l-.28,0a.5.5,0,0,1-.22-.1.29.29,0,0,1,0-.4.56.56,0,0,1,.36-.18l.53-.07.43,0A7.1,7.1,0,0,1,294.79,656Zm-.68,18v-5.26a85.32,85.32,0,0,0,0,10.62C294.08,677.88,294.08,676.09,294.11,674Zm0-13.09v-.64a9.08,9.08,0,0,0-.1-1.11,9.16,9.16,0,0,0,.14,2.36Zm.54-2.18,0-.4,0-.42c.05-.67,0-1-.07-1.11s-.06,0-.11,0l0,.64v.68a7.63,7.63,0,0,0,.14,1.25A2.09,2.09,0,0,1,294.68,658.68Zm0,22v.14c0,.14-.05.26-.08.36,0,.35,0,.53.11.53s.14-.08.14-.32v-2.29q0-1,0-1.5l0,.75v.72c0,.57,0,1.07-.07,1.5Zm.25-15.42,0,2.11,0,2.15c0,1.69,0,3.12,0,4.29Q295.08,668.88,295,665.29Zm0-1.5a8.67,8.67,0,0,0,0-1v.53l0,.54a4.18,4.18,0,0,0,.08,1Zm4.72,16,.25-.5.25-.54a12.89,12.89,0,0,0,.53-2.47,77.41,77.41,0,0,0,.54-11.37l-.07-1.47c0-.54-.05-1-.07-1.43a10.06,10.06,0,0,0-.5-2.46,4,4,0,0,0-2.33-2.36,5.18,5.18,0,0,0-1.46-.25l-.43-.08-.4,0c-.28,0-.43,0-.43.14,0,.64,0,1.65.11,3s.07,2.38.07,3.07,0,1.69,0,3.08,0,2.43,0,3.14q0,7.37-.17,12.34c1.71-.07,2.87-.39,3.46-1A3.27,3.27,0,0,0,299.69,679.78ZM302,666.19a41.91,41.91,0,0,1-.11,4.43l-.14,2.15c-.05.81-.07,1.51-.07,2.11A33.13,33.13,0,0,0,302,666.19Zm.82,5.93-.25,2-.21,1.93.14-.93.14-1c.1-.79.18-1.48.26-2.08.19-1.64.3-3.09.35-4.32.12-3.37-.32-5.89-1.32-7.59A48.66,48.66,0,0,1,303,668,28.58,28.58,0,0,1,302.83,672.12Z"/><path class="cls-9" d="M316.31,665.76l0-.36c0-.31,0-.49.1-.54a.4.4,0,0,1,.4,0,.73.73,0,0,1,.32.25,1,1,0,0,1,0,.51v.53a6.06,6.06,0,0,0,.08.72l0,.39,0,.36c0,.59-.06.92-.25,1a.44.44,0,0,1-.54-.18,1.37,1.37,0,0,1-.18-.57v-.57a1.41,1.41,0,0,0,0-.43.62.62,0,0,0-.29,0l-.21,0h-.18l-.5,0-.5-.07-1-.11-.14,0-.22,0a.73.73,0,0,0-.32,0c-.05,0-.07.18-.07.47s0,.5,0,.71c.05,1,.06,2.15,0,3.43l-.07,3.47q-.1,4.55,0,7l1.68,0,1.64-.08c1.39-.07,2.53-.09,3.44-.07v-.28l0-.33a4.68,4.68,0,0,1,0-.75c0-.64.13-1,.32-1.1a.56.56,0,0,1,.32-.08.39.39,0,0,1,.36.08c.05,0,.06.19,0,.42l0,.29V680a4.45,4.45,0,0,0,0,1.57l0,.11.07.14a.43.43,0,0,1,.08.33c-.05.16-.28.23-.68.21l-.22,0-.21,0-.36,0c-.72,0-1.6,0-2.65,0l-1.39.08-1.36.07-1,0h-1l-2.08.07h-.32a2.21,2.21,0,0,1-.32-.07c-.26-.07-.35-.2-.25-.39s.18-.14.39-.14h.22a.19.19,0,0,0,.18-.08.78.78,0,0,0,0-.32l0-.18a1.19,1.19,0,0,1,0-.14c0-.76,0-1.77,0-3l0-1.57,0-1.54,0-4.26,0-4.22c0-3.45,0-6.22,0-8.29a2.23,2.23,0,0,0,0-.36v-.5a2.74,2.74,0,0,0,0-.61.94.94,0,0,0-.36,0h-.25a.24.24,0,0,1-.18-.07.52.52,0,0,1-.11-.21.39.39,0,0,1,0-.29c0-.09.19-.14.5-.14h.39l.4,0,.71,0,.36,0h.32c1-.07,2.13-.09,3.54-.07h1.82l1.86,0h.36l.43,0a2.11,2.11,0,0,0,.64,0l.08-.07c0-.05,0-.07.07-.07.35,0,.55.12.57.43a4.44,4.44,0,0,1,0,.5l0,.32,0,.32a1.54,1.54,0,0,0,0,.43l0,.18v.18c0,.09-.05.14-.07.14l0,0a.15.15,0,0,0,0,.1l0,.15,0,.14a.2.2,0,0,1,0,.22.46.46,0,0,1-.43,0,.63.63,0,0,1-.32-.26,2.08,2.08,0,0,1-.11-.78,4.32,4.32,0,0,1,.07-.82v-.08l0-.14q.08-.13,0-.18s-.2-.07-.46-.07l-.29,0H319c-1.43-.07-2.9-.11-4.4-.11l-.36,0-.25,0h-.28c-.48-.05-.75,0-.83.07s-.06.13,0,.32v.25l0,.22q0,1.32,0,3.57l0,1.86c0,.72,0,1.36,0,1.93V665l0,.32c0,.34,0,.53,0,.58a1.05,1.05,0,0,0,.39,0l.25,0h.22c.38,0,.82,0,1.32.07s.79.07,1.29.14A1,1,0,0,0,316.31,665.76Zm-6-7.48,0,1.08c0,.88.08,1.58.1,2.11v.32c0,.14,0,.12,0-.07.07-1.6.15-2.94.25-4v-.57c0-.26,0-.41-.07-.43a.61.61,0,0,0-.22,0c-.12,0-.19,0-.21.07s0,.09,0,.21a.43.43,0,0,0,0,.22Zm.11,14.74c0-.65,0-1.11,0-1.4v.75l0,.79a10.43,10.43,0,0,0,.07,1.43Zm0,4.4c0-.55,0-.93,0-1.15v.61l0,.64a6.51,6.51,0,0,0,.07,1.18Zm.78-15.74c0,.24,0,.35,0,.32a8.11,8.11,0,0,0,.07-1.28l0-.65v-.61c0,.43,0,1,0,1.72A2.59,2.59,0,0,0,311.23,661.68Zm.4,6.44c0-.14,0-.17,0-.07a6.34,6.34,0,0,0-.07,1.11l0,.57v.61a58.25,58.25,0,0,0,.1,6.75c0-1.12,0-2.57,0-4.36l0-2.14Z"/><path class="cls-9" d="M330,662.72l-.11,3.15-.1,3.18c0,.81,0,1.85,0,3.11l0,1.57v1.61c0,2,0,3.63.11,4.72v.75a1.5,1.5,0,0,0,.11.65s.21.07.5.07l.32,0h.21q1,0,2.76,0l1.43,0h1.39c0-.22,0-.44,0-.68a3.73,3.73,0,0,1,0-.82c0-.65.13-1,.32-1.15a.55.55,0,0,1,.39-.11.49.49,0,0,1,.43.15.93.93,0,0,1,.11.53l0,.4v.71l0,.36a3.13,3.13,0,0,1,0,.64v.11l0,.14a.49.49,0,0,1-.07.25.25.25,0,0,1-.15.11l-.07,0,0,0a1.83,1.83,0,0,1-.67.07l-.4,0h-1.57l-1.4,0h-1.32l-1.29,0c-1,0-1.87,0-2.68.11a9.08,9.08,0,0,0-1.79.28h-.07v0l-.21,0a.26.26,0,0,1-.36-.21A.47.47,0,0,1,326,682a7.07,7.07,0,0,0,.72-.21,3.25,3.25,0,0,0,0-.68v-.72c0-.66,0-1.65,0-3l-.08-1.47v-1.5c0-.57,0-1.28,0-2.11l.07-1.11,0-1.14c.07-1.89.08-3.39,0-4.51q-.1-2.76.07-7.3c0-.09,0-.22,0-.39l0-.46a2.42,2.42,0,0,0,0-.58s-.11-.06-.25,0a1.29,1.29,0,0,0-.36.07c-.36.07-.54.1-.54.07.05-.48.14-.75.29-.82a1.43,1.43,0,0,1,.82-.11l.21,0h.22a.66.66,0,0,0,.32-.07,1.09,1.09,0,0,1,.47,0,4.54,4.54,0,0,0,.75,0h.43l.46,0c.74-.05,1.16,0,1.25.14a.66.66,0,0,1,0,.29c0,.17,0,.26,0,.29a.58.58,0,0,1-.5.07l-.36-.07a2,2,0,0,0-.35,0A38.53,38.53,0,0,1,330,662.72Zm-2.22-4.44-.07,1.94-.07,2c0,1.67-.07,3-.14,3.86,0,.41,0,.92,0,1.54l0,1.54,0,2.93.07,3q0,3.65,0,5.94c0,.43,0,.65.07.68s.31.06.36-.11v-.39l0-.22,0-.25a2.75,2.75,0,0,1,0-.39A.79.79,0,0,1,328,680a1.33,1.33,0,0,0,0-.32,10.13,10.13,0,0,0,0-1.4l0-.71,0-.72a191,191,0,0,1,.11-20.13s0,0-.07,0a3.34,3.34,0,0,0-.11.75l0,.43ZM329,672l.07-1.43.11-2.9A49,49,0,0,0,329,662l-.07,2.82-.07,2.86c0,2.24,0,4.15.07,5.73Z"/><path class="cls-9" d="M345.42,662.65l0,1.57-.07,1.61c-.05,1.36-.09,2.43-.11,3.22s0,1.89,0,3.18l0,1.57v1.61a32.73,32.73,0,0,0,.32,5.33l0,.18,0,.22c0,.16.05.25.07.25a.22.22,0,0,0,.14,0h.25a.86.86,0,0,1,.4.07.42.42,0,0,1,.14.29.52.52,0,0,1-.07.29c-.05.07-.25.1-.61.1h-.78a12.88,12.88,0,0,0-3.37.36l-.14,0-.18,0c-.14,0-.23,0-.25,0a.31.31,0,0,1-.07-.36.69.69,0,0,1,.21-.32l.18-.07.22,0c.19,0,.3,0,.32-.1a.47.47,0,0,0,0-.25l0-.22v-3.43c0-1.53,0-2.67,0-3.43s0-1.61.07-2.9.07-2.28.07-3v-.75l0-.75q0-.93,0-1.5c-.07-1.81-.05-4.25.07-7.3a3.61,3.61,0,0,1,0-.39l0-.47a2.24,2.24,0,0,0,0-.57s-.12,0-.29,0l-.21,0h-.18c-.29,0-.43-.11-.43-.32s.16-.37.47-.47a5.48,5.48,0,0,1,1.5-.11h1.5l.43,0h.54c.42,0,.67.05.75.14a.47.47,0,0,1,.07.29.43.43,0,0,1-.07.28c-.08.08-.24.1-.5.08l-.36-.08a2.2,2.2,0,0,0-.36,0A36.91,36.91,0,0,1,345.42,662.65Zm-2.22-4.44-.07,2-.07,1.93c0,1.67-.08,3-.15,3.86,0,.41,0,.92,0,1.54l0,1.54,0,2.93.07,3q0,3.64,0,5.93c0,.43,0,.66.08.68s.3.06.35-.1v-.4l0-.21,0-.22q0-.28,0-.42a.75.75,0,0,1,.07-.29,2,2,0,0,0,0-.32,9.89,9.89,0,0,0,0-1.4l0-.71,0-.72a191.27,191.27,0,0,1,.1-20.13s0,0-.07,0a4.36,4.36,0,0,0-.11.75l0,.43Zm1.14,13.7.07-1.43.11-2.9a44.83,44.83,0,0,0-.18-5.68l-.07,2.86,0,2.86c-.05,2.21,0,4.11,0,5.68Z"/><path class="cls-9" d="M355.93,668.08l.39,2.79.39,2.83c.31,2.17.6,4,.86,5.54l.4-2.86.35-2.9q.46-3.68.83-5.79,1.07-6.36,1.86-9.62c0-.07,0-.18.07-.32l.14-.43a1.74,1.74,0,0,0,.11-.54s-.18-.07-.47-.07l-.28,0a.41.41,0,0,1-.22,0,.5.5,0,0,1-.11-.22.84.84,0,0,1,0-.32c.08-.21.42-.33,1-.35a4.77,4.77,0,0,1,.75,0h.68l.29,0h.32c.24,0,.39.06.46.18a.73.73,0,0,1,.08.29.62.62,0,0,1,0,.28c-.08.15-.35.21-.83.18h-.53a.71.71,0,0,0-.43.11c-.05,0-.11.25-.18.68a4.68,4.68,0,0,1-.11.5v.18l0,.14Q360,667,358.32,679.92c0,.09,0,.24,0,.43l-.11.5a2.69,2.69,0,0,0,0,.68c.05.07.27.11.65.11a1,1,0,0,1,.43,0,.44.44,0,0,1,.32.1.42.42,0,0,1,.07.15l.07.18a.45.45,0,0,1-.07.39,1.17,1.17,0,0,1-.57.07,4.67,4.67,0,0,1-.75,0,38.15,38.15,0,0,0-3.9,0l-.22,0-.25.07a.88.88,0,0,1-.39,0c-.09-.05-.14-.17-.14-.36a.82.82,0,0,1,.07-.39q.1-.15.54-.18h.32c.09,0,.15,0,.18-.07s0-.09,0-.18l-.07-.14,0-.18a.22.22,0,0,1,.08-.15.7.7,0,0,0,0-.14,2.94,2.94,0,0,0-.11-.68l-.1-.36-.11-.39c-.33-1.91-.57-3.38-.72-4.43l-.17-1.51-.18-1.53c-.15-1.24-.28-2.28-.4-3.11l-.39-2.62-.36-2.57c-.31-2.07-.59-3.81-.86-5.22,0-.07,0-.19-.07-.36l-.07-.46a3.34,3.34,0,0,0-.14-.61c-.07-.07-.22-.08-.43,0l-.22.11a.24.24,0,0,1-.17,0c-.08,0-.11-.15-.11-.32a.55.55,0,0,1,0-.36c.1-.19.46-.3,1.08-.32a4.63,4.63,0,0,1,.75,0h2.89a.87.87,0,0,1,.54.11q.15.06.18.39a.73.73,0,0,1-.07.39c-.07.1-.23.13-.47.11l-.35,0a2.2,2.2,0,0,0-.36,0Q355,661.22,355.93,668.08Zm-2.47,1.18c-.12-.71-.24-1.61-.36-2.68l-.14-1.43-.18-1.5q-.43-3.87-.75-5.83l0-.22v-.17a1.12,1.12,0,0,0,0-.29c-.07-.14-.25-.18-.54-.11q.54,2.29,1.11,6l.47,3.08c.16,1.21.32,2.23.46,3Zm0-6.93a25.07,25.07,0,0,0-.21-3.37l-.07-.53,0-.57c0-.41,0-.66.18-.76l-.32,0h-.32Zm1.86,18.81v.21c.05.14.12.23.22.25q-.28-2.07-.93-5.72l-.5-2.86-.47-2.9A88.93,88.93,0,0,0,355.25,681Zm.75-1.86.08.32.1.71a2.41,2.41,0,0,1-.07,1.25h.54c-.26-1.14-.56-2.68-.9-4.61l-.39-2.36-.43-2.36c.1.95.25,2.09.47,3.4l.25,1.68L356,679Z"/><path class="cls-9" d="M374.34,665.76l0-.36c0-.31,0-.49.1-.54a.4.4,0,0,1,.4,0,.73.73,0,0,1,.32.25,1,1,0,0,1,0,.51v.53a6.06,6.06,0,0,0,.08.72l0,.39,0,.36c0,.59-.06.92-.25,1a.44.44,0,0,1-.54-.18,1.37,1.37,0,0,1-.18-.57v-.57a1.41,1.41,0,0,0,0-.43.62.62,0,0,0-.29,0l-.21,0h-.18l-.5,0-.5-.07-1-.11-.14,0-.22,0a.73.73,0,0,0-.32,0c-.05,0-.07.18-.07.47s0,.5,0,.71c.05,1,.06,2.15,0,3.43l-.07,3.47q-.1,4.55,0,7l1.68,0,1.64-.08c1.39-.07,2.53-.09,3.44-.07v-.28l0-.33a4.68,4.68,0,0,1,0-.75c0-.64.13-1,.32-1.1a.56.56,0,0,1,.32-.08.39.39,0,0,1,.36.08c.05,0,.06.19,0,.42l0,.29V680a4.45,4.45,0,0,0,0,1.57l0,.11.07.14a.43.43,0,0,1,.08.33c0,.16-.28.23-.68.21l-.22,0-.21,0-.36,0c-.72,0-1.6,0-2.65,0l-1.39.08-1.36.07-1,0h-1l-2.08.07h-.32l-.32-.07c-.26-.07-.35-.2-.25-.39s.18-.14.39-.14h.22a.19.19,0,0,0,.18-.08.78.78,0,0,0,0-.32l0-.18a1.19,1.19,0,0,1,0-.14c0-.76,0-1.77,0-3l0-1.57,0-1.54,0-4.26,0-4.22c0-3.45,0-6.22,0-8.29a2.23,2.23,0,0,0,0-.36v-.5a2.74,2.74,0,0,0,0-.61.94.94,0,0,0-.36,0h-.25a.24.24,0,0,1-.18-.07.52.52,0,0,1-.11-.21.39.39,0,0,1,0-.29c0-.09.19-.14.5-.14h.39l.4,0,.71,0,.36,0h.32c.95-.07,2.13-.09,3.54-.07h1.82l1.86,0h.36l.43,0a2.11,2.11,0,0,0,.64,0l.08-.07c0-.05,0-.07.07-.07.35,0,.55.12.57.43a4.44,4.44,0,0,1,0,.5l0,.32,0,.32a1.54,1.54,0,0,0,0,.43l0,.18v.18c0,.09-.05.14-.07.14l0,0a.15.15,0,0,0,0,.1l0,.15,0,.14a.2.2,0,0,1,0,.22.46.46,0,0,1-.43,0,.63.63,0,0,1-.32-.26,2.08,2.08,0,0,1-.11-.78,4.32,4.32,0,0,1,.07-.82v-.08l0-.14q.07-.13,0-.18s-.2-.07-.46-.07l-.29,0h-.14c-1.43-.07-2.9-.11-4.4-.11l-.36,0-.25,0h-.28c-.48-.05-.75,0-.83.07s-.05.13,0,.32v.25l0,.22q0,1.32,0,3.57l0,1.86c0,.72,0,1.36,0,1.93V665l0,.32c0,.34,0,.53,0,.58a1.05,1.05,0,0,0,.39,0l.25,0h.22c.38,0,.82,0,1.32.07s.79.07,1.29.14A1,1,0,0,0,374.34,665.76Zm-6-7.48,0,1.08c0,.88.08,1.58.1,2.11v.32c0,.14,0,.12,0-.07.07-1.6.15-2.94.25-4v-.57c0-.26,0-.41-.07-.43a.61.61,0,0,0-.22,0c-.12,0-.19,0-.21.07s0,.09,0,.21a.43.43,0,0,0,0,.22Zm.11,14.74c0-.65,0-1.11,0-1.4v.75l0,.79a10.43,10.43,0,0,0,.07,1.43Zm0,4.4c0-.55,0-.93,0-1.15v.61l0,.64a6.51,6.51,0,0,0,.07,1.18Zm.78-15.74c0,.24,0,.35,0,.32a8.11,8.11,0,0,0,.07-1.28l0-.65v-.61c0,.43,0,1,0,1.72A2.59,2.59,0,0,0,369.26,661.68Zm.4,6.44c0-.14,0-.17,0-.07a6.34,6.34,0,0,0-.07,1.11l0,.57v.61a58.25,58.25,0,0,0,.1,6.75c0-1.12,0-2.57,0-4.36l0-2.14Z"/><path class="cls-9" d="M392,674c.07.38.16.91.25,1.58l.25,1.64a16.89,16.89,0,0,0,.72,3.18l.07.22.07.21a2.5,2.5,0,0,0,.21.5,2.55,2.55,0,0,0,.33.4,1,1,0,0,0,.32.21.41.41,0,0,0,.32-.18l.14-.18.15-.21c.23-.36.47-.5.71-.43a.62.62,0,0,1,.22.14.73.73,0,0,1,.07.25.48.48,0,0,1-.11.29l-.11.11-.14.18-.22.28-.25.29a1.46,1.46,0,0,1-.75.36,3.8,3.8,0,0,1-2.32-.43,5.32,5.32,0,0,1-.61-.54c-.24-.24-.43-.44-.57-.61-1-1.26-1.65-3.76-2.08-7.51a15.15,15.15,0,0,0-1.46-5.72l-.18-.39-.21-.4a1.11,1.11,0,0,0-.68-.5q-.23,7.69,0,12.63l0,.61.07.57a1.51,1.51,0,0,1-.25,1,.73.73,0,0,0,.36,0l.36,0a.93.93,0,0,1,.61.07c.07,0,.11.11.14.25a.43.43,0,0,1-.07.36c-.05.07-.25.1-.61.1H386a12.85,12.85,0,0,0-3.36.36.24.24,0,0,0-.11,0l-.18,0a.42.42,0,0,1-.28,0,.31.31,0,0,1-.07-.39.47.47,0,0,1,.21-.29.52.52,0,0,1,.18-.1l.25,0a.81.81,0,0,0,.29-.07.66.66,0,0,0,0-.29l0-.18v-3.46c0-1.53,0-2.66,0-3.4s0-1.61.07-2.9.07-2.27.07-3v-.75l0-.75a12.33,12.33,0,0,0,0-1.5c0-1.07-.06-2.29,0-3.65l0-1.79.08-1.86,0-.42,0-.47a2,2,0,0,0,0-.54s-.1-.06-.22,0h-.18l-.14,0c-.33.08-.52,0-.57-.14s.07-.48.43-.57a2.1,2.1,0,0,1,.5-.11h.5a27.24,27.24,0,0,1,4.83.07,7.16,7.16,0,0,1,2.18.65,6.63,6.63,0,0,1,3.22,2.43,5.07,5.07,0,0,1,.78,3.29,3.62,3.62,0,0,1-.68,1.79,5.82,5.82,0,0,1-1.21,1.36,7.92,7.92,0,0,1-3.69,1.32Q391.11,669.09,392,674Zm-8.05-13.76-.07,2c0,1.67-.07,3-.14,3.86,0,.41,0,.92,0,1.54l0,1.54,0,2.93.07,3q0,3.65,0,5.94a1.58,1.58,0,0,0,.07.68q.28.11.36-.15a.4.4,0,0,0,0-.18l0-.1v-.29l0-.25c0-.21-.07-.34-.07-.39a1,1,0,0,1,.07-.32,1.23,1.23,0,0,0,0-.29,10.46,10.46,0,0,0,0-1.43l0-.68,0-.72q-.42-11.37.11-20.13l0,0h0a4.06,4.06,0,0,0-.11.75v.43l0,.42ZM385.14,672l.07-1.43.11-2.9a44.9,44.9,0,0,0-.18-5.68l-.07,2.82,0,2.86c0,2.22,0,4.13,0,5.73Zm3.25-6.36a2.23,2.23,0,0,1,.5,0l.58-.07a2.62,2.62,0,0,0,1-.18,1.47,1.47,0,0,0,.5-.61l.22-.39.07-.18.07-.18a6.12,6.12,0,0,0,.47-2.79,6.49,6.49,0,0,0-.68-2.72,2,2,0,0,0-.58-.78,3.73,3.73,0,0,0-1.43-.58,9.67,9.67,0,0,0-1.71-.25,1.43,1.43,0,0,1-.29,0l-.36,0a2.46,2.46,0,0,0-.64.07c-.05,0-.06.15,0,.43l0,.4,0,.18V658a54.22,54.22,0,0,1,0,7.69c.31,0,.7,0,1.18,0l.54,0Zm1.47,4-.25-.46-.25-.47a4.83,4.83,0,0,0-1.18-1.68s-.1,0-.29,0l-.17,0c-.05,0-.09,0-.11,0q2.43,2.29,3.54,8.4L391,674.2l-.18-1.22a20.8,20.8,0,0,0-.54-2.36A8.75,8.75,0,0,0,389.86,669.58Zm.89,8.84a32.81,32.81,0,0,1-.89-3.44l0-.14v-.14c0-.12,0-.14-.07-.07.46,3.43,1.24,5.71,2.36,6.83A11.57,11.57,0,0,1,390.75,678.42Zm1.86-14.24.22-.14a.87.87,0,0,0,.32-.36,2.54,2.54,0,0,0,.14-1.14l-.07-.61c0-.14-.05-.32-.07-.53a6.5,6.5,0,0,1-.71,2.93Zm1.33-2.93a3,3,0,0,0-.43-1.14l.11.57.07.57a9,9,0,0,1,.1,1.29A1.91,1.91,0,0,0,393.94,661.25Z"/><path class="cls-9" d="M402.45,660.39l.75,1.86.71,1.86a56.69,56.69,0,0,1,2.79-7.36,2.09,2.09,0,0,1-.68,0c-.24-.05-.35-.15-.35-.32s.32-.38,1-.57a5.49,5.49,0,0,1,1.43-.25,1.56,1.56,0,0,1,1.08.39c.28.29.15.46-.4.54l-.21,0h-.22a.45.45,0,0,0-.32,0,5.47,5.47,0,0,0-.25.53,15.68,15.68,0,0,0-.89,1.79l-.4.93-.39.9c-.45,1.07-.87,2.18-1.25,3.32l-.11.29-.14.32a1.23,1.23,0,0,0-.14.5,1.77,1.77,0,0,0,.07.43l.1.43a32.26,32.26,0,0,1,.22,3.29v5.54c0,.79,0,1.43,0,1.93s0,1.12,0,2v1l0,1,0,.25v.21a.43.43,0,0,0,.07.36.42.42,0,0,0,.15.07l.21.07a.72.72,0,0,1,.43.22.52.52,0,0,1,.07.39.42.42,0,0,1-.07.29.92.92,0,0,1-.29.1,1.41,1.41,0,0,1-.39.08,6.36,6.36,0,0,1-1.54-.08l-.86-.1-.85-.11h-.65c-.26,0-.42,0-.46-.07a.33.33,0,0,1-.11-.29.36.36,0,0,1,0-.28c0-.08.21-.13.5-.18h.14l.21,0a.52.52,0,0,0,.25,0,3.06,3.06,0,0,0,0-.83l0-.28v-.29a2.78,2.78,0,0,1,0-.36l-.1-2.68c-.05-1-.08-1.89-.08-2.61q0-4.79-.1-7.19l-.15-1.07V666l0-.28a2.91,2.91,0,0,0,0-.57,1.56,1.56,0,0,0-.21-.54l-.15-.25-.1-.29-1.4-3.14-.36-.72-.35-.79c-.31-.66-.56-1.19-.75-1.57a.6.6,0,0,1-.11-.21l-.11-.36a4.9,4.9,0,0,0-.25-.47.58.58,0,0,0-.21,0l-.25,0c-.24.08-.41.08-.5,0a.72.72,0,0,1-.15-.32.56.56,0,0,1,0-.36c.05-.07.37-.1,1-.1h1.11l.36,0L399,656c.36,0,.64-.05.83-.07a2.75,2.75,0,0,0,.39,0l.46-.07a1.8,1.8,0,0,1,.79.07c.22.12.27.32.18.61s-.35.36-.68.22C401.29,657.56,401.78,658.8,402.45,660.39Zm-3.65-2.75-.07-.25-.11-.29a.45.45,0,0,0-.32-.32l.21.47.22.5a3.42,3.42,0,0,0,.46.86Zm1.25,1.07c-.07-.35-.17-.76-.29-1.21l-.07-.29-.1-.28a.34.34,0,0,0-.47-.18l.29.71.28.75c.27.65.46,1.15.58,1.5A9.85,9.85,0,0,0,400.05,658.71Zm3.51,8.37a2.75,2.75,0,0,0,0-.82l-.15-.47-.14-.46a23.51,23.51,0,0,0-1.11-3.15l-.64-1.5a11.34,11.34,0,0,1-.61-1.54q.42,1.79,1.29,4.44l.68,2.18.68,2.18Zm-1.18,14.27,0,.11a.13.13,0,0,0,.14.14q0-1.25,0-3.54v-1.79l0-1.82a59.05,59.05,0,0,0-.43-6.83c.07,1,.12,2.11.15,3.4l0,1.71v1.75q0,4.51.22,6.76Zm.78-.39c0,.43.07.63.22.6s.15-.07.18-.21a.37.37,0,0,0,0-.21v-.22c0-.74-.05-1.74-.08-3v-3.11a33.71,33.71,0,0,0-.53-5.62q.18,2.35.21,5.76Z"/><path class="cls-9" d="M253.27,514.23l-.24-2.4c0-2.08.24-3.28.72-3.61a2.56,2.56,0,0,1,2.64,0,4.12,4.12,0,0,1,2.16,1.68,6.75,6.75,0,0,1,.24,3.36v3.61a39,39,0,0,0,.48,4.8l.24,2.64.24,2.4q.24,6-1.68,6.49a3,3,0,0,1-3.6-1.2,8.46,8.46,0,0,1-1.2-3.85v-3.84a8.27,8.27,0,0,0-.24-2.88c-.16-.16-.81-.16-1.92,0l-1.44.24h-1.2l-3.37-.24-3.36-.48-7-.72a3.93,3.93,0,0,1-1-.24l-1.44-.24c-1.28-.16-2-.16-2.16,0q-.48.24-.48,3.12a41.38,41.38,0,0,0,.24,4.8q.47,10.1.24,23.05l-.48,23.3q-.72,30.5,0,47.06l11.28-.24,11-.48q13.92-.72,23.05-.48V618l-.24-2.17a26.4,26.4,0,0,1,0-5q.24-6.48,2.16-7.44a3.93,3.93,0,0,1,2.16-.48,2.74,2.74,0,0,1,2.4.48q.48.48.24,2.88l-.24,1.92v1.68q-.72,7.2.24,10.57l.24.72.48,1a2.85,2.85,0,0,1,.48,2.16q-.48,1.68-4.56,1.44L277,625.4l-1.44-.24q-1.92-.24-2.4-.24a163.12,163.12,0,0,0-17.77,0l-9.37.48-9.12.48-6.48.24h-7q-8.64.24-13.92.48H207.4q-1.2-.24-2.16-.48-2.64-.72-1.68-2.64.48-1,2.64-1h1.45c.63,0,1-.16,1.2-.48a4.85,4.85,0,0,0,0-2.16l-.25-1.2a3.74,3.74,0,0,1-.23-1q-.24-7.69,0-20.41l.23-10.57.25-10.32.24-28.58.24-28.33q.22-34.81,0-55.71a19.48,19.48,0,0,0-.24-2.4V458a15.56,15.56,0,0,0-.24-4.08q-.24-.24-2.4,0h-1.69a1.64,1.64,0,0,1-1.2-.48,3,3,0,0,1-.72-1.45,2.47,2.47,0,0,1,.24-1.91c.16-.65,1.28-1,3.37-1h2.64l2.64.24q1.44,0,4.8-.24l2.4-.24h2.16q9.6-.72,23.77-.48h12.25l12.49.24H272l2.88.24a17,17,0,0,0,4.32,0l.48-.48q.24-.48.48-.48c2.4-.16,3.68.81,3.84,2.88,0,.65-.08,1.77-.24,3.37l-.24,2.16-.24,2.16a8.64,8.64,0,0,0,0,2.88l.24,1.2v1.2q-.24,1-.48,1l-.24.24a1,1,0,0,0-.24.72l-.24,1,.24,1a1.43,1.43,0,0,1-.24,1.44,3,3,0,0,1-2.88,0,4.08,4.08,0,0,1-2.16-1.68,14.31,14.31,0,0,1-.72-5.28,30.82,30.82,0,0,1,.48-5.52v-.48l.24-1q.48-1,.24-1.2-.48-.48-3.12-.48l-1.92.23h-1Q257.11,453,242,453c-.32,0-1.12-.08-2.4-.25l-1.68-.24H236c-3.2-.32-5-.15-5.52.49-.33.16-.4.87-.24,2.16v1.68l.24,1.44q.24,8.88-.24,24L230,494.77c-.17,4.81-.24,9.13-.24,13v1.2l-.24,2.16c-.17,2.25-.08,3.53.24,3.84q.24.25,2.64,0l1.68-.23h1.44q3.84,0,8.88.48c2.4.16,5.29.48,8.65,1A6.57,6.57,0,0,0,253.27,514.23ZM213.17,464l.24,7.2q.48,8.89.72,14.17v2.16c0,1,.08.81.24-.48q.72-16.08,1.68-26.89v-3.84q0-2.64-.48-2.88a3.32,3.32,0,0,0-1.44-.25,3.77,3.77,0,0,0-1.44.48,2.54,2.54,0,0,0-.24,1.45,3.34,3.34,0,0,0,.24,1.44Zm.72,98.93q0-6.48-.24-9.37v5l-.24,5.28a72.64,72.64,0,0,0,.48,9.61Zm0,29.53q0-5.52-.24-7.68v4.08l-.24,4.32a45.5,45.5,0,0,0,.48,7.93Zm5.28-105.65q0,2.4.24,2.16a57.09,57.09,0,0,0,.48-8.64l-.24-4.32V472q-.24,4.32-.24,11.52A15.9,15.9,0,0,0,219.17,486.85Zm2.64,43.22q0-1.44-.24-.48a44.27,44.27,0,0,0-.48,7.45l.24,3.84V545a388.8,388.8,0,0,0,.72,45.38q.24-11.28,0-29.29l-.24-14.41Z"/><path class="cls-9" d="M390.42,493.58l-3.12,13.93q-3.6,16.82-5.76,28.57-6.74,33.15-10.33,58.83l-.72,4.33-.72,4.32a46.42,46.42,0,0,0-1,8.4,11.15,11.15,0,0,0,.24,3.84c.16,1.93.4,3,.72,3.13a7,7,0,0,0,2.64.23h1.92q1,.26,1.68.48l1,1,1,1.2a3.06,3.06,0,0,1,0,2.88q-.48,1.2-6,1.44h-2.16l-2.4.24H359a26.47,26.47,0,0,0-4.09.24l-1.92.24-1.92.24q-2.64.48-3.36,0-.72-.24-1.2-1.68a3.59,3.59,0,0,1-.24-2.16,2.24,2.24,0,0,1,1.68-1.68l1.2-.24a1.55,1.55,0,0,0,1-.72c.16-.32-.16-1.76-1-4.33l-.24-1.68-.48-1.44a7.86,7.86,0,0,1-.48-1.92q-1.44-5.52-2.88-14.65l-1.2-7.2-1.44-7.2q-1.45-7.2-4.09-19l-4.08-18.73q-1-3.6-1.92-9.61l-1-4.8-1-4.8q-3.12-11.76-6.72-27.86l-6.49-27.85q-1,27.85-1.68,74.68L315,582.43q-.24,22.32-.48,37.46a13.49,13.49,0,0,0,2.64.24l2.4-.49a8.44,8.44,0,0,1,4.33.49,4.25,4.25,0,0,1,1.68,2.4,4.15,4.15,0,0,1,.24,3.6c-.33.64-1.68,1.12-4.09,1.44l-3.36.24-3.12.24a25.46,25.46,0,0,0-2.88.24l-3.36.48c-2.56.32-4.17.32-4.8,0q-1-.24-1.68-2.16a3.64,3.64,0,0,1-.24-2.88,2.11,2.11,0,0,1,1.44-1.44l1-.48,1-.24a1.89,1.89,0,0,0,.72-.24l1.44-.24a5.85,5.85,0,0,0,2.16-.48c.16-.16.16-1.52,0-4.09v-5.76q0-11.28.48-34.1t.48-33.61q0-16.81.48-43.46.48-26.41.48-39.14v-1.69l.24-1.68a7.06,7.06,0,0,0-.24-2.4q-.24-.48-1.92-.48l-1.2-.23-1.44-.49a11.63,11.63,0,0,1-1.68-1.44c-.64-.79-.89-1.35-.72-1.68.16-.8,1.59-1.44,4.32-1.92a33.65,33.65,0,0,0,3.6-.24l1.68-.24H316q14.41-1.44,20.41,1c2.41,1,3.92,2.16,4.57,3.6s-.81,2-4.33,1.68q6.5,26.66,15.13,68.92l7,35.06L365.93,593q3.6-28.32,11-64.83l6.48-31.45,3.37-15.85,3.36-16.09.24-1,.24-1.2.72-2.64c.48-2.25.64-3.44.48-3.61a5.1,5.1,0,0,0-2.16-.23h-2.4l-1.2-1.21a5.11,5.11,0,0,1-.72-1.68q-.24-3.12,5.28-4.08a21.8,21.8,0,0,1,4.8-.72l2.4-.24L400,448l13.68-2.4a6.68,6.68,0,0,1,4.56,1.44q2.4,1.92,1.68,4.08a1.74,1.74,0,0,1-2.16,1.2h-1.2a1.45,1.45,0,0,0-1,.24q-.24.24.24,1.92l.24,1.69v1.43q.72,14.42-1,38.66L414,515.68q-.48,11-.48,19.68v30.5q0,17.05.24,29.77.24,3.38,0,9.85c-.16,4.48-.24,7.85-.24,10.08l.72,4.08.72,1.2,1.2,1a5,5,0,0,1,1.44,2.4q-1,2.4-1.44,2.64a3.85,3.85,0,0,1-3.12.24l-1.92-.48-1.68-.24a25.79,25.79,0,0,0-5,0q-2.16,0-5.77.24a25.55,25.55,0,0,0-2.64.24l-2.88.48q-3.6.24-4.56-.24-1.22-.72-1.44-5,.72-1.44,4.32-1.92,1.92-.24,1.92-4.33.24-5.76.24-14.4l-.24-6.73v-6.48q.48-18.48,0-53.31V507.75q-.24-15.6,0-27.85Zm-60-9.12.24-.24q-1.2-6-1.92-11.05-1.2-7-1.92-12l-.24-1.92-.24-1.69a9.78,9.78,0,0,0-.72-2.88c-1-1.75-2.81-2.31-5.53-1.68l2.65,7.45,2.88,7.68q2.88,8.88,4.8,15.85Zm11.29,24.25L340,499.59l-1.93-9.13a82.41,82.41,0,0,0-5.28-16.09l5.76,31q3.61,18.49,6.25,30.73,7,35.07,14.64,59.07Q349.12,549.54,341.68,508.71Zm16.56,111.18,1.44-.25h1.44q-7.68-25.2-12.72-43,1,9.14,3.36,21.85l2.16,10.81,1.92,10.57A5.82,5.82,0,0,0,358.24,619.89ZM406,518.31l-.48-18.24q-.72-22.33-.25-36.74v-1.2l.25-1.44v-2.88c.15-2.56,0-4.09-.48-4.57q0-.23-.48,0l-.72.24a160.58,160.58,0,0,0-.25,19.93c.16,2.88.25,6.17.25,9.85l-.25,9.84.25,19.93.48,19.69q.72,24-.24,39.38l-.24,12-.25,12q-.24,15.14-.71,22.82a6.46,6.46,0,0,1,3.12-.25l1.44.25h1.44L408.19,599l-.72-20.17q-.72-22.8-1.2-42.5Q406.27,529.12,406,518.31Z"/><path d="M146.12,391.53l-.54-.38c-.43-.37-.63-.64-.61-.79s.17-.41.47-.55a1.08,1.08,0,0,1,.73-.15,1.93,1.93,0,0,1,.74.55l.75.65a10.48,10.48,0,0,0,1.08.76l.59.42.54.39c.86.68,1.21,1.19,1,1.51a.81.81,0,0,1-.89.53,2.36,2.36,0,0,1-1-.44l-.8-.69a2.2,2.2,0,0,0-.64-.47c-.06,0-.17.14-.34.4l-.21.34-.22.25-.65.65-.7.61-1.4,1.32a1.24,1.24,0,0,1-.22.15l-.31.26q-.39.34-.39.45c0,.09.17.31.56.65s.72.59,1,.82q2.18,1.71,4.82,4.08l4.74,4.27q6.18,5.63,9.75,8.44l2-2.38,1.88-2.37c1.57-2,2.91-3.63,4-4.86l-.4-.35-.49-.34a7.15,7.15,0,0,1-1-.9c-.86-.81-1.25-1.4-1.15-1.78a1.07,1.07,0,0,1,.29-.54.75.75,0,0,1,.53-.41c.12,0,.33.15.64.47l.35.39.35.31a8.43,8.43,0,0,0,2.23,1.84l.19.08.29.07a.83.83,0,0,1,.53.29c.18.27,0,.67-.52,1.2l-.31.26-.3.26a3.88,3.88,0,0,0-.48.45,44.58,44.58,0,0,0-3.19,3.68l-1.58,2-1.54,2-1.11,1.39L164,417.76c-1,1.22-1.8,2.21-2.39,3l-.39.45c-.18.14-.34.26-.49.36-.41.28-.7.24-.85-.12-.07-.19,0-.42.28-.72l.25-.3c.12-.14.16-.25.12-.34a1.23,1.23,0,0,0-.45-.38l-.29-.17a.83.83,0,0,1-.24-.12q-1.63-1.33-4.23-3.66l-2.14-2-2.1-1.9-5.87-5.17-5.83-5.13q-7.17-6.29-11.54-10c-.1-.08-.28-.21-.54-.38l-.7-.6a3.62,3.62,0,0,0-.89-.68c-.06,0-.2.17-.43.49l-.3.35a.4.4,0,0,1-.31.16.75.75,0,0,1-.43-.11.68.68,0,0,1-.35-.39c-.11-.15,0-.44.4-.87l.47-.55.53-.5c.17-.2.44-.54.81-1l.38-.54.39-.44q1.56-2.13,4.16-5l2.19-2.53,2.29-2.54.43-.5.57-.55a5.16,5.16,0,0,0,.77-.9v-.19c0-.09,0-.15,0-.18.4-.53.82-.62,1.28-.28a9,9,0,0,1,.66.65l.4.44.41.44a2.38,2.38,0,0,0,.59.51l.29.17.25.21c.11.15.14.24.12.28v.09a.3.3,0,0,0,.11.18l.16.22.24.12a.39.39,0,0,1,.25.31.85.85,0,0,1-.51.6,1.15,1.15,0,0,1-.74.14,3.81,3.81,0,0,1-1.22-.8,7.77,7.77,0,0,1-1.06-1.09l-.1-.08-.16-.22c-.07-.18-.14-.27-.2-.27s-.35.2-.66.56l-.3.44-.17.2c-1.82,1.91-3.63,3.9-5.44,6-.06.07-.22.22-.48.46l-.35.3-.35.4c-.64.6-.93,1-.89,1.23s.11.24.4.43l.35.31.35.21c1.25,1,2.89,2.48,4.93,4.35l2.54,2.29c1,.89,1.85,1.68,2.64,2.37l.25.22.4.44q.66.64.84.63c.07,0,.22-.18.48-.54l.25-.39.26-.3c.46-.53,1-1.12,1.69-1.76.46-.46,1.05-1,1.75-1.62A2,2,0,0,0,146.12,391.53Zm-17.58-.69,1.53,1.24,3.07,2.39.45.39c.19.17.18.13-.06-.14-2.14-2-3.89-3.74-5.27-5.17l-.8-.69c-.36-.31-.59-.45-.68-.41a1,1,0,0,0-.31.25,1.12,1.12,0,0,0-.16.39c0,.06.09.16.26.3a.82.82,0,0,0,.34.21Zm5.8,2.85c.33.28.5.4.49.33a16.21,16.21,0,0,0-1.7-1.65l-.94-.72-.85-.73c.57.55,1.35,1.25,2.35,2.11A4.18,4.18,0,0,0,134.34,393.69Zm9.43,7.2c-.2-.17-.25-.19-.15,0a13.3,13.3,0,0,0,1.46,1.44l.84.64.84.73a107.41,107.41,0,0,0,9.53,8q-2.29-2.07-6.06-5.25l-3-2.53Zm5.39,7.54c-.9-.78-1.56-1.32-2-1.63l1,.9,1.05,1a18.52,18.52,0,0,0,2.08,1.62Zm6.12,5.29a19.25,19.25,0,0,0-1.64-1.32l.85.73.85.82a12.15,12.15,0,0,0,1.73,1.32Z"/><path d="M184,361.77l-.27-.37-.41-.44c-.28-.39-.48-.59-.61-.61s-.54.18-1.08.63l-.62.61-.32.23-.22.25-1,.92-.28.28-.32.23c-.28.21-.43.35-.44.41s.06.33.31.75l.25.47.18.35,1.57,3.5,1.59,3.4q1.89,4.15,3.5,7.14l1.06,1.91,1,1.94q1.2,2.22,2,4c.12.24.32.74.61,1.51a1.61,1.61,0,0,0,.56-.24l.41-.22a.35.35,0,0,1,.25-.1h.09l.15,0a1.23,1.23,0,0,1,.46.07c.35.12.53.29.53.51s-.35.49-1.06,1l-.38.36-1.12.81a3.25,3.25,0,0,0-.44.41l-.17.21-.11.07a.93.93,0,0,1-.75,0c-.32-.14-.5-.31-.53-.51s.17-.36.52-.62l.37-.27a.75.75,0,0,0,.15-.36,3.35,3.35,0,0,0-.52-1.16l-.49-.78a4,4,0,0,1-.32-.67q-6-11.61-9.06-18.22l-2.07-4.51-2.09-4.43q-2.46-5.28-4.62-9.24l-.14-.31-.2-.26c-.17-.31-.3-.57-.4-.77,0,0-.07-.14-.14-.31l-.16-.45c-.14-.33-.23-.5-.3-.51s-.35.18-.7.59l-.36.51a.89.89,0,0,1-.51.2.6.6,0,0,1-.44-.16,1,1,0,0,1-.4-.44c-.09-.26.17-.69.76-1.29l.82-.67c.32-.3.56-.53.71-.69l.57-.57a5.94,5.94,0,0,1,.59-.52,10.24,10.24,0,0,0,1.1-1l.54-.48.55-.48.37-.27.39-.37a2.35,2.35,0,0,1,.69-.5,1.55,1.55,0,0,1,.59.14,1,1,0,0,1,.4.44,1.71,1.71,0,0,1-.1.32,2.44,2.44,0,0,1-.15.35l-.37.27c-.18.13-.27.22-.28.29a5,5,0,0,0,.88,1,7.24,7.24,0,0,0,.71.63,4,4,0,0,0,.49.45l2.68,2.45L181.1,351q3.1,2.94,5.31,5.16l1,1.05,1.09,1.16c.85.95,1.56,1.69,2.1,2.22l2.13,2,2.13,2q2.63,2.49,4.25,4.15c.8.88,1.84,1.89,3.1,3l1.64,1.57,1.65,1.49.25.22.25.23.7.63c.54.52.86.78,1,.76a1,1,0,0,0,.57-.33l.48-.35a1,1,0,0,1,.85.27,1,1,0,0,1,.32.67q0,.22-.75.87l-1.38,1c-.32.24-.77.54-1.37.92l-2,1.47c-.35.26-.63.36-.84.29-.82-.38-.74-.87.23-1.47A235.15,235.15,0,0,1,184,361.77Zm-9.84-13.83-1.2-1.08-1.16-1c-.08,0-.2,0-.34.09l-.17.21-.18.21a47.06,47.06,0,0,0,5,4.68l2.53,2.14c1,.81,1.81,1.56,2.53,2.23q-.84-1-2.25-2.52l-1.16-1.26-1.21-1.32A29.09,29.09,0,0,0,174.14,347.94Zm5.38,12.85,1.06-.77c.6-.44.91-.72.93-.85s-.14-.27-.46-.63l-.46-.41a2.89,2.89,0,0,1-.32-.33c-.6-.59-1.35-1.33-2.25-2.19l-1.25-1-1.23-1.14a44,44,0,0,1-4.34-4.16c1,1.79,2.09,4,3.34,6.6l1.51,3.29,1.56,3.26Zm5.41-3.3q3.49,3.57,10,9.66Q189,361.11,184.93,357.49Zm15.59,17.13-4.4-3.46,2,1.9L200,375q2.33,2.3,3.91,3.58A11.79,11.79,0,0,0,200.52,374.62Z"/><path d="M227.6,316.76l-.17-.57a.84.84,0,0,1,.11-.91,1.61,1.61,0,0,1,.7-.22c.31,0,.52,0,.63.16a1.89,1.89,0,0,1,.42.83l.15.51.14.51.35,1,.41,1,.59.89.62,1c.46.76.65,1.27.58,1.54s-.25.32-.65.49a1.25,1.25,0,0,1-.95.11,1.63,1.63,0,0,1-.55-.62l-.24-.4-.27-.46-.24-.4-.2-.48a2.69,2.69,0,0,0-.54-.77,1.41,1.41,0,0,0-.52-.21l-.38-.06-.34-.14-.83-.44-.91-.47a4.31,4.31,0,0,0-1.83-.44c-.24,0-.54,0-.89.09l-1,.21a3.56,3.56,0,0,0-1,.28,6.76,6.76,0,0,0-.94.47,1.83,1.83,0,0,0-.6,1c-.1.43-.2.87-.29,1.34-.18,1.83.57,3.83,2.24,6a21.7,21.7,0,0,0,2.23,2.56l1.08,1,.56.47.47.45a34.06,34.06,0,0,0,3.3,2.75l1.75,1.26c.66.53,1.21,1,1.65,1.37l.39.41.42.32.72.69a31.66,31.66,0,0,1,5,4.25,45.37,45.37,0,0,1,3,3.72,20.5,20.5,0,0,1,2.38,4.78,9,9,0,0,1,.1,5.32q-.72,2.52-4.47,5a12.55,12.55,0,0,1-7,2.47,6.32,6.32,0,0,1-2.61-.61l-1.26-.61-1.22-.7a1.35,1.35,0,0,0,0,.56l.17.57c.11.48.09.8,0,.94a1.2,1.2,0,0,1-.81.28c-.46,0-.75,0-.88-.21a2.81,2.81,0,0,1-.28-1.16l0-.63a1.76,1.76,0,0,1-.09-.53,37.93,37.93,0,0,0-1.14-4.73l-.2-.63-.16-.72a2.65,2.65,0,0,1-.14-1,.88.88,0,0,1,.82-.28,1.33,1.33,0,0,1,.83.29,1.61,1.61,0,0,1,.47.95l.09.53.07.18,0,.21.14.51.12.45a2.26,2.26,0,0,0,.27.82,2.8,2.8,0,0,0,.85.64l.51.36.48.29.5.36.45.38a8,8,0,0,0,.82.58,7.15,7.15,0,0,0,2.27,1,3.85,3.85,0,0,0,2.44,0,4.45,4.45,0,0,0,2.67-2.63,7.65,7.65,0,0,0,.29-2.19,10.06,10.06,0,0,0-.2-2.34q-.59-4.26-4.2-9.94l-.78-1.17-.75-1.25a12.15,12.15,0,0,0-1.61-2,15.57,15.57,0,0,0-2-1.45l-1.16-.72-1.08-.69c-.54-.39-1.23-.84-2.06-1.34l-2.16-1.38L220,333.9c-.93-.6-1.66-1.11-2.21-1.49a13.06,13.06,0,0,1-3.62-3.68,4,4,0,0,1-.39-.91l-.33-.79a7.7,7.7,0,0,1,1.26-6.32,11.62,11.62,0,0,1,3.57-2.86q4-2.06,9.44-.49Zm-12.06,7,0-.09-.12.05a5.11,5.11,0,0,0,.42,3.53,6.75,6.75,0,0,0,2.21,2.86A10.69,10.69,0,0,1,215.54,323.72Zm5.39,6.85a18.45,18.45,0,0,0,3.18,2.45,22.08,22.08,0,0,1-4.87-5.44c-1.7-2.67-2.27-5-1.71-6.92a4.9,4.9,0,0,0-.48,2.92,8.54,8.54,0,0,0,.92,3.18A15.24,15.24,0,0,0,220.93,330.57Zm18.45,20.85a17.39,17.39,0,0,0-3-5,33.53,33.53,0,0,1,2.58,5.26c.64,1.73,1.18,3.48,1.64,5.24A13.3,13.3,0,0,0,239.38,351.42Z"/><path d="M270.92,311l1.95,3.14,1.88,3.14A103.14,103.14,0,0,1,277.49,303a3.81,3.81,0,0,1-1.24.15c-.45,0-.7-.17-.75-.48s.47-.79,1.7-1.36a10.23,10.23,0,0,1,2.52-.9,2.83,2.83,0,0,1,2.07.38c.6.43.42.79-.55,1.09l-.38.14-.39.06a.88.88,0,0,0-.57.17,9.72,9.72,0,0,0-.28,1,27.11,27.11,0,0,0-1.06,3.52l-.43,1.81-.43,1.74q-.72,3.13-1.23,6.42l-.1.56-.16.62a2.57,2.57,0,0,0-.1,1,4,4,0,0,0,.26.75l.33.75a55.84,55.84,0,0,1,1.42,5.89l1.74,10.05q.38,2.13.54,3.51t.63,3.63l.3,1.75.26,1.89,0,.47.06.38a.77.77,0,0,0,.24.63.82.82,0,0,0,.29.09l.41.06a1.33,1.33,0,0,1,.84.25,1,1,0,0,1,.26.69.79.79,0,0,1,0,.54,1.92,1.92,0,0,1-.49.29,2.82,2.82,0,0,1-.69.25,11.11,11.11,0,0,1-2.81.35l-1.59.08-1.59.07-1.16.2a1.52,1.52,0,0,1-.87,0,.57.57,0,0,1-.28-.48.71.71,0,0,1,0-.53c.06-.15.35-.31.85-.49l.26,0,.38-.13c.26-.05.41-.1.44-.15a6.58,6.58,0,0,0-.26-1.49l-.15-.5-.09-.52c-.1-.34-.16-.55-.18-.64l-1-4.83c-.41-1.84-.73-3.41-.95-4.71q-1.5-8.69-2.45-13l-.59-1.9-.09-.52-.16-.51a6,6,0,0,0-.24-1,3.44,3.44,0,0,0-.56-.91l-.34-.41-.28-.48L265.2,313l-.87-1.18-.89-1.32q-1.15-1.67-1.86-2.61a2.08,2.08,0,0,1-.26-.36L261,307a5.4,5.4,0,0,0-.6-.77.88.88,0,0,0-.4,0l-.44.15c-.41.2-.71.26-.9.15a1.31,1.31,0,0,1-.36-.53.92.92,0,0,1-.05-.66c.06-.15.63-.31,1.71-.5l2-.35.64-.18.69-.25c.64-.15,1.13-.28,1.47-.38l.7-.19.82-.28a3.31,3.31,0,0,1,1.45-.12c.43.15.6.5.52,1.05s-.52.76-1.17.6C267.94,306.2,269.21,308.3,270.92,311Zm-7.47-3.84-.21-.43-.28-.49a.81.81,0,0,0-.69-.48l.54.77.54.84a5.88,5.88,0,0,0,1.11,1.41Zm2.6,1.55c-.24-.63-.54-1.33-.89-2.12l-.22-.49-.29-.49a.63.63,0,0,0-.9-.17l.75,1.2.75,1.27c.68,1.09,1.18,1.94,1.51,2.55A13.54,13.54,0,0,0,266.05,308.69Zm9,14.07a4.25,4.25,0,0,0-.26-1.49l-.4-.8-.41-.8a41.76,41.76,0,0,0-3-5.35l-1.64-2.53a25.79,25.79,0,0,1-1.59-2.59q1.35,3.1,3.73,7.63l1.91,3.74,1.92,3.74ZM277.36,349l0,.21a.23.23,0,0,0,.31.21q-.47-2.25-1.18-6.41l-.56-3.24-.64-3.29a110.1,110.1,0,0,0-2.91-12.25q.64,2.63,1.32,6.11l.6,3.11.55,3.17q1.41,8.17,2.51,12.19Zm1.31-1c.13.78.32,1.12.58,1s.25-.18.25-.45a.56.56,0,0,0-.07-.39l-.06-.39c-.28-1.33-.63-3.14-1.07-5.42l-1-5.64a60.09,60.09,0,0,0-2.73-10q1.07,4.23,2.19,10.37Z"/><path d="M358.85,316.68l-1.51,3.6c-1.19,2.91-2.17,5.38-2.94,7.43q-3.42,8.6-5.63,15.36l-.4,1.13-.41,1.13a13.23,13.23,0,0,0-.66,2.22,3.25,3.25,0,0,0-.12,1.05c-.05.52,0,.82,0,.87a1.72,1.72,0,0,0,.7.2l.52.09a4.34,4.34,0,0,1,.43.21l.21.31.2.37a.8.8,0,0,1-.14.77c-.12.2-.69.24-1.69.1l-.58-.1-.66-.05L344,351a7.81,7.81,0,0,0-1.12-.14l-.52,0-.53,0a1.6,1.6,0,0,1-.91-.16.68.68,0,0,1-.24-.51,1,1,0,0,1,0-.6.61.61,0,0,1,.53-.37h.34a.43.43,0,0,0,.29-.15,3.34,3.34,0,0,0-.05-1.21l0-.46-.06-.41a2.06,2.06,0,0,1,0-.55c-.08-1-.1-2.4-.07-4.08l0-2,0-2c0-1.34-.09-3.11-.19-5.31l-.19-5.25a24.11,24.11,0,0,1-.05-2.68l0-1.34,0-1.34q-.27-3.33-.46-7.84l-.4-7.82q-1.62,7.45-4.07,20l-2,10.27q-1.14,6-1.94,10.08a3.4,3.4,0,0,0,.7.19h.67a2.3,2.3,0,0,1,1.15.34,1.21,1.21,0,0,1,.33.73,1.12,1.12,0,0,1-.11,1c-.11.16-.5.22-1.17.19l-.92-.1-.85-.08a7,7,0,0,0-.79-.08l-.93,0a3.18,3.18,0,0,1-1.29-.23c-.17-.08-.28-.3-.35-.67a1,1,0,0,1,.07-.78.58.58,0,0,1,.46-.32l.28-.09h.28l.2,0h.4a1.46,1.46,0,0,0,.61,0,4,4,0,0,0,.19-1.1l.28-1.55q.56-3,1.78-9.17t1.76-9q.81-4.53,2.23-11.7t2-10.53l.08-.45.15-.44a1.91,1.91,0,0,0,.05-.66c0-.1-.19-.17-.49-.22l-.31-.13-.37-.2a3,3,0,0,1-.38-.47c-.14-.24-.17-.41-.12-.49s.5-.31,1.26-.3c.26,0,.59.08,1,.11h.46l.39.07a13.19,13.19,0,0,1,5.46,1.25,2.1,2.1,0,0,1,1.05,1.19c.1.42-.31.5-1.25.24q.47,7.51.75,19.32l.18,9.79.26,9.74q2.34-7.47,6.11-16.95l3.27-8.17,1.68-4.11,1.68-4.18.11-.24.13-.31.32-.68c.24-.58.34-.9.3-1s-.22-.11-.57-.17l-.65-.12-.26-.38a1.47,1.47,0,0,1-.12-.49c.06-.57.6-.85,1.63-.84a5.72,5.72,0,0,1,1.33,0l.66.05.59,0h3.81a1.87,1.87,0,0,1,1.16.61,1,1,0,0,1,.25,1.18.47.47,0,0,1-.64.22l-.32-.06a.43.43,0,0,0-.27,0c-.05,0-.06.21,0,.53l0,.47-.07.39a90.93,90.93,0,0,1-2.13,10.37l-1.26,5.19q-.66,3-1.08,5.29l-1.48,8.22c-.55,3.07-1,5.74-1.37,8-.07.61-.23,1.5-.48,2.65s-.44,2.11-.55,2.71v1.14l.14.36.28.31a1.44,1.44,0,0,1,.27.72c-.25.4-.42.61-.52.64a1.06,1.06,0,0,1-.85-.08l-.5-.23-.44-.14a7,7,0,0,0-1.36-.25c-.38-.07-.91-.14-1.56-.21l-.73-.06h-.8a3.08,3.08,0,0,1-1.21-.29c-.2-.17-.25-.64-.15-1.43.18-.23.6-.34,1.26-.31.35,0,.59-.33.73-1.07.22-1,.48-2.32.76-3.87l.26-1.83.31-1.74c.69-3.31,1.54-8.1,2.58-14.38l1.31-7.32q.69-4.22,1.35-7.51Zm-15.74-5.37.07-.05c0-1.12,0-2.15,0-3.07,0-1.29,0-2.41.06-3.33l0-.53,0-.47a2.37,2.37,0,0,0-.06-.81c-.17-.52-.64-.76-1.4-.72l.35,2.13.4,2.22c.23,1.68.41,3.19.53,4.5Zm1,37.87h.4l.38.07q-.84-7.17-1.35-12.2c-.12,1.67-.17,3.68-.15,6.05l.06,3v2.94A1.91,1.91,0,0,0,344.07,349.18ZM345,318.4v-2.55l-.08-2.55a22.26,22.26,0,0,0-.65-4.59l.06,8.63q.07,5.16.19,8.59a151.18,151.18,0,0,0,1.1,16.63Q345,329.77,345,318.4Zm16.88,5.7.76-5c.59-4,1.16-7.34,1.71-9.91l.06-.33.13-.37.14-.78c.17-.68.2-1.1.09-1.25s0-.05-.13,0l-.2,0a44,44,0,0,0-1,5.37c-.1.78-.23,1.67-.41,2.66l-.54,2.64-.9,5.39-.82,5.33q-1,6.51-2,10.61l-.65,3.22-.65,3.23q-.79,4.07-1.29,6.12a1.75,1.75,0,0,1,.85.08l.38.14.38.07.77-5.41.79-5.48q.9-6.18,1.73-11.51C361.29,327.67,361.56,326.05,361.86,324.1Z"/><path d="M404,338l.21-.63c.24-.52.43-.79.59-.81a.71.71,0,0,1,.66.29,1.12,1.12,0,0,1,.35.67,1.89,1.89,0,0,1-.32.87l-.41.9a9.1,9.1,0,0,0-.42,1.25l-.24.68-.21.63c-.41,1-.8,1.49-1.15,1.43a.8.8,0,0,1-.76-.71,2.17,2.17,0,0,1,.13-1.09l.43-1a2.28,2.28,0,0,0,.27-.75q0-.09-.48-.21l-.39-.11-.3-.13-.81-.44-.78-.5-1.66-1a.93.93,0,0,1-.21-.17l-.33-.22c-.31-.18-.49-.27-.54-.25s-.26.25-.48.73a11,11,0,0,0-.48,1.23q-1,2.56-2.54,5.78l-2.75,5.75q-3.63,7.54-5.32,11.75l2.84,1.22,2.81,1.12c2.38.93,4.31,1.76,5.81,2.49l.22-.48.18-.57a7.55,7.55,0,0,1,.57-1.26c.53-1.06,1-1.59,1.38-1.61a1.22,1.22,0,0,1,.6.12c.29.09.48.22.54.4s0,.36-.26.74l-.28.45-.19.42a8.38,8.38,0,0,0-1.13,2.67l0,.21,0,.29a.78.78,0,0,1-.13.59c-.2.24-.64.19-1.3-.15l-.33-.23-.33-.22c-.31-.18-.5-.3-.58-.33a46.22,46.22,0,0,0-4.43-2l-2.39-.93-2.33-.92-1.65-.67-1.74-.79c-1.45-.61-2.63-1.09-3.53-1.45l-.54-.24c-.18-.13-.34-.25-.48-.37-.39-.32-.43-.6-.12-.85.15-.12.4-.1.76.06l.36.17a.35.35,0,0,0,.36,0,1.36,1.36,0,0,0,.24-.54l.08-.32a.84.84,0,0,1,0-.27c.54-1.3,1.3-3,2.3-5.1l1.26-2.61,1.22-2.54,3.29-7.11,3.26-7.05q4-8.65,6.29-13.9a3.87,3.87,0,0,0,.21-.62l.38-.84a4.12,4.12,0,0,0,.4-1.05q0-.09-.6-.27l-.42-.19a.44.44,0,0,1-.24-.26.89.89,0,0,1,0-.44.73.73,0,0,1,.28-.45c.11-.14.43-.09.95.14l.66.3.63.36c.24.11.65.27,1.22.48l.63.21.54.24c1.65.61,3.65,1.46,6,2.57l3.05,1.39,3.09,1.47.6.27.69.38a4.66,4.66,0,0,0,1.08.49l.18-.07c.07-.06.13-.08.17-.06.62.23.83.62.63,1.15-.07.16-.22.43-.43.81l-.31.52-.3.51a2.42,2.42,0,0,0-.33.72l-.07.32-.14.3c-.11.14-.19.21-.23.19l-.08,0a.26.26,0,0,0-.15.16l-.17.21,0,.26a.43.43,0,0,1-.23.34.84.84,0,0,1-.72-.33,1.1,1.1,0,0,1-.34-.66,3.74,3.74,0,0,1,.41-1.4,9,9,0,0,1,.75-1.33l.05-.12.17-.21c.15-.12.21-.21.19-.27s-.28-.27-.72-.48l-.51-.15-.24-.11c-2.34-1.2-4.77-2.38-7.29-3.51-.08,0-.27-.15-.57-.34l-.39-.25-.48-.21c-.76-.44-1.24-.61-1.43-.51s-.2.18-.31.52l-.19.41-.1.39q-.94,2.25-2.77,6l-1.47,3.09c-.59,1.18-1.09,2.24-1.53,3.21l-.13.3-.31.51c-.29.54-.42.87-.37,1s.24.16.66.3l.44.13.36.16c.64.29,1.36.67,2.17,1.13.58.31,1.26.71,2,1.21A1.77,1.77,0,0,0,404,338Zm-18.67,15.09c.42-.92.69-1.57.81-1.94l-.46,1-.55,1a13.05,13.05,0,0,0-.77,2Zm3.34-7.37c.49-1.08.82-1.87,1-2.37l-.57,1.26-.66,1.29a21.07,21.07,0,0,0-1,2.46Zm5.69-7.32c.11-.24.11-.28,0-.14a11.57,11.57,0,0,0-1,1.8l-.38,1-.46,1a110.21,110.21,0,0,0-5,11.41c.89-1.86,2-4.29,3.31-7.31l1.57-3.62Zm5.3-17.45-.75,1.82c-.59,1.52-1.06,2.72-1.42,3.62l-.24.54c-.11.24-.07.21.11-.09,1.33-2.63,2.48-4.8,3.46-6.53l.43-1c.2-.43.27-.69.21-.77a1,1,0,0,0-.34-.22,1,1,0,0,0-.41,0c-.06,0-.13.13-.22.33a1.07,1.07,0,0,0-.11.38Zm-1.07,6.37c-.19.4-.25.59-.19.57a16.48,16.48,0,0,0,1.1-2.11l.43-1.1.46-1c-.37.7-.82,1.65-1.37,2.85A4.46,4.46,0,0,0,398.63,327.28Z"/><path d="M443.32,365.82l.28-.37.31-.51c.29-.38.43-.64.41-.76s-.33-.47-.91-.86l-.76-.42-.31-.24-.3-.15-1.18-.73-.35-.19-.32-.24a1.58,1.58,0,0,0-.51-.31c-.09,0-.31.15-.63.51l-.38.38-.29.27-2.9,2.5-2.82,2.48q-3.45,3-5.85,5.38l-1.53,1.56-1.58,1.53q-1.79,1.78-3.25,3.06c-.2.18-.62.52-1.28,1a1.71,1.71,0,0,0,.39.47l.33.33a.42.42,0,0,1,.17.21v.09l.06.14a1.43,1.43,0,0,1,.07.46c0,.37-.13.59-.34.65s-.57-.19-1.27-.72l-.46-.27-1.09-.84a3,3,0,0,0-.51-.31l-.25-.1-.11-.08A1,1,0,0,1,416,379c0-.35.16-.57.34-.66s.4.06.74.33l.37.28a.84.84,0,0,0,.38,0,3.48,3.48,0,0,0,1-.83l.61-.69a3.84,3.84,0,0,1,.55-.5q9.45-9,14.91-13.85l3.74-3.27,3.65-3.25q4.36-3.87,7.55-7.05l.26-.23.2-.26c.24-.25.45-.45.62-.6l.25-.22.39-.28c.28-.23.42-.37.41-.43s-.27-.3-.77-.51l-.59-.2a1,1,0,0,1-.34-.43.65.65,0,0,1,0-.47,1,1,0,0,1,.31-.51c.23-.16.72,0,1.46.37l.87.59c.38.23.66.39.87.49l.7.38a5.72,5.72,0,0,1,.67.42,9.56,9.56,0,0,0,1.23.78l.61.39.62.38.36.28.46.27a2.62,2.62,0,0,1,.68.52,1.45,1.45,0,0,1,0,.61,1,1,0,0,1-.3.51h-.33a1.76,1.76,0,0,1-.38,0l-.37-.28c-.17-.13-.29-.2-.35-.19a4.94,4.94,0,0,0-.7,1.13,6,6,0,0,0-.4.85,5.39,5.39,0,0,0-.3.6l-1.58,3.26L452.82,360q-1.92,3.83-3.44,6.56l-.73,1.27-.8,1.37c-.67,1.09-1.17,2-1.52,2.64L445,374.46l-1.34,2.62q-1.63,3.23-2.77,5.25c-.62,1-1.29,2.3-2,3.83l-1,2-1,2-.14.31-.15.3-.4.85c-.35.67-.51,1.05-.46,1.14a1,1,0,0,0,.48.45l.47.36a1.05,1.05,0,0,1,0,.9,1,1,0,0,1-.55.49c-.15,0-.5-.11-1-.47l-1.36-1c-.32-.24-.74-.59-1.27-1.05l-2-1.52c-.35-.27-.52-.51-.52-.73.13-.9.62-1,1.47-.2A236.71,236.71,0,0,1,443.32,365.82Zm-7.64,19.5,2.08-5.21-1.27,2.43-1.29,2.33q-1.54,2.86-2.32,4.76A11.72,11.72,0,0,0,435.68,385.32ZM443,361.26l1,.8a3.14,3.14,0,0,0,1.07.66q.09,0,.48-.63l.26-.55a2.46,2.46,0,0,1,.23-.41c.4-.74.89-1.66,1.46-2.77l.64-1.49.74-1.51a45.44,45.44,0,0,1,2.77-5.34q-2.16,2.16-5.38,5.08l-2.74,2.38-2.68,2.42Zm4.69,4.26q-2.43,4.35-6.43,12.3Q445.39,370.47,447.69,365.52Zm6.1-13.06.7-1.45.66-1.41q0-.14-.18-.3l-.25-.11-.25-.11a47.16,47.16,0,0,0-3.09,6.09l-1.33,3c-.5,1.16-1,2.18-1.42,3.05.5-.72,1.09-1.68,1.78-2.86l.88-1.48.92-1.53A26.62,26.62,0,0,0,453.79,352.46Z"/><path d="M483.43,391.84l-4.6,3.52-4.65,3.56q-1.77,1.36-4.42,3.63l-2.2,1.89-2.28,1.88q-4.38,3.58-6.59,5.67l-1.06.87c-.52.48-.78.78-.79.91s.14.38.48.79l.43.42.25.3q1.15,1.52,3.21,3.92l1.72,2,1.63,2a9.51,9.51,0,0,1,.93-.84,9.16,9.16,0,0,1,1.16-1c1-.71,1.61-1,2-.87a1,1,0,0,1,.61.43,1,1,0,0,1,.3.78,1.88,1.88,0,0,1-.64.78l-.6.4-1,.84-.46.47a9.16,9.16,0,0,1-1,.7l-.15.12-.25.12a.86.86,0,0,1-.44.19.41.41,0,0,1-.32-.08l-.13-.06h-.1a3.53,3.53,0,0,1-.89-.88l-.41-.6-1.84-2.23-1.67-1.95-1.55-1.88-1.45-1.87q-1.71-2.08-3.29-3.69a17.87,17.87,0,0,0-2.49-2.2l-.08-.1-.06,0-.3-.27a.48.48,0,0,1-.11-.76.85.85,0,0,1,.95-.18,10.66,10.66,0,0,0,1.14.77,5.8,5.8,0,0,0,1-.75l1-.83c.95-.78,2.34-2,4.17-3.52l2-1.81,2.13-1.76c.81-.67,1.83-1.47,3-2.41l1.66-1.19,1.67-1.29c2.76-2.1,4.91-3.83,6.44-5.21q3.79-3.36,10.46-8.42a4.71,4.71,0,0,1,.6-.4l.7-.5a3.54,3.54,0,0,0,.81-.66c0-.09,0-.23-.24-.4a3.2,3.2,0,0,0-.52-.43c-.52-.42-.76-.65-.73-.68.74-.48,1.24-.67,1.51-.55a2.71,2.71,0,0,1,1.11,1l.2.35.25.31a1.07,1.07,0,0,0,.48.37,2.43,2.43,0,0,1,.54.66,7.08,7.08,0,0,0,.88,1.07l.5.61.59.62c.93,1,1.35,1.64,1.26,1.94a1.41,1.41,0,0,1-.36.39c-.24.19-.39.29-.45.28q-.37,0-.69-.63l-.32-.59a2.86,2.86,0,0,0-.46-.46A70.08,70.08,0,0,1,483.43,391.84Zm3.71-8.33-2.83,2.15-2.87,2.19c-2.41,1.92-4.29,3.35-5.66,4.31-.61.44-1.35,1-2.23,1.74l-2.14,1.85-4.13,3.48-4.13,3.56q-5.14,4.32-8.48,6.89c-.64.46-.94.76-.89.89.09.38.28.51.57.38l.56-.46.27-.3.31-.34a5.49,5.49,0,0,1,.52-.51,1.49,1.49,0,0,1,.49-.23,4.34,4.34,0,0,0,.5-.33,17.82,17.82,0,0,0,1.94-1.68l1-.89,1-.88A349.21,349.21,0,0,1,489.63,382s0-.08,0-.15a7.35,7.35,0,0,0-1.2.73l-.65.45ZM469,401.13l2.12-1.57,4.24-3.23a84.11,84.11,0,0,0,7.87-6.9l-4.1,3.2L475,395.87q-4.82,3.87-8,6.78Z"/><g class="cls-5"><path class="cls-6" d="M771.09,623.5c-1.55,1-3.13,2-4.7,3.21a63.49,63.49,0,0,1-17.22,9.8c-12.33,4.41-26.39,4.61-38.31-1.18-5-2.42-9.62-5.88-12.56-10.58C694.07,618,693.79,609.51,691,602c-4-10.92-13.46-20.32-13.12-32,.32-10.84,9.27-19.57,18.87-24.61a67,67,0,0,1,26.59-7.5,56.29,56.29,0,0,1,15.14,1c6,1.25,11.23,3.18,17.5,3,10.56-.28,19.43-7.15,29.84-2.08,6,2.91,10.54,8.07,14.34,13.52,3,4.36,5.75,9.16,6.39,14.43,1.24,10.16-5.26,19.47-11.42,27.64l-15.87,21C776.88,619.68,774.05,621.58,771.09,623.5Z"/><path class="cls-7" d="M844.2,630.67c-5.48,14.76-18.07,26-32.09,33.18-5,2.59-10.44,4.76-16.1,5.06-5.41.29-10.74-1.12-16.1-1.9-4.92-.71-9.91-.87-14.83-1.47-1.84-.22-3.66-.51-5.47-.89-6.67-1.44-13.36-4.65-16.93-10.46-4.51-7.32-3-16.92.49-24.78,2.62-5.93,6.25-11.39,9.16-17.19a57.19,57.19,0,0,0,2.54-5.78c2.73-7.4,3.47-15.46,6-22.88a35.42,35.42,0,0,1,3.6-7.6c4-6.3,9.34-9.41,15.48-13.23,11.07-6.86,24.12-10,35.89-5.72a33.52,33.52,0,0,1,10.75,6.37c4.79,4.17,8.4,9.53,11.4,15.12C846.58,594.41,850.48,613.75,844.2,630.67Z"/><path class="cls-8" d="M854.6,536.9c1.91,14.32-1.5,29.39-10.85,40.29-4.76,5.54-10.74,9.88-16.68,14.14-4.13,3-8.45,6-13.45,6.87-7.58,1.35-15.33-2.44-23-1.34-4.3.62-8.37,2.77-12.7,2.6-6-.24-10.8-4.76-14.76-9.22-3.65-4.13-7.14-8.57-8.85-13.8-2.61-7.92,1.78-15,1.92-22.91.17-9.43,1.24-18.82,1.77-28.23.54-9.63,4-19.16,14.11-22.4,8.93-2.84,19,.69,27.84-2.5,3.44-1.24,6.49-3.45,10-4.56,5.6-1.78,11.76-.51,17.15,1.82C842.89,504.49,852.37,520.18,854.6,536.9Z"/></g><path class="cls-9" d="M732.07,677.41c-.57,0-1.3,0-2.18-.12l-.16,0-.15,0h-.19s0,.12,0,.32l0,.26V678c0,1.22,0,3.05,0,5.51a3.86,3.86,0,0,1,.79,0l.41,0h.46l.12,0,.14,0c.11,0,.18,0,.19,0a.3.3,0,0,0,.07-.17v-.24c0-.22,0-.36.12-.4a.47.47,0,0,1,.29,0c.13,0,.2.1.22.16a.47.47,0,0,1,0,.2l0,.16,0,.2a4.38,4.38,0,0,1,0,.59,2.53,2.53,0,0,0,0,.34v.36c0,.32,0,.51-.07.57s-.12,0-.27,0a.35.35,0,0,1-.28-.09.91.91,0,0,1,0-.58l0-.14v-.15a.34.34,0,0,0,0-.24,8.88,8.88,0,0,1-1.53,0l-.12,0-.17,0c-.12,0-.2,0-.21,0s-.07.16-.07.43v.28c0,.1,0,.16,0,.2,0,1.1,0,2.61,0,4.52l0,1.18v1.15c0,.91,0,1.64,0,2.2h.16l.15,0a.43.43,0,0,1,.28,0,.34.34,0,0,1,.12.21.46.46,0,0,1,0,.24c0,.07-.25.1-.62.1H729a3.48,3.48,0,0,0-.39,0,7.16,7.16,0,0,0-.76,0h-.43a2,2,0,0,1-.34,0,.35.35,0,0,1-.12-.19c0-.08,0-.14,0-.17s.09-.07.23-.1a.4.4,0,0,1,.15,0l.14,0a1,1,0,0,0,.05-.45l0-.34v-.26c0-.38,0-.91,0-1.58s0-1.19,0-1.51v-4.19c0-1.63,0-3,.1-4.19,0-.59,0-1.09,0-1.51,0-.61,0-1.13,0-1.58v-.29l0-.31a1,1,0,0,0,0-.45.23.23,0,0,0-.12-.05l-.14-.07q-.22-.08-.15-.24c0-.07.15-.11.39-.15h.55a23.39,23.39,0,0,1,2.73,0l.69,0,.72,0c.54,0,1,0,1.48,0h.2l.19,0h.26l0,0,0-.05,0,0a.35.35,0,0,1,.22,0,.27.27,0,0,1,.16.19.61.61,0,0,1,0,.38l-.07.24,0,.24a3.1,3.1,0,0,0,0,.34v.5l0,.1,0,.21c0,.18,0,.29,0,.34a.51.51,0,0,1-.19,0l-.12,0-.09,0a.93.93,0,0,1-.15-.52l0-.36,0-.15v-.5a.9.9,0,0,0,0-.33Q733.3,677.46,732.07,677.41Zm-3.69.55v-.31a.84.84,0,0,0-.07-.41c-.06,0-.11,0-.14,0l0,0v.05q0,.36,0,.93l0,.51,0,.52c0,.79,0,1.79,0,3l0,1.51v1.41l0-.83,0-.87c.05-.68.08-1.27.09-1.75.07-1.35.08-2.55,0-3.59A1.52,1.52,0,0,0,728.38,678Zm0,14.52a2.51,2.51,0,0,0-.07-.53v.31l0,.29a1.47,1.47,0,0,0,.09.55Zm.15-7.38a22.77,22.77,0,0,0,0,5.63Z"/><path class="cls-9" d="M740.6,676.72l.12.07a.37.37,0,0,0,.12.07l.21,0,.22,0a3,3,0,0,1,1.82,1.68,11.57,11.57,0,0,1,.52,1.36c.15.5.28,1,.39,1.39.19.93.33,1.85.43,2.76v.24a.38.38,0,0,0,0,.16.31.31,0,0,0,.17.12l.12.05.1.07a.77.77,0,0,1,.19.36.53.53,0,0,1-.27.39l-.09.07-.1,0a.31.31,0,0,0-.12.16,2.21,2.21,0,0,0,0,.32v.31l-.14,1.75-.08.59,0,.55c-.07.45-.13.82-.2,1.11a7.35,7.35,0,0,1-1.19,2.58,6.91,6.91,0,0,1-.82.94,3.23,3.23,0,0,1-1.12.64,3.09,3.09,0,0,1-1.42,0,2.47,2.47,0,0,1-1.65-1.12,7.37,7.37,0,0,1-.77-1.68,16.06,16.06,0,0,1-.93-6.37,25.75,25.75,0,0,1,.48-4.43A7.73,7.73,0,0,1,738,677.6a2.7,2.7,0,0,1,1.8-1A1.6,1.6,0,0,1,740.6,676.72Zm-3.88,10.82a14.9,14.9,0,0,0,.21,1.54,9.85,9.85,0,0,0,.72,2.65c-.24-1.05-.42-2-.55-2.8a26.21,26.21,0,0,1-.36-3s0,0,0,0A8.85,8.85,0,0,0,736.72,687.54Zm.84-5a15.16,15.16,0,0,0-.15,4.1,36.36,36.36,0,0,0,.58,3.88A52.19,52.19,0,0,1,737.56,682.51Zm.69,10.66a.92.92,0,0,0,.34.38,1.48,1.48,0,0,1-.29-.4l-.12-.24-.15-.24A3.75,3.75,0,0,0,738.25,693.17Zm.36-13.82a31.59,31.59,0,0,0-.19,8c.09,1.28.19,2.25.28,2.92a11.41,11.41,0,0,0,.63,2.59,3.58,3.58,0,0,0,.36.74c.2.32.39.49.55.5a.9.9,0,0,0,.4,0l.2-.07L741,694a2.55,2.55,0,0,0,.45-.29l.36-.33q1.85-1.89,2-7.35a4.62,4.62,0,0,1-2.49-.51,4.2,4.2,0,0,1-1.72-1.51A6.61,6.61,0,0,1,738.61,679.35Zm1.68-1.84a2.78,2.78,0,0,0-.84,1.43,4.44,4.44,0,0,0-.07,2A7.91,7.91,0,0,1,740.29,677.51Zm0,2.06a7,7,0,0,0,.26,3.71l.17.43.14.41a1.89,1.89,0,0,0,.41.62,3.16,3.16,0,0,0,.79.53,1.88,1.88,0,0,0,1,.28,1.54,1.54,0,0,0,.48-.09q.29-.12.33-.24a1.74,1.74,0,0,0,0-.48l0-.31,0-.31c-.15-1.06-.32-2.07-.53-3a8.69,8.69,0,0,0-1.39-3.31l-.14-.12-.17-.17c-.14-.12-.25-.18-.31-.16s0,0,0,0A3.74,3.74,0,0,0,740.31,679.57Z"/><path class="cls-9" d="M751.78,676.72l.12.07.12.07.21,0,.22,0a3,3,0,0,1,1.82,1.68,11.44,11.44,0,0,1,.53,1.36c.14.5.27,1,.38,1.39a27.18,27.18,0,0,1,.43,2.76v.24c0,.09,0,.15,0,.16s.07.08.16.12l.12.05.1.07a.69.69,0,0,1,.19.36.52.52,0,0,1-.26.39l-.1.07-.09,0a.23.23,0,0,0-.12.16,1.22,1.22,0,0,0,0,.32v.31l-.14,1.75-.07.59,0,.55c-.07.45-.13.82-.19,1.11A7.54,7.54,0,0,1,754,693a7.62,7.62,0,0,1-.81.94,3.27,3.27,0,0,1-1.13.64,3,3,0,0,1-1.41,0,2.47,2.47,0,0,1-1.66-1.12,7.46,7.46,0,0,1-.76-1.68,15.89,15.89,0,0,1-.94-6.37,25.75,25.75,0,0,1,.48-4.43,7.85,7.85,0,0,1,1.46-3.38,2.75,2.75,0,0,1,1.8-1A1.59,1.59,0,0,1,751.78,676.72Zm-3.88,10.82a12.85,12.85,0,0,0,.22,1.54,9.54,9.54,0,0,0,.71,2.65c-.24-1.05-.42-2-.55-2.8a26.21,26.21,0,0,1-.36-3s0,0,0,0A8.85,8.85,0,0,0,747.9,687.54Zm.84-5a15.58,15.58,0,0,0-.15,4.1,36.36,36.36,0,0,0,.58,3.88A53.5,53.5,0,0,1,748.74,682.51Zm.69,10.66a1,1,0,0,0,.34.38,1.73,1.73,0,0,1-.29-.4l-.12-.24-.14-.24A4,4,0,0,0,749.43,693.17Zm.36-13.82a32.06,32.06,0,0,0-.19,8c.1,1.28.19,2.25.29,2.92a10.94,10.94,0,0,0,.62,2.59,3.58,3.58,0,0,0,.36.74c.21.32.39.49.55.5a.94.94,0,0,0,.41,0L752,694l.19-.07a3,3,0,0,0,.46-.29l.36-.33c1.22-1.26,1.9-3.71,2-7.35a4.59,4.59,0,0,1-2.49-.51,4.22,4.22,0,0,1-1.73-1.51A6.61,6.61,0,0,1,749.79,679.35Zm1.68-1.84a2.92,2.92,0,0,0-.84,1.43,4.44,4.44,0,0,0-.07,2A8,8,0,0,1,751.47,677.51Zm0,2.06a6.89,6.89,0,0,0,.27,3.71l.16.43.15.41a1.74,1.74,0,0,0,.4.62,3.16,3.16,0,0,0,.79.53,1.88,1.88,0,0,0,1,.28,1.45,1.45,0,0,0,.48-.09.65.65,0,0,0,.34-.24,3.47,3.47,0,0,0,0-.48l0-.31,0-.31c-.14-1.06-.32-2.07-.53-3a8.53,8.53,0,0,0-1.39-3.31l-.14-.12-.17-.17c-.14-.12-.25-.18-.31-.16s0,0,0,0A3.74,3.74,0,0,0,751.49,679.57Z"/><path class="cls-9" d="M759.9,676.81l.55.05.53,0a5.07,5.07,0,0,1,3.16,1.24,6.84,6.84,0,0,1,1.65,2.83,12.23,12.23,0,0,1,.43,4.12,33.43,33.43,0,0,1-.45,4.24c-.39,2.22-1.2,3.69-2.45,4.43a5,5,0,0,1-1.53.55,14.23,14.23,0,0,1-2.92.24l-.27,0h-.26q-.32,0-.36-.12v-.16a.25.25,0,0,1,.12-.17l.12,0,.12,0c.1,0,.16,0,.19,0a1.53,1.53,0,0,0,0-.47v-.56q0-.62,0-1.62l0-.79v-.79c0-1.73,0-3.1.05-4.12,0-.48,0-1,0-1.61v-1.56c0-1.29,0-2.33,0-3.13q0-.15,0-.51v-.83l0-.34a1.16,1.16,0,0,0,0-.41s-.14-.06-.31,0l-.19,0a.42.42,0,0,1-.15-.07.2.2,0,0,1,0-.27.34.34,0,0,1,.24-.11l.36,0,.29,0A5.25,5.25,0,0,1,759.9,676.81Zm-.46,12v-3.52a60.09,60.09,0,0,0,0,7.11C759.43,691.47,759.43,690.27,759.44,688.84Zm0-8.77v-.43a6.63,6.63,0,0,0-.07-.74,6,6,0,0,0,.09,1.58Zm.36-1.46,0-.26,0-.29c0-.45,0-.7,0-.74s0,0-.08,0l0,.43v.45a5.53,5.53,0,0,0,.09.84A1.6,1.6,0,0,1,759.83,678.61Zm0,14.75v.1c0,.09,0,.17-.05.24,0,.24,0,.36.07.36s.1-.06.1-.22v-1.53c0-.43,0-.77,0-1l0,.51v.47c0,.39,0,.72,0,1ZM760,683l0,1.41,0,1.44c0,1.13,0,2.09,0,2.87C760.06,686.54,760.07,684.64,760,683Zm0-1a4.32,4.32,0,0,0,0-.64v.36l0,.36a3,3,0,0,0,0,.64Zm3.16,10.71.17-.34.16-.36a7.39,7.39,0,0,0,.36-1.65,52.06,52.06,0,0,0,.36-7.61l-.05-1c0-.36,0-.68,0-.95a6.67,6.67,0,0,0-.34-1.66,2.67,2.67,0,0,0-1.56-1.58,3.57,3.57,0,0,0-1-.16l-.28-.05-.27,0c-.19,0-.29,0-.29.1,0,.43,0,1.1.08,2s0,1.6,0,2.06,0,1.14,0,2.06,0,1.63,0,2.11q0,4.93-.12,8.26a3.65,3.65,0,0,0,2.33-.65A2.43,2.43,0,0,0,763.18,692.74Zm1.56-9.1a29.51,29.51,0,0,1-.08,3l-.09,1.44c0,.54-.05,1-.05,1.41A22.16,22.16,0,0,0,764.74,683.64Zm.55,4-.17,1.35c-.07.55-.11,1-.15,1.29l.1-.62.1-.67c.06-.53.12-1,.16-1.39.13-1.11.21-2.07.24-2.9a9.54,9.54,0,0,0-.88-5.08,32,32,0,0,1,.72,5.25A20.2,20.2,0,0,1,765.29,687.61Z"/><path class="cls-9" d="M776,676.81l.55.05.52,0a5,5,0,0,1,3.16,1.24,6.74,6.74,0,0,1,1.66,2.83,12.23,12.23,0,0,1,.43,4.12,33.7,33.7,0,0,1-.46,4.24c-.38,2.22-1.19,3.69-2.44,4.43a5,5,0,0,1-1.53.55,14.3,14.3,0,0,1-2.92.24l-.27,0h-.26q-.32,0-.36-.12v-.16a.22.22,0,0,1,.12-.17l.12,0,.12,0c.09,0,.16,0,.19,0a1.81,1.81,0,0,0,0-.47v-.56q0-.62,0-1.62l0-.79v-.79c0-1.73,0-3.1.05-4.12,0-.48,0-1,0-1.61v-1.56c0-1.29,0-2.33,0-3.13,0-.1,0-.27,0-.51v-.83l0-.34a2.31,2.31,0,0,0,0-.41s-.14-.06-.31,0l-.2,0a.37.37,0,0,1-.14-.07c-.08-.1-.09-.19,0-.27a.3.3,0,0,1,.24-.11l.36,0,.28,0A5.36,5.36,0,0,1,776,676.81Zm-.46,12v-3.52a60.09,60.09,0,0,0,0,7.11C775.54,691.47,775.54,690.27,775.56,688.84Zm0-8.77v-.43a4.84,4.84,0,0,0-.07-.74,6,6,0,0,0,.1,1.58Zm.36-1.46,0-.26,0-.29c0-.45,0-.7,0-.74s0,0-.07,0l0,.43v.45a4.49,4.49,0,0,0,.09.84A1.53,1.53,0,0,1,775.94,678.61Zm0,14.75v.1c0,.09,0,.17-.05.24,0,.24,0,.36.07.36s.1-.06.1-.22v-1.53c0-.43,0-.77,0-1l0,.51v.47c0,.39,0,.72,0,1Zm.16-10.32,0,1.41,0,1.44c0,1.13,0,2.09,0,2.87C776.17,686.54,776.18,684.64,776.13,683Zm0-1a4.84,4.84,0,0,0,0-.64v.36l0,.36a3.19,3.19,0,0,0,0,.64Zm3.17,10.71.16-.34.17-.36a8,8,0,0,0,.36-1.65,52.06,52.06,0,0,0,.36-7.61l-.05-1c0-.36,0-.68,0-.95a6.29,6.29,0,0,0-.33-1.66,2.67,2.67,0,0,0-1.56-1.58,3.64,3.64,0,0,0-1-.16l-.29-.05-.26,0c-.19,0-.29,0-.29.1,0,.43,0,1.1.07,2s0,1.6,0,2.06,0,1.14,0,2.06,0,1.63,0,2.11q0,4.93-.12,8.26a3.62,3.62,0,0,0,2.32-.65A2.15,2.15,0,0,0,779.3,692.74Zm1.55-9.1a29.08,29.08,0,0,1-.07,3l-.09,1.44c0,.54-.05,1-.05,1.41A22.56,22.56,0,0,0,780.85,683.64Zm.55,4-.16,1.35c-.07.55-.12,1-.15,1.29l.1-.62.09-.67c.07-.53.12-1,.17-1.39.13-1.11.21-2.07.24-2.9a9.43,9.43,0,0,0-.89-5.08,32,32,0,0,1,.72,5.25A17.44,17.44,0,0,1,781.4,687.61Z"/><path class="cls-9" d="M790.43,683.35l0-.24c0-.21,0-.33.07-.36a.24.24,0,0,1,.26,0,.45.45,0,0,1,.22.17.67.67,0,0,1,0,.34v.35a4.3,4.3,0,0,0,0,.48l0,.27,0,.24c0,.4,0,.61-.17.64a.3.3,0,0,1-.36-.12.9.9,0,0,1-.12-.38v-.38a1.12,1.12,0,0,0,0-.29s-.08,0-.2,0l-.14,0H790l-.33,0-.34-.05-.69-.07-.1,0-.14,0h-.22s0,.12,0,.31a3.43,3.43,0,0,0,0,.48c0,.67,0,1.44,0,2.3l0,2.32c0,2,0,3.6,0,4.7l1.13,0,1.1,0c.93-.05,1.69-.07,2.3-.05v-.19l0-.22a2.08,2.08,0,0,1,0-.5c0-.43.08-.68.21-.74a.34.34,0,0,1,.22,0,.26.26,0,0,1,.24,0s0,.12,0,.28l0,.2v.16a3.19,3.19,0,0,0,0,1.06l0,.07.05.09a.27.27,0,0,1,0,.22c0,.11-.18.16-.46.14l-.14,0-.14,0-.24,0a17.27,17.27,0,0,0-1.77,0l-.94.05-.91,0-.64,0h-.7l-1.39,0h-.21l-.22,0c-.18,0-.23-.13-.17-.26s.12-.1.27-.1h.14c.06,0,.1,0,.12,0a.35.35,0,0,0,0-.21l0-.12a.33.33,0,0,1,0-.1c0-.51,0-1.19,0-2l0-1.06,0-1,0-2.85,0-2.82c0-2.32,0-4.17,0-5.56a1.52,1.52,0,0,0,0-.24v-.33a1.44,1.44,0,0,0,0-.41s-.1,0-.24,0h-.17a.17.17,0,0,1-.12-.05.37.37,0,0,1-.07-.14.2.2,0,0,1,0-.19c0-.07.12-.1.33-.1H786l.27,0,.48,0,.24,0h.21c.64-.05,1.43-.07,2.37-.05h1.22l1.25,0h.24l.29,0H793l0-.05.05,0c.24,0,.37.08.39.29a3.19,3.19,0,0,1,0,.33l0,.22,0,.22a1.3,1.3,0,0,0,0,.28l0,.12v.12c0,.07,0,.1-.05.1l0,0a.09.09,0,0,0,0,.07l0,.1,0,.1a.13.13,0,0,1,0,.14.3.3,0,0,1-.29,0,.38.38,0,0,1-.21-.17,1.36,1.36,0,0,1-.08-.53,3.31,3.31,0,0,1,0-.55v0l0-.1a.15.15,0,0,0,0-.12.58.58,0,0,0-.31-.05l-.19,0h-.1c-1-.05-1.94-.08-3-.08l-.24,0-.16,0h-.19c-.32,0-.51,0-.55,0s0,.09,0,.22v.17l0,.14q0,.88,0,2.4l0,1.24q0,.72,0,1.29v.12l0,.22c0,.22,0,.35,0,.38s.11,0,.27,0l.16,0h.15c.25,0,.55,0,.88.05s.53,0,.87.09A.84.84,0,0,0,790.43,683.35Zm-4-5,0,.71c0,.6.06,1.07.08,1.42v.21c0,.1,0,.08,0,0,.05-1.07.1-2,.17-2.69v-.38c0-.18,0-.27-.05-.29l-.14,0a.28.28,0,0,0-.15.05.3.3,0,0,0,0,.14.46.46,0,0,0,0,.14Zm.07,9.86c0-.43,0-.74,0-.93v.5l0,.53a7.69,7.69,0,0,0,0,1Zm0,2.95c0-.37,0-.62,0-.77v.41l0,.43a4.66,4.66,0,0,0,0,.79Zm.53-10.54c0,.16,0,.23,0,.22a4.79,4.79,0,0,0,.05-.87l0-.43v-.4c0,.28,0,.67,0,1.15A2.16,2.16,0,0,0,787,680.62Zm.26,4.31c0-.09,0-.11,0,0a4.72,4.72,0,0,0,0,.75l0,.38v.41a37.7,37.7,0,0,0,.08,4.52c0-.75,0-1.72,0-2.92l0-1.44Z"/><path class="cls-9" d="M799.62,681.32l-.07,2.1-.07,2.13c0,.55,0,1.24,0,2.09l0,1.05v1.08c0,1.37,0,2.43.08,3.16v.5a1.07,1.07,0,0,0,.07.44s.14,0,.33,0l.22,0h2l.95,0h.94a3.46,3.46,0,0,1,0-.46,2.52,2.52,0,0,1,0-.55c0-.43.08-.69.21-.77a.37.37,0,0,1,.26-.07c.15,0,.24,0,.29.1a.61.61,0,0,1,.07.36l0,.26v.48l0,.24a3.66,3.66,0,0,1,0,.43V694l0,.1a.28.28,0,0,1-.05.16.16.16,0,0,1-.1.08l-.05,0,0,0a1.12,1.12,0,0,1-.46,0l-.26,0h-1l-.94,0H801l-.86,0c-.66,0-1.26,0-1.8.07a6.56,6.56,0,0,0-1.2.19h0v0l-.14,0a.18.18,0,0,1-.24-.14.31.31,0,0,1,.17-.32,3.28,3.28,0,0,0,.48-.14,2.56,2.56,0,0,0,0-.45v-.48c0-.45,0-1.11,0-2l0-1v-1c0-.38,0-.85,0-1.41l0-.74,0-.77c0-1.26.06-2.27,0-3-.05-1.23,0-2.86,0-4.88a1.42,1.42,0,0,1,0-.27l0-.31a2.07,2.07,0,0,0,0-.38s-.08,0-.17,0a1.13,1.13,0,0,0-.24,0c-.24.05-.36.07-.36.05,0-.32.09-.5.19-.55a1,1,0,0,1,.55-.07l.14,0h.15a.31.31,0,0,0,.21-.05h.32a2,2,0,0,0,.5,0h.29l.31,0c.49,0,.77,0,.84.1a.66.66,0,0,1,0,.19.56.56,0,0,1,0,.19.4.4,0,0,1-.34.05l-.24-.05-.24,0A25.61,25.61,0,0,1,799.62,681.32Zm-1.48-3,0,1.29L798,681c0,1.11,0,2-.09,2.58,0,.27,0,.62,0,1l0,1,0,2,0,2c0,1.63,0,3,0,4,0,.29,0,.44,0,.45s.21,0,.24-.07v-.26l0-.14,0-.17a2.12,2.12,0,0,1,0-.27.67.67,0,0,1,0-.19.82.82,0,0,0,0-.21,6.21,6.21,0,0,0,0-.94l0-.48,0-.47a128.74,128.74,0,0,1,.07-13.49s0,0,0,0a2.25,2.25,0,0,0-.08.5l0,.29Zm.77,9.17,0-1,.08-1.94a31.59,31.59,0,0,0-.12-3.81l0,1.89-.05,1.92c0,1.5,0,2.78.05,3.83Z"/><path class="cls-9" d="M809.92,681.27l0,1.05,0,1.08c0,.91-.06,1.63-.07,2.15s0,1.27,0,2.14l0,1v1.08a21.53,21.53,0,0,0,.22,3.57l0,.12,0,.14c0,.11,0,.17.05.17l.1,0h.17a.54.54,0,0,1,.26,0,.26.26,0,0,1,.1.19.36.36,0,0,1,0,.19c0,.05-.17.07-.41.07h-.53a8.68,8.68,0,0,0-2.25.24l-.09,0-.12,0c-.1,0-.16,0-.17,0s-.08-.13,0-.24a.41.41,0,0,1,.14-.21l.12,0,.15,0c.13,0,.2,0,.21-.07s0-.07,0-.16l0-.15v-2.3c0-1,0-1.79,0-2.3s0-1.07,0-1.94,0-1.52,0-2v-.51l0-.5c0-.42,0-.75,0-1,0-1.21,0-2.84,0-4.88a1.68,1.68,0,0,1,0-.27l0-.31a1,1,0,0,0,0-.38s-.08,0-.19,0l-.14,0h-.12c-.2,0-.29-.07-.29-.21s.1-.25.31-.31a3.17,3.17,0,0,1,1-.07h1l.29,0h.36c.29,0,.45,0,.5.1a.27.27,0,0,1,0,.19.29.29,0,0,1,0,.19c-.05,0-.16.06-.33,0l-.24,0-.24,0A25.4,25.4,0,0,1,809.92,681.27Zm-1.48-3-.05,1.32,0,1.29c0,1.12-.05,2-.1,2.59,0,.27,0,.61,0,1l0,1,0,2,.05,2c0,1.62,0,3,0,4,0,.29,0,.44.05.46s.21,0,.24-.07v-.27l0-.14,0-.15c0-.12,0-.22,0-.28a.41.41,0,0,1,0-.19,2,2,0,0,0,0-.22,6.07,6.07,0,0,0,0-.93l0-.48,0-.48a126,126,0,0,1,.07-13.49s0,0-.05,0a3.3,3.3,0,0,0-.07.5l0,.29Zm.76,9.17,0-1,.07-1.94a31.59,31.59,0,0,0-.12-3.81l-.05,1.92,0,1.92c0,1.48,0,2.75,0,3.8Z"/><path class="cls-9" d="M817,684.91l.26,1.87.27,1.89c.21,1.45.4,2.69.57,3.71l.27-1.92.24-1.94c.2-1.64.39-2.93.55-3.88.48-2.84.89-5,1.24-6.44a1.65,1.65,0,0,0,0-.21l.1-.29a1.21,1.21,0,0,0,.07-.36s-.12-.05-.31-.05l-.2,0c-.08,0-.12,0-.14,0a.26.26,0,0,1-.07-.14.36.36,0,0,1,0-.21q.07-.23.69-.24a3.13,3.13,0,0,1,.51,0h.45l.19,0h.22a.34.34,0,0,1,.31.12s0,.08,0,.19a.57.57,0,0,1,0,.19c0,.1-.23.14-.55.12h-.36a.46.46,0,0,0-.29.07,1.28,1.28,0,0,0-.12.46c0,.09,0,.2-.07.33v.12l0,.1q-1.17,5.91-2.29,14.54a2.05,2.05,0,0,1,0,.28l-.07.34a1.42,1.42,0,0,0,0,.45c0,.05.17.07.43.07h.28a.29.29,0,0,1,.22.08s0,0,0,.09l.05.12a.34.34,0,0,1-.05.27.89.89,0,0,1-.39,0,2.08,2.08,0,0,1-.5,0q-1.44,0-2.61,0l-.14,0-.17,0a.5.5,0,0,1-.26,0c-.07,0-.1-.11-.1-.24a.6.6,0,0,1,0-.26.57.57,0,0,1,.36-.12h.21c.07,0,.11,0,.12-.05s0,0,0-.12l-.05-.09,0-.12a.12.12,0,0,1,.05-.1l0-.09a2.12,2.12,0,0,0-.07-.46l-.07-.24-.08-.26q-.33-1.92-.48-3l-.12-1-.12-1c-.09-.83-.18-1.52-.26-2.08l-.26-1.75-.24-1.72c-.21-1.39-.4-2.56-.58-3.5a1.94,1.94,0,0,1,0-.24l0-.31a1.76,1.76,0,0,0-.1-.41s-.14,0-.29,0l-.14.07a.13.13,0,0,1-.12,0c-.05,0-.07-.1-.07-.22a.35.35,0,0,1,0-.24q.11-.18.72-.21a2.15,2.15,0,0,1,.51,0h1.93a.61.61,0,0,1,.36.07c.07,0,.11.12.12.26a.58.58,0,0,1,0,.27.36.36,0,0,1-.32.07l-.23,0a1,1,0,0,0-.24,0C816.11,679.4,816.53,681.84,817,684.91Zm-1.65.79q-.12-.72-.24-1.8l-.1-1-.12-1c-.19-1.73-.36-3-.5-3.91l0-.14v-.12a.5.5,0,0,0,0-.19c0-.1-.16-.12-.36-.07q.36,1.53.75,4l.31,2.06c.11.82.21,1.49.31,2Zm0-4.65a15.79,15.79,0,0,0-.14-2.25l0-.36,0-.38c0-.27,0-.44.12-.5l-.22,0h-.21Zm1.25,12.6v.14c0,.1.08.16.14.17-.12-.93-.33-2.2-.62-3.83l-.33-1.92-.32-1.94a61,61,0,0,0,1.11,7.28Zm.5-1.25.05.22.07.48a1.6,1.6,0,0,1,0,.84h.36c-.17-.77-.37-1.8-.59-3.09l-.27-1.58-.29-1.58c.07.63.17,1.39.32,2.27l.16,1.13.19,1.1Z"/><path class="cls-9" d="M829.29,683.35l0-.24c0-.21,0-.33.07-.36a.24.24,0,0,1,.26,0,.41.41,0,0,1,.22.17.67.67,0,0,1,0,.34v.35a4.3,4.3,0,0,0,0,.48l0,.27,0,.24c0,.4,0,.61-.17.64a.3.3,0,0,1-.36-.12.9.9,0,0,1-.12-.38v-.38c0-.18,0-.27,0-.29s-.08,0-.19,0l-.15,0h-.12l-.33,0-.34-.05-.69-.07-.1,0-.14,0H827s0,.12,0,.31a3.54,3.54,0,0,0,0,.48c0,.67,0,1.44,0,2.3l0,2.32c-.05,2-.05,3.6,0,4.7l1.12,0,1.1,0c.93-.05,1.7-.07,2.3-.05v-.19l0-.22a2.08,2.08,0,0,1,0-.5c0-.43.09-.68.21-.74a.34.34,0,0,1,.22,0,.26.26,0,0,1,.24,0s0,.12,0,.28l0,.2v.16a3.19,3.19,0,0,0,0,1.06l0,.07.05.09a.31.31,0,0,1,0,.22c0,.11-.18.16-.45.14l-.15,0-.14,0-.24,0a17.27,17.27,0,0,0-1.77,0l-.94.05-.9,0-.65,0h-.7l-1.39,0h-.21l-.22,0c-.17,0-.23-.13-.16-.26s.12-.1.26-.1h.14c.07,0,.11,0,.12,0a.35.35,0,0,0,0-.21l0-.12a.33.33,0,0,1,0-.1c0-.51,0-1.19,0-2l0-1.06,0-1,0-2.85,0-2.82c0-2.32,0-4.17,0-5.56,0-.05,0-.13,0-.24v-.33a1.23,1.23,0,0,0,0-.41s-.09,0-.24,0h-.16a.17.17,0,0,1-.12-.05.27.27,0,0,1-.05-.33c0-.07.13-.1.33-.1h.27l.26,0,.48,0,.24,0h.21c.64-.05,1.43-.07,2.38-.05h1.22l1.24,0h.24l.29,0h.43l0-.05s0,0,.05,0c.24,0,.36.08.38.29a3.19,3.19,0,0,1,0,.33l0,.22,0,.22a.66.66,0,0,0,0,.28l0,.12v.12c0,.07,0,.1,0,.1l0,0a.08.08,0,0,0,0,.07l0,.1,0,.1a.16.16,0,0,1,0,.14.3.3,0,0,1-.29,0,.38.38,0,0,1-.21-.17,1.4,1.4,0,0,1-.07-.53,3.31,3.31,0,0,1,0-.55v0l0-.1c0-.06,0-.1,0-.12a.55.55,0,0,0-.31-.05l-.19,0h-.1c-1-.05-1.94-.08-2.94-.08l-.24,0-.17,0h-.19c-.32,0-.5,0-.55,0s0,.09,0,.22v.17l0,.14c0,.59,0,1.39,0,2.4l0,1.24c0,.48,0,.91,0,1.29v.12l0,.22c0,.22,0,.35,0,.38s.1,0,.26,0l.17,0h.14c.26,0,.55,0,.89.05s.52,0,.86.09A.5.5,0,0,0,829.29,683.35Zm-4-5,0,.71c0,.6,0,1.07.07,1.42v.21c0,.1,0,.08,0,0,.05-1.07.11-2,.17-2.69v-.38c0-.18,0-.27-.05-.29l-.14,0c-.08,0-.13,0-.14.05s0,.06,0,.14a.26.26,0,0,0,0,.14Zm.08,9.86q0-.65,0-.93v.5l0,.53a6.14,6.14,0,0,0,0,1Zm0,2.95a6.62,6.62,0,0,0,0-.77v.41l0,.43a3.79,3.79,0,0,0,0,.79Zm.52-10.54c0,.16,0,.23,0,.22a6.28,6.28,0,0,0,0-.87l0-.43v-.4c0,.28,0,.67,0,1.15A1.21,1.21,0,0,0,825.89,680.62Zm.27,4.31c0-.09,0-.11,0,0a4.72,4.72,0,0,0,0,.75l0,.38v.41a37.72,37.72,0,0,0,.07,4.52c0-.75,0-1.72,0-2.92l0-1.44Z"/><path class="cls-9" d="M841.1,688.86c0,.26.1.61.17,1l.16,1.11a12.22,12.22,0,0,0,.48,2.13l.05.14,0,.14a2.54,2.54,0,0,0,.14.34,1.22,1.22,0,0,0,.22.26,1.07,1.07,0,0,0,.21.15.28.28,0,0,0,.22-.12l.1-.12.09-.15c.16-.24.32-.33.48-.28a.24.24,0,0,1,.14.09.32.32,0,0,1,0,.17.3.3,0,0,1-.07.19l-.07.07-.1.12-.14.19-.17.2a1,1,0,0,1-.5.23,2.53,2.53,0,0,1-1.56-.28c-.09-.07-.23-.19-.41-.36s-.28-.3-.38-.41q-1-1.26-1.39-5a10.36,10.36,0,0,0-1-3.83l-.12-.26-.14-.27a.7.7,0,0,0-.46-.33q-.13,5.14,0,8.45l0,.41,0,.38a1.06,1.06,0,0,1-.16.65h.24l.23,0a.68.68,0,0,1,.41,0s.08.07.1.17a.29.29,0,0,1,0,.24s-.17.07-.41.07h-.52a8.71,8.71,0,0,0-2.26.24l-.07,0-.12,0a.57.57,0,0,1-.19,0,.22.22,0,0,1-.05-.26.36.36,0,0,1,.15-.2.35.35,0,0,1,.12-.07l.16,0a.52.52,0,0,0,.2,0,.57.57,0,0,0,0-.19l0-.12v-2.32c0-1,0-1.78,0-2.28s0-1.08,0-1.94,0-1.52,0-2v-.5l0-.5c0-.42,0-.75,0-1,0-.72,0-1.53,0-2.44l0-1.2,0-1.24,0-.29,0-.31q0-.35,0-.36s-.06,0-.14,0h-.12l-.1,0c-.22.05-.35,0-.38-.1s0-.32.29-.38a1.17,1.17,0,0,1,.33-.07h.34a17.06,17.06,0,0,1,3.23,0,6,6,0,0,1,3.62,2.05,3.43,3.43,0,0,1,.53,2.21,2.6,2.6,0,0,1-.46,1.2,3.7,3.7,0,0,1-.81.91,5.28,5.28,0,0,1-2.47.88A8.48,8.48,0,0,1,841.1,688.86Zm-5.39-9.22-.05,1.32c0,1.11,0,2-.09,2.58,0,.27,0,.62,0,1l0,1,0,2,0,2c0,1.63,0,3,0,4a1,1,0,0,0,0,.45q.2.07.24-.09a.21.21,0,0,0,0-.12l0-.07v-.19l0-.17a2.4,2.4,0,0,1,0-.27.63.63,0,0,1,0-.21,1.76,1.76,0,0,0,0-.19,6.42,6.42,0,0,0,0-1l0-.46,0-.47q-.29-7.62.07-13.49l0,0h0a3.3,3.3,0,0,0-.07.5v.29l0,.29Zm.82,7.88,0-1,.07-1.94a29.84,29.84,0,0,0-.11-3.81l0,1.89,0,1.92c0,1.49,0,2.76,0,3.83Zm2.17-4.26a1.52,1.52,0,0,1,.34,0l.38-.05a1.45,1.45,0,0,0,.65-.12,1,1,0,0,0,.33-.4l.15-.27.05-.12,0-.12a4,4,0,0,0,.32-1.86,4.36,4.36,0,0,0-.46-1.82,1.34,1.34,0,0,0-.38-.53,2.42,2.42,0,0,0-1-.38,5.33,5.33,0,0,0-1.15-.17.63.63,0,0,1-.19,0l-.24,0a1.48,1.48,0,0,0-.43,0s0,.09,0,.29l0,.26,0,.12v.09a36.38,36.38,0,0,1,0,5.15l.79,0,.36,0Zm1,2.65-.17-.31-.17-.31a3,3,0,0,0-.79-1.12s-.06,0-.19,0l-.12,0s-.06,0-.07,0q1.62,1.53,2.37,5.63l-.12-.82-.12-.81a12.28,12.28,0,0,0-.36-1.58A6.29,6.29,0,0,0,839.69,685.91Zm.6,5.92a17.93,17.93,0,0,1-.6-2.3l0-.1v-.09c0-.08,0-.1,0-.05.31,2.3.83,3.82,1.59,4.58A7.07,7.07,0,0,1,840.29,691.83Zm1.24-9.53.14-.1a.54.54,0,0,0,.22-.24,1.84,1.84,0,0,0,.1-.76l0-.41c0-.1,0-.22-.05-.36a4.43,4.43,0,0,1-.48,2Zm.89-2a2.11,2.11,0,0,0-.29-.76l.07.38,0,.38a5.63,5.63,0,0,1,.07.87A1.28,1.28,0,0,0,842.42,680.33Z"/><path class="cls-9" d="M848.12,679.76l.5,1.24.48,1.25a36.47,36.47,0,0,1,1.87-4.93,1.64,1.64,0,0,1-.46,0q-.24,0-.24-.21c0-.13.22-.26.7-.39a3.66,3.66,0,0,1,.95-.16,1,1,0,0,1,.72.26c.19.19.11.31-.26.36l-.15,0h-.14a.27.27,0,0,0-.21,0,2.21,2.21,0,0,0-.17.36,10.86,10.86,0,0,0-.6,1.19l-.26.63-.27.59c-.3.72-.58,1.47-.84,2.23l-.07.19-.09.22a.79.79,0,0,0-.1.33,1.45,1.45,0,0,0,0,.29l.07.29a19.24,19.24,0,0,1,.14,2.2v3.71c0,.53,0,1,0,1.3s0,.75,0,1.34v.65l0,.69,0,.17v.14a.29.29,0,0,0,.05.24l.1,0,.14,0a.52.52,0,0,1,.29.14.35.35,0,0,1,0,.26.33.33,0,0,1,0,.2l-.19.07a1.09,1.09,0,0,1-.27,0,3.8,3.8,0,0,1-1,0l-.57-.07-.58-.08h-.43a.62.62,0,0,1-.31,0,.23.23,0,0,1-.07-.2.24.24,0,0,1,0-.19s.15-.09.34-.12h.09l.15,0c.09,0,.15,0,.16,0a2,2,0,0,0,0-.55l0-.19v-.19a1.5,1.5,0,0,1,0-.24l-.08-1.79c0-.69,0-1.27,0-1.75,0-2.14,0-3.75-.07-4.82l-.1-.72v-.19l0-.19a1.87,1.87,0,0,0,0-.38,1,1,0,0,0-.14-.36l-.1-.17-.07-.19-.93-2.11-.24-.48-.24-.52c-.21-.45-.38-.8-.51-1.06a.54.54,0,0,1-.07-.14l-.07-.24a2.1,2.1,0,0,0-.17-.31.26.26,0,0,0-.14,0l-.17,0q-.24.08-.33,0a.45.45,0,0,1-.1-.22.35.35,0,0,1,0-.24,1.54,1.54,0,0,1,.65-.07h.74l.24,0,.27-.05.55,0,.26,0,.31-.05a1.08,1.08,0,0,1,.53.05.3.3,0,0,1,.12.4c-.08.2-.23.24-.46.15Q847.45,678.16,848.12,679.76Zm-2.45-1.85,0-.16-.07-.19a.29.29,0,0,0-.21-.22l.14.31.14.34a2.28,2.28,0,0,0,.32.57Zm.84.72c0-.24-.11-.51-.19-.81l-.05-.19-.07-.19a.22.22,0,0,0-.31-.12l.19.48.19.5c.18.43.3.76.38,1A4.45,4.45,0,0,0,846.51,678.63Zm2.35,5.61a1.65,1.65,0,0,0,0-.55l-.1-.31-.09-.32a14.88,14.88,0,0,0-.75-2.1l-.43-1a8.89,8.89,0,0,1-.4-1c.19.8.47,1.79.86,3l.45,1.46.46,1.46Zm-.79,9.55,0,.08c0,.06,0,.09.1.09,0-.56,0-1.35,0-2.37v-1.2l0-1.22a38.89,38.89,0,0,0-.29-4.57c.05.65.08,1.41.1,2.27l0,1.15v1.17q0,3,.15,4.53Zm.52-.26c0,.29,0,.42.15.41s.1-.05.12-.15a.32.32,0,0,0,0-.14v-.14c0-.5,0-1.17-.05-2v-2.08a22.46,22.46,0,0,0-.36-3.76c.08,1.05.13,2.34.14,3.86Z"/><path class="cls-9" d="M748.21,581.87l-.16-1.61c0-1.39.16-2.19.48-2.41a1.73,1.73,0,0,1,1.77,0,2.79,2.79,0,0,1,1.45,1.12,4.65,4.65,0,0,1,.16,2.25v2.42a24.91,24.91,0,0,0,.32,3.21l.16,1.77.16,1.61c.11,2.68-.27,4.13-1.12,4.34a2,2,0,0,1-2.42-.8,5.61,5.61,0,0,1-.8-2.57v-2.58a5.58,5.58,0,0,0-.16-1.93q-.16-.15-1.29,0l-1,.16H745l-2.25-.16-2.25-.32-4.66-.48a2.57,2.57,0,0,1-.65-.16l-1-.16c-.86-.11-1.34-.11-1.45,0s-.32.8-.32,2.09a28.45,28.45,0,0,0,.16,3.21q.32,6.76.16,15.44l-.32,15.6q-.48,20.43,0,31.52l7.56-.16,7.4-.33q9.32-.47,15.43-.31v-1.29l-.16-1.45a19,19,0,0,1,0-3.38q.17-4.34,1.45-5a2.66,2.66,0,0,1,1.45-.32,1.81,1.81,0,0,1,1.6.32c.22.22.27.86.17,1.93l-.17,1.28v1.13a20.53,20.53,0,0,0,.17,7.07l.16.49.32.64a2,2,0,0,1,.32,1.45c-.22.75-1.23,1.07-3,1l-1-.16-1-.16c-.85-.1-1.39-.16-1.6-.16a111.48,111.48,0,0,0-11.9,0l-6.28.32-6.11.33-4.34.16h-4.66q-5.79.15-9.33.32h-1.45l-1.44-.32c-1.18-.33-1.56-.91-1.13-1.77.22-.43.8-.65,1.77-.65h1c.42,0,.69-.1.8-.32a3.23,3.23,0,0,0,0-1.44l-.16-.81a2.43,2.43,0,0,1-.16-.64q-.17-5.14,0-13.67l.16-7.08.16-6.91.16-19.14.16-19q.16-23.32,0-37.31a12.51,12.51,0,0,0-.16-1.61v-2.25a10.36,10.36,0,0,0-.16-2.73c-.11-.11-.64-.11-1.61,0h-1.13a1.09,1.09,0,0,1-.8-.33,2,2,0,0,1-.48-1,1.64,1.64,0,0,1,.16-1.29c.11-.43.86-.64,2.25-.64h1.77l1.77.16c.64,0,1.71-.05,3.22-.16l1.6-.16h1.45q6.44-.48,15.92-.32h8.2l8.36.16h1.61l1.93.16a11.81,11.81,0,0,0,2.9,0l.32-.32c.1-.22.21-.32.32-.32,1.61-.11,2.46.53,2.57,1.93,0,.42,0,1.18-.16,2.25l-.16,1.44-.16,1.45a5.65,5.65,0,0,0,0,1.93l.16.8v.81c-.11.43-.22.64-.32.64l-.16.16a.65.65,0,0,0-.16.48l-.16.65.16.64a1,1,0,0,1-.16,1,2,2,0,0,1-1.93,0,2.76,2.76,0,0,1-1.45-1.13,9.63,9.63,0,0,1-.48-3.54,20.3,20.3,0,0,1,.32-3.7V543l.16-.64c.21-.43.27-.7.16-.8s-.91-.33-2.09-.33l-1.28.16h-.65q-9.64-.48-19.78-.48c-.21,0-.75-.05-1.61-.16l-1.12-.16h-1.29c-2.14-.21-3.38-.1-3.7.32-.21.11-.27.59-.16,1.45v1.13l.16,1q.17,6-.16,16.08l-.16,8.36c-.11,3.22-.16,6.11-.16,8.69v.8l-.16,1.45c-.11,1.5-.06,2.36.16,2.57a4,4,0,0,0,1.77,0l1.12-.16h1c1.71,0,3.7.11,6,.32,1.61.11,3.54.32,5.79.65A4.52,4.52,0,0,0,748.21,581.87Zm-26.86-33.61.16,4.82c.22,4,.38,7.14.49,9.49V564c0,.64,0,.54.16-.32q.48-10.77,1.12-18v-2.58c0-1.17-.1-1.82-.32-1.93a2.31,2.31,0,0,0-1-.16,2.55,2.55,0,0,0-1,.32,1.76,1.76,0,0,0-.16,1,2.31,2.31,0,0,0,.16,1Zm.49,66.25c0-2.89-.06-5-.16-6.27v3.38l-.17,3.54a47.33,47.33,0,0,0,.33,6.43Zm0,19.78c0-2.46-.06-4.18-.16-5.14v2.73l-.17,2.9a29.63,29.63,0,0,0,.33,5.3Zm3.53-70.75c0,1.07.06,1.55.16,1.44a37.19,37.19,0,0,0,.33-5.79l-.16-2.89v-2.73q-.16,2.89-.17,7.72A11.13,11.13,0,0,0,725.37,563.54Zm1.77,28.94c0-.64,0-.75-.16-.32a30.1,30.1,0,0,0-.32,5l.16,2.57v2.73a260.08,260.08,0,0,0,.48,30.39q.16-7.55,0-19.61l-.16-9.65Z"/><path class="cls-9" d="M840.06,568,838,577.37q-2.41,11.26-3.86,19.14-4.5,22.18-6.91,39.4l-.49,2.89-.48,2.9a30.87,30.87,0,0,0-.64,5.62,7.46,7.46,0,0,0,.16,2.58c.1,1.28.27,2,.48,2.09a4.8,4.8,0,0,0,1.77.16h1.29c.42.11.8.21,1.12.32l.65.64.64.81a2.06,2.06,0,0,1,0,1.93c-.22.53-1.56.86-4,1h-1.45l-1.61.16H819a18.65,18.65,0,0,0-2.74.16l-1.28.16-1.29.16a3.62,3.62,0,0,1-2.25,0c-.32-.1-.59-.48-.81-1.12a2.48,2.48,0,0,1-.16-1.45,1.51,1.51,0,0,1,1.13-1.12l.8-.17a1,1,0,0,0,.64-.48,7.94,7.94,0,0,0-.64-2.89l-.16-1.13-.32-1a4.91,4.91,0,0,1-.32-1.29c-.64-2.46-1.29-5.73-1.93-9.81l-.81-4.82-1-4.83q-1-4.82-2.73-12.7l-2.74-12.55a64,64,0,0,1-1.28-6.43l-.65-3.21-.64-3.22q-2.1-7.87-4.5-18.65L791,552q-.64,18.66-1.12,50l-.32,25.56q-.17,15-.33,25.09a8.89,8.89,0,0,0,1.77.16l1.61-.32a5.67,5.67,0,0,1,2.9.32,2.86,2.86,0,0,1,1.12,1.61,2.74,2.74,0,0,1,.16,2.41c-.21.43-1.12.75-2.73,1l-2.25.16-2.09.16a16.4,16.4,0,0,0-1.93.16l-2.25.32a7.58,7.58,0,0,1-3.22,0c-.43-.11-.8-.59-1.13-1.45a2.52,2.52,0,0,1-.16-1.93,1.45,1.45,0,0,1,1-1l.64-.32.65-.16a1.31,1.31,0,0,0,.48-.17l1-.16a3.75,3.75,0,0,0,1.45-.32,10,10,0,0,0,0-2.73v-3.86q0-7.56.32-22.84t.32-22.51q0-11.25.32-29.11.33-17.68.33-26.21v-1.12l.16-1.13a4.94,4.94,0,0,0-.16-1.61c-.11-.21-.54-.32-1.29-.32l-.8-.16-1-.32a7.19,7.19,0,0,1-1.12-1c-.43-.53-.6-.9-.49-1.12.11-.54,1.07-1,2.9-1.29a21.9,21.9,0,0,0,2.41-.16l1.12-.16h1q9.64-1,13.67.64a5.28,5.28,0,0,1,3.06,2.42c.42,1-.54,1.34-2.9,1.12q4.35,17.85,10.13,46.15l4.66,23.48,4.83,23.32q2.42-19,7.4-43.42l4.34-21.06,2.25-10.62,2.25-10.77.16-.65.16-.8.48-1.77a6.75,6.75,0,0,0,.33-2.41,3.26,3.26,0,0,0-1.45-.16H838l-.8-.81a3.46,3.46,0,0,1-.49-1.12c-.1-1.39,1.07-2.31,3.54-2.73a14.25,14.25,0,0,1,3.22-.49l1.61-.16,1.44-.16,9.17-1.61a4.51,4.51,0,0,1,3.05,1c1.07.86,1.45,1.77,1.13,2.73a1.17,1.17,0,0,1-1.45.8h-.8a.94.94,0,0,0-.65.17c-.1.1-.05.53.17,1.28l.16,1.13v1a229.35,229.35,0,0,1-.65,25.89l-.8,13q-.33,7.39-.32,13.19v20.42q0,11.41.16,19.94.15,2.25,0,6.59c-.11,3-.16,5.26-.16,6.76l.48,2.73.48.8.81.65a3.31,3.31,0,0,1,1,1.61c-.43,1.07-.75,1.66-1,1.76a2.57,2.57,0,0,1-2.09.16l-1.29-.32-1.13-.16a18.44,18.44,0,0,0-3.37,0c-1,0-2.25.06-3.86.16-.32,0-.91.06-1.77.16l-1.93.32a7.36,7.36,0,0,1-3.05-.16c-.54-.32-.87-1.44-1-3.37.32-.65,1.29-1.07,2.89-1.29.86-.1,1.29-1.07,1.29-2.89.11-2.58.16-5.79.16-9.65l-.16-4.51V631.4q.32-12.37,0-35.7V577.53q-.16-10.46,0-18.65Zm-40.2-6.11.16-.16c-.54-2.67-1-5.14-1.29-7.39q-.79-4.67-1.28-8l-.16-1.29-.16-1.13a6.21,6.21,0,0,0-.49-1.93c-.64-1.17-1.88-1.55-3.7-1.12l1.77,5,1.93,5.15q1.93,6,3.22,10.61Zm7.56,16.25-1.13-6.12L805,566a55.34,55.34,0,0,0-3.53-10.77l3.86,20.74q2.42,12.39,4.18,20.59a362.68,362.68,0,0,0,9.81,39.56Q812.41,605.52,807.42,578.18Zm11.09,74.45,1-.16h1q-5.15-16.89-8.52-28.79.65,6.12,2.25,14.64l1.45,7.23,1.28,7.08A3.82,3.82,0,0,0,818.51,652.63Zm32-68-.32-12.22q-.48-15-.16-24.61V547l.16-1v-1.93c.11-1.71,0-2.73-.32-3.05,0-.11-.11-.11-.32,0l-.48.16a106.7,106.7,0,0,0-.17,13.35q.17,2.88.17,6.59l-.17,6.59.17,13.35.32,13.19q.48,16.08-.16,26.37l-.16,8-.17,8q-.15,10.14-.48,15.28a4.27,4.27,0,0,1,2.09-.17l1,.17h1L852,638.64l-.48-13.51q-.48-15.27-.81-28.46Q850.67,591.84,850.51,584.61Z"/><path d="M676.45,499.7l-.36-.26c-.29-.24-.42-.42-.41-.53s.11-.27.32-.37a.79.79,0,0,1,.49-.09,1.12,1.12,0,0,1,.49.37l.5.43a6.65,6.65,0,0,0,.73.51l.39.28.36.26c.58.46.81.8.7,1a.54.54,0,0,1-.6.36,1.57,1.57,0,0,1-.67-.3l-.54-.46a1.48,1.48,0,0,0-.43-.31s-.11.09-.23.26l-.14.23-.14.17-.44.44-.47.4-.93.88a.56.56,0,0,1-.15.11l-.21.17c-.18.16-.26.26-.26.3s.11.21.38.44a7.32,7.32,0,0,0,.69.54c1,.77,2.05,1.68,3.23,2.74l3.17,2.86q4.14,3.76,6.53,5.65l1.32-1.59,1.26-1.59c1.05-1.35,2-2.43,2.7-3.26l-.26-.23-.33-.22a4.43,4.43,0,0,1-.7-.61c-.58-.54-.84-.94-.77-1.19a.63.63,0,0,1,.19-.36c.11-.17.23-.27.35-.27s.23.09.43.31l.24.26.23.2a5.54,5.54,0,0,0,1.5,1.24l.13,0,.19.05a.54.54,0,0,1,.35.19c.12.18,0,.45-.34.81l-.21.17-.21.17c-.17.16-.28.26-.32.31a29.36,29.36,0,0,0-2.13,2.46L691,514.05l-1,1.32-.74.93-.84,1c-.67.82-1.2,1.49-1.6,2l-.26.31-.33.24q-.42.27-.57-.09-.07-.18.18-.48l.18-.2c.07-.09.1-.16.08-.22a.92.92,0,0,0-.3-.26l-.2-.11a.61.61,0,0,1-.16-.09c-.73-.59-1.67-1.4-2.83-2.45l-1.44-1.3-1.4-1.27-3.94-3.47-3.9-3.43q-4.8-4.21-7.73-6.69a2.84,2.84,0,0,0-.36-.25l-.47-.41a2.23,2.23,0,0,0-.59-.45s-.14.11-.29.33l-.2.23a.31.31,0,0,1-.21.11.58.58,0,0,1-.29-.07.51.51,0,0,1-.24-.27c-.07-.1,0-.29.28-.58l.31-.37.35-.33c.12-.14.3-.37.55-.7l.25-.36.26-.3q1.05-1.41,2.79-3.36l1.47-1.69,1.53-1.71.29-.33.38-.37a3.49,3.49,0,0,0,.52-.6v-.12c0-.07,0-.11,0-.13.27-.35.55-.41.86-.19.09.08.24.23.44.44l.27.29.27.3a1.55,1.55,0,0,0,.4.34l.2.11.16.15c.07.1.1.16.08.18v.06a.19.19,0,0,0,.07.12l.11.15.16.08a.28.28,0,0,1,.17.21.57.57,0,0,1-.35.4.74.74,0,0,1-.49.1,2.8,2.8,0,0,1-.82-.54,6.1,6.1,0,0,1-.71-.73l-.06-.06-.11-.14c0-.12-.09-.18-.13-.18s-.23.13-.45.37l-.19.3-.12.13c-1.22,1.28-2.43,2.61-3.65,4a2.36,2.36,0,0,1-.32.31l-.23.2-.23.27c-.43.4-.63.68-.6.82s.08.16.27.29l.23.21.23.14c.84.68,1.95,1.66,3.31,2.91l1.7,1.54,1.77,1.59.17.14.27.29c.29.29.47.44.56.43s.15-.12.31-.37l.17-.26.18-.2c.3-.35.68-.74,1.13-1.17s.7-.68,1.17-1.09A1.09,1.09,0,0,0,676.45,499.7Zm-11.77-.46,1,.83,2.06,1.6.3.26c.13.11.12.08,0-.09-1.43-1.36-2.61-2.51-3.53-3.47l-.53-.46c-.25-.21-.4-.3-.46-.28a.77.77,0,0,0-.21.18c-.07.13-.11.21-.1.25s.06.11.17.21a.59.59,0,0,0,.23.14Zm3.88,1.9c.22.19.33.27.33.23a10.25,10.25,0,0,0-1.14-1.11l-.63-.48-.57-.49c.39.37.91.84,1.57,1.41A2.92,2.92,0,0,0,668.56,501.14Zm6.31,4.83q-.2-.18-.09,0a8,8,0,0,0,1,1l.57.43.56.49a72.31,72.31,0,0,0,6.38,5.35q-1.53-1.39-4.06-3.52l-2-1.69Zm3.62,5c-.6-.52-1-.89-1.33-1.1l.7.61.7.67a12.64,12.64,0,0,0,1.39,1.08Zm4.09,3.54c-.51-.44-.87-.74-1.09-.89l.57.49.57.55a8.06,8.06,0,0,0,1.15.89Z"/><path d="M701.8,479.77l-.18-.25-.27-.3c-.19-.26-.32-.39-.41-.41s-.36.13-.72.43l-.41.41-.22.15-.15.17-.69.61-.19.19-.22.16c-.19.14-.28.23-.29.27s0,.23.2.5l.18.32a1.29,1.29,0,0,0,.12.23l1.05,2.34,1.06,2.28q1.27,2.79,2.34,4.78l.72,1.28.68,1.31c.54,1,1,1.88,1.34,2.67.08.16.22.49.41,1a1.25,1.25,0,0,0,.38-.17l.27-.14c.07-.05.13-.08.17-.07H707l.1,0a1.12,1.12,0,0,1,.31.05c.23.08.35.2.35.34s-.23.33-.7.68l-.26.24-.75.55a2.32,2.32,0,0,0-.29.27l-.12.14-.07.05a.63.63,0,0,1-.5,0c-.22-.09-.34-.21-.36-.34s.11-.24.35-.41l.25-.19a.52.52,0,0,0,.1-.23,2.5,2.5,0,0,0-.35-.78l-.33-.53a2,2,0,0,1-.21-.44q-4-7.79-6.07-12.21l-1.39-3-1.4-3q-1.65-3.54-3.09-6.19l-.1-.21-.13-.18c-.11-.2-.2-.37-.26-.51a1,1,0,0,1-.1-.21l-.11-.3c-.09-.22-.16-.34-.2-.34s-.24.12-.47.4l-.24.34a.63.63,0,0,1-.34.13.42.42,0,0,1-.3-.11.64.64,0,0,1-.27-.29c-.05-.18.12-.47.52-.86l.54-.46a5.69,5.69,0,0,0,.48-.46l.38-.38a5.24,5.24,0,0,1,.4-.35,6.15,6.15,0,0,0,.73-.64l.37-.32.36-.32.25-.18.26-.25a1.6,1.6,0,0,1,.46-.33.84.84,0,0,1,.4.09.67.67,0,0,1,.27.29,1.25,1.25,0,0,1-.07.21,1.15,1.15,0,0,1-.1.24l-.25.18c-.12.09-.18.15-.18.19s.19.27.59.66a4.9,4.9,0,0,0,.47.43,3.43,3.43,0,0,0,.33.3l1.79,1.63,1.79,1.64c1.4,1.31,2.58,2.47,3.56,3.46l.68.7.73.78c.57.64,1,1.13,1.41,1.48l1.42,1.36,1.43,1.36c1.17,1.11,2.12,2,2.85,2.78.53.59,1.23,1.26,2.07,2l1.1,1.05,1.11,1,.16.16.17.15.47.42c.36.35.58.52.64.51a.63.63,0,0,0,.38-.23l.32-.23a.73.73,0,0,1,.58.18.67.67,0,0,1,.21.45c0,.1-.16.3-.5.58l-.93.68c-.21.15-.52.36-.91.61l-1.36,1a.69.69,0,0,1-.56.19c-.55-.25-.5-.58.15-1A159.45,159.45,0,0,1,701.8,479.77Zm-6.59-9.26-.8-.73-.77-.69c-.06,0-.14,0-.23.06l-.12.14-.12.14a31,31,0,0,0,3.33,3.14l1.7,1.43c.65.55,1.21,1,1.69,1.5-.37-.46-.87-1-1.5-1.69l-.79-.85-.8-.88A18.29,18.29,0,0,0,695.21,470.51Zm3.61,8.6.71-.52c.4-.29.61-.48.62-.56s-.09-.18-.31-.43l-.3-.27a1.45,1.45,0,0,1-.22-.22c-.4-.4-.9-.89-1.51-1.47L697,475l-.83-.76a30.45,30.45,0,0,1-2.9-2.79c.65,1.19,1.4,2.67,2.24,4.42l1,2.2,1,2.18Zm3.62-2.21q2.34,2.39,6.68,6.47Q705.19,479.32,702.44,476.9Zm10.44,11.48-3-2.33,1.32,1.28,1.25,1.27c1,1,1.91,1.82,2.62,2.4A7.72,7.72,0,0,0,712.88,488.38Z"/><path d="M731,449.63l-.12-.39c-.08-.28-.06-.48.08-.6a.87.87,0,0,1,.47-.15.43.43,0,0,1,.42.1,1.24,1.24,0,0,1,.28.56l.1.34.1.34.23.67.27.65c.09.12.22.32.4.59l.41.64c.31.51.44.85.39,1s-.16.22-.43.33a.86.86,0,0,1-.64.08,1.2,1.2,0,0,1-.37-.42l-.16-.27-.18-.3-.16-.27-.13-.33a2.15,2.15,0,0,0-.37-.51.87.87,0,0,0-.34-.14l-.26,0-.23-.09-.55-.3-.61-.31a3,3,0,0,0-1.23-.3l-.59.06-.66.14a2.87,2.87,0,0,0-.69.19,4.5,4.5,0,0,0-.63.32,1.23,1.23,0,0,0-.4.64c-.07.29-.13.59-.19.9a5.73,5.73,0,0,0,1.5,4,13.45,13.45,0,0,0,1.49,1.72l.72.7.38.32.31.29a21.28,21.28,0,0,0,2.22,1.84l1.17.85,1.1.92.26.27.28.22.49.46a21.53,21.53,0,0,1,3.35,2.84,29.64,29.64,0,0,1,2,2.5,13.08,13.08,0,0,1,1.59,3.2,6,6,0,0,1,.07,3.56,6.54,6.54,0,0,1-3,3.32,8.3,8.3,0,0,1-4.7,1.65,4.24,4.24,0,0,1-1.75-.4l-.84-.41-.82-.47a1,1,0,0,0,0,.38l.12.38q.1.48,0,.63a.79.79,0,0,1-.54.18c-.3,0-.5,0-.58-.14a1.75,1.75,0,0,1-.19-.78l0-.41a2.11,2.11,0,0,1-.06-.36,27,27,0,0,0-.76-3.17l-.13-.42-.11-.49a1.6,1.6,0,0,1-.1-.67.58.58,0,0,1,.55-.18.83.83,0,0,1,.56.19,1.1,1.1,0,0,1,.31.63l.06.36.05.12v.14l.1.34.08.3a1.5,1.5,0,0,0,.18.55,1.68,1.68,0,0,0,.56.43l.35.24.32.2.34.24.3.25a5.28,5.28,0,0,0,.54.39,5,5,0,0,0,1.52.65,2.57,2.57,0,0,0,1.64,0,3,3,0,0,0,1.79-1.76,5.24,5.24,0,0,0,.19-1.47,7,7,0,0,0-.13-1.57,17.25,17.25,0,0,0-2.82-6.65l-.52-.79-.5-.84a7.88,7.88,0,0,0-1.08-1.31,9.81,9.81,0,0,0-1.32-1l-.78-.48-.72-.46q-.54-.39-1.38-.9l-1.44-.92-1.5-.95c-.62-.4-1.11-.74-1.48-1a8.62,8.62,0,0,1-2.42-2.46,2.24,2.24,0,0,1-.26-.61l-.22-.53a5.12,5.12,0,0,1,.84-4.23,7.62,7.62,0,0,1,2.39-1.92,8.41,8.41,0,0,1,6.32-.32Zm-8.08,4.65,0-.06-.08,0a3.41,3.41,0,0,0,.29,2.37,4.5,4.5,0,0,0,1.47,1.91A7.19,7.19,0,0,1,722.94,454.28Zm3.62,4.6a12.07,12.07,0,0,0,2.12,1.63,14.65,14.65,0,0,1-3.26-3.64c-1.14-1.78-1.52-3.33-1.14-4.63a3.33,3.33,0,0,0-.33,1.95,5.75,5.75,0,0,0,.62,2.13A10,10,0,0,0,726.56,458.88Zm12.35,13.95a11.59,11.59,0,0,0-2-3.34A21.8,21.8,0,0,1,738.6,473c.43,1.16.79,2.33,1.1,3.51A9,9,0,0,0,738.91,472.83Z"/><path d="M760,445.76l1.31,2.1,1.25,2.1a70.5,70.5,0,0,1,1.84-9.53,2.32,2.32,0,0,1-.83.1c-.3,0-.47-.11-.5-.31s.31-.53,1.14-.91a7.17,7.17,0,0,1,1.68-.61,1.94,1.94,0,0,1,1.39.25c.4.29.28.54-.37.74l-.25.09-.26,0a.54.54,0,0,0-.38.11c-.12.38-.18.61-.2.71a21.36,21.36,0,0,0-.71,2.35l-.28,1.22-.29,1.16c-.32,1.4-.6,2.83-.82,4.3l-.07.37-.1.42a1.44,1.44,0,0,0-.07.64,2.7,2.7,0,0,0,.17.51l.22.5a39,39,0,0,1,1,3.95l1.16,6.72c.16,1,.28,1.74.36,2.35s.21,1.37.42,2.44l.2,1.17.18,1.26v.32l0,.26a.51.51,0,0,0,.16.41.38.38,0,0,0,.19.06l.28,0a.9.9,0,0,1,.56.17.63.63,0,0,1,.17.47.57.57,0,0,1,0,.36,2.23,2.23,0,0,1-.33.19,1.91,1.91,0,0,1-.46.17,7.5,7.5,0,0,1-1.88.23l-1.07.06-1.06,0-.78.14c-.32.06-.51.06-.58,0s-.16-.15-.19-.32a.46.46,0,0,1,0-.36c0-.1.23-.2.57-.32l.18,0,.25-.09c.17,0,.27-.06.29-.1a4.13,4.13,0,0,0-.17-1l-.1-.33-.06-.35c-.07-.23-.11-.37-.12-.43l-.69-3.23c-.28-1.24-.49-2.29-.64-3.16q-1-5.81-1.64-8.7l-.4-1.27-.06-.35-.1-.34a5.37,5.37,0,0,0-.16-.68,2.32,2.32,0,0,0-.38-.61l-.22-.27-.19-.33-2.36-3.53-.58-.79-.6-.88c-.52-.74-.93-1.33-1.24-1.75a1.06,1.06,0,0,1-.18-.24l-.2-.41a5.78,5.78,0,0,0-.4-.51.61.61,0,0,0-.27,0l-.3.1c-.27.13-.48.17-.61.1a1.33,1.33,0,0,1-.24-.36.69.69,0,0,1,0-.44c0-.1.43-.21,1.15-.34l1.35-.23.42-.12.47-.17c.42-.1.75-.19,1-.26a3.16,3.16,0,0,0,.47-.12l.55-.19a2.17,2.17,0,0,1,1-.07c.28.1.4.33.34.7s-.34.5-.78.4C758,442.56,758.89,444,760,445.76Zm-5-2.58-.14-.29-.19-.32a.55.55,0,0,0-.46-.33l.36.52.36.56a4.08,4.08,0,0,0,.75.95Zm1.74,1c-.16-.42-.36-.89-.6-1.42l-.15-.33-.19-.32a.41.41,0,0,0-.6-.12l.5.81.5.85c.46.72.79,1.29,1,1.7A8.44,8.44,0,0,0,756.77,444.22Zm6,9.42a2.69,2.69,0,0,0-.17-1l-.27-.53-.27-.54a27.11,27.11,0,0,0-2-3.58L759,446.3a18.57,18.57,0,0,1-1.06-1.74q.9,2.08,2.5,5.11l1.28,2.51,1.28,2.5Zm1.57,17.57,0,.14a.15.15,0,0,0,.2.14c-.21-1-.47-2.44-.79-4.29l-.37-2.17-.43-2.21a74.89,74.89,0,0,0-2-8.2c.29,1.17.58,2.54.88,4.1l.41,2.07.36,2.13c.63,3.65,1.2,6.37,1.68,8.16Zm.87-.64q.13.78.39.69c.11,0,.17-.12.17-.3a.39.39,0,0,0,0-.26l0-.26q-.29-1.33-.72-3.63l-.65-3.78a40.06,40.06,0,0,0-1.83-6.7q.71,2.84,1.47,6.94Z"/><path d="M818.92,449.57l-1,2.41q-1.2,2.92-2,5-2.3,5.76-3.77,10.28l-.27.76-.27.76a7.7,7.7,0,0,0-.45,1.49,2.25,2.25,0,0,0-.08.7c0,.35,0,.54,0,.58s.18.08.47.13l.35.06.28.15.15.2.13.25a.54.54,0,0,1-.09.52c-.09.13-.46.16-1.13.06l-.39-.07-.44,0-1.52-.27a4.35,4.35,0,0,0-.75-.09l-.35,0-.36,0a1,1,0,0,1-.6-.11c-.09,0-.14-.16-.17-.34a.78.78,0,0,1,0-.4.41.41,0,0,1,.36-.25h.22a.32.32,0,0,0,.2-.1,2.2,2.2,0,0,0,0-.81v-.32l0-.27a1.37,1.37,0,0,1,0-.36c0-.7-.07-1.61,0-2.74v-1.34l0-1.35c0-.9-.06-2.08-.13-3.56l-.13-3.51c0-.45,0-1.05,0-1.8l0-.9,0-.89c-.12-1.49-.22-3.24-.31-5.25l-.27-5.24q-1.07,5-2.72,13.43l-1.32,6.88q-.78,4-1.3,6.75a2.53,2.53,0,0,0,.46.13H802a1.61,1.61,0,0,1,.77.22.8.8,0,0,1,.22.49.76.76,0,0,1-.07.66c-.08.11-.34.15-.78.13l-.62-.07-.57-.06a4.61,4.61,0,0,0-.53,0l-.62,0a2,2,0,0,1-.87-.15c-.11-.05-.19-.2-.23-.45a.71.71,0,0,1,0-.53.39.39,0,0,1,.31-.21l.19-.05.18,0a.23.23,0,0,0,.13,0h.27a1.24,1.24,0,0,0,.41,0,2.61,2.61,0,0,0,.13-.74l.19-1c.24-1.36.64-3.4,1.19-6.14s.94-4.75,1.18-6.06q.54-3,1.49-7.83t1.36-7l0-.3.1-.3a1.24,1.24,0,0,0,0-.44q0-.09-.33-.15l-.21-.08-.24-.14a1.45,1.45,0,0,1-.26-.31c-.09-.16-.12-.27-.08-.33s.34-.21.85-.2c.17,0,.39,0,.66.07h.31l.26.05a8.66,8.66,0,0,1,3.65.83,1.45,1.45,0,0,1,.71.8c.07.28-.21.34-.84.16q.32,5,.5,12.94l.12,6.56.18,6.52q1.56-5,4.09-11.35l2.19-5.47,1.12-2.76,1.13-2.79.08-.17L820,444l.21-.45a2,2,0,0,0,.21-.64,1,1,0,0,0-.39-.11l-.43-.08-.18-.25a.88.88,0,0,1-.07-.33q.06-.57,1.08-.57a4.86,4.86,0,0,1,.89,0l.45,0,.39,0h2.55a1.2,1.2,0,0,1,.78.41.66.66,0,0,1,.17.79.33.33,0,0,1-.43.15l-.22,0a.26.26,0,0,0-.18,0s0,.14,0,.35l0,.32,0,.26a63.53,63.53,0,0,1-1.43,7l-.85,3.47q-.44,2-.72,3.54l-1,5.51c-.37,2.05-.67,3.84-.92,5.38a17,17,0,0,1-.32,1.78c-.17.8-.3,1.41-.37,1.81v.76l.09.24.19.21a1.09,1.09,0,0,1,.18.48c-.17.27-.29.42-.35.43a.7.7,0,0,1-.57,0l-.33-.15-.3-.1a4.79,4.79,0,0,0-.91-.16q-.39-.08-1-.15l-.48,0h-.54a2,2,0,0,1-.81-.2c-.13-.11-.16-.43-.1-.95q.18-.24.84-.21c.24,0,.4-.23.49-.72.15-.69.32-1.55.51-2.59l.18-1.22.21-1.17c.45-2.22,1-5.43,1.72-9.63l.88-4.9c.31-1.88.61-3.56.9-5ZM808.38,446l0,0c0-.75,0-1.44,0-2.06,0-.86,0-1.61,0-2.23l0-.35V441a1.73,1.73,0,0,0,0-.55c-.11-.35-.43-.51-.94-.48l.24,1.43.27,1.48c.15,1.13.27,2.14.35,3Zm.64,25.36h.27l.26,0q-.59-4.8-.91-8.17c-.08,1.12-.12,2.47-.1,4.05l0,2v2A1.11,1.11,0,0,0,809,471.33Zm.61-20.61V449l0-1.71a15.57,15.57,0,0,0-.43-3.08l0,5.78c0,2.31.08,4.22.13,5.75a101.64,101.64,0,0,0,.74,11.15Q809.65,458.33,809.63,450.72Zm11.31,3.82.5-3.31q.6-4.07,1.15-6.64l0-.22.09-.25.09-.52q.16-.69.06-.84s0,0-.08,0l-.14,0a27.35,27.35,0,0,0-.69,3.59c-.07.53-.16,1.12-.28,1.79l-.36,1.77-.6,3.61-.55,3.57q-.64,4.35-1.32,7.1l-.43,2.16-.44,2.16c-.35,1.82-.64,3.18-.87,4.1a1.23,1.23,0,0,1,.58.06l.25.08.26.05.51-3.62.53-3.67q.6-4.14,1.16-7.71C820.55,456.93,820.73,455.85,820.94,454.54Z"/><path d="M849.18,463.82l.15-.42c.15-.34.28-.53.39-.54s.29,0,.44.2a.7.7,0,0,1,.23.44,1.16,1.16,0,0,1-.21.58l-.27.6a8.12,8.12,0,0,0-.29.84l-.15.46-.15.42c-.27.68-.53,1-.77,1a.54.54,0,0,1-.51-.48,1.64,1.64,0,0,1,.09-.73l.29-.64a1.69,1.69,0,0,0,.18-.5s-.12-.09-.32-.15l-.26-.07-.2-.09-.54-.29-.53-.33-1.11-.65a.68.68,0,0,1-.14-.11l-.23-.15c-.2-.13-.32-.18-.36-.17s-.17.17-.31.49a8.27,8.27,0,0,0-.33.82c-.45,1.15-1,2.44-1.7,3.87L840.73,472q-2.43,5-3.56,7.86l1.9.82,1.88.75c1.59.62,2.89,1.18,3.89,1.67l.15-.33.12-.38a5.61,5.61,0,0,1,.38-.84q.54-1.06.93-1.08a.83.83,0,0,1,.4.08.49.49,0,0,1,.36.27c0,.07,0,.24-.18.5l-.18.3-.13.28a5.73,5.73,0,0,0-.76,1.78v.34a.56.56,0,0,1-.09.4c-.14.16-.43.13-.87-.11l-.22-.15-.23-.14-.38-.23a32.22,32.22,0,0,0-3-1.34l-1.6-.63-1.56-.61-1.1-.45-1.17-.53c-1-.41-1.76-.73-2.36-1l-.36-.16-.33-.25c-.26-.21-.28-.4-.08-.57s.27-.07.52,0l.24.11c.1,0,.18.06.23,0a.83.83,0,0,0,.17-.36l.05-.22a1.06,1.06,0,0,1,0-.18c.36-.86.88-2,1.54-3.41l.84-1.75.83-1.7,2.2-4.76,2.18-4.72q2.67-5.81,4.21-9.31a3,3,0,0,0,.15-.42l.25-.56a3.3,3.3,0,0,0,.27-.7s-.15-.1-.4-.18l-.28-.13a.31.31,0,0,1-.17-.17.59.59,0,0,1,0-.3.46.46,0,0,1,.19-.3q.11-.13.63.09l.44.2.43.24a8.28,8.28,0,0,0,.82.33l.42.14.36.16c1.1.41,2.44,1,4,1.72l2,.93,2.07,1,.4.18.47.26a3,3,0,0,0,.72.33l.12-.05s.09-.05.11,0c.42.15.56.41.43.77,0,.11-.15.29-.3.55l-.2.34-.2.34a1.34,1.34,0,0,0-.22.48l-.05.22-.09.2c-.08.1-.13.14-.16.13l0,0a.16.16,0,0,0-.1.1l-.11.14,0,.18a.31.31,0,0,1-.15.23.62.62,0,0,1-.49-.22.74.74,0,0,1-.23-.45,2.56,2.56,0,0,1,.28-.93,5.86,5.86,0,0,1,.5-.89l0-.08.12-.14c.1-.09.14-.15.13-.19s-.19-.18-.49-.31l-.34-.11-.16-.07c-1.57-.81-3.19-1.59-4.88-2.35l-.38-.23-.27-.16-.32-.15c-.51-.29-.83-.41-1-.34s-.13.12-.2.35l-.13.28-.07.26c-.42,1-1,2.33-1.85,4l-1,2.07c-.39.79-.73,1.51-1,2.15l-.09.2-.2.34c-.2.37-.28.59-.25.66s.16.11.44.2l.3.09.24.11a15.78,15.78,0,0,1,1.45.75c.39.21.84.48,1.37.82A1.21,1.21,0,0,0,849.18,463.82Zm-12.5,10.11c.28-.62.46-1.05.54-1.3l-.31.68-.36.7a7.76,7.76,0,0,0-.52,1.36Zm2.23-4.94c.33-.72.55-1.25.67-1.58l-.38.84-.44.87a12.51,12.51,0,0,0-.64,1.64Zm3.82-4.9c.07-.16.07-.19,0-.1a9,9,0,0,0-.64,1.21l-.25.66-.31.68a71,71,0,0,0-3.31,7.65q.88-1.87,2.22-4.9l1-2.43Zm3.55-11.69-.51,1.22c-.39,1-.71,1.83-.95,2.43l-.16.36c-.07.16,0,.14.08-.06q1.34-2.64,2.31-4.37l.29-.64c.13-.3.18-.47.14-.52a.69.69,0,0,0-.22-.15.64.64,0,0,0-.28,0s-.09.09-.15.22a.67.67,0,0,0-.07.26Zm-.72,4.27c-.12.27-.17.39-.13.38a10.53,10.53,0,0,0,.74-1.41l.28-.74.31-.68c-.24.47-.55,1.1-.91,1.91A2.9,2.9,0,0,0,845.56,456.67Z"/><path d="M875.49,482.48l.19-.25.2-.34c.2-.25.29-.43.28-.51s-.22-.31-.61-.58l-.51-.27-.21-.17-.2-.09-.79-.5-.24-.12-.21-.16a.86.86,0,0,0-.34-.21c-.06,0-.2.1-.42.34l-.25.25a1.25,1.25,0,0,0-.2.19l-1.94,1.67-1.89,1.66q-2.31,2-3.92,3.6l-1,1.05-1.06,1c-.8.8-1.52,1.48-2.18,2.05-.13.12-.42.35-.85.68,0,0,.09.15.26.31l.22.22a.27.27,0,0,1,.11.15v.06l0,.09a.78.78,0,0,1,0,.3c0,.26-.08.4-.22.44s-.39-.12-.85-.48l-.31-.18-.73-.56a2.69,2.69,0,0,0-.35-.21l-.16-.07-.07-.05a.68.68,0,0,1-.13-.49.56.56,0,0,1,.22-.44c.1,0,.27,0,.5.22l.25.18a.45.45,0,0,0,.25,0,2.44,2.44,0,0,0,.65-.56l.41-.47a2.63,2.63,0,0,1,.37-.33q6.33-6,10-9.27l2.51-2.19,2.45-2.18c1.94-1.73,3.63-3.3,5.05-4.72l.17-.15.14-.18a4.81,4.81,0,0,1,.42-.4,1.3,1.3,0,0,1,.16-.15l.26-.19c.19-.15.28-.25.28-.29s-.18-.19-.52-.34l-.39-.13a.6.6,0,0,1-.23-.29.42.42,0,0,1,0-.31.7.7,0,0,1,.21-.35c.15-.1.48,0,1,.25l.59.4.58.33.47.25c.18.1.33.2.45.28a5.92,5.92,0,0,0,.82.52l.41.26.41.26.25.19.31.18a1.51,1.51,0,0,1,.45.35,1,1,0,0,1,0,.4.6.6,0,0,1-.2.34h-.22a.93.93,0,0,1-.26,0l-.24-.18c-.12-.09-.2-.14-.24-.13a3.19,3.19,0,0,0-.47.75q-.15.28-.27.57a3,3,0,0,0-.19.41l-1.07,2.18-1.06,2.18q-1.29,2.57-2.3,4.4l-.49.85-.54.92c-.44.72-.78,1.31-1,1.76l-.9,1.76-.89,1.75c-.74,1.44-1.36,2.61-1.86,3.52a28.48,28.48,0,0,0-1.36,2.56l-.7,1.35-.64,1.35-.1.2-.1.2-.27.57c-.23.45-.33.71-.3.76a.63.63,0,0,0,.32.31l.31.24a.67.67,0,0,1,0,.6.63.63,0,0,1-.36.33c-.11,0-.34-.07-.71-.32L869,501c-.21-.16-.49-.4-.84-.71l-1.33-1c-.24-.17-.35-.34-.35-.48.09-.6.42-.65,1-.13A155.71,155.71,0,0,1,875.49,482.48Zm-5.12,13.06,1.39-3.49-.85,1.63-.86,1.56c-.69,1.28-1.21,2.35-1.56,3.19A7.67,7.67,0,0,0,870.37,495.54Zm4.9-16.11.7.53c.4.31.64.45.72.44s.15-.15.32-.42l.17-.37a2.11,2.11,0,0,1,.16-.27c.26-.5.59-1.11,1-1.86l.44-1,.49-1a31.07,31.07,0,0,1,1.85-3.57c-1,1-2.16,2.1-3.6,3.4l-1.83,1.59-1.8,1.62Zm3.15,2.85q-1.63,2.91-4.31,8.24Q876.87,485.6,878.42,482.28Zm4.08-8.75.47-1,.44-.94c0-.06,0-.13-.12-.2l-.17-.08-.16-.07a30.5,30.5,0,0,0-2.07,4.08l-.89,2q-.51,1.16-1,2c.34-.49.73-1.13,1.19-1.92l.6-1,.61-1A18.34,18.34,0,0,0,882.5,473.53Z"/><path d="M902.35,499.9l-3.08,2.36-3.11,2.39q-1.18.92-3,2.43l-1.47,1.27-1.53,1.25c-2,1.61-3.42,2.87-4.41,3.8l-.71.59c-.35.31-.52.52-.53.6s.1.26.32.53l.29.28.17.21c.51.67,1.23,1.55,2.15,2.62l1.15,1.33,1.09,1.33c.19-.19.4-.38.62-.57a5.85,5.85,0,0,1,.79-.64c.63-.48,1.07-.68,1.34-.59a.91.91,0,0,1,.61.81,1.2,1.2,0,0,1-.43.52l-.4.28-.68.56-.32.31a4.74,4.74,0,0,1-.64.47l-.1.08-.16.08a.51.51,0,0,1-.3.13.3.3,0,0,1-.21-.05l-.09,0h-.06a2.32,2.32,0,0,1-.6-.59l-.28-.4-1.23-1.5-1.12-1.3-1-1.26-1-1.25c-.76-.94-1.5-1.76-2.2-2.47a11.53,11.53,0,0,0-1.67-1.48l-.05-.07,0,0-.2-.18a.32.32,0,0,1-.08-.51.57.57,0,0,1,.64-.12,5.24,5.24,0,0,0,.76.51,2.8,2.8,0,0,0,.68-.5l.68-.55c.64-.53,1.57-1.31,2.8-2.36L887.1,507l1.43-1.18c.54-.45,1.22-1,2-1.61l1.12-.8,1.11-.86q2.78-2.11,4.32-3.49,2.53-2.26,7-5.64a3,3,0,0,1,.4-.27l.47-.33a2.56,2.56,0,0,0,.55-.45c0-.06,0-.15-.16-.27a2.94,2.94,0,0,0-.35-.28c-.35-.29-.51-.44-.49-.46.49-.32.83-.45,1-.37a1.82,1.82,0,0,1,.74.7l.14.23.16.21a.82.82,0,0,0,.32.25,1.77,1.77,0,0,1,.37.44,4.28,4.28,0,0,0,.58.72l.34.4.4.42c.62.67.9,1.1.84,1.3a1,1,0,0,1-.24.26.81.81,0,0,1-.3.19c-.17,0-.32-.16-.46-.42l-.22-.4a2.27,2.27,0,0,0-.31-.31A46.58,46.58,0,0,1,902.35,499.9Zm2.49-5.58-1.9,1.45L901,497.24c-1.6,1.28-2.87,2.24-3.78,2.88-.41.3-.91.68-1.5,1.17l-1.43,1.24-2.76,2.32-2.77,2.39c-2.3,1.93-4.19,3.46-5.68,4.61-.43.31-.63.51-.59.6,0,.26.18.34.38.26l.37-.31.18-.2.21-.23c.16-.17.28-.29.35-.35a1.06,1.06,0,0,1,.32-.15,1.54,1.54,0,0,0,.34-.22,12.7,12.7,0,0,0,1.3-1.12l.65-.6.65-.59A235.74,235.74,0,0,1,906.5,493.3s0-.05,0-.1a5.23,5.23,0,0,0-.8.49l-.43.3Zm-12.15,11.81,1.42-1.06,2.84-2.16a57.28,57.28,0,0,0,5.28-4.62l-2.75,2.15-2.78,2.16q-3.23,2.59-5.39,4.55Z"/></svg>