<svg id="Слой_1" data-name="Слой 1" xmlns="http://www.w3.org/2000/svg" viewBox="0 0 1080 1080"><defs><style>.cls-1,.cls-4{fill:#fff;}.cls-1{stroke:#333;}.cls-1,.cls-2,.cls-3,.cls-4{stroke-miterlimit:10;}.cls-1,.cls-3,.cls-4{fill-rule:evenodd;}.cls-2,.cls-3{fill:none;}.cls-2,.cls-3,.cls-4{stroke:#000;}.cls-5{fill:#333;}</style></defs><title>Дубровской123</title><path class="cls-1" d="M729,755c3.9.7,7.86,1.37,12,2,7.27,1.12,14.95,2.17,23.42,3.56,11.14,1.82,42.73,1.2,42.73,1.2,7.31-.21,14.65-.53,22-1.28,13.43-1.36,26.64-4.12,38.88-10.23,5.83-2.91,11.62-6,16.58-10.33a43.24,43.24,0,0,0,4.53-4.55,14.19,14.19,0,0,1-1.14,3.7c-3.33,5.56-8.79,9.43-14.33,12.59-14.44,8.23-27,12.65-43.15,15.71h0c-13.31,2.56-38.84,3.77-50.28,2.78l-37.26-3.82c-.67-.09-1.43-.18-2.25-.32-3.34-.45-7.85-1.14-11.87-1.89"/><path class="cls-1" d="M729,755c-14.52-2.69-28.2-6.45-44.3-14.48a29.55,29.55,0,0,1-6.13-3.77,9,9,0,0,0,.33,1.87c4.56,5.49,8.92,10.24,15.08,13.58a121.25,121.25,0,0,0,27.77,10.51c1.78.45,4.29.94,7,1.41"/><path class="cls-1" d="M902.44,394c-10.24,1.83-18.67,3.12-27.27,4.12-10.07,1.12-20.32,1.8-33.92,2.55-15.68.86-38.15.08-55.09.59-16.57.45-29.31.46-44.84-.29-6-.29-12.5-.69-19.69-1.25-20.62-1.53-41-4.82-61.52-7.57,0,0-17.34-1.56-30.34-5.85.15.71.3,1.45.41,2.13,2.44,13.68,3.6,27.59,5.15,41.4q3.17,28.27,6.17,56.58c8,69.44,12.46,151,27.67,223.4q1.55,7.35,3.27,14.61c.82,3.53,1.79,7.21,3.94,10.07a11.34,11.34,0,0,0,1.09,1.2v0a10.56,10.56,0,0,0,1.11,1,29.55,29.55,0,0,0,6.13,3.77c16.1,8,29.78,11.78,44.3,14.48,3.9.7,7.86,1.37,12,2,7.27,1.12,14.95,2.17,23.42,3.56,11.14,1.82,42.73,1.2,42.73,1.2,7.31-.21,14.65-.53,22-1.28,13.43-1.36,26.64-4.12,38.88-10.23,5.83-2.91,11.62-6,16.58-10.33a43.24,43.24,0,0,0,4.53-4.55c12.63-14.63,16.09-36.61,18.59-56.79,7.59-61.34,13-110,19.53-171.46.73-6.55,1.46-13.07,2.22-19.62,2.1-18.82,4.35-37.66,6.6-56.5,1.64-13.81,2.94-27.7,5.46-41.37.44-2.35,1.13-4.9,1.59-7.4C928.32,388.62,905,393.59,902.44,394Z"/><path class="cls-1" d="M943.48,379.54c-.08.88-.25,1.8-.41,2.71C928.32,388.62,905,393.59,902.45,394c-10.25,1.83-18.68,3.12-27.28,4.12-10.06,1.12-20.31,1.8-33.92,2.55-15.67.86-38.15.08-55.08.59-16.58.45-29.32.46-44.85-.29-6-.28-12.49-.69-19.69-1.24-20.61-1.54-41-4.83-61.51-7.58,0,0-17.35-1.56-30.34-5.85a62,62,0,0,1-1.5-8c9.67,5.43,30.43,9.84,58,12.91,18.07,2,39,3.43,61.68,4.17,10.82.38,22,.58,33.49.6l2.71,0,4.89,0h1.18c11.48.06,22.68,0,33.5-.36,22.66-.55,43.65-1.81,61.77-3.68C913,389.15,933.76,384.9,943.48,379.54Z"/><line class="cls-2" x1="695.72" y1="344.53" x2="695.74" y2="344.53"/><path class="cls-3" d="M761.87,395.5c8.21.29,16.64.47,25.23.53"/><path class="cls-3" d="M713.85,392.28h0"/><path class="cls-1" d="M628.27,378.32c9.68,5.43,30.44,9.84,58,12.91,18.08,2,39,3.42,61.68,4.17,10.84.37,22,.56,33.51.61l8.77,0c11.47,0,22.67-.06,33.51-.35,22.65-.57,43.65-1.84,61.74-3.69,27.52-2.86,48.31-7.11,58-12.47,4.26-2.36,6.4-4.94,6-7.7-2.07-15.66-32.12-24.62-77.42-29l-1-.08c-8.23-.79-25.95-1.93-39.71-2l-104.25-.4h0c-9.12.42-17.83,1-26.07,1.72l-1,.08c-45.33,4.05-75.45,12.78-77.64,28.42C621.93,373.33,624,375.92,628.27,378.32Z"/><path class="cls-3" d="M787.1,396c7.7,0,15.25-.15,22.64-.35"/><path class="cls-3" d="M915.73,308.78c0,7.5-28.2,13.82-69.22,16.73-16.88,1.2-36,1.82-56.13,1.7-68.15-.41-123.55-9-125.09-19.47,0-.14,0-.3,0-.45.08-10.58,56.19-18.84,125.37-18.43,68,.4,123.32,9.05,125.06,19.41A2.15,2.15,0,0,1,915.73,308.78Z"/><path class="cls-4" d="M945.67,349a6.75,6.75,0,0,1-1.55,4c-6.9,9.21-36.85,16.87-78.46,20.9A723.41,723.41,0,0,1,793,377c-3.72,0-7.42-.07-11.07-.15l0,0c-66.35-1.33-120.13-13.29-135.63-20.43,0,0-3.76-2.07-4.7-3.37-1.37-1.95-1.93-3.58-1.34-5.63a0,0,0,0,1,0,0,16,16,0,0,1,.85-2.31c1.7-4.3,8.29-8.28,18.74-11.78,1.39-7.55,2.72-15.16,3.9-22.77a4.51,4.51,0,0,1,.62-2,3,3,0,0,1,.91-.85c1.54,10.42,56.94,19.06,125.09,19.47,20.17.12,39.25-.5,56.13-1.7,41-2.91,69.18-9.23,69.22-16.73a2.15,2.15,0,0,0,0-.51.6.6,0,0,1,.11.21,56,56,0,0,1,5.38,17.92c.3,2.3.44,4.63.6,7,10.78,3.26,18.31,6.92,21.75,10.85A7.34,7.34,0,0,1,945.67,349Z"/><path class="cls-3" d="M655,351.56c1.7-2.46,2.35-5.45,2.93-8.39.66-3.27,1.28-6.55,1.9-9.82"/><path class="cls-3" d="M925.56,351.18c-3-5.38-3.36-11.6-3.78-17.83"/><path class="cls-4" d="M947.83,355.17a18.13,18.13,0,0,1-5.56,10c-4.09,3.83-9.42,6-14.69,7.93a239,239,0,0,1-57.08,13.14c-6.37.67-12.77,1.08-19.16,1.23-6.81.18-13.62,0-20.45,0q-16.08-.33-32.17-.61-38.52-.71-77-1.39c-11-.21-22.19-.43-32.9-3.07-7.27-1.82-14.26-4.72-21.57-6.37-4.87-1.1-9.89-1.62-14.72-2.83,0,0-21.8-.66-18.38-14.7a19.72,19.72,0,0,1,1.86-4.71,29.8,29.8,0,0,1,4.27-6.27c-.6,2.05,0,3.68,1.34,5.63.93,1.3,4.7,3.37,4.7,3.37,15.5,7.14,69.28,19.1,135.63,20.43l0,0c3.64.08,7.34.11,11.06.15a723.28,723.28,0,0,0,72.65-3c41.62-4,71.57-11.69,78.47-20.9a6.68,6.68,0,0,0,1.54-4,7.34,7.34,0,0,0-2.14-4.84,10.56,10.56,0,0,1,4.08,5.86A11.94,11.94,0,0,1,947.83,355.17Z"/><path class="cls-3" d="M781.92,376.89c-2.07,0-4.14-.08-6.19-.14"/><path class="cls-4" d="M955.15,373.82a13.73,13.73,0,0,1-4.91,4.72,49.94,49.94,0,0,1-7.17,3.71C928.32,388.62,905,393.59,902.45,394c-10.25,1.83-18.68,3.12-27.28,4.12-10.06,1.12-20.31,1.8-33.92,2.55-15.67.86-38.15.08-55.08.59-16.58.45-29.32.46-44.85-.29-6-.28-12.49-.69-19.69-1.24-20.61-1.54-41-4.83-61.51-7.58,0,0-17.35-1.56-30.34-5.85a39.54,39.54,0,0,1-9.55-4.36c-9-6.14-2-18.58,9.55-22.47a21.54,21.54,0,0,1,4.33-1c-3.42,14,18.39,14.69,18.39,14.69,4.84,1.2,9.84,1.72,14.74,2.83,7.28,1.63,14.28,4.54,21.55,6.35,10.7,2.65,21.86,2.88,32.9,3.09q38.5.65,77,1.38,16.11.27,32.17.63c6.82.07,13.65.21,20.46,0,6.38-.16,12.78-.56,19.16-1.23a240.42,240.42,0,0,0,57.06-13.15c5.28-1.93,10.6-4.08,14.7-7.93a22,22,0,0,0,2.21-2.43,17.13,17.13,0,0,0,3.35-7.55,20.56,20.56,0,0,1,6.8,7.86C956.25,366.39,956.89,370.52,955.15,373.82Z"/><path class="cls-5" d="M229.17,656.89c-.86,0-1.94-.08-3.25-.18l-.25,0-.22,0a.57.57,0,0,0-.28,0s-.07.18-.07.46l0,.4v.32c0,1.81,0,4.55.07,8.22a7,7,0,0,1,1.18,0l.61,0h.68l.18,0,.21,0a.7.7,0,0,0,.29,0,.53.53,0,0,0,.11-.25v-.36c0-.33.06-.54.18-.61a.61.61,0,0,1,.43,0c.19.07.29.16.32.25s0,.12,0,.29l0,.25,0,.28a6.1,6.1,0,0,1-.07.9c0,.09,0,.26,0,.5v.54c0,.47,0,.76-.1.85s-.18.07-.4.07a.52.52,0,0,1-.43-.14,1.4,1.4,0,0,1,0-.86l0-.21v-.22a.47.47,0,0,0,0-.35,16.67,16.67,0,0,1-2.29,0l-.18,0-.25,0c-.19,0-.3,0-.32,0s-.11.23-.11.64v.43a1.59,1.59,0,0,1,0,.28q.08,2.48,0,6.76l0,1.76v1.71c0,1.36,0,2.46,0,3.29h.25l.22-.07a.68.68,0,0,1,.43.07.56.56,0,0,1,.17.32.7.7,0,0,1,0,.36c-.07.1-.38.14-.93.14h-.67l-.58,0a11,11,0,0,0-1.14,0h-.64a2.59,2.59,0,0,1-.51,0,.53.53,0,0,1-.17-.29c0-.12,0-.2,0-.25s.14-.09.36-.14c0,0,.09,0,.21,0l.22,0a1.58,1.58,0,0,0,.07-.68l0-.5v-.4c0-.57,0-1.36-.07-2.36s-.07-1.77-.07-2.25v-6.26q0-3.65.14-6.26c0-.88,0-1.63,0-2.25,0-.91,0-1.69,0-2.36v-.43l0-.46a1.56,1.56,0,0,0,0-.68s-.08,0-.18-.07l-.21-.11c-.22-.07-.29-.19-.22-.36s.22-.17.57-.21h.83a32.92,32.92,0,0,1,4.07,0l1,.07,1.07,0q1.22,0,2.22,0h.29l.28,0h.4l0,0,.07-.07.07-.08a.56.56,0,0,1,.33,0,.44.44,0,0,1,.25.29,1.35,1.35,0,0,1,0,.57l-.11.36-.07.35c0,.1,0,.27,0,.5v.75l0,.15,0,.32c0,.26,0,.43,0,.5a.62.62,0,0,1-.29,0l-.18,0-.14,0a1.49,1.49,0,0,1-.21-.78l0-.54,0-.21v-.75a1.36,1.36,0,0,0,0-.5C231.45,657,230.39,656.94,229.17,656.89Zm-5.5.82v-.46c0-.38-.06-.59-.11-.61s-.17,0-.22,0l0,.07v.07a10.75,10.75,0,0,0,0,1.4l0,.75,0,.78c0,1.17,0,2.67,0,4.51l0,2.25v2.11l.07-1.25.07-1.29q.1-1.53.15-2.61c.09-2,.1-3.81,0-5.36A3.58,3.58,0,0,0,223.67,657.71Zm0,21.67a4.33,4.33,0,0,0-.11-.78v.46l0,.43a1.94,1.94,0,0,0,.15.82Zm.21-11a35.31,35.31,0,0,0,0,8.4Z"/><path class="cls-5" d="M241.9,655.85l.18.11.18.11.32.07.32,0a4.47,4.47,0,0,1,2.72,2.51,18.75,18.75,0,0,1,.79,2q.32,1.11.57,2.07a39.76,39.76,0,0,1,.64,4.11v.36c0,.14,0,.23,0,.25s.11.11.25.18l.18.07.14.11a1.11,1.11,0,0,1,.29.53.78.78,0,0,1-.4.58l-.14.1-.14.08a.4.4,0,0,0-.18.25,1.71,1.71,0,0,0,0,.46v.47l-.21,2.61-.11.89-.07.82c-.1.67-.19,1.22-.29,1.65a11.24,11.24,0,0,1-1.78,3.86,10.45,10.45,0,0,1-1.22,1.39,4.88,4.88,0,0,1-1.68,1,4.41,4.41,0,0,1-2.11,0,3.69,3.69,0,0,1-2.47-1.68,10.81,10.81,0,0,1-1.14-2.5,23.92,23.92,0,0,1-1.4-9.52,37.07,37.07,0,0,1,.72-6.61,11.48,11.48,0,0,1,2.18-5,4,4,0,0,1,2.68-1.47A2.42,2.42,0,0,1,241.9,655.85ZM236.11,672a21.92,21.92,0,0,0,.32,2.28,14.32,14.32,0,0,0,1.07,4c-.36-1.57-.63-3-.82-4.18a39.13,39.13,0,0,1-.54-4.54s0,0,0,0A14.15,14.15,0,0,0,236.11,672Zm1.25-7.51a23.29,23.29,0,0,0-.22,6.11,54.74,54.74,0,0,0,.86,5.79A80.58,80.58,0,0,1,237.36,664.51Zm1,15.91a1.37,1.37,0,0,0,.5.57,2.23,2.23,0,0,1-.43-.61l-.18-.35-.21-.36A4.07,4.07,0,0,0,238.4,680.42Zm.53-20.63a47.38,47.38,0,0,0-.28,12c.14,1.91.28,3.36.43,4.36A15.91,15.91,0,0,0,240,680a5.54,5.54,0,0,0,.53,1.11c.31.47.59.72.82.75a1.47,1.47,0,0,0,.61-.08l.29-.1.29-.11a4.52,4.52,0,0,0,.67-.43c.19-.17.37-.33.54-.5q2.76-2.82,3-11a6.73,6.73,0,0,1-3.71-.75,6.26,6.26,0,0,1-2.58-2.25A9.93,9.93,0,0,1,238.93,659.79Zm2.51-2.76a4.34,4.34,0,0,0-1.26,2.15,6.74,6.74,0,0,0-.1,3A11.93,11.93,0,0,1,241.44,657Zm0,3.08a10.35,10.35,0,0,0,.4,5.54l.25.64.21.61a2.62,2.62,0,0,0,.61.93,4.44,4.44,0,0,0,1.18.79,3,3,0,0,0,1.43.43,2.22,2.22,0,0,0,.71-.14c.29-.12.46-.24.5-.36a2.65,2.65,0,0,0,0-.72l0-.46,0-.47c-.21-1.57-.47-3.08-.78-4.54a12.7,12.7,0,0,0-2.08-4.93,1.18,1.18,0,0,0-.21-.18l-.25-.25c-.22-.19-.37-.28-.47-.25s0,0,0,.07A5.58,5.58,0,0,0,241.47,660.11Z"/><path class="cls-5" d="M258.6,655.85l.18.11.18.11.32.07.32,0a4.47,4.47,0,0,1,2.72,2.51,18.75,18.75,0,0,1,.79,2q.31,1.11.57,2.07c.28,1.38.5,2.75.64,4.11v.36c0,.14,0,.23,0,.25s.1.11.25.18l.18.07.14.11a1.11,1.11,0,0,1,.29.53.78.78,0,0,1-.4.58l-.14.1-.14.08a.4.4,0,0,0-.18.25,1.71,1.71,0,0,0,0,.46v.47l-.21,2.61-.11.89-.07.82c-.1.67-.19,1.22-.29,1.65a11.06,11.06,0,0,1-1.79,3.86,9.73,9.73,0,0,1-1.21,1.39,4.88,4.88,0,0,1-1.68,1,4.41,4.41,0,0,1-2.11,0,3.69,3.69,0,0,1-2.47-1.68,10.4,10.4,0,0,1-1.14-2.5,23.74,23.74,0,0,1-1.4-9.52,36.14,36.14,0,0,1,.72-6.61,11.48,11.48,0,0,1,2.18-5,4,4,0,0,1,2.68-1.47A2.42,2.42,0,0,1,258.6,655.85ZM252.81,672a19.51,19.51,0,0,0,.32,2.28,14.32,14.32,0,0,0,1.07,4c-.36-1.57-.63-3-.82-4.18a37.07,37.07,0,0,1-.54-4.54s0,0,0,0A14.15,14.15,0,0,0,252.81,672Zm1.25-7.51a22.87,22.87,0,0,0-.22,6.11,54.74,54.74,0,0,0,.86,5.79A80.58,80.58,0,0,1,254.06,664.51Zm1,15.91a1.37,1.37,0,0,0,.5.57,2.23,2.23,0,0,1-.43-.61L255,680l-.22-.36A4.76,4.76,0,0,0,255.1,680.42Zm.53-20.63a46.92,46.92,0,0,0-.28,12c.14,1.91.28,3.36.42,4.36a16.9,16.9,0,0,0,.93,3.87,5.62,5.62,0,0,0,.54,1.11c.31.47.58.72.82.75a1.47,1.47,0,0,0,.61-.08l.29-.1.28-.11a4.54,4.54,0,0,0,.68-.43c.19-.17.37-.33.54-.5,1.83-1.88,2.84-5.54,3-11a6.79,6.79,0,0,1-3.72-.75,6.3,6.3,0,0,1-2.57-2.25A9.93,9.93,0,0,1,255.63,659.79Zm2.5-2.76a4.41,4.41,0,0,0-1.25,2.15,6.6,6.6,0,0,0-.1,3A12.06,12.06,0,0,1,258.13,657Zm0,3.08a10.35,10.35,0,0,0,.39,5.54l.25.64.22.61a2.62,2.62,0,0,0,.61.93,4.44,4.44,0,0,0,1.18.79,3,3,0,0,0,1.43.43,2.22,2.22,0,0,0,.71-.14c.29-.12.46-.24.5-.36a2.65,2.65,0,0,0,0-.72l0-.46,0-.47c-.21-1.57-.48-3.08-.79-4.54a12.72,12.72,0,0,0-2.07-4.93,1.18,1.18,0,0,0-.21-.18l-.25-.25c-.22-.19-.37-.28-.47-.25s0,0,0,.07A5.58,5.58,0,0,0,258.17,660.11Z"/><path class="cls-5" d="M270.72,656l.82.07.79.07a7.5,7.5,0,0,1,4.72,1.86,9.87,9.87,0,0,1,2.47,4.22,18,18,0,0,1,.64,6.15,49.89,49.89,0,0,1-.68,6.33c-.57,3.31-1.79,5.52-3.64,6.61a7.8,7.8,0,0,1-2.29.83,22.15,22.15,0,0,1-4.37.35l-.39,0h-.39q-.47,0-.54-.18v-.25a.32.32,0,0,1,.18-.25l.18,0,.18,0c.14,0,.23,0,.28,0a2.5,2.5,0,0,0,0-.71v-.82q0-.93,0-2.43l0-1.18v-1.18c0-2.58,0-4.63.07-6.16,0-.71,0-1.51,0-2.39v-2.33c0-1.93,0-3.49.07-4.68,0-.14,0-.39,0-.75v-1.25l0-.5a1.66,1.66,0,0,0,0-.61c-.05-.07-.2-.1-.46-.07l-.29,0a.51.51,0,0,1-.21-.1.3.3,0,0,1,0-.4.56.56,0,0,1,.36-.18l.54-.07.43,0A7,7,0,0,1,270.72,656ZM270,674v-5.26a89.37,89.37,0,0,0,0,10.62C270,677.88,270,676.09,270,674Zm0-13.09v-.64a8.64,8.64,0,0,0-.11-1.11,9.16,9.16,0,0,0,.14,2.36Zm.53-2.18,0-.4,0-.42c0-.67,0-1-.08-1.11s-.06,0-.1,0l0,.64v.68a7.5,7.5,0,0,0,.15,1.25A2,2,0,0,1,270.61,658.68Zm0,22v.14c0,.14,0,.26-.07.36,0,.35,0,.53.11.53s.14-.08.14-.32v-2.29c0-.64,0-1.14,0-1.5l0,.75v.72c0,.57-.05,1.07-.07,1.5Zm.25-15.42,0,2.11,0,2.15c0,1.69,0,3.12,0,4.29Q271,668.88,270.9,665.29Zm0-1.5a6.68,6.68,0,0,0,0-1v.53l0,.54a4.33,4.33,0,0,0,.07,1Zm4.72,16,.25-.5.25-.54a12.78,12.78,0,0,0,.54-2.47,78.69,78.69,0,0,0,.53-11.37l-.07-1.47c0-.54-.05-1-.07-1.43a9.2,9.2,0,0,0-.5-2.46,4,4,0,0,0-2.32-2.36,5.19,5.19,0,0,0-1.47-.25l-.43-.08-.39,0c-.29,0-.43,0-.43.14,0,.64,0,1.65.11,3s.07,2.38.07,3.07,0,1.69,0,3.08,0,2.43,0,3.14q0,7.37-.18,12.34c1.72-.07,2.87-.39,3.47-1A3.28,3.28,0,0,0,275.62,679.78Zm2.32-13.59a41.53,41.53,0,0,1-.1,4.43l-.15,2.15c0,.81-.07,1.51-.07,2.11A33.13,33.13,0,0,0,277.94,666.19Zm.83,5.93-.25,2c-.1.83-.17,1.47-.22,1.93l.15-.93.14-1c.09-.79.18-1.48.25-2.08.19-1.64.31-3.09.36-4.32.12-3.37-.33-5.89-1.33-7.59A47.63,47.63,0,0,1,279,668,31.77,31.77,0,0,1,278.77,672.12Z"/><path class="cls-5" d="M294.79,656l.82.07.79.07a7.55,7.55,0,0,1,4.72,1.86,10,10,0,0,1,2.46,4.22,18,18,0,0,1,.65,6.15,51.81,51.81,0,0,1-.68,6.33c-.57,3.31-1.79,5.52-3.65,6.61a7.61,7.61,0,0,1-2.29.83,22,22,0,0,1-4.36.35l-.39,0h-.4c-.31,0-.49-.06-.53-.18v-.25a.32.32,0,0,1,.18-.25l.17,0,.18,0c.15,0,.24,0,.29,0a3.52,3.52,0,0,0,0-.71v-.82q0-.93,0-2.43l0-1.18v-1.18q0-3.87.07-6.16c0-.71,0-1.51,0-2.39v-2.33c0-1.93,0-3.49.07-4.68q0-.21,0-.75v-1.25l0-.5a2.47,2.47,0,0,0,0-.61c-.05-.07-.2-.1-.47-.07l-.28,0a.5.5,0,0,1-.22-.1.29.29,0,0,1,0-.4.56.56,0,0,1,.36-.18l.53-.07.43,0A7.1,7.1,0,0,1,294.79,656Zm-.68,18v-5.26a85.32,85.32,0,0,0,0,10.62C294.08,677.88,294.08,676.09,294.11,674Zm0-13.09v-.64a9.08,9.08,0,0,0-.1-1.11,9.16,9.16,0,0,0,.14,2.36Zm.54-2.18,0-.4,0-.42c.05-.67,0-1-.07-1.11s-.06,0-.11,0l0,.64v.68a7.63,7.63,0,0,0,.14,1.25A2.09,2.09,0,0,1,294.68,658.68Zm0,22v.14c0,.14-.05.26-.08.36,0,.35,0,.53.11.53s.14-.08.14-.32v-2.29q0-1,0-1.5l0,.75v.72c0,.57,0,1.07-.07,1.5Zm.25-15.42,0,2.11,0,2.15c0,1.69,0,3.12,0,4.29Q295.08,668.88,295,665.29Zm0-1.5a8.67,8.67,0,0,0,0-1v.53l0,.54a4.18,4.18,0,0,0,.08,1Zm4.72,16,.25-.5.25-.54a12.89,12.89,0,0,0,.53-2.47,77.41,77.41,0,0,0,.54-11.37l-.07-1.47c0-.54-.05-1-.07-1.43a10.06,10.06,0,0,0-.5-2.46,4,4,0,0,0-2.33-2.36,5.18,5.18,0,0,0-1.46-.25l-.43-.08-.4,0c-.28,0-.43,0-.43.14,0,.64,0,1.65.11,3s.07,2.38.07,3.07,0,1.69,0,3.08,0,2.43,0,3.14q0,7.37-.17,12.34c1.71-.07,2.87-.39,3.46-1A3.27,3.27,0,0,0,299.69,679.78ZM302,666.19a41.91,41.91,0,0,1-.11,4.43l-.14,2.15c-.05.81-.07,1.51-.07,2.11A33.13,33.13,0,0,0,302,666.19Zm.82,5.93-.25,2-.21,1.93.14-.93.14-1c.1-.79.18-1.48.26-2.08.19-1.64.3-3.09.35-4.32.12-3.37-.32-5.89-1.32-7.59A48.66,48.66,0,0,1,303,668,28.58,28.58,0,0,1,302.83,672.12Z"/><path class="cls-5" d="M316.31,665.76l0-.36c0-.31,0-.49.1-.54a.4.4,0,0,1,.4,0,.73.73,0,0,1,.32.25,1,1,0,0,1,0,.51v.53a6.06,6.06,0,0,0,.08.72l0,.39,0,.36c0,.59-.06.92-.25,1a.44.44,0,0,1-.54-.18,1.37,1.37,0,0,1-.18-.57v-.57a1.41,1.41,0,0,0,0-.43.62.62,0,0,0-.29,0l-.21,0h-.18l-.5,0-.5-.07-1-.11-.14,0-.22,0a.73.73,0,0,0-.32,0c-.05,0-.07.18-.07.47s0,.5,0,.71c.05,1,.06,2.15,0,3.43l-.07,3.47q-.1,4.55,0,7l1.68,0,1.64-.08c1.39-.07,2.53-.09,3.44-.07v-.28l0-.33a4.68,4.68,0,0,1,0-.75c0-.64.13-1,.32-1.1a.56.56,0,0,1,.32-.08.39.39,0,0,1,.36.08c.05,0,.06.19,0,.42l0,.29V680a4.45,4.45,0,0,0,0,1.57l0,.11.07.14a.43.43,0,0,1,.08.33c-.05.16-.28.23-.68.21l-.22,0-.21,0-.36,0c-.72,0-1.6,0-2.65,0l-1.39.08-1.36.07-1,0h-1l-2.08.07h-.32a2.21,2.21,0,0,1-.32-.07c-.26-.07-.35-.2-.25-.39s.18-.14.39-.14h.22a.19.19,0,0,0,.18-.08.78.78,0,0,0,0-.32l0-.18a1.19,1.19,0,0,1,0-.14c0-.76,0-1.77,0-3l0-1.57,0-1.54,0-4.26,0-4.22c0-3.45,0-6.22,0-8.29a2.23,2.23,0,0,0,0-.36v-.5a2.74,2.74,0,0,0,0-.61.94.94,0,0,0-.36,0h-.25a.24.24,0,0,1-.18-.07.52.52,0,0,1-.11-.21.39.39,0,0,1,0-.29c0-.09.19-.14.5-.14h.39l.4,0,.71,0,.36,0h.32c1-.07,2.13-.09,3.54-.07h1.82l1.86,0h.36l.43,0a2.11,2.11,0,0,0,.64,0l.08-.07c0-.05,0-.07.07-.07.35,0,.55.12.57.43a4.44,4.44,0,0,1,0,.5l0,.32,0,.32a1.54,1.54,0,0,0,0,.43l0,.18v.18c0,.09-.05.14-.07.14l0,0a.15.15,0,0,0,0,.1l0,.15,0,.14a.2.2,0,0,1,0,.22.46.46,0,0,1-.43,0,.63.63,0,0,1-.32-.26,2.08,2.08,0,0,1-.11-.78,4.32,4.32,0,0,1,.07-.82v-.08l0-.14q.08-.13,0-.18s-.2-.07-.46-.07l-.29,0H319c-1.43-.07-2.9-.11-4.4-.11l-.36,0-.25,0h-.28c-.48-.05-.75,0-.83.07s-.06.13,0,.32v.25l0,.22q0,1.32,0,3.57l0,1.86c0,.72,0,1.36,0,1.93V665l0,.32c0,.34,0,.53,0,.58a1.05,1.05,0,0,0,.39,0l.25,0h.22c.38,0,.82,0,1.32.07s.79.07,1.29.14A1,1,0,0,0,316.31,665.76Zm-6-7.48,0,1.08c0,.88.08,1.58.1,2.11v.32c0,.14,0,.12,0-.07.07-1.6.15-2.94.25-4v-.57c0-.26,0-.41-.07-.43a.61.61,0,0,0-.22,0c-.12,0-.19,0-.21.07s0,.09,0,.21a.43.43,0,0,0,0,.22Zm.11,14.74c0-.65,0-1.11,0-1.4v.75l0,.79a10.43,10.43,0,0,0,.07,1.43Zm0,4.4c0-.55,0-.93,0-1.15v.61l0,.64a6.51,6.51,0,0,0,.07,1.18Zm.78-15.74c0,.24,0,.35,0,.32a8.11,8.11,0,0,0,.07-1.28l0-.65v-.61c0,.43,0,1,0,1.72A2.59,2.59,0,0,0,311.23,661.68Zm.4,6.44c0-.14,0-.17,0-.07a6.34,6.34,0,0,0-.07,1.11l0,.57v.61a58.25,58.25,0,0,0,.1,6.75c0-1.12,0-2.57,0-4.36l0-2.14Z"/><path class="cls-5" d="M330,662.72l-.11,3.15-.1,3.18c0,.81,0,1.85,0,3.11l0,1.57v1.61c0,2,0,3.63.11,4.72v.75a1.5,1.5,0,0,0,.11.65s.21.07.5.07l.32,0h.21q1,0,2.76,0l1.43,0h1.39c0-.22,0-.44,0-.68a3.73,3.73,0,0,1,0-.82c0-.65.13-1,.32-1.15a.55.55,0,0,1,.39-.11.49.49,0,0,1,.43.15.93.93,0,0,1,.11.53l0,.4v.71l0,.36a3.13,3.13,0,0,1,0,.64v.11l0,.14a.49.49,0,0,1-.07.25.25.25,0,0,1-.15.11l-.07,0,0,0a1.83,1.83,0,0,1-.67.07l-.4,0h-1.57l-1.4,0h-1.32l-1.29,0c-1,0-1.87,0-2.68.11a9.08,9.08,0,0,0-1.79.28h-.07v0l-.21,0a.26.26,0,0,1-.36-.21A.47.47,0,0,1,326,682a7.07,7.07,0,0,0,.72-.21,3.25,3.25,0,0,0,0-.68v-.72c0-.66,0-1.65,0-3l-.08-1.47v-1.5c0-.57,0-1.28,0-2.11l.07-1.11,0-1.14c.07-1.89.08-3.39,0-4.51q-.1-2.76.07-7.3c0-.09,0-.22,0-.39l0-.46a2.42,2.42,0,0,0,0-.58s-.11-.06-.25,0a1.29,1.29,0,0,0-.36.07c-.36.07-.54.1-.54.07.05-.48.14-.75.29-.82a1.43,1.43,0,0,1,.82-.11l.21,0h.22a.66.66,0,0,0,.32-.07,1.09,1.09,0,0,1,.47,0,4.54,4.54,0,0,0,.75,0h.43l.46,0c.74-.05,1.16,0,1.25.14a.66.66,0,0,1,0,.29c0,.17,0,.26,0,.29a.58.58,0,0,1-.5.07l-.36-.07a2,2,0,0,0-.35,0A38.53,38.53,0,0,1,330,662.72Zm-2.22-4.44-.07,1.94-.07,2c0,1.67-.07,3-.14,3.86,0,.41,0,.92,0,1.54l0,1.54,0,2.93.07,3q0,3.65,0,5.94c0,.43,0,.65.07.68s.31.06.36-.11v-.39l0-.22,0-.25a2.75,2.75,0,0,1,0-.39A.79.79,0,0,1,328,680a1.33,1.33,0,0,0,0-.32,10.13,10.13,0,0,0,0-1.4l0-.71,0-.72a191,191,0,0,1,.11-20.13s0,0-.07,0a3.34,3.34,0,0,0-.11.75l0,.43ZM329,672l.07-1.43.11-2.9A49,49,0,0,0,329,662l-.07,2.82-.07,2.86c0,2.24,0,4.15.07,5.73Z"/><path class="cls-5" d="M345.42,662.65l0,1.57-.07,1.61c-.05,1.36-.09,2.43-.11,3.22s0,1.89,0,3.18l0,1.57v1.61a32.73,32.73,0,0,0,.32,5.33l0,.18,0,.22c0,.16.05.25.07.25a.22.22,0,0,0,.14,0h.25a.86.86,0,0,1,.4.07.42.42,0,0,1,.14.29.52.52,0,0,1-.07.29c-.05.07-.25.1-.61.1h-.78a12.88,12.88,0,0,0-3.37.36l-.14,0-.18,0c-.14,0-.23,0-.25,0a.31.31,0,0,1-.07-.36.69.69,0,0,1,.21-.32l.18-.07.22,0c.19,0,.3,0,.32-.1a.47.47,0,0,0,0-.25l0-.22v-3.43c0-1.53,0-2.67,0-3.43s0-1.61.07-2.9.07-2.28.07-3v-.75l0-.75q0-.93,0-1.5c-.07-1.81-.05-4.25.07-7.3a3.61,3.61,0,0,1,0-.39l0-.47a2.24,2.24,0,0,0,0-.57s-.12,0-.29,0l-.21,0h-.18c-.29,0-.43-.11-.43-.32s.16-.37.47-.47a5.48,5.48,0,0,1,1.5-.11h1.5l.43,0h.54c.42,0,.67.05.75.14a.47.47,0,0,1,.07.29.43.43,0,0,1-.07.28c-.08.08-.24.1-.5.08l-.36-.08a2.2,2.2,0,0,0-.36,0A36.91,36.91,0,0,1,345.42,662.65Zm-2.22-4.44-.07,2-.07,1.93c0,1.67-.08,3-.15,3.86,0,.41,0,.92,0,1.54l0,1.54,0,2.93.07,3q0,3.64,0,5.93c0,.43,0,.66.08.68s.3.06.35-.1v-.4l0-.21,0-.22q0-.28,0-.42a.75.75,0,0,1,.07-.29,2,2,0,0,0,0-.32,9.89,9.89,0,0,0,0-1.4l0-.71,0-.72a191.27,191.27,0,0,1,.1-20.13s0,0-.07,0a4.36,4.36,0,0,0-.11.75l0,.43Zm1.14,13.7.07-1.43.11-2.9a44.83,44.83,0,0,0-.18-5.68l-.07,2.86,0,2.86c-.05,2.21,0,4.11,0,5.68Z"/><path class="cls-5" d="M355.93,668.08l.39,2.79.39,2.83c.31,2.17.6,4,.86,5.54l.4-2.86.35-2.9q.46-3.68.83-5.79,1.07-6.36,1.86-9.62c0-.07,0-.18.07-.32l.14-.43a1.74,1.74,0,0,0,.11-.54s-.18-.07-.47-.07l-.28,0a.41.41,0,0,1-.22,0,.5.5,0,0,1-.11-.22.84.84,0,0,1,0-.32c.08-.21.42-.33,1-.35a4.77,4.77,0,0,1,.75,0h.68l.29,0h.32c.24,0,.39.06.46.18a.73.73,0,0,1,.08.29.62.62,0,0,1,0,.28c-.08.15-.35.21-.83.18h-.53a.71.71,0,0,0-.43.11c-.05,0-.11.25-.18.68a4.68,4.68,0,0,1-.11.5v.18l0,.14Q360,667,358.32,679.92c0,.09,0,.24,0,.43l-.11.5a2.69,2.69,0,0,0,0,.68c.05.07.27.11.65.11a1,1,0,0,1,.43,0,.44.44,0,0,1,.32.1.42.42,0,0,1,.07.15l.07.18a.45.45,0,0,1-.07.39,1.17,1.17,0,0,1-.57.07,4.67,4.67,0,0,1-.75,0,38.15,38.15,0,0,0-3.9,0l-.22,0-.25.07a.88.88,0,0,1-.39,0c-.09-.05-.14-.17-.14-.36a.82.82,0,0,1,.07-.39q.1-.15.54-.18h.32c.09,0,.15,0,.18-.07s0-.09,0-.18l-.07-.14,0-.18a.22.22,0,0,1,.08-.15.7.7,0,0,0,0-.14,2.94,2.94,0,0,0-.11-.68l-.1-.36-.11-.39c-.33-1.91-.57-3.38-.72-4.43l-.17-1.51-.18-1.53c-.15-1.24-.28-2.28-.4-3.11l-.39-2.62-.36-2.57c-.31-2.07-.59-3.81-.86-5.22,0-.07,0-.19-.07-.36l-.07-.46a3.34,3.34,0,0,0-.14-.61c-.07-.07-.22-.08-.43,0l-.22.11a.24.24,0,0,1-.17,0c-.08,0-.11-.15-.11-.32a.55.55,0,0,1,0-.36c.1-.19.46-.3,1.08-.32a4.63,4.63,0,0,1,.75,0h2.89a.87.87,0,0,1,.54.11q.15.06.18.39a.73.73,0,0,1-.07.39c-.07.1-.23.13-.47.11l-.35,0a2.2,2.2,0,0,0-.36,0Q355,661.22,355.93,668.08Zm-2.47,1.18c-.12-.71-.24-1.61-.36-2.68l-.14-1.43-.18-1.5q-.43-3.87-.75-5.83l0-.22v-.17a1.12,1.12,0,0,0,0-.29c-.07-.14-.25-.18-.54-.11q.54,2.29,1.11,6l.47,3.08c.16,1.21.32,2.23.46,3Zm0-6.93a25.07,25.07,0,0,0-.21-3.37l-.07-.53,0-.57c0-.41,0-.66.18-.76l-.32,0h-.32Zm1.86,18.81v.21c.05.14.12.23.22.25q-.28-2.07-.93-5.72l-.5-2.86-.47-2.9A88.93,88.93,0,0,0,355.25,681Zm.75-1.86.08.32.1.71a2.41,2.41,0,0,1-.07,1.25h.54c-.26-1.14-.56-2.68-.9-4.61l-.39-2.36-.43-2.36c.1.95.25,2.09.47,3.4l.25,1.68L356,679Z"/><path class="cls-5" d="M374.34,665.76l0-.36c0-.31,0-.49.1-.54a.4.4,0,0,1,.4,0,.73.73,0,0,1,.32.25,1,1,0,0,1,0,.51v.53a6.06,6.06,0,0,0,.08.72l0,.39,0,.36c0,.59-.06.92-.25,1a.44.44,0,0,1-.54-.18,1.37,1.37,0,0,1-.18-.57v-.57a1.41,1.41,0,0,0,0-.43.62.62,0,0,0-.29,0l-.21,0h-.18l-.5,0-.5-.07-1-.11-.14,0-.22,0a.73.73,0,0,0-.32,0c-.05,0-.07.18-.07.47s0,.5,0,.71c.05,1,.06,2.15,0,3.43l-.07,3.47q-.1,4.55,0,7l1.68,0,1.64-.08c1.39-.07,2.53-.09,3.44-.07v-.28l0-.33a4.68,4.68,0,0,1,0-.75c0-.64.13-1,.32-1.1a.56.56,0,0,1,.32-.08.39.39,0,0,1,.36.08c.05,0,.06.19,0,.42l0,.29V680a4.45,4.45,0,0,0,0,1.57l0,.11.07.14a.43.43,0,0,1,.08.33c0,.16-.28.23-.68.21l-.22,0-.21,0-.36,0c-.72,0-1.6,0-2.65,0l-1.39.08-1.36.07-1,0h-1l-2.08.07h-.32l-.32-.07c-.26-.07-.35-.2-.25-.39s.18-.14.39-.14h.22a.19.19,0,0,0,.18-.08.78.78,0,0,0,0-.32l0-.18a1.19,1.19,0,0,1,0-.14c0-.76,0-1.77,0-3l0-1.57,0-1.54,0-4.26,0-4.22c0-3.45,0-6.22,0-8.29a2.23,2.23,0,0,0,0-.36v-.5a2.74,2.74,0,0,0,0-.61.94.94,0,0,0-.36,0h-.25a.24.24,0,0,1-.18-.07.52.52,0,0,1-.11-.21.39.39,0,0,1,0-.29c0-.09.19-.14.5-.14h.39l.4,0,.71,0,.36,0h.32c.95-.07,2.13-.09,3.54-.07h1.82l1.86,0h.36l.43,0a2.11,2.11,0,0,0,.64,0l.08-.07c0-.05,0-.07.07-.07.35,0,.55.12.57.43a4.44,4.44,0,0,1,0,.5l0,.32,0,.32a1.54,1.54,0,0,0,0,.43l0,.18v.18c0,.09-.05.14-.07.14l0,0a.15.15,0,0,0,0,.1l0,.15,0,.14a.2.2,0,0,1,0,.22.46.46,0,0,1-.43,0,.63.63,0,0,1-.32-.26,2.08,2.08,0,0,1-.11-.78,4.32,4.32,0,0,1,.07-.82v-.08l0-.14q.07-.13,0-.18s-.2-.07-.46-.07l-.29,0h-.14c-1.43-.07-2.9-.11-4.4-.11l-.36,0-.25,0h-.28c-.48-.05-.75,0-.83.07s-.05.13,0,.32v.25l0,.22q0,1.32,0,3.57l0,1.86c0,.72,0,1.36,0,1.93V665l0,.32c0,.34,0,.53,0,.58a1.05,1.05,0,0,0,.39,0l.25,0h.22c.38,0,.82,0,1.32.07s.79.07,1.29.14A1,1,0,0,0,374.34,665.76Zm-6-7.48,0,1.08c0,.88.08,1.58.1,2.11v.32c0,.14,0,.12,0-.07.07-1.6.15-2.94.25-4v-.57c0-.26,0-.41-.07-.43a.61.61,0,0,0-.22,0c-.12,0-.19,0-.21.07s0,.09,0,.21a.43.43,0,0,0,0,.22Zm.11,14.74c0-.65,0-1.11,0-1.4v.75l0,.79a10.43,10.43,0,0,0,.07,1.43Zm0,4.4c0-.55,0-.93,0-1.15v.61l0,.64a6.51,6.51,0,0,0,.07,1.18Zm.78-15.74c0,.24,0,.35,0,.32a8.11,8.11,0,0,0,.07-1.28l0-.65v-.61c0,.43,0,1,0,1.72A2.59,2.59,0,0,0,369.26,661.68Zm.4,6.44c0-.14,0-.17,0-.07a6.34,6.34,0,0,0-.07,1.11l0,.57v.61a58.25,58.25,0,0,0,.1,6.75c0-1.12,0-2.57,0-4.36l0-2.14Z"/><path class="cls-5" d="M392,674c.07.38.16.91.25,1.58l.25,1.64a16.89,16.89,0,0,0,.72,3.18l.07.22.07.21a2.5,2.5,0,0,0,.21.5,2.55,2.55,0,0,0,.33.4,1,1,0,0,0,.32.21.41.41,0,0,0,.32-.18l.14-.18.15-.21c.23-.36.47-.5.71-.43a.62.62,0,0,1,.22.14.73.73,0,0,1,.07.25.48.48,0,0,1-.11.29l-.11.11-.14.18-.22.28-.25.29a1.46,1.46,0,0,1-.75.36,3.8,3.8,0,0,1-2.32-.43,5.32,5.32,0,0,1-.61-.54c-.24-.24-.43-.44-.57-.61-1-1.26-1.65-3.76-2.08-7.51a15.15,15.15,0,0,0-1.46-5.72l-.18-.39-.21-.4a1.11,1.11,0,0,0-.68-.5q-.23,7.69,0,12.63l0,.61.07.57a1.51,1.51,0,0,1-.25,1,.73.73,0,0,0,.36,0l.36,0a.93.93,0,0,1,.61.07c.07,0,.11.11.14.25a.43.43,0,0,1-.07.36c-.05.07-.25.1-.61.1H386a12.85,12.85,0,0,0-3.36.36.24.24,0,0,0-.11,0l-.18,0a.42.42,0,0,1-.28,0,.31.31,0,0,1-.07-.39.47.47,0,0,1,.21-.29.52.52,0,0,1,.18-.1l.25,0a.81.81,0,0,0,.29-.07.66.66,0,0,0,0-.29l0-.18v-3.46c0-1.53,0-2.66,0-3.4s0-1.61.07-2.9.07-2.27.07-3v-.75l0-.75a12.33,12.33,0,0,0,0-1.5c0-1.07-.06-2.29,0-3.65l0-1.79.08-1.86,0-.42,0-.47a2,2,0,0,0,0-.54s-.1-.06-.22,0h-.18l-.14,0c-.33.08-.52,0-.57-.14s.07-.48.43-.57a2.1,2.1,0,0,1,.5-.11h.5a27.24,27.24,0,0,1,4.83.07,7.16,7.16,0,0,1,2.18.65,6.63,6.63,0,0,1,3.22,2.43,5.07,5.07,0,0,1,.78,3.29,3.62,3.62,0,0,1-.68,1.79,5.82,5.82,0,0,1-1.21,1.36,7.92,7.92,0,0,1-3.69,1.32Q391.11,669.09,392,674Zm-8.05-13.76-.07,2c0,1.67-.07,3-.14,3.86,0,.41,0,.92,0,1.54l0,1.54,0,2.93.07,3q0,3.65,0,5.94a1.58,1.58,0,0,0,.07.68q.28.11.36-.15a.4.4,0,0,0,0-.18l0-.1v-.29l0-.25c0-.21-.07-.34-.07-.39a1,1,0,0,1,.07-.32,1.23,1.23,0,0,0,0-.29,10.46,10.46,0,0,0,0-1.43l0-.68,0-.72q-.42-11.37.11-20.13l0,0h0a4.06,4.06,0,0,0-.11.75v.43l0,.42ZM385.14,672l.07-1.43.11-2.9a44.9,44.9,0,0,0-.18-5.68l-.07,2.82,0,2.86c0,2.22,0,4.13,0,5.73Zm3.25-6.36a2.23,2.23,0,0,1,.5,0l.58-.07a2.62,2.62,0,0,0,1-.18,1.47,1.47,0,0,0,.5-.61l.22-.39.07-.18.07-.18a6.12,6.12,0,0,0,.47-2.79,6.49,6.49,0,0,0-.68-2.72,2,2,0,0,0-.58-.78,3.73,3.73,0,0,0-1.43-.58,9.67,9.67,0,0,0-1.71-.25,1.43,1.43,0,0,1-.29,0l-.36,0a2.46,2.46,0,0,0-.64.07c-.05,0-.06.15,0,.43l0,.4,0,.18V658a54.22,54.22,0,0,1,0,7.69c.31,0,.7,0,1.18,0l.54,0Zm1.47,4-.25-.46-.25-.47a4.83,4.83,0,0,0-1.18-1.68s-.1,0-.29,0l-.17,0c-.05,0-.09,0-.11,0q2.43,2.29,3.54,8.4L391,674.2l-.18-1.22a20.8,20.8,0,0,0-.54-2.36A8.75,8.75,0,0,0,389.86,669.58Zm.89,8.84a32.81,32.81,0,0,1-.89-3.44l0-.14v-.14c0-.12,0-.14-.07-.07.46,3.43,1.24,5.71,2.36,6.83A11.57,11.57,0,0,1,390.75,678.42Zm1.86-14.24.22-.14a.87.87,0,0,0,.32-.36,2.54,2.54,0,0,0,.14-1.14l-.07-.61c0-.14-.05-.32-.07-.53a6.5,6.5,0,0,1-.71,2.93Zm1.33-2.93a3,3,0,0,0-.43-1.14l.11.57.07.57a9,9,0,0,1,.1,1.29A1.91,1.91,0,0,0,393.94,661.25Z"/><path class="cls-5" d="M402.45,660.39l.75,1.86.71,1.86a56.69,56.69,0,0,1,2.79-7.36,2.09,2.09,0,0,1-.68,0c-.24-.05-.35-.15-.35-.32s.32-.38,1-.57a5.49,5.49,0,0,1,1.43-.25,1.56,1.56,0,0,1,1.08.39c.28.29.15.46-.4.54l-.21,0h-.22a.45.45,0,0,0-.32,0,5.47,5.47,0,0,0-.25.53,15.68,15.68,0,0,0-.89,1.79l-.4.93-.39.9c-.45,1.07-.87,2.18-1.25,3.32l-.11.29-.14.32a1.23,1.23,0,0,0-.14.5,1.77,1.77,0,0,0,.07.43l.1.43a32.26,32.26,0,0,1,.22,3.29v5.54c0,.79,0,1.43,0,1.93s0,1.12,0,2v1l0,1,0,.25v.21a.43.43,0,0,0,.07.36.42.42,0,0,0,.15.07l.21.07a.72.72,0,0,1,.43.22.52.52,0,0,1,.07.39.42.42,0,0,1-.07.29.92.92,0,0,1-.29.1,1.41,1.41,0,0,1-.39.08,6.36,6.36,0,0,1-1.54-.08l-.86-.1-.85-.11h-.65c-.26,0-.42,0-.46-.07a.33.33,0,0,1-.11-.29.36.36,0,0,1,0-.28c0-.08.21-.13.5-.18h.14l.21,0a.52.52,0,0,0,.25,0,3.06,3.06,0,0,0,0-.83l0-.28v-.29a2.78,2.78,0,0,1,0-.36l-.1-2.68c-.05-1-.08-1.89-.08-2.61q0-4.79-.1-7.19l-.15-1.07V666l0-.28a2.91,2.91,0,0,0,0-.57,1.56,1.56,0,0,0-.21-.54l-.15-.25-.1-.29-1.4-3.14-.36-.72-.35-.79c-.31-.66-.56-1.19-.75-1.57a.6.6,0,0,1-.11-.21l-.11-.36a4.9,4.9,0,0,0-.25-.47.58.58,0,0,0-.21,0l-.25,0c-.24.08-.41.08-.5,0a.72.72,0,0,1-.15-.32.56.56,0,0,1,0-.36c.05-.07.37-.1,1-.1h1.11l.36,0L399,656c.36,0,.64-.05.83-.07a2.75,2.75,0,0,0,.39,0l.46-.07a1.8,1.8,0,0,1,.79.07c.22.12.27.32.18.61s-.35.36-.68.22C401.29,657.56,401.78,658.8,402.45,660.39Zm-3.65-2.75-.07-.25-.11-.29a.45.45,0,0,0-.32-.32l.21.47.22.5a3.42,3.42,0,0,0,.46.86Zm1.25,1.07c-.07-.35-.17-.76-.29-1.21l-.07-.29-.1-.28a.34.34,0,0,0-.47-.18l.29.71.28.75c.27.65.46,1.15.58,1.5A9.85,9.85,0,0,0,400.05,658.71Zm3.51,8.37a2.75,2.75,0,0,0,0-.82l-.15-.47-.14-.46a23.51,23.51,0,0,0-1.11-3.15l-.64-1.5a11.34,11.34,0,0,1-.61-1.54q.42,1.79,1.29,4.44l.68,2.18.68,2.18Zm-1.18,14.27,0,.11a.13.13,0,0,0,.14.14q0-1.25,0-3.54v-1.79l0-1.82a59.05,59.05,0,0,0-.43-6.83c.07,1,.12,2.11.15,3.4l0,1.71v1.75q0,4.51.22,6.76Zm.78-.39c0,.43.07.63.22.6s.15-.07.18-.21a.37.37,0,0,0,0-.21v-.22c0-.74-.05-1.74-.08-3v-3.11a33.71,33.71,0,0,0-.53-5.62q.18,2.35.21,5.76Z"/><path class="cls-5" d="M253.27,514.23l-.24-2.4c0-2.08.24-3.28.72-3.61a2.56,2.56,0,0,1,2.64,0,4.12,4.12,0,0,1,2.16,1.68,6.75,6.75,0,0,1,.24,3.36v3.61a39,39,0,0,0,.48,4.8l.24,2.64.24,2.4q.24,6-1.68,6.49a3,3,0,0,1-3.6-1.2,8.46,8.46,0,0,1-1.2-3.85v-3.84a8.27,8.27,0,0,0-.24-2.88c-.16-.16-.81-.16-1.92,0l-1.44.24h-1.2l-3.37-.24-3.36-.48-7-.72a3.93,3.93,0,0,1-1-.24l-1.44-.24c-1.28-.16-2-.16-2.16,0q-.48.24-.48,3.12a41.38,41.38,0,0,0,.24,4.8q.47,10.1.24,23.05l-.48,23.3q-.72,30.5,0,47.06l11.28-.24,11-.48q13.92-.72,23.05-.48V618l-.24-2.17a26.4,26.4,0,0,1,0-5q.24-6.48,2.16-7.44a3.93,3.93,0,0,1,2.16-.48,2.74,2.74,0,0,1,2.4.48q.48.48.24,2.88l-.24,1.92v1.68q-.72,7.2.24,10.57l.24.72.48,1a2.85,2.85,0,0,1,.48,2.16q-.48,1.68-4.56,1.44L277,625.4l-1.44-.24q-1.92-.24-2.4-.24a163.12,163.12,0,0,0-17.77,0l-9.37.48-9.12.48-6.48.24h-7q-8.64.24-13.92.48H207.4q-1.2-.24-2.16-.48-2.64-.72-1.68-2.64.48-1,2.64-1h1.45c.63,0,1-.16,1.2-.48a4.85,4.85,0,0,0,0-2.16l-.25-1.2a3.74,3.74,0,0,1-.23-1q-.24-7.69,0-20.41l.23-10.57.25-10.32.24-28.58.24-28.33q.22-34.81,0-55.71a19.48,19.48,0,0,0-.24-2.4V458a15.56,15.56,0,0,0-.24-4.08q-.24-.24-2.4,0h-1.69a1.64,1.64,0,0,1-1.2-.48,3,3,0,0,1-.72-1.45,2.47,2.47,0,0,1,.24-1.91c.16-.65,1.28-1,3.37-1h2.64l2.64.24q1.44,0,4.8-.24l2.4-.24h2.16q9.6-.72,23.77-.48h12.25l12.49.24H272l2.88.24a17,17,0,0,0,4.32,0l.48-.48q.24-.48.48-.48c2.4-.16,3.68.81,3.84,2.88,0,.65-.08,1.77-.24,3.37l-.24,2.16-.24,2.16a8.64,8.64,0,0,0,0,2.88l.24,1.2v1.2q-.24,1-.48,1l-.24.24a1,1,0,0,0-.24.72l-.24,1,.24,1a1.43,1.43,0,0,1-.24,1.44,3,3,0,0,1-2.88,0,4.08,4.08,0,0,1-2.16-1.68,14.31,14.31,0,0,1-.72-5.28,30.82,30.82,0,0,1,.48-5.52v-.48l.24-1q.48-1,.24-1.2-.48-.48-3.12-.48l-1.92.23h-1Q257.11,453,242,453c-.32,0-1.12-.08-2.4-.25l-1.68-.24H236c-3.2-.32-5-.15-5.52.49-.33.16-.4.87-.24,2.16v1.68l.24,1.44q.24,8.88-.24,24L230,494.77c-.17,4.81-.24,9.13-.24,13v1.2l-.24,2.16c-.17,2.25-.08,3.53.24,3.84q.24.25,2.64,0l1.68-.23h1.44q3.84,0,8.88.48c2.4.16,5.29.48,8.65,1A6.57,6.57,0,0,0,253.27,514.23ZM213.17,464l.24,7.2q.48,8.89.72,14.17v2.16c0,1,.08.81.24-.48q.72-16.08,1.68-26.89v-3.84q0-2.64-.48-2.88a3.32,3.32,0,0,0-1.44-.25,3.77,3.77,0,0,0-1.44.48,2.54,2.54,0,0,0-.24,1.45,3.34,3.34,0,0,0,.24,1.44Zm.72,98.93q0-6.48-.24-9.37v5l-.24,5.28a72.64,72.64,0,0,0,.48,9.61Zm0,29.53q0-5.52-.24-7.68v4.08l-.24,4.32a45.5,45.5,0,0,0,.48,7.93Zm5.28-105.65q0,2.4.24,2.16a57.09,57.09,0,0,0,.48-8.64l-.24-4.32V472q-.24,4.32-.24,11.52A15.9,15.9,0,0,0,219.17,486.85Zm2.64,43.22q0-1.44-.24-.48a44.27,44.27,0,0,0-.48,7.45l.24,3.84V545a388.8,388.8,0,0,0,.72,45.38q.24-11.28,0-29.29l-.24-14.41Z"/><path class="cls-5" d="M390.42,493.58l-3.12,13.93q-3.6,16.82-5.76,28.57-6.74,33.15-10.33,58.83l-.72,4.33-.72,4.32a46.42,46.42,0,0,0-1,8.4,11.15,11.15,0,0,0,.24,3.84c.16,1.93.4,3,.72,3.13a7,7,0,0,0,2.64.23h1.92q1,.26,1.68.48l1,1,1,1.2a3.06,3.06,0,0,1,0,2.88q-.48,1.2-6,1.44h-2.16l-2.4.24H359a26.47,26.47,0,0,0-4.09.24l-1.92.24-1.92.24q-2.64.48-3.36,0-.72-.24-1.2-1.68a3.59,3.59,0,0,1-.24-2.16,2.24,2.24,0,0,1,1.68-1.68l1.2-.24a1.55,1.55,0,0,0,1-.72c.16-.32-.16-1.76-1-4.33l-.24-1.68-.48-1.44a7.86,7.86,0,0,1-.48-1.92q-1.44-5.52-2.88-14.65l-1.2-7.2-1.44-7.2q-1.45-7.2-4.09-19l-4.08-18.73q-1-3.6-1.92-9.61l-1-4.8-1-4.8q-3.12-11.76-6.72-27.86l-6.49-27.85q-1,27.85-1.68,74.68L315,582.43q-.24,22.32-.48,37.46a13.49,13.49,0,0,0,2.64.24l2.4-.49a8.44,8.44,0,0,1,4.33.49,4.25,4.25,0,0,1,1.68,2.4,4.15,4.15,0,0,1,.24,3.6c-.33.64-1.68,1.12-4.09,1.44l-3.36.24-3.12.24a25.46,25.46,0,0,0-2.88.24l-3.36.48c-2.56.32-4.17.32-4.8,0q-1-.24-1.68-2.16a3.64,3.64,0,0,1-.24-2.88,2.11,2.11,0,0,1,1.44-1.44l1-.48,1-.24a1.89,1.89,0,0,0,.72-.24l1.44-.24a5.85,5.85,0,0,0,2.16-.48c.16-.16.16-1.52,0-4.09v-5.76q0-11.28.48-34.1t.48-33.61q0-16.81.48-43.46.48-26.41.48-39.14v-1.69l.24-1.68a7.06,7.06,0,0,0-.24-2.4q-.24-.48-1.92-.48l-1.2-.23-1.44-.49a11.63,11.63,0,0,1-1.68-1.44c-.64-.79-.89-1.35-.72-1.68.16-.8,1.59-1.44,4.32-1.92a33.65,33.65,0,0,0,3.6-.24l1.68-.24H316q14.41-1.44,20.41,1c2.41,1,3.92,2.16,4.57,3.6s-.81,2-4.33,1.68q6.5,26.66,15.13,68.92l7,35.06L365.93,593q3.6-28.32,11-64.83l6.48-31.45,3.37-15.85,3.36-16.09.24-1,.24-1.2.72-2.64c.48-2.25.64-3.44.48-3.61a5.1,5.1,0,0,0-2.16-.23h-2.4l-1.2-1.21a5.11,5.11,0,0,1-.72-1.68q-.24-3.12,5.28-4.08a21.8,21.8,0,0,1,4.8-.72l2.4-.24L400,448l13.68-2.4a6.68,6.68,0,0,1,4.56,1.44q2.4,1.92,1.68,4.08a1.74,1.74,0,0,1-2.16,1.2h-1.2a1.45,1.45,0,0,0-1,.24q-.24.24.24,1.92l.24,1.69v1.43q.72,14.42-1,38.66L414,515.68q-.48,11-.48,19.68v30.5q0,17.05.24,29.77.24,3.38,0,9.85c-.16,4.48-.24,7.85-.24,10.08l.72,4.08.72,1.2,1.2,1a5,5,0,0,1,1.44,2.4q-1,2.4-1.44,2.64a3.85,3.85,0,0,1-3.12.24l-1.92-.48-1.68-.24a25.79,25.79,0,0,0-5,0q-2.16,0-5.77.24a25.55,25.55,0,0,0-2.64.24l-2.88.48q-3.6.24-4.56-.24-1.22-.72-1.44-5,.72-1.44,4.32-1.92,1.92-.24,1.92-4.33.24-5.76.24-14.4l-.24-6.73v-6.48q.48-18.48,0-53.31V507.75q-.24-15.6,0-27.85Zm-60-9.12.24-.24q-1.2-6-1.92-11.05-1.2-7-1.92-12l-.24-1.92-.24-1.69a9.78,9.78,0,0,0-.72-2.88c-1-1.75-2.81-2.31-5.53-1.68l2.65,7.45,2.88,7.68q2.88,8.88,4.8,15.85Zm11.29,24.25L340,499.59l-1.93-9.13a82.41,82.41,0,0,0-5.28-16.09l5.76,31q3.61,18.49,6.25,30.73,7,35.07,14.64,59.07Q349.12,549.54,341.68,508.71Zm16.56,111.18,1.44-.25h1.44q-7.68-25.2-12.72-43,1,9.14,3.36,21.85l2.16,10.81,1.92,10.57A5.82,5.82,0,0,0,358.24,619.89ZM406,518.31l-.48-18.24q-.72-22.33-.25-36.74v-1.2l.25-1.44v-2.88c.15-2.56,0-4.09-.48-4.57q0-.23-.48,0l-.72.24a160.58,160.58,0,0,0-.25,19.93c.16,2.88.25,6.17.25,9.85l-.25,9.84.25,19.93.48,19.69q.72,24-.24,39.38l-.24,12-.25,12q-.24,15.14-.71,22.82a6.46,6.46,0,0,1,3.12-.25l1.44.25h1.44L408.19,599l-.72-20.17q-.72-22.8-1.2-42.5Q406.27,529.12,406,518.31Z"/><path d="M146.12,391.53l-.54-.38c-.43-.37-.63-.64-.61-.79s.17-.41.47-.55a1.08,1.08,0,0,1,.73-.15,1.93,1.93,0,0,1,.74.55l.75.65a10.48,10.48,0,0,0,1.08.76l.59.42.54.39c.86.68,1.21,1.19,1,1.51a.81.81,0,0,1-.89.53,2.36,2.36,0,0,1-1-.44l-.8-.69a2.2,2.2,0,0,0-.64-.47c-.06,0-.17.14-.34.4l-.21.34-.22.25-.65.65-.7.61-1.4,1.32a1.24,1.24,0,0,1-.22.15l-.31.26q-.39.34-.39.45c0,.09.17.31.56.65s.72.59,1,.82q2.18,1.71,4.82,4.08l4.74,4.27q6.18,5.63,9.75,8.44l2-2.38,1.88-2.37c1.57-2,2.91-3.63,4-4.86l-.4-.35-.49-.34a7.15,7.15,0,0,1-1-.9c-.86-.81-1.25-1.4-1.15-1.78a1.07,1.07,0,0,1,.29-.54.75.75,0,0,1,.53-.41c.12,0,.33.15.64.47l.35.39.35.31a8.43,8.43,0,0,0,2.23,1.84l.19.08.29.07a.83.83,0,0,1,.53.29c.18.27,0,.67-.52,1.2l-.31.26-.3.26a3.88,3.88,0,0,0-.48.45,44.58,44.58,0,0,0-3.19,3.68l-1.58,2-1.54,2-1.11,1.39L164,417.76c-1,1.22-1.8,2.21-2.39,3l-.39.45c-.18.14-.34.26-.49.36-.41.28-.7.24-.85-.12-.07-.19,0-.42.28-.72l.25-.3c.12-.14.16-.25.12-.34a1.23,1.23,0,0,0-.45-.38l-.29-.17a.83.83,0,0,1-.24-.12q-1.63-1.33-4.23-3.66l-2.14-2-2.1-1.9-5.87-5.17-5.83-5.13q-7.17-6.29-11.54-10c-.1-.08-.28-.21-.54-.38l-.7-.6a3.62,3.62,0,0,0-.89-.68c-.06,0-.2.17-.43.49l-.3.35a.4.4,0,0,1-.31.16.75.75,0,0,1-.43-.11.68.68,0,0,1-.35-.39c-.11-.15,0-.44.4-.87l.47-.55.53-.5c.17-.2.44-.54.81-1l.38-.54.39-.44q1.56-2.13,4.16-5l2.19-2.53,2.29-2.54.43-.5.57-.55a5.16,5.16,0,0,0,.77-.9v-.19c0-.09,0-.15,0-.18.4-.53.82-.62,1.28-.28a9,9,0,0,1,.66.65l.4.44.41.44a2.38,2.38,0,0,0,.59.51l.29.17.25.21c.11.15.14.24.12.28v.09a.3.3,0,0,0,.11.18l.16.22.24.12a.39.39,0,0,1,.25.31.85.85,0,0,1-.51.6,1.15,1.15,0,0,1-.74.14,3.81,3.81,0,0,1-1.22-.8,7.77,7.77,0,0,1-1.06-1.09l-.1-.08-.16-.22c-.07-.18-.14-.27-.2-.27s-.35.2-.66.56l-.3.44-.17.2c-1.82,1.91-3.63,3.9-5.44,6-.06.07-.22.22-.48.46l-.35.3-.35.4c-.64.6-.93,1-.89,1.23s.11.24.4.43l.35.31.35.21c1.25,1,2.89,2.48,4.93,4.35l2.54,2.29c1,.89,1.85,1.68,2.64,2.37l.25.22.4.44q.66.64.84.63c.07,0,.22-.18.48-.54l.25-.39.26-.3c.46-.53,1-1.12,1.69-1.76.46-.46,1.05-1,1.75-1.62A2,2,0,0,0,146.12,391.53Zm-17.58-.69,1.53,1.24,3.07,2.39.45.39c.19.17.18.13-.06-.14-2.14-2-3.89-3.74-5.27-5.17l-.8-.69c-.36-.31-.59-.45-.68-.41a1,1,0,0,0-.31.25,1.12,1.12,0,0,0-.16.39c0,.06.09.16.26.3a.82.82,0,0,0,.34.21Zm5.8,2.85c.33.28.5.4.49.33a16.21,16.21,0,0,0-1.7-1.65l-.94-.72-.85-.73c.57.55,1.35,1.25,2.35,2.11A4.18,4.18,0,0,0,134.34,393.69Zm9.43,7.2c-.2-.17-.25-.19-.15,0a13.3,13.3,0,0,0,1.46,1.44l.84.64.84.73a107.41,107.41,0,0,0,9.53,8q-2.29-2.07-6.06-5.25l-3-2.53Zm5.39,7.54c-.9-.78-1.56-1.32-2-1.63l1,.9,1.05,1a18.52,18.52,0,0,0,2.08,1.62Zm6.12,5.29a19.25,19.25,0,0,0-1.64-1.32l.85.73.85.82a12.15,12.15,0,0,0,1.73,1.32Z"/><path d="M184,361.77l-.27-.37-.41-.44c-.28-.39-.48-.59-.61-.61s-.54.18-1.08.63l-.62.61-.32.23-.22.25-1,.92-.28.28-.32.23c-.28.21-.43.35-.44.41s.06.33.31.75l.25.47.18.35,1.57,3.5,1.59,3.4q1.89,4.15,3.5,7.14l1.06,1.91,1,1.94q1.2,2.22,2,4c.12.24.32.74.61,1.51a1.61,1.61,0,0,0,.56-.24l.41-.22a.35.35,0,0,1,.25-.1h.09l.15,0a1.23,1.23,0,0,1,.46.07c.35.12.53.29.53.51s-.35.49-1.06,1l-.38.36-1.12.81a3.25,3.25,0,0,0-.44.41l-.17.21-.11.07a.93.93,0,0,1-.75,0c-.32-.14-.5-.31-.53-.51s.17-.36.52-.62l.37-.27a.75.75,0,0,0,.15-.36,3.35,3.35,0,0,0-.52-1.16l-.49-.78a4,4,0,0,1-.32-.67q-6-11.61-9.06-18.22l-2.07-4.51-2.09-4.43q-2.46-5.28-4.62-9.24l-.14-.31-.2-.26c-.17-.31-.3-.57-.4-.77,0,0-.07-.14-.14-.31l-.16-.45c-.14-.33-.23-.5-.3-.51s-.35.18-.7.59l-.36.51a.89.89,0,0,1-.51.2.6.6,0,0,1-.44-.16,1,1,0,0,1-.4-.44c-.09-.26.17-.69.76-1.29l.82-.67c.32-.3.56-.53.71-.69l.57-.57a5.94,5.94,0,0,1,.59-.52,10.24,10.24,0,0,0,1.1-1l.54-.48.55-.48.37-.27.39-.37a2.35,2.35,0,0,1,.69-.5,1.55,1.55,0,0,1,.59.14,1,1,0,0,1,.4.44,1.71,1.71,0,0,1-.1.32,2.44,2.44,0,0,1-.15.35l-.37.27c-.18.13-.27.22-.28.29a5,5,0,0,0,.88,1,7.24,7.24,0,0,0,.71.63,4,4,0,0,0,.49.45l2.68,2.45L181.1,351q3.1,2.94,5.31,5.16l1,1.05,1.09,1.16c.85.95,1.56,1.69,2.1,2.22l2.13,2,2.13,2q2.63,2.49,4.25,4.15c.8.88,1.84,1.89,3.1,3l1.64,1.57,1.65,1.49.25.22.25.23.7.63c.54.52.86.78,1,.76a1,1,0,0,0,.57-.33l.48-.35a1,1,0,0,1,.85.27,1,1,0,0,1,.32.67q0,.22-.75.87l-1.38,1c-.32.24-.77.54-1.37.92l-2,1.47c-.35.26-.63.36-.84.29-.82-.38-.74-.87.23-1.47A235.15,235.15,0,0,1,184,361.77Zm-9.84-13.83-1.2-1.08-1.16-1c-.08,0-.2,0-.34.09l-.17.21-.18.21a47.06,47.06,0,0,0,5,4.68l2.53,2.14c1,.81,1.81,1.56,2.53,2.23q-.84-1-2.25-2.52l-1.16-1.26-1.21-1.32A29.09,29.09,0,0,0,174.14,347.94Zm5.38,12.85,1.06-.77c.6-.44.91-.72.93-.85s-.14-.27-.46-.63l-.46-.41a2.89,2.89,0,0,1-.32-.33c-.6-.59-1.35-1.33-2.25-2.19l-1.25-1-1.23-1.14a44,44,0,0,1-4.34-4.16c1,1.79,2.09,4,3.34,6.6l1.51,3.29,1.56,3.26Zm5.41-3.3q3.49,3.57,10,9.66Q189,361.11,184.93,357.49Zm15.59,17.13-4.4-3.46,2,1.9L200,375q2.33,2.3,3.91,3.58A11.79,11.79,0,0,0,200.52,374.62Z"/><path d="M227.6,316.76l-.17-.57a.84.84,0,0,1,.11-.91,1.61,1.61,0,0,1,.7-.22c.31,0,.52,0,.63.16a1.89,1.89,0,0,1,.42.83l.15.51.14.51.35,1,.41,1,.59.89.62,1c.46.76.65,1.27.58,1.54s-.25.32-.65.49a1.25,1.25,0,0,1-.95.11,1.63,1.63,0,0,1-.55-.62l-.24-.4-.27-.46-.24-.4-.2-.48a2.69,2.69,0,0,0-.54-.77,1.41,1.41,0,0,0-.52-.21l-.38-.06-.34-.14-.83-.44-.91-.47a4.31,4.31,0,0,0-1.83-.44c-.24,0-.54,0-.89.09l-1,.21a3.56,3.56,0,0,0-1,.28,6.76,6.76,0,0,0-.94.47,1.83,1.83,0,0,0-.6,1c-.1.43-.2.87-.29,1.34-.18,1.83.57,3.83,2.24,6a21.7,21.7,0,0,0,2.23,2.56l1.08,1,.56.47.47.45a34.06,34.06,0,0,0,3.3,2.75l1.75,1.26c.66.53,1.21,1,1.65,1.37l.39.41.42.32.72.69a31.66,31.66,0,0,1,5,4.25,45.37,45.37,0,0,1,3,3.72,20.5,20.5,0,0,1,2.38,4.78,9,9,0,0,1,.1,5.32q-.72,2.52-4.47,5a12.55,12.55,0,0,1-7,2.47,6.32,6.32,0,0,1-2.61-.61l-1.26-.61-1.22-.7a1.35,1.35,0,0,0,0,.56l.17.57c.11.48.09.8,0,.94a1.2,1.2,0,0,1-.81.28c-.46,0-.75,0-.88-.21a2.81,2.81,0,0,1-.28-1.16l0-.63a1.76,1.76,0,0,1-.09-.53,37.93,37.93,0,0,0-1.14-4.73l-.2-.63-.16-.72a2.65,2.65,0,0,1-.14-1,.88.88,0,0,1,.82-.28,1.33,1.33,0,0,1,.83.29,1.61,1.61,0,0,1,.47.95l.09.53.07.18,0,.21.14.51.12.45a2.26,2.26,0,0,0,.27.82,2.8,2.8,0,0,0,.85.64l.51.36.48.29.5.36.45.38a8,8,0,0,0,.82.58,7.15,7.15,0,0,0,2.27,1,3.85,3.85,0,0,0,2.44,0,4.45,4.45,0,0,0,2.67-2.63,7.65,7.65,0,0,0,.29-2.19,10.06,10.06,0,0,0-.2-2.34q-.59-4.26-4.2-9.94l-.78-1.17-.75-1.25a12.15,12.15,0,0,0-1.61-2,15.57,15.57,0,0,0-2-1.45l-1.16-.72-1.08-.69c-.54-.39-1.23-.84-2.06-1.34l-2.16-1.38L220,333.9c-.93-.6-1.66-1.11-2.21-1.49a13.06,13.06,0,0,1-3.62-3.68,4,4,0,0,1-.39-.91l-.33-.79a7.7,7.7,0,0,1,1.26-6.32,11.62,11.62,0,0,1,3.57-2.86q4-2.06,9.44-.49Zm-12.06,7,0-.09-.12.05a5.11,5.11,0,0,0,.42,3.53,6.75,6.75,0,0,0,2.21,2.86A10.69,10.69,0,0,1,215.54,323.72Zm5.39,6.85a18.45,18.45,0,0,0,3.18,2.45,22.08,22.08,0,0,1-4.87-5.44c-1.7-2.67-2.27-5-1.71-6.92a4.9,4.9,0,0,0-.48,2.92,8.54,8.54,0,0,0,.92,3.18A15.24,15.24,0,0,0,220.93,330.57Zm18.45,20.85a17.39,17.39,0,0,0-3-5,33.53,33.53,0,0,1,2.58,5.26c.64,1.73,1.18,3.48,1.64,5.24A13.3,13.3,0,0,0,239.38,351.42Z"/><path d="M270.92,311l1.95,3.14,1.88,3.14A103.14,103.14,0,0,1,277.49,303a3.81,3.81,0,0,1-1.24.15c-.45,0-.7-.17-.75-.48s.47-.79,1.7-1.36a10.23,10.23,0,0,1,2.52-.9,2.83,2.83,0,0,1,2.07.38c.6.43.42.79-.55,1.09l-.38.14-.39.06a.88.88,0,0,0-.57.17,9.72,9.72,0,0,0-.28,1,27.11,27.11,0,0,0-1.06,3.52l-.43,1.81-.43,1.74q-.72,3.13-1.23,6.42l-.1.56-.16.62a2.57,2.57,0,0,0-.1,1,4,4,0,0,0,.26.75l.33.75a55.84,55.84,0,0,1,1.42,5.89l1.74,10.05q.38,2.13.54,3.51t.63,3.63l.3,1.75.26,1.89,0,.47.06.38a.77.77,0,0,0,.24.63.82.82,0,0,0,.29.09l.41.06a1.33,1.33,0,0,1,.84.25,1,1,0,0,1,.26.69.79.79,0,0,1,0,.54,1.92,1.92,0,0,1-.49.29,2.82,2.82,0,0,1-.69.25,11.11,11.11,0,0,1-2.81.35l-1.59.08-1.59.07-1.16.2a1.52,1.52,0,0,1-.87,0,.57.57,0,0,1-.28-.48.71.71,0,0,1,0-.53c.06-.15.35-.31.85-.49l.26,0,.38-.13c.26-.05.41-.1.44-.15a6.58,6.58,0,0,0-.26-1.49l-.15-.5-.09-.52c-.1-.34-.16-.55-.18-.64l-1-4.83c-.41-1.84-.73-3.41-.95-4.71q-1.5-8.69-2.45-13l-.59-1.9-.09-.52-.16-.51a6,6,0,0,0-.24-1,3.44,3.44,0,0,0-.56-.91l-.34-.41-.28-.48L265.2,313l-.87-1.18-.89-1.32q-1.15-1.67-1.86-2.61a2.08,2.08,0,0,1-.26-.36L261,307a5.4,5.4,0,0,0-.6-.77.88.88,0,0,0-.4,0l-.44.15c-.41.2-.71.26-.9.15a1.31,1.31,0,0,1-.36-.53.92.92,0,0,1-.05-.66c.06-.15.63-.31,1.71-.5l2-.35.64-.18.69-.25c.64-.15,1.13-.28,1.47-.38l.7-.19.82-.28a3.31,3.31,0,0,1,1.45-.12c.43.15.6.5.52,1.05s-.52.76-1.17.6C267.94,306.2,269.21,308.3,270.92,311Zm-7.47-3.84-.21-.43-.28-.49a.81.81,0,0,0-.69-.48l.54.77.54.84a5.88,5.88,0,0,0,1.11,1.41Zm2.6,1.55c-.24-.63-.54-1.33-.89-2.12l-.22-.49-.29-.49a.63.63,0,0,0-.9-.17l.75,1.2.75,1.27c.68,1.09,1.18,1.94,1.51,2.55A13.54,13.54,0,0,0,266.05,308.69Zm9,14.07a4.25,4.25,0,0,0-.26-1.49l-.4-.8-.41-.8a41.76,41.76,0,0,0-3-5.35l-1.64-2.53a25.79,25.79,0,0,1-1.59-2.59q1.35,3.1,3.73,7.63l1.91,3.74,1.92,3.74ZM277.36,349l0,.21a.23.23,0,0,0,.31.21q-.47-2.25-1.18-6.41l-.56-3.24-.64-3.29a110.1,110.1,0,0,0-2.91-12.25q.64,2.63,1.32,6.11l.6,3.11.55,3.17q1.41,8.17,2.51,12.19Zm1.31-1c.13.78.32,1.12.58,1s.25-.18.25-.45a.56.56,0,0,0-.07-.39l-.06-.39c-.28-1.33-.63-3.14-1.07-5.42l-1-5.64a60.09,60.09,0,0,0-2.73-10q1.07,4.23,2.19,10.37Z"/><path d="M358.85,316.68l-1.51,3.6c-1.19,2.91-2.17,5.38-2.94,7.43q-3.42,8.6-5.63,15.36l-.4,1.13-.41,1.13a13.23,13.23,0,0,0-.66,2.22,3.25,3.25,0,0,0-.12,1.05c-.05.52,0,.82,0,.87a1.72,1.72,0,0,0,.7.2l.52.09a4.34,4.34,0,0,1,.43.21l.21.31.2.37a.8.8,0,0,1-.14.77c-.12.2-.69.24-1.69.1l-.58-.1-.66-.05L344,351a7.81,7.81,0,0,0-1.12-.14l-.52,0-.53,0a1.6,1.6,0,0,1-.91-.16.68.68,0,0,1-.24-.51,1,1,0,0,1,0-.6.61.61,0,0,1,.53-.37h.34a.43.43,0,0,0,.29-.15,3.34,3.34,0,0,0-.05-1.21l0-.46-.06-.41a2.06,2.06,0,0,1,0-.55c-.08-1-.1-2.4-.07-4.08l0-2,0-2c0-1.34-.09-3.11-.19-5.31l-.19-5.25a24.11,24.11,0,0,1-.05-2.68l0-1.34,0-1.34q-.27-3.33-.46-7.84l-.4-7.82q-1.62,7.45-4.07,20l-2,10.27q-1.14,6-1.94,10.08a3.4,3.4,0,0,0,.7.19h.67a2.3,2.3,0,0,1,1.15.34,1.21,1.21,0,0,1,.33.73,1.12,1.12,0,0,1-.11,1c-.11.16-.5.22-1.17.19l-.92-.1-.85-.08a7,7,0,0,0-.79-.08l-.93,0a3.18,3.18,0,0,1-1.29-.23c-.17-.08-.28-.3-.35-.67a1,1,0,0,1,.07-.78.58.58,0,0,1,.46-.32l.28-.09h.28l.2,0h.4a1.46,1.46,0,0,0,.61,0,4,4,0,0,0,.19-1.1l.28-1.55q.56-3,1.78-9.17t1.76-9q.81-4.53,2.23-11.7t2-10.53l.08-.45.15-.44a1.91,1.91,0,0,0,.05-.66c0-.1-.19-.17-.49-.22l-.31-.13-.37-.2a3,3,0,0,1-.38-.47c-.14-.24-.17-.41-.12-.49s.5-.31,1.26-.3c.26,0,.59.08,1,.11h.46l.39.07a13.19,13.19,0,0,1,5.46,1.25,2.1,2.1,0,0,1,1.05,1.19c.1.42-.31.5-1.25.24q.47,7.51.75,19.32l.18,9.79.26,9.74q2.34-7.47,6.11-16.95l3.27-8.17,1.68-4.11,1.68-4.18.11-.24.13-.31.32-.68c.24-.58.34-.9.3-1s-.22-.11-.57-.17l-.65-.12-.26-.38a1.47,1.47,0,0,1-.12-.49c.06-.57.6-.85,1.63-.84a5.72,5.72,0,0,1,1.33,0l.66.05.59,0h3.81a1.87,1.87,0,0,1,1.16.61,1,1,0,0,1,.25,1.18.47.47,0,0,1-.64.22l-.32-.06a.43.43,0,0,0-.27,0c-.05,0-.06.21,0,.53l0,.47-.07.39a90.93,90.93,0,0,1-2.13,10.37l-1.26,5.19q-.66,3-1.08,5.29l-1.48,8.22c-.55,3.07-1,5.74-1.37,8-.07.61-.23,1.5-.48,2.65s-.44,2.11-.55,2.71v1.14l.14.36.28.31a1.44,1.44,0,0,1,.27.72c-.25.4-.42.61-.52.64a1.06,1.06,0,0,1-.85-.08l-.5-.23-.44-.14a7,7,0,0,0-1.36-.25c-.38-.07-.91-.14-1.56-.21l-.73-.06h-.8a3.08,3.08,0,0,1-1.21-.29c-.2-.17-.25-.64-.15-1.43.18-.23.6-.34,1.26-.31.35,0,.59-.33.73-1.07.22-1,.48-2.32.76-3.87l.26-1.83.31-1.74c.69-3.31,1.54-8.1,2.58-14.38l1.31-7.32q.69-4.22,1.35-7.51Zm-15.74-5.37.07-.05c0-1.12,0-2.15,0-3.07,0-1.29,0-2.41.06-3.33l0-.53,0-.47a2.37,2.37,0,0,0-.06-.81c-.17-.52-.64-.76-1.4-.72l.35,2.13.4,2.22c.23,1.68.41,3.19.53,4.5Zm1,37.87h.4l.38.07q-.84-7.17-1.35-12.2c-.12,1.67-.17,3.68-.15,6.05l.06,3v2.94A1.91,1.91,0,0,0,344.07,349.18ZM345,318.4v-2.55l-.08-2.55a22.26,22.26,0,0,0-.65-4.59l.06,8.63q.07,5.16.19,8.59a151.18,151.18,0,0,0,1.1,16.63Q345,329.77,345,318.4Zm16.88,5.7.76-5c.59-4,1.16-7.34,1.71-9.91l.06-.33.13-.37.14-.78c.17-.68.2-1.1.09-1.25s0-.05-.13,0l-.2,0a44,44,0,0,0-1,5.37c-.1.78-.23,1.67-.41,2.66l-.54,2.64-.9,5.39-.82,5.33q-1,6.51-2,10.61l-.65,3.22-.65,3.23q-.79,4.07-1.29,6.12a1.75,1.75,0,0,1,.85.08l.38.14.38.07.77-5.41.79-5.48q.9-6.18,1.73-11.51C361.29,327.67,361.56,326.05,361.86,324.1Z"/><path d="M404,338l.21-.63c.24-.52.43-.79.59-.81a.71.71,0,0,1,.66.29,1.12,1.12,0,0,1,.35.67,1.89,1.89,0,0,1-.32.87l-.41.9a9.1,9.1,0,0,0-.42,1.25l-.24.68-.21.63c-.41,1-.8,1.49-1.15,1.43a.8.8,0,0,1-.76-.71,2.17,2.17,0,0,1,.13-1.09l.43-1a2.28,2.28,0,0,0,.27-.75q0-.09-.48-.21l-.39-.11-.3-.13-.81-.44-.78-.5-1.66-1a.93.93,0,0,1-.21-.17l-.33-.22c-.31-.18-.49-.27-.54-.25s-.26.25-.48.73a11,11,0,0,0-.48,1.23q-1,2.56-2.54,5.78l-2.75,5.75q-3.63,7.54-5.32,11.75l2.84,1.22,2.81,1.12c2.38.93,4.31,1.76,5.81,2.49l.22-.48.18-.57a7.55,7.55,0,0,1,.57-1.26c.53-1.06,1-1.59,1.38-1.61a1.22,1.22,0,0,1,.6.12c.29.09.48.22.54.4s0,.36-.26.74l-.28.45-.19.42a8.38,8.38,0,0,0-1.13,2.67l0,.21,0,.29a.78.78,0,0,1-.13.59c-.2.24-.64.19-1.3-.15l-.33-.23-.33-.22c-.31-.18-.5-.3-.58-.33a46.22,46.22,0,0,0-4.43-2l-2.39-.93-2.33-.92-1.65-.67-1.74-.79c-1.45-.61-2.63-1.09-3.53-1.45l-.54-.24c-.18-.13-.34-.25-.48-.37-.39-.32-.43-.6-.12-.85.15-.12.4-.1.76.06l.36.17a.35.35,0,0,0,.36,0,1.36,1.36,0,0,0,.24-.54l.08-.32a.84.84,0,0,1,0-.27c.54-1.3,1.3-3,2.3-5.1l1.26-2.61,1.22-2.54,3.29-7.11,3.26-7.05q4-8.65,6.29-13.9a3.87,3.87,0,0,0,.21-.62l.38-.84a4.12,4.12,0,0,0,.4-1.05q0-.09-.6-.27l-.42-.19a.44.44,0,0,1-.24-.26.89.89,0,0,1,0-.44.73.73,0,0,1,.28-.45c.11-.14.43-.09.95.14l.66.3.63.36c.24.11.65.27,1.22.48l.63.21.54.24c1.65.61,3.65,1.46,6,2.57l3.05,1.39,3.09,1.47.6.27.69.38a4.66,4.66,0,0,0,1.08.49l.18-.07c.07-.06.13-.08.17-.06.62.23.83.62.63,1.15-.07.16-.22.43-.43.81l-.31.52-.3.51a2.42,2.42,0,0,0-.33.72l-.07.32-.14.3c-.11.14-.19.21-.23.19l-.08,0a.26.26,0,0,0-.15.16l-.17.21,0,.26a.43.43,0,0,1-.23.34.84.84,0,0,1-.72-.33,1.1,1.1,0,0,1-.34-.66,3.74,3.74,0,0,1,.41-1.4,9,9,0,0,1,.75-1.33l.05-.12.17-.21c.15-.12.21-.21.19-.27s-.28-.27-.72-.48l-.51-.15-.24-.11c-2.34-1.2-4.77-2.38-7.29-3.51-.08,0-.27-.15-.57-.34l-.39-.25-.48-.21c-.76-.44-1.24-.61-1.43-.51s-.2.18-.31.52l-.19.41-.1.39q-.94,2.25-2.77,6l-1.47,3.09c-.59,1.18-1.09,2.24-1.53,3.21l-.13.3-.31.51c-.29.54-.42.87-.37,1s.24.16.66.3l.44.13.36.16c.64.29,1.36.67,2.17,1.13.58.31,1.26.71,2,1.21A1.77,1.77,0,0,0,404,338Zm-18.67,15.09c.42-.92.69-1.57.81-1.94l-.46,1-.55,1a13.05,13.05,0,0,0-.77,2Zm3.34-7.37c.49-1.08.82-1.87,1-2.37l-.57,1.26-.66,1.29a21.07,21.07,0,0,0-1,2.46Zm5.69-7.32c.11-.24.11-.28,0-.14a11.57,11.57,0,0,0-1,1.8l-.38,1-.46,1a110.21,110.21,0,0,0-5,11.41c.89-1.86,2-4.29,3.31-7.31l1.57-3.62Zm5.3-17.45-.75,1.82c-.59,1.52-1.06,2.72-1.42,3.62l-.24.54c-.11.24-.07.21.11-.09,1.33-2.63,2.48-4.8,3.46-6.53l.43-1c.2-.43.27-.69.21-.77a1,1,0,0,0-.34-.22,1,1,0,0,0-.41,0c-.06,0-.13.13-.22.33a1.07,1.07,0,0,0-.11.38Zm-1.07,6.37c-.19.4-.25.59-.19.57a16.48,16.48,0,0,0,1.1-2.11l.43-1.1.46-1c-.37.7-.82,1.65-1.37,2.85A4.46,4.46,0,0,0,398.63,327.28Z"/><path d="M443.32,365.82l.28-.37.31-.51c.29-.38.43-.64.41-.76s-.33-.47-.91-.86l-.76-.42-.31-.24-.3-.15-1.18-.73-.35-.19-.32-.24a1.58,1.58,0,0,0-.51-.31c-.09,0-.31.15-.63.51l-.38.38-.29.27-2.9,2.5-2.82,2.48q-3.45,3-5.85,5.38l-1.53,1.56-1.58,1.53q-1.79,1.78-3.25,3.06c-.2.18-.62.52-1.28,1a1.71,1.71,0,0,0,.39.47l.33.33a.42.42,0,0,1,.17.21v.09l.06.14a1.43,1.43,0,0,1,.07.46c0,.37-.13.59-.34.65s-.57-.19-1.27-.72l-.46-.27-1.09-.84a3,3,0,0,0-.51-.31l-.25-.1-.11-.08A1,1,0,0,1,416,379c0-.35.16-.57.34-.66s.4.06.74.33l.37.28a.84.84,0,0,0,.38,0,3.48,3.48,0,0,0,1-.83l.61-.69a3.84,3.84,0,0,1,.55-.5q9.45-9,14.91-13.85l3.74-3.27,3.65-3.25q4.36-3.87,7.55-7.05l.26-.23.2-.26c.24-.25.45-.45.62-.6l.25-.22.39-.28c.28-.23.42-.37.41-.43s-.27-.3-.77-.51l-.59-.2a1,1,0,0,1-.34-.43.65.65,0,0,1,0-.47,1,1,0,0,1,.31-.51c.23-.16.72,0,1.46.37l.87.59c.38.23.66.39.87.49l.7.38a5.72,5.72,0,0,1,.67.42,9.56,9.56,0,0,0,1.23.78l.61.39.62.38.36.28.46.27a2.62,2.62,0,0,1,.68.52,1.45,1.45,0,0,1,0,.61,1,1,0,0,1-.3.51h-.33a1.76,1.76,0,0,1-.38,0l-.37-.28c-.17-.13-.29-.2-.35-.19a4.94,4.94,0,0,0-.7,1.13,6,6,0,0,0-.4.85,5.39,5.39,0,0,0-.3.6l-1.58,3.26L452.82,360q-1.92,3.83-3.44,6.56l-.73,1.27-.8,1.37c-.67,1.09-1.17,2-1.52,2.64L445,374.46l-1.34,2.62q-1.63,3.23-2.77,5.25c-.62,1-1.29,2.3-2,3.83l-1,2-1,2-.14.31-.15.3-.4.85c-.35.67-.51,1.05-.46,1.14a1,1,0,0,0,.48.45l.47.36a1.05,1.05,0,0,1,0,.9,1,1,0,0,1-.55.49c-.15,0-.5-.11-1-.47l-1.36-1c-.32-.24-.74-.59-1.27-1.05l-2-1.52c-.35-.27-.52-.51-.52-.73.13-.9.62-1,1.47-.2A236.71,236.71,0,0,1,443.32,365.82Zm-7.64,19.5,2.08-5.21-1.27,2.43-1.29,2.33q-1.54,2.86-2.32,4.76A11.72,11.72,0,0,0,435.68,385.32ZM443,361.26l1,.8a3.14,3.14,0,0,0,1.07.66q.09,0,.48-.63l.26-.55a2.46,2.46,0,0,1,.23-.41c.4-.74.89-1.66,1.46-2.77l.64-1.49.74-1.51a45.44,45.44,0,0,1,2.77-5.34q-2.16,2.16-5.38,5.08l-2.74,2.38-2.68,2.42Zm4.69,4.26q-2.43,4.35-6.43,12.3Q445.39,370.47,447.69,365.52Zm6.1-13.06.7-1.45.66-1.41q0-.14-.18-.3l-.25-.11-.25-.11a47.16,47.16,0,0,0-3.09,6.09l-1.33,3c-.5,1.16-1,2.18-1.42,3.05.5-.72,1.09-1.68,1.78-2.86l.88-1.48.92-1.53A26.62,26.62,0,0,0,453.79,352.46Z"/><path d="M483.43,391.84l-4.6,3.52-4.65,3.56q-1.77,1.36-4.42,3.63l-2.2,1.89-2.28,1.88q-4.38,3.58-6.59,5.67l-1.06.87c-.52.48-.78.78-.79.91s.14.38.48.79l.43.42.25.3q1.15,1.52,3.21,3.92l1.72,2,1.63,2a9.51,9.51,0,0,1,.93-.84,9.16,9.16,0,0,1,1.16-1c1-.71,1.61-1,2-.87a1,1,0,0,1,.61.43,1,1,0,0,1,.3.78,1.88,1.88,0,0,1-.64.78l-.6.4-1,.84-.46.47a9.16,9.16,0,0,1-1,.7l-.15.12-.25.12a.86.86,0,0,1-.44.19.41.41,0,0,1-.32-.08l-.13-.06h-.1a3.53,3.53,0,0,1-.89-.88l-.41-.6-1.84-2.23-1.67-1.95-1.55-1.88-1.45-1.87q-1.71-2.08-3.29-3.69a17.87,17.87,0,0,0-2.49-2.2l-.08-.1-.06,0-.3-.27a.48.48,0,0,1-.11-.76.85.85,0,0,1,.95-.18,10.66,10.66,0,0,0,1.14.77,5.8,5.8,0,0,0,1-.75l1-.83c.95-.78,2.34-2,4.17-3.52l2-1.81,2.13-1.76c.81-.67,1.83-1.47,3-2.41l1.66-1.19,1.67-1.29c2.76-2.1,4.91-3.83,6.44-5.21q3.79-3.36,10.46-8.42a4.71,4.71,0,0,1,.6-.4l.7-.5a3.54,3.54,0,0,0,.81-.66c0-.09,0-.23-.24-.4a3.2,3.2,0,0,0-.52-.43c-.52-.42-.76-.65-.73-.68.74-.48,1.24-.67,1.51-.55a2.71,2.71,0,0,1,1.11,1l.2.35.25.31a1.07,1.07,0,0,0,.48.37,2.43,2.43,0,0,1,.54.66,7.08,7.08,0,0,0,.88,1.07l.5.61.59.62c.93,1,1.35,1.64,1.26,1.94a1.41,1.41,0,0,1-.36.39c-.24.19-.39.29-.45.28q-.37,0-.69-.63l-.32-.59a2.86,2.86,0,0,0-.46-.46A70.08,70.08,0,0,1,483.43,391.84Zm3.71-8.33-2.83,2.15-2.87,2.19c-2.41,1.92-4.29,3.35-5.66,4.31-.61.44-1.35,1-2.23,1.74l-2.14,1.85-4.13,3.48-4.13,3.56q-5.14,4.32-8.48,6.89c-.64.46-.94.76-.89.89.09.38.28.51.57.38l.56-.46.27-.3.31-.34a5.49,5.49,0,0,1,.52-.51,1.49,1.49,0,0,1,.49-.23,4.34,4.34,0,0,0,.5-.33,17.82,17.82,0,0,0,1.94-1.68l1-.89,1-.88A349.21,349.21,0,0,1,489.63,382s0-.08,0-.15a7.35,7.35,0,0,0-1.2.73l-.65.45ZM469,401.13l2.12-1.57,4.24-3.23a84.11,84.11,0,0,0,7.87-6.9l-4.1,3.2L475,395.87q-4.82,3.87-8,6.78Z"/><path class="cls-5" d="M732.63,661.49c-.55,0-1.25-.06-2.08-.12l-.16,0-.14,0q-.16,0-.18,0s-.05.11-.05.3l0,.25v.2c0,1.16,0,2.91,0,5.25a4.22,4.22,0,0,1,.75,0l.39,0h.44l.11,0,.14,0a.48.48,0,0,0,.18,0,.4.4,0,0,0,.07-.16v-.23c0-.22,0-.34.11-.39a.44.44,0,0,1,.28,0c.12,0,.19.1.2.16s0,.08,0,.18l0,.16,0,.18a4.24,4.24,0,0,1,0,.58c0,.06,0,.16,0,.32v.34a.87.87,0,0,1-.07.55s-.11,0-.25,0-.23,0-.27-.09a.88.88,0,0,1,0-.55l0-.13v-.14c0-.11,0-.18,0-.23a10.51,10.51,0,0,1-1.46,0l-.11,0-.16,0a.67.67,0,0,0-.21,0s-.06.16-.06.42v.27c0,.09,0,.15,0,.18,0,1.05,0,2.49,0,4.32l0,1.12v1.09c0,.87,0,1.57,0,2.11h.16l.13-.05a.38.38,0,0,1,.28.05.36.36,0,0,1,.11.2.43.43,0,0,1,0,.23c-.05.06-.24.09-.59.09h-.44l-.36,0a6.65,6.65,0,0,0-.73,0h-.41a1.12,1.12,0,0,1-.32,0,.32.32,0,0,1-.12-.18c0-.08,0-.13,0-.16a.47.47,0,0,1,.23-.09s.06,0,.14,0l.14,0a1,1,0,0,0,0-.43l0-.32v-.25c0-.37,0-.87,0-1.51s0-1.13,0-1.44v-4q0-2.33.09-4c0-.57,0-1,0-1.44,0-.58,0-1.08,0-1.51v-.27l0-.3a1,1,0,0,0,0-.43s-.05,0-.11,0l-.14-.07c-.14,0-.18-.12-.14-.23s.14-.1.37-.13h.52a21,21,0,0,1,2.61,0l.66,0,.69,0h1.59l.19,0h.25l0,0,0,0,0,0a.4.4,0,0,1,.21,0,.29.29,0,0,1,.16.19.72.72,0,0,1,0,.36l-.07.23-.05.23a2.86,2.86,0,0,0,0,.32v.48l0,.09,0,.21c0,.16,0,.27,0,.32a.53.53,0,0,1-.18,0l-.12,0-.09,0a1,1,0,0,1-.14-.5l0-.34,0-.14v-.48a1.68,1.68,0,0,0,0-.32C734.08,661.53,733.4,661.52,732.63,661.49Zm-3.52.52v-.29c0-.25,0-.38-.07-.39s-.11,0-.14,0l0,0v0c0,.23,0,.52,0,.89l0,.48,0,.5c0,.75,0,1.71,0,2.88l0,1.44V669l0-.8,0-.83c0-.65.07-1.21.09-1.66.06-1.3.07-2.44,0-3.43C729.13,662.2,729.12,662.12,729.11,662Zm0,13.84a3.3,3.3,0,0,0-.07-.5v.3l0,.27a1.33,1.33,0,0,0,.09.53Zm.14-7a21.66,21.66,0,0,0,0,5.37Z"/><path class="cls-5" d="M740.76,660.83l.11.06.11.07.21,0,.2,0a2.84,2.84,0,0,1,1.74,1.6,9.14,9.14,0,0,1,.5,1.3c.14.47.26.92.37,1.33.18.88.32,1.75.41,2.62v.23a.38.38,0,0,0,0,.16.49.49,0,0,0,.16.12l.12,0,.09.07a.69.69,0,0,1,.18.34.47.47,0,0,1-.25.37l-.09.07-.09,0a.36.36,0,0,0-.12.16,1.9,1.9,0,0,0,0,.3v.3l-.14,1.66-.07.57,0,.53q-.09.64-.18,1a7.26,7.26,0,0,1-1.15,2.47,6.75,6.75,0,0,1-.77.89,3.14,3.14,0,0,1-1.08.61,2.75,2.75,0,0,1-1.34,0,2.37,2.37,0,0,1-1.58-1.07,6.68,6.68,0,0,1-.73-1.6,15.16,15.16,0,0,1-.89-6.07,23,23,0,0,1,.46-4.23,7.33,7.33,0,0,1,1.39-3.22,2.62,2.62,0,0,1,1.71-.94A1.47,1.47,0,0,1,740.76,660.83Zm-3.7,10.32a13.41,13.41,0,0,0,.2,1.46,9.25,9.25,0,0,0,.69,2.54c-.23-1-.41-1.9-.53-2.68a23.58,23.58,0,0,1-.34-2.9s0,0,0,0A8,8,0,0,0,737.06,671.15Zm.79-4.8a15.05,15.05,0,0,0-.13,3.91,32.64,32.64,0,0,0,.55,3.7A51.15,51.15,0,0,1,737.85,666.35Zm.67,10.17a.89.89,0,0,0,.32.36,1.64,1.64,0,0,1-.28-.39l-.11-.23-.14-.22A4.12,4.12,0,0,0,738.52,676.52Zm.34-13.18a29.64,29.64,0,0,0-.18,7.67q.14,1.83.27,2.79a10.4,10.4,0,0,0,.6,2.46,3.05,3.05,0,0,0,.34.71c.2.31.37.47.52.48a1,1,0,0,0,.39,0l.18-.07.19-.07a3.51,3.51,0,0,0,.43-.27l.34-.32c1.18-1.21,1.81-3.54,1.92-7a4.19,4.19,0,0,1-2.37-.48,4,4,0,0,1-1.65-1.43A6.33,6.33,0,0,1,738.86,663.34Zm1.6-1.76a2.76,2.76,0,0,0-.8,1.37,4.28,4.28,0,0,0-.07,1.92A7.78,7.78,0,0,1,740.46,661.58Zm0,2a6.67,6.67,0,0,0,.25,3.54l.16.41.14.39a1.73,1.73,0,0,0,.39.6,3.34,3.34,0,0,0,.75.5,1.8,1.8,0,0,0,.92.27,1.38,1.38,0,0,0,.45-.09c.18-.07.29-.15.32-.23a1.54,1.54,0,0,0,0-.45l0-.3,0-.3c-.14-1-.31-2-.51-2.9a8.05,8.05,0,0,0-1.32-3.15l-.14-.11-.16-.16c-.14-.13-.23-.18-.3-.16s0,0,0,0A3.61,3.61,0,0,0,740.48,663.54Z"/><path class="cls-5" d="M751.42,660.83l.11.06.12.07.2,0,.21,0a2.87,2.87,0,0,1,1.74,1.6,12.42,12.42,0,0,1,.5,1.3c.13.47.26.92.36,1.33a24.12,24.12,0,0,1,.41,2.62v.23c0,.09,0,.15,0,.16s.07.07.16.12l.11,0,.09.07a.74.74,0,0,1,.19.34.48.48,0,0,1-.26.37l-.09.07-.09,0a.28.28,0,0,0-.11.16,1.05,1.05,0,0,0,0,.3v.3l-.13,1.66-.07.57,0,.53q-.09.64-.18,1a7.07,7.07,0,0,1-1.14,2.47,6.81,6.81,0,0,1-.78.89,3,3,0,0,1-1.07.61,2.79,2.79,0,0,1-1.35,0,2.35,2.35,0,0,1-1.57-1.07,6.61,6.61,0,0,1-.74-1.6,15.33,15.33,0,0,1-.89-6.07,24,24,0,0,1,.46-4.23,7.45,7.45,0,0,1,1.39-3.22,2.67,2.67,0,0,1,1.72-.94A1.45,1.45,0,0,1,751.42,660.83Zm-3.7,10.32a13.78,13.78,0,0,0,.21,1.46,8.94,8.94,0,0,0,.68,2.54c-.23-1-.4-1.9-.52-2.68a23.71,23.71,0,0,1-.35-2.9s0,0,0,0A8,8,0,0,0,747.72,671.15Zm.8-4.8a15,15,0,0,0-.14,3.91,35.08,35.08,0,0,0,.55,3.7A52.46,52.46,0,0,1,748.52,666.35Zm.66,10.17a1.06,1.06,0,0,0,.32.36,1.64,1.64,0,0,1-.27-.39l-.12-.23L749,676A3,3,0,0,0,749.18,676.52Zm.34-13.18a30.57,30.57,0,0,0-.18,7.67c.09,1.22.18,2.15.28,2.79a10,10,0,0,0,.59,2.46,3.52,3.52,0,0,0,.34.71c.2.31.38.47.53.48a1,1,0,0,0,.39,0l.18-.07.18-.07a3.52,3.52,0,0,0,.44-.27l.34-.32c1.17-1.21,1.81-3.54,1.92-7a4.21,4.21,0,0,1-2.38-.48,4.06,4.06,0,0,1-1.64-1.43A6.33,6.33,0,0,1,749.52,663.34Zm1.6-1.76a2.84,2.84,0,0,0-.8,1.37,4.28,4.28,0,0,0-.06,1.92A7.62,7.62,0,0,1,751.12,661.58Zm0,2a6.57,6.57,0,0,0,.25,3.54l.16.41.13.39a2.07,2.07,0,0,0,.39.6,3.21,3.21,0,0,0,.76.5,1.77,1.77,0,0,0,.91.27,1.38,1.38,0,0,0,.46-.09c.18-.07.29-.15.32-.23a3.08,3.08,0,0,0,0-.45l0-.3,0-.3c-.14-1-.3-2-.5-2.9a8.19,8.19,0,0,0-1.33-3.15l-.13-.11-.16-.16c-.14-.13-.24-.18-.3-.16s0,0,0,0A3.55,3.55,0,0,0,751.15,663.54Z"/><path class="cls-5" d="M759.16,660.92l.53,0,.5,0a4.8,4.8,0,0,1,3,1.19,6.31,6.31,0,0,1,1.58,2.69,11.7,11.7,0,0,1,.41,3.93,31.58,31.58,0,0,1-.43,4c-.37,2.12-1.14,3.53-2.33,4.23a4.87,4.87,0,0,1-1.46.52,13.79,13.79,0,0,1-2.79.23l-.25,0h-.25c-.2,0-.32,0-.35-.11v-.16a.23.23,0,0,1,.12-.16l.11,0,.12,0c.09,0,.15,0,.18,0a2.63,2.63,0,0,0,0-.46v-.53c0-.39,0-.91,0-1.55l0-.75v-.76c0-1.64,0-3,0-3.92,0-.46,0-1,0-1.53v-1.49c0-1.23,0-2.23,0-3q0-.13,0-.48v-.8l0-.32a2.09,2.09,0,0,0,0-.39s-.13-.06-.3,0l-.18,0a.37.37,0,0,1-.14-.07.19.19,0,0,1,0-.25.32.32,0,0,1,.23-.11l.34,0a1.58,1.58,0,0,1,.28,0A4.73,4.73,0,0,1,759.16,660.92Zm-.43,11.46V669a54.8,54.8,0,0,0,0,6.79C758.71,674.89,758.71,673.75,758.73,672.38Zm0-8.36v-.41a4.64,4.64,0,0,0-.07-.71,5.89,5.89,0,0,0,.09,1.51Zm.34-1.39,0-.25,0-.28c0-.42,0-.66,0-.7s0,0-.07,0l0,.41v.43a4.12,4.12,0,0,0,.09.8A1.37,1.37,0,0,1,759.09,662.63Zm0,14.07v.09c0,.09,0,.17,0,.23,0,.23,0,.34.07.34s.09-.05.09-.2v-1.47c0-.41,0-.73,0-1l0,.48v.46c0,.37,0,.69,0,1Zm.16-9.84,0,1.34,0,1.37c0,1.08,0,2,0,2.74C759.31,670.2,759.32,668.38,759.28,666.86Zm0-1a4.09,4.09,0,0,0,0-.62v.34l0,.34a2.85,2.85,0,0,0,0,.62Zm3,10.2.16-.31.16-.35a7.7,7.7,0,0,0,.34-1.57,50,50,0,0,0,.35-7.27l0-.93c0-.35,0-.66,0-.92a5.67,5.67,0,0,0-.32-1.57,2.51,2.51,0,0,0-1.48-1.51,3.36,3.36,0,0,0-.94-.16l-.27,0-.25,0c-.18,0-.28,0-.28.09,0,.41,0,1.05.07,1.92s0,1.52,0,2,0,1.08,0,2,0,1.55,0,2c0,3.14,0,5.76-.11,7.88a3.51,3.51,0,0,0,2.22-.62A2,2,0,0,0,762.29,676.1Zm1.49-8.67c0,.74,0,1.69-.07,2.83l-.09,1.37c0,.52,0,1,0,1.35A21.4,21.4,0,0,0,763.78,667.43Zm.52,3.79-.16,1.28c-.06.53-.11.94-.14,1.23l.09-.59.1-.64c.06-.51.11-1,.16-1.33.12-1,.19-2,.22-2.76a9,9,0,0,0-.84-4.84,29.74,29.74,0,0,1,.68,5A17,17,0,0,1,764.3,671.22Z"/><path class="cls-5" d="M774.53,660.92l.53,0,.5,0a4.8,4.8,0,0,1,3,1.19,6.31,6.31,0,0,1,1.58,2.69,11.45,11.45,0,0,1,.41,3.93,31.58,31.58,0,0,1-.43,4c-.37,2.12-1.14,3.53-2.33,4.23a4.87,4.87,0,0,1-1.46.52,13.79,13.79,0,0,1-2.79.23l-.25,0h-.25c-.2,0-.32,0-.35-.11v-.16a.23.23,0,0,1,.12-.16l.11,0,.12,0c.09,0,.15,0,.18,0a2.63,2.63,0,0,0,0-.46v-.53c0-.39,0-.91,0-1.55l0-.75v-.76c0-1.64,0-3,0-3.92,0-.46,0-1,0-1.53v-1.49c0-1.23,0-2.23,0-3q0-.13,0-.48v-.8l0-.32a2.09,2.09,0,0,0,0-.39s-.13-.06-.3,0l-.18,0a.37.37,0,0,1-.14-.07.19.19,0,0,1,0-.25A.32.32,0,0,1,773,661l.34,0a1.58,1.58,0,0,1,.28,0A4.73,4.73,0,0,1,774.53,660.92Zm-.43,11.46V669a54.8,54.8,0,0,0,0,6.79C774.08,674.89,774.08,673.75,774.1,672.38Zm0-8.36v-.41a4.64,4.64,0,0,0-.07-.71,5.89,5.89,0,0,0,.09,1.51Zm.34-1.39,0-.25,0-.28c0-.42,0-.66,0-.7s0,0-.07,0l0,.41v.43a4.12,4.12,0,0,0,.09.8A1.37,1.37,0,0,1,774.46,662.63Zm0,14.07v.09c0,.09,0,.17,0,.23,0,.23,0,.34.07.34s.09-.05.09-.2v-1.47c0-.41,0-.73,0-1l0,.48v.46c0,.37,0,.69,0,1Zm.16-9.84,0,1.34,0,1.37c0,1.08,0,2,0,2.74C774.68,670.2,774.69,668.38,774.65,666.86Zm0-1a4.09,4.09,0,0,0,0-.62v.34l0,.34a2.85,2.85,0,0,0,0,.62Zm3,10.2.16-.31.16-.35a7.7,7.7,0,0,0,.34-1.57,50,50,0,0,0,.35-7.27l0-.93c0-.35,0-.66,0-.92a5.67,5.67,0,0,0-.32-1.57,2.51,2.51,0,0,0-1.48-1.51,3.36,3.36,0,0,0-.94-.16l-.27,0-.25,0c-.18,0-.28,0-.28.09,0,.41,0,1.05.07,1.92s0,1.52,0,2,0,1.08,0,2,0,1.55,0,2c0,3.14,0,5.76-.11,7.88a3.51,3.51,0,0,0,2.22-.62A2,2,0,0,0,777.66,676.1Zm1.49-8.67c0,.74,0,1.69-.07,2.83l-.09,1.37c0,.52,0,1,0,1.35A21.4,21.4,0,0,0,779.15,667.43Zm.52,3.79-.16,1.28c-.06.53-.11.94-.14,1.23l.1-.59.09-.64c.06-.51.11-1,.16-1.33.12-1,.19-2,.22-2.76a9,9,0,0,0-.84-4.84,29.74,29.74,0,0,1,.68,5A17,17,0,0,1,779.67,671.22Z"/><path class="cls-5" d="M788.28,667.15l0-.23c0-.19,0-.31.06-.34a.29.29,0,0,1,.26,0,.43.43,0,0,1,.2.16.6.6,0,0,1,0,.32v.34a4.07,4.07,0,0,0,.05.46l0,.25,0,.23c0,.38,0,.59-.16.62a.3.3,0,0,1-.35-.12.73.73,0,0,1-.11-.36v-.37a.91.91,0,0,0,0-.27s-.08,0-.19,0l-.13,0h-.12l-.32,0-.32-.05-.66-.07a.18.18,0,0,1-.09,0l-.14,0c-.12,0-.19,0-.2,0s-.05.11-.05.29,0,.32,0,.46q0,1,0,2.19l-.05,2.22c0,1.93,0,3.42,0,4.48l1.07,0,1,0c.89,0,1.62-.06,2.2,0V677l0-.21a3.83,3.83,0,0,1,0-.48c0-.41.09-.64.21-.7a.31.31,0,0,1,.21,0,.22.22,0,0,1,.22,0s0,.12,0,.27l0,.18v.16a3.1,3.1,0,0,0,0,1l0,.07.05.09a.25.25,0,0,1,0,.2c0,.11-.17.15-.43.14l-.14,0-.14,0-.23,0a15.73,15.73,0,0,0-1.69,0l-.89.05-.86,0-.62,0h-.66l-1.33.05h-.2l-.21-.05c-.17,0-.22-.12-.16-.25s.12-.09.25-.09h.14c.06,0,.1,0,.11,0a.35.35,0,0,0,0-.21l0-.11,0-.09q0-.74,0-2l0-1,0-1,0-2.72,0-2.7c0-2.2,0-4,0-5.29,0-.05,0-.13,0-.23v-.32a1.06,1.06,0,0,0,0-.39s-.09,0-.22,0h-.16a.17.17,0,0,1-.12,0,.32.32,0,0,1-.07-.13.24.24,0,0,1,0-.19c0-.06.12-.09.32-.09h.25l.25,0,.45,0,.23,0h.21c.61-.05,1.36-.06,2.26-.05h1.16l1.19,0h.23l.27,0a1.37,1.37,0,0,0,.42,0l0-.05s0,0,.05,0q.35,0,.36.27c0,.06,0,.17,0,.32l0,.21,0,.2a1.3,1.3,0,0,0,0,.28l0,.11v.12c0,.06,0,.09,0,.09l0,0a.08.08,0,0,0,0,.07l0,.09,0,.09a.16.16,0,0,1,0,.14.32.32,0,0,1-.27,0,.41.41,0,0,1-.21-.16,1.52,1.52,0,0,1-.07-.5,3,3,0,0,1,0-.53v0l0-.1c0-.06,0-.1,0-.11a.56.56,0,0,0-.3,0l-.18,0H790c-.91,0-1.85-.07-2.8-.07l-.23,0-.16,0h-.19c-.3,0-.48,0-.52.05s0,.08,0,.2v.16l0,.14c0,.56,0,1.33,0,2.28l0,1.19c0,.46,0,.87,0,1.24v.11l0,.21c0,.21,0,.33,0,.36s.1,0,.25,0l.16,0h.14c.24,0,.52,0,.84,0l.83.09A.74.74,0,0,0,788.28,667.15Zm-3.82-4.77,0,.68c0,.57,0,1,.07,1.35v.21c0,.09,0,.07,0,0,0-1,.1-1.87.16-2.56v-.36c0-.17,0-.26,0-.28l-.13,0c-.08,0-.13,0-.14,0s0,.06,0,.13a.28.28,0,0,0,0,.14Zm.07,9.41c0-.41,0-.71,0-.89v.48l0,.5a7.05,7.05,0,0,0,0,.91Zm0,2.81a6.49,6.49,0,0,0,0-.73v.38l0,.42a4.46,4.46,0,0,0,0,.75Zm.51-10.05c0,.15,0,.22,0,.2a5.57,5.57,0,0,0,0-.82l0-.41v-.39c0,.28,0,.64,0,1.1A1.29,1.29,0,0,0,785,664.55Zm.25,4.11c0-.09,0-.11,0,0a4.45,4.45,0,0,0,0,.71l0,.37v.39a36.29,36.29,0,0,0,.07,4.31c0-.71,0-1.64,0-2.78l0-1.37Z"/><path class="cls-5" d="M797.05,665.21l-.07,2-.07,2c0,.52,0,1.18,0,2l0,1v1c0,1.31,0,2.32.07,3v.48a1.11,1.11,0,0,0,.07.41.65.65,0,0,0,.32,0l.2,0h.14c.44,0,1,0,1.76,0l.91,0h.89c0-.14,0-.28,0-.44a4.5,4.5,0,0,1,0-.52c0-.41.09-.66.21-.73a.33.33,0,0,1,.25-.07q.21,0,.27.09a.57.57,0,0,1,.07.34l0,.25v.46l0,.23a3.25,3.25,0,0,1,0,.41v.07l0,.09a.28.28,0,0,1,0,.16.22.22,0,0,1-.09.07l0,0,0,0a1,1,0,0,1-.43,0l-.26,0h-1l-.89,0h-.85l-.82,0c-.62,0-1.19,0-1.71.07a5.93,5.93,0,0,0-1.14.18h-.05v0l-.14,0c-.12,0-.19,0-.22-.13a.28.28,0,0,1,.16-.3,2.62,2.62,0,0,0,.45-.14,1.31,1.31,0,0,0,0-.43v-.46q0-.63,0-1.89l0-.94v-1c0-.36,0-.81,0-1.35l.05-.7,0-.73c0-1.21,0-2.17,0-2.88,0-1.17,0-2.73,0-4.66a1.24,1.24,0,0,1,0-.25l0-.3a.94.94,0,0,0,0-.36s-.07,0-.16,0l-.23,0c-.22,0-.34.06-.34,0,0-.3.09-.48.18-.52a.93.93,0,0,1,.53-.07l.14,0h.13a.39.39,0,0,0,.21,0,.67.67,0,0,1,.3,0h.75l.3,0c.47,0,.74,0,.8.1a.62.62,0,0,1,0,.18.48.48,0,0,1,0,.18.35.35,0,0,1-.32,0l-.23,0-.23,0A24.43,24.43,0,0,1,797.05,665.21Zm-1.42-2.83,0,1.23-.05,1.26c0,1.06,0,1.89-.09,2.46,0,.26,0,.59,0,1l0,1,0,1.87,0,1.9c0,1.55,0,2.81,0,3.79,0,.27,0,.42,0,.43s.2,0,.23-.07V677l0-.13,0-.16c0-.13,0-.21,0-.26a.54.54,0,0,1,0-.18.75.75,0,0,0,0-.2,5.74,5.74,0,0,0,0-.89l0-.46,0-.46a119.57,119.57,0,0,1,.07-12.86s0,0,0,0a3.16,3.16,0,0,0-.07.48l0,.27Zm.73,8.75,0-.92.07-1.85a28.69,28.69,0,0,0-.12-3.63l0,1.81-.05,1.82c0,1.43,0,2.65.05,3.66Z"/><path class="cls-5" d="M806.87,665.17l0,1,0,1c0,.87-.06,1.55-.07,2s0,1.21,0,2l0,1v1a20.78,20.78,0,0,0,.21,3.4l0,.12,0,.13c0,.11,0,.16,0,.16s0,0,.09,0h.16a.49.49,0,0,1,.25,0,.22.22,0,0,1,.09.18.36.36,0,0,1,0,.19s-.16.06-.39.06h-.5a8.34,8.34,0,0,0-2.15.23l-.09,0-.12,0h-.16c-.06,0-.07-.12,0-.23a.33.33,0,0,1,.14-.2l.11-.05.14,0c.12,0,.19,0,.2-.07s0-.07,0-.16l0-.14v-2.19c0-1,0-1.71,0-2.19s0-1,0-1.85,0-1.46,0-1.9v-.48l0-.48a7.6,7.6,0,0,0,0-1c0-1.15,0-2.71.05-4.66a1.29,1.29,0,0,1,0-.25l0-.3a.88.88,0,0,0,0-.36s-.07,0-.18,0l-.14,0h-.11c-.18,0-.28-.07-.28-.2s.1-.24.3-.3a3.52,3.52,0,0,1,1-.07h1l.27,0H807q.4,0,.48.09a.26.26,0,0,1,0,.18.32.32,0,0,1,0,.19.46.46,0,0,1-.32,0l-.23,0a.9.9,0,0,0-.23,0A24.22,24.22,0,0,1,806.87,665.17Zm-1.42-2.84-.05,1.26,0,1.23c0,1.07-.05,1.89-.09,2.47,0,.26,0,.59,0,1l0,1,0,1.88.05,1.89c0,1.55,0,2.82,0,3.79,0,.28,0,.42.05.44s.2,0,.23-.07v-.25l0-.14,0-.14c0-.12,0-.21,0-.27a.45.45,0,0,1,0-.18.88.88,0,0,0,0-.21,7.4,7.4,0,0,0,0-.89l0-.46,0-.45a119.55,119.55,0,0,1,.07-12.86s0,0-.05,0a2.81,2.81,0,0,0-.07.47l0,.28Zm.73,8.75.05-.91.07-1.85a28.69,28.69,0,0,0-.12-3.63l0,1.82,0,1.83q0,2.13,0,3.63Z"/><path class="cls-5" d="M813.58,668.64l.25,1.78.25,1.8c.2,1.39.38,2.57.55,3.54l.25-1.82.23-1.85c.2-1.57.37-2.81.53-3.7.45-2.71.85-4.76,1.18-6.15a1.13,1.13,0,0,0,0-.2l.09-.28a1.14,1.14,0,0,0,.07-.34s-.12,0-.3,0l-.18,0a.33.33,0,0,1-.14,0,.37.37,0,0,1-.07-.14.65.65,0,0,1,0-.2c0-.14.27-.22.67-.23a2.72,2.72,0,0,1,.48,0h.43l.18,0h.21c.15,0,.25,0,.29.12s0,.07,0,.18a.26.26,0,0,1,0,.18c0,.09-.22.13-.53.12h-.34a.49.49,0,0,0-.27.06,1.17,1.17,0,0,0-.12.44,2.49,2.49,0,0,1-.06.32v.11l0,.09q-1.11,5.64-2.19,13.87c0,.06,0,.15,0,.27l-.07.32a1.3,1.3,0,0,0,0,.43s.16.07.41.07h.27a.33.33,0,0,1,.21.07.39.39,0,0,1,0,.09l.05.12a.3.3,0,0,1-.05.25.78.78,0,0,1-.36,0,1.91,1.91,0,0,1-.48,0q-1.38,0-2.49,0l-.14,0-.16,0a.52.52,0,0,1-.25,0c-.06,0-.09-.11-.09-.23a.57.57,0,0,1,0-.25.53.53,0,0,1,.35-.12h.2c.06,0,.1,0,.12,0s0-.06,0-.12l0-.09,0-.11a.14.14,0,0,1,0-.09.23.23,0,0,0,0-.09,1.91,1.91,0,0,0-.07-.44l-.06-.23-.07-.25c-.22-1.22-.37-2.16-.46-2.83l-.11-1-.12-1c-.09-.79-.17-1.46-.25-2l-.25-1.67-.23-1.64c-.2-1.32-.38-2.44-.55-3.33a2.07,2.07,0,0,1,0-.23l0-.3a1.49,1.49,0,0,0-.09-.39.32.32,0,0,0-.27,0l-.14.07h-.11s-.07-.1-.07-.21a.33.33,0,0,1,0-.23c.06-.12.29-.19.68-.2a1.91,1.91,0,0,1,.48,0h1.85a.59.59,0,0,1,.35.07c.06,0,.1.11.11.25a.51.51,0,0,1,0,.25c0,.06-.15.08-.3.07l-.23,0a.9.9,0,0,0-.23,0Q813,664.25,813.58,668.64Zm-1.58.75c-.07-.46-.15-1-.22-1.71l-.1-.92-.11-1q-.27-2.46-.48-3.72l0-.14v-.11a.42.42,0,0,0,0-.18c0-.09-.16-.12-.34-.07.23,1,.47,2.25.71,3.84l.3,2c.1.78.2,1.42.29,1.94Zm0-4.43a14.38,14.38,0,0,0-.14-2.15l0-.34,0-.37c0-.25,0-.41.11-.47l-.21,0h-.2Zm1.19,12v.14a.21.21,0,0,0,.14.16c-.13-.88-.32-2.1-.6-3.65l-.32-1.83-.29-1.85a55,55,0,0,0,1,6.94Zm.48-1.18,0,.2.07.46a1.6,1.6,0,0,1,0,.8h.34c-.17-.73-.36-1.72-.57-3l-.25-1.51-.28-1.5c.06.6.16,1.33.3,2.17l.16,1.07.18,1.05Z"/><path class="cls-5" d="M825.34,667.15l0-.23c0-.19,0-.31.07-.34a.27.27,0,0,1,.25,0,.43.43,0,0,1,.2.16.7.7,0,0,1,0,.32v.34a3.51,3.51,0,0,0,0,.46l0,.25,0,.23c0,.38,0,.59-.16.62a.31.31,0,0,1-.35-.12.85.85,0,0,1-.11-.36v-.37a.91.91,0,0,0,0-.27s-.08,0-.18,0l-.14,0h-.12l-.32,0-.32-.05-.66-.07-.09,0-.14,0c-.12,0-.19,0-.2,0s0,.11,0,.29a3.23,3.23,0,0,0,0,.46c0,.64,0,1.37,0,2.19l0,2.22c0,1.93,0,3.42,0,4.48l1.08,0,1.05,0c.88,0,1.61-.06,2.19,0V677l0-.21a1.92,1.92,0,0,1,0-.48c0-.41.08-.64.2-.7a.33.33,0,0,1,.21,0,.25.25,0,0,1,.23,0s0,.12,0,.27l0,.18v.16a2.9,2.9,0,0,0,0,1l0,.07,0,.09a.25.25,0,0,1,0,.2c0,.11-.17.15-.43.14l-.14,0-.14,0-.22,0a15.74,15.74,0,0,0-1.69,0l-.89.05-.87,0-.62,0h-.66l-1.33.05H821l-.21-.05c-.17,0-.22-.12-.16-.25s.12-.09.25-.09H821c.06,0,.1,0,.12,0a.68.68,0,0,0,0-.21l0-.11,0-.09q0-.74,0-2l0-1,0-1,0-2.72,0-2.7c0-2.2,0-4,0-5.29,0-.05,0-.13,0-.23v-.32a1.81,1.81,0,0,0,0-.39s-.1,0-.23,0h-.16a.17.17,0,0,1-.12,0,.32.32,0,0,1-.07-.13.29.29,0,0,1,0-.19c0-.06.12-.09.32-.09h.25l.25,0,.46,0,.22,0h.21c.61-.05,1.36-.06,2.26-.05h1.17l1.18,0h.23l.28,0a1.3,1.3,0,0,0,.41,0l0-.05s0,0,0,0q.35,0,.36.27a2.28,2.28,0,0,1,0,.32l0,.21,0,.2a.66.66,0,0,0,0,.28l0,.11v.12c0,.06,0,.09-.05.09l0,0a.08.08,0,0,0,0,.07l0,.09,0,.09a.16.16,0,0,1,0,.14.32.32,0,0,1-.27,0,.41.41,0,0,1-.21-.16,1.57,1.57,0,0,1-.06-.5,3,3,0,0,1,0-.53v0l0-.1c0-.06,0-.1,0-.11a.54.54,0,0,0-.3,0l-.18,0h-.09c-.92,0-1.85-.07-2.81-.07l-.23,0-.16,0h-.18c-.31,0-.48,0-.53.05s0,.08,0,.2v.16l0,.14c0,.56,0,1.33,0,2.28l0,1.19c0,.46,0,.87,0,1.24v.11l0,.21c0,.21,0,.33,0,.36s.1,0,.25,0l.16,0h.14c.24,0,.53,0,.85,0l.82.09A.74.74,0,0,0,825.34,667.15Zm-3.81-4.77,0,.68c0,.57.05,1,.07,1.35v.21c0,.09,0,.07,0,0,.05-1,.1-1.87.16-2.56v-.36c0-.17,0-.26,0-.28l-.13,0a.34.34,0,0,0-.14,0,.27.27,0,0,0,0,.13.46.46,0,0,0,0,.14Zm.06,9.41c0-.41,0-.71,0-.89v.48l0,.5a7.05,7.05,0,0,0,0,.91Zm0,2.81a6.49,6.49,0,0,0,0-.73v.38l0,.42a4.46,4.46,0,0,0,0,.75Zm.51-10.05c0,.15,0,.22,0,.2a5.27,5.27,0,0,0,0-.82l0-.41v-.39c0,.28,0,.64,0,1.1A1.29,1.29,0,0,0,822.1,664.55Zm.25,4.11c0-.09,0-.11,0,0a4.25,4.25,0,0,0-.05.71l0,.37v.39a36.29,36.29,0,0,0,.07,4.31c0-.71,0-1.64,0-2.78l0-1.37Z"/><path class="cls-5" d="M836.6,672.4c0,.25.1.58.16,1l.16,1.05a10.13,10.13,0,0,0,.46,2l0,.14.05.14a2.1,2.1,0,0,0,.13.32,2,2,0,0,0,.21.25,1.06,1.06,0,0,0,.21.14.26.26,0,0,0,.2-.12l.09-.11.09-.14c.16-.23.31-.32.46-.27a.28.28,0,0,1,.14.09.34.34,0,0,1,0,.16.27.27,0,0,1-.07.18l-.06.07-.1.11-.13.18-.16.19a1,1,0,0,1-.48.23,1.9,1.9,0,0,1-1.87-.62,4.1,4.1,0,0,1-.37-.39c-.61-.81-1-2.4-1.32-4.79a10,10,0,0,0-.94-3.66l-.12-.25-.13-.25a.68.68,0,0,0-.44-.32q-.14,4.9,0,8.06l0,.39,0,.36a1,1,0,0,1-.16.62.44.44,0,0,0,.23,0l.23,0a.63.63,0,0,1,.39,0s.07.07.09.16,0,.19-.05.23-.16.07-.39.07h-.5a8.26,8.26,0,0,0-2.14.23l-.07,0-.12,0a.26.26,0,0,1-.18,0,.2.2,0,0,1,0-.25.3.3,0,0,1,.14-.18.35.35,0,0,1,.12-.07l.16,0a.5.5,0,0,0,.18,0,.51.51,0,0,0,0-.18l0-.11v-2.22c0-1,0-1.7,0-2.17s0-1,0-1.85,0-1.45,0-1.89v-.48l0-.48q0-.6,0-1c0-.69,0-1.46,0-2.33l0-1.14,0-1.19,0-.28,0-.29a1.52,1.52,0,0,0,0-.34s-.06,0-.14,0h-.11l-.09,0c-.22,0-.34,0-.37-.1s0-.3.27-.36a1.73,1.73,0,0,1,.32-.07h.32a16.42,16.42,0,0,1,3.09,0,4.27,4.27,0,0,1,1.39.41A4.32,4.32,0,0,1,837.7,663a3.28,3.28,0,0,1,.5,2.1,2.35,2.35,0,0,1-.44,1.14,3.39,3.39,0,0,1-.77.87,5,5,0,0,1-2.36.85A8.07,8.07,0,0,1,836.6,672.4Zm-5.14-8.79-.05,1.26c0,1.06,0,1.89-.09,2.46,0,.26,0,.59,0,1l0,1,0,1.87,0,1.9c0,1.55,0,2.81,0,3.79a1,1,0,0,0,0,.43c.13.05.2,0,.23-.09a.2.2,0,0,0,0-.11l0-.07v-.18l0-.16a2,2,0,0,1,0-.26.58.58,0,0,1,0-.2.69.69,0,0,0,0-.18,5.91,5.91,0,0,0,0-.92l0-.43,0-.46q-.27-7.26.07-12.86l0,0h0a2.25,2.25,0,0,0-.07.48v.27l0,.28Zm.78,7.52,0-.92.07-1.85a30.92,30.92,0,0,0-.11-3.63l0,1.81,0,1.82c0,1.42,0,2.64,0,3.66Zm2.08-4.07.31,0,.37,0a1.55,1.55,0,0,0,.62-.11,1,1,0,0,0,.32-.39l.13-.25,0-.12,0-.11a4,4,0,0,0,.29-1.78,4.06,4.06,0,0,0-.43-1.74,1.28,1.28,0,0,0-.37-.5,2.38,2.38,0,0,0-.91-.36,4.87,4.87,0,0,0-1.1-.16l-.18,0-.23,0a1.11,1.11,0,0,0-.41.05s0,.09,0,.27l0,.25,0,.11v.1a34.46,34.46,0,0,1,0,4.91c.19,0,.45,0,.75,0l.34,0Zm.93,2.54-.16-.3-.16-.3a3,3,0,0,0-.75-1.07s-.06,0-.18,0l-.12,0s0,0-.07,0c1,1,1.79,2.76,2.26,5.37l-.11-.78-.11-.77a13.35,13.35,0,0,0-.35-1.51A5.08,5.08,0,0,0,835.25,669.6Zm.57,5.64a21.61,21.61,0,0,1-.57-2.2l0-.09v-.09c0-.07,0-.09-.05,0,.29,2.19.79,3.64,1.51,4.36A7.52,7.52,0,0,1,835.82,675.24Zm1.19-9.09.14-.09a.67.67,0,0,0,.2-.23,1.61,1.61,0,0,0,.09-.73l0-.39c0-.09,0-.21,0-.34a4.2,4.2,0,0,1-.45,1.87Zm.85-1.88a2,2,0,0,0-.28-.73l.07.37.05.36a6.48,6.48,0,0,1,.06.83A1.18,1.18,0,0,0,837.86,664.27Z"/><path class="cls-5" d="M843.29,663.73l.48,1.18.46,1.19a34.4,34.4,0,0,1,1.78-4.7,1.52,1.52,0,0,1-.44,0c-.15,0-.22-.1-.22-.2s.2-.25.66-.37a3.87,3.87,0,0,1,.91-.16,1,1,0,0,1,.69.25c.18.19.1.3-.25.35l-.14,0h-.14a.25.25,0,0,0-.2,0,1.88,1.88,0,0,0-.16.35,7.53,7.53,0,0,0-.57,1.14l-.26.59-.25.57c-.29.69-.55,1.39-.8,2.13l-.07.18-.09.2a.92.92,0,0,0-.09.32,1.38,1.38,0,0,0,0,.28l.07.27a20.34,20.34,0,0,1,.13,2.1V673c0,.51,0,.92,0,1.24s0,.71,0,1.28v.61l0,.66,0,.16V677a.27.27,0,0,0,.05.23l.09.05.14,0a.42.42,0,0,1,.27.14.33.33,0,0,1,0,.25.26.26,0,0,1,0,.18s-.07,0-.18.07a1.08,1.08,0,0,1-.25,0,4,4,0,0,1-1,0l-.55-.07-.55-.07h-.41c-.17,0-.27,0-.3,0a.23.23,0,0,1-.07-.19.27.27,0,0,1,0-.18s.13-.08.32-.11h.09l.13,0c.1,0,.15,0,.16,0a1.78,1.78,0,0,0,0-.52l0-.19v-.18c0-.12,0-.2,0-.23l-.07-1.71c0-.65,0-1.21,0-1.67q0-3.06-.06-4.59l-.1-.68v-.19l0-.18a3.21,3.21,0,0,0,0-.36,1.26,1.26,0,0,0-.14-.35l-.09-.16-.07-.18-.89-2-.23-.46-.23-.5c-.19-.42-.35-.76-.47-1a.43.43,0,0,1-.07-.14l-.07-.23a2.49,2.49,0,0,0-.16-.29.26.26,0,0,0-.14,0l-.16,0a.42.42,0,0,1-.32,0,.61.61,0,0,1-.09-.21.39.39,0,0,1,0-.23,1.38,1.38,0,0,1,.62-.07h.71l.23,0,.25-.05.52,0,.25,0,.3-.05a1,1,0,0,1,.5.05c.14.07.18.2.12.38s-.22.23-.44.14C842.55,661.91,842.86,662.71,843.29,663.73ZM841,662l-.05-.16-.06-.18q-.08-.2-.21-.21l.14.3.13.32a2.05,2.05,0,0,0,.3.54Zm.8.68c0-.23-.11-.48-.18-.77l-.05-.19-.07-.18a.21.21,0,0,0-.29-.11l.18.45.18.48c.17.41.29.73.37,1A5.64,5.64,0,0,0,841.76,662.65ZM844,668a1.53,1.53,0,0,0,0-.53l-.09-.3-.09-.29a15.13,15.13,0,0,0-.71-2l-.41-1a8.25,8.25,0,0,1-.39-1c.18.76.45,1.7.82,2.83l.43,1.39.44,1.4Zm-.76,9.11,0,.07a.08.08,0,0,0,.09.09c0-.53,0-1.29,0-2.26v-1.14l0-1.17a35.82,35.82,0,0,0-.28-4.36c0,.62.08,1.35.09,2.17l0,1.1v1.11c0,1.92,0,3.36.13,4.32Zm.51-.25c0,.27,0,.4.13.39s.1,0,.12-.14a.32.32,0,0,0,0-.14v-.13c0-.48,0-1.12,0-1.92v-2a20.93,20.93,0,0,0-.34-3.59c.08,1,.12,2.24.14,3.68Z"/><path class="cls-5" d="M748,570.37l-.15-1.53c0-1.33.15-2.09.46-2.3a1.63,1.63,0,0,1,1.69,0,2.71,2.71,0,0,1,1.38,1.07,4.41,4.41,0,0,1,.15,2.15v2.3a24.07,24.07,0,0,0,.31,3.07l.15,1.68.16,1.54q.15,3.82-1.08,4.14a1.89,1.89,0,0,1-2.3-.77,5.41,5.41,0,0,1-.77-2.45v-2.46a5.27,5.27,0,0,0-.15-1.84q-.15-.15-1.23,0l-.91.16H745L742.8,575l-2.15-.3-4.44-.46a2.27,2.27,0,0,1-.62-.16l-.92-.15q-1.23-.15-1.38,0c-.2.1-.3.77-.3,2a28.54,28.54,0,0,0,.15,3.07q.3,6.45.15,14.72l-.3,14.88q-.47,19.47,0,30.06l7.2-.16,7.06-.31q8.89-.45,14.72-.3v-1.23l-.15-1.38a15.67,15.67,0,0,1,0-3.22q.15-4.14,1.38-4.75a2.51,2.51,0,0,1,1.38-.31,1.74,1.74,0,0,1,1.53.31c.21.2.26.82.16,1.84l-.16,1.22v1.08a19.47,19.47,0,0,0,.16,6.74l.15.47.3.61a1.82,1.82,0,0,1,.31,1.38c-.21.72-1.17,1-2.91.92l-.92-.15-.92-.16c-.82-.1-1.33-.15-1.54-.15a106.46,106.46,0,0,0-11.35,0l-6,.31-5.82.3-4.14.16H729q-5.52.15-8.9.3h-1.38q-.76-.15-1.38-.3c-1.12-.31-1.48-.87-1.07-1.69.2-.41.77-.61,1.69-.61h.92c.41,0,.66-.1.76-.31a3,3,0,0,0,0-1.38l-.15-.77a2.5,2.5,0,0,1-.15-.61q-.15-4.9,0-13l.15-6.74.15-6.6.16-18.25.15-18.09q.15-22.25,0-35.58a12.81,12.81,0,0,0-.15-1.54v-2.14a9.53,9.53,0,0,0-.16-2.61q-.15-.15-1.53,0H717a1,1,0,0,1-.77-.3,2,2,0,0,1-.46-.93,1.61,1.61,0,0,1,.15-1.22c.11-.41.82-.62,2.15-.62h1.69l1.68.16c.62,0,1.64-.05,3.07-.16l1.53-.15h1.38q6.13-.46,15.19-.31h7.82l8,.16H760l1.84.15a11.76,11.76,0,0,0,2.76,0l.3-.31c.1-.2.21-.3.31-.3,1.53-.1,2.35.51,2.46,1.84,0,.41-.06,1.12-.16,2.14l-.15,1.38-.16,1.39a5.58,5.58,0,0,0,0,1.83l.16.77v.77c-.11.41-.21.61-.31.61l-.15.16a.59.59,0,0,0-.16.46l-.15.61.15.61a.93.93,0,0,1-.15.92,1.93,1.93,0,0,1-1.84,0,2.58,2.58,0,0,1-1.38-1.07,9.08,9.08,0,0,1-.46-3.37,19.24,19.24,0,0,1,.31-3.53v-.31l.15-.61c.2-.41.25-.67.15-.77a3.68,3.68,0,0,0-2-.3l-1.23.15h-.61q-9.2-.47-18.86-.46c-.21,0-.72,0-1.54-.16L738.2,531H737c-2-.2-3.22-.1-3.52.31-.21.1-.26.56-.16,1.38v1.07l.16.92q.15,5.67-.16,15.34l-.15,8q-.15,4.6-.15,8.28V567l-.16,1.38c-.1,1.43-.05,2.25.16,2.45s.66.11,1.68,0l1.08-.15h.92c1.63,0,3.52.1,5.67.31,1.53.1,3.38.3,5.52.61A4.12,4.12,0,0,0,748,570.37Zm-25.6-32,.15,4.6c.2,3.79.35,6.8.46,9.05v1.38c0,.61.05.51.15-.31q.47-10.26,1.07-17.17v-2.46q0-1.68-.3-1.83a2,2,0,0,0-.92-.16,2.38,2.38,0,0,0-.92.31,1.62,1.62,0,0,0-.15.92,2.19,2.19,0,0,0,.15.92Zm.45,63.18q0-4.14-.15-6v3.22l-.15,3.38a47.29,47.29,0,0,0,.3,6.13Zm0,18.87c0-2.35-.05-4-.15-4.91v2.61l-.15,2.76a29.66,29.66,0,0,0,.3,5.06Zm3.38-67.48q0,1.53.15,1.38a35.71,35.71,0,0,0,.31-5.52l-.15-2.76v-2.61c-.11,1.84-.16,4.3-.16,7.36A10.44,10.44,0,0,0,726.24,552.89Zm1.69,27.6c0-.61-.06-.71-.16-.3a28.57,28.57,0,0,0-.31,4.75l.16,2.46V590a247.13,247.13,0,0,0,.46,29q.15-7.22,0-18.71l-.15-9.2Z"/><path class="cls-5" d="M835.61,557.19l-2,8.9q-2.29,10.73-3.68,18.24-4.29,21.17-6.59,37.58l-.46,2.76-.46,2.76a29.4,29.4,0,0,0-.61,5.36,7,7,0,0,0,.15,2.46c.1,1.23.25,1.89.46,2a4.46,4.46,0,0,0,1.69.15h1.22c.41.11.77.21,1.08.31l.61.61.61.77a1.94,1.94,0,0,1,0,1.84c-.2.52-1.48.82-3.83.92h-1.38l-1.53.15h-5.37a17.06,17.06,0,0,0-2.61.16l-1.22.15-1.23.16a3.62,3.62,0,0,1-2.15,0c-.31-.11-.56-.47-.76-1.08a2.33,2.33,0,0,1-.16-1.38,1.42,1.42,0,0,1,1.07-1.07l.77-.16a.94.94,0,0,0,.61-.46,7.61,7.61,0,0,0-.61-2.76l-.15-1.07-.31-.92a5.23,5.23,0,0,1-.31-1.23c-.61-2.35-1.22-5.46-1.84-9.35l-.76-4.6-.92-4.6q-.93-4.6-2.61-12.12l-2.61-12a61.48,61.48,0,0,1-1.22-6.13l-.62-3.07-.61-3.07q-2-7.5-4.29-17.79l-4.14-17.79q-.62,17.8-1.08,47.7l-.3,24.38q-.16,14.27-.31,23.93a8.78,8.78,0,0,0,1.69.15l1.53-.31a5.36,5.36,0,0,1,2.76.31,3.91,3.91,0,0,1,1.23,3.83c-.21.41-1.08.72-2.61.92l-2.15.16-2,.15a16.64,16.64,0,0,0-1.84.15l-2.15.31a7.23,7.23,0,0,1-3.07,0c-.41-.1-.76-.56-1.07-1.38a2.34,2.34,0,0,1-.15-1.84,1.36,1.36,0,0,1,.92-.92l.61-.31.61-.15a1.08,1.08,0,0,0,.46-.16l.92-.15a3.61,3.61,0,0,0,1.39-.31,9.1,9.1,0,0,0,0-2.6V632q0-7.21.3-21.78t.31-21.47q0-10.72.3-27.76.32-16.86.31-25V535l.16-1.07a4.43,4.43,0,0,0-.16-1.53c-.1-.21-.51-.31-1.22-.31l-.77-.15-.92-.31a7,7,0,0,1-1.08-.92c-.4-.51-.56-.87-.45-1.07.1-.52,1-.92,2.75-1.23a21.86,21.86,0,0,0,2.3-.15l1.08-.16h.92q9.2-.91,13,.62A5,5,0,0,1,804,531c.41.92-.52,1.28-2.76,1.07q4.14,17,9.66,44l4.45,22.39,4.6,22.24q2.29-18.09,7-41.41l4.14-20.09,2.15-10.12,2.15-10.27.15-.62.15-.76.46-1.69a6.37,6.37,0,0,0,.31-2.3,3.14,3.14,0,0,0-1.38-.15h-1.54l-.76-.77a3.24,3.24,0,0,1-.46-1.07q-.15-2,3.37-2.61a14.08,14.08,0,0,1,3.07-.46l1.53-.15,1.38-.16,8.74-1.53a4.33,4.33,0,0,1,2.92.92,2.31,2.31,0,0,1,1.07,2.61,1.11,1.11,0,0,1-1.38.76h-.77a.89.89,0,0,0-.61.16c-.1.1-.05.51.15,1.22l.16,1.08v.92a218.92,218.92,0,0,1-.62,24.69l-.76,12.42q-.32,7.05-.31,12.57v19.48q0,10.89.15,19,.15,2.14,0,6.28c-.1,2.87-.15,5-.15,6.45l.46,2.6.46.77.77.61a3.23,3.23,0,0,1,.92,1.54,4.21,4.21,0,0,1-.92,1.68,2.46,2.46,0,0,1-2,.16l-1.23-.31-1.08-.16a16.83,16.83,0,0,0-3.22,0c-.92,0-2.14.06-3.68.16a16.57,16.57,0,0,0-1.68.15l-1.84.31a7.4,7.4,0,0,1-2.92-.15c-.51-.31-.82-1.38-.92-3.22.31-.62,1.23-1,2.76-1.23q1.23-.15,1.23-2.76c.1-2.46.15-5.52.15-9.2l-.15-4.3v-4.14q.3-11.8,0-34V566.24q-.15-10,0-17.79Zm-38.34-5.83.15-.15c-.51-2.55-.92-4.91-1.22-7.05-.52-3-.92-5.53-1.23-7.67l-.15-1.23-.16-1.07a5.73,5.73,0,0,0-.46-1.84c-.61-1.13-1.79-1.48-3.53-1.08l1.69,4.76,1.84,4.91q1.84,5.67,3.07,10.12Zm7.21,15.49L803.4,561l-1.22-5.82a52.71,52.71,0,0,0-3.38-10.28l3.68,19.79q2.31,11.81,4,19.62a348.9,348.9,0,0,0,9.35,37.73Q809.23,592.93,804.48,566.85Zm10.58,71,.92-.16h.92q-4.9-16.1-8.13-27.45.62,5.84,2.15,14l1.38,6.9,1.23,6.75A3.78,3.78,0,0,0,815.06,637.86ZM845.58,573l-.31-11.65q-.46-14.26-.15-23.46v-.77l.15-.92v-1.84c.1-1.63,0-2.61-.31-2.91q0-.15-.3,0l-.46.15a102.72,102.72,0,0,0-.16,12.73c.1,1.84.16,3.93.16,6.29l-.16,6.28.16,12.73.3,12.58q.46,15.33-.15,25.15L844.2,615l-.16,7.67q-.15,9.66-.46,14.57a4.17,4.17,0,0,1,2-.15l.92.15h.92L847,624.51l-.46-12.88q-.46-14.57-.77-27.14C845.73,581.42,845.68,577.59,845.58,573Z"/><path d="M679.59,492l-.35-.24c-.27-.24-.41-.41-.39-.51s.11-.25.3-.35a.73.73,0,0,1,.47-.09,1.18,1.18,0,0,1,.47.35l.48.42a6.36,6.36,0,0,0,.69.48l.37.27.35.25q.82.65.66,1a.51.51,0,0,1-.57.34,1.53,1.53,0,0,1-.64-.28l-.51-.44a1.48,1.48,0,0,0-.41-.3s-.11.09-.22.25l-.13.22-.14.16-.42.42-.44.39c-.4.36-.69.64-.9.84l-.14.1-.2.16c-.16.15-.25.25-.24.28s.1.2.35.43a8,8,0,0,0,.67.51c.92.73,1.95,1.6,3.07,2.61l3,2.73q3.94,3.58,6.23,5.39l1.26-1.52,1.2-1.52c1-1.28,1.86-2.31,2.57-3.1l-.25-.22-.31-.22a4,4,0,0,1-.67-.57c-.55-.52-.8-.9-.74-1.14a.79.79,0,0,1,.19-.34c.1-.17.22-.26.33-.26s.22.09.41.29l.23.25.22.2a5.65,5.65,0,0,0,1.43,1.18l.12.05.18,0a.48.48,0,0,1,.34.19c.11.17,0,.42-.33.77l-.2.16-.19.16-.31.29a28.16,28.16,0,0,0-2,2.35l-1,1.3-1,1.26-.71.88-.8.92-1.53,1.9-.25.29-.31.23c-.27.18-.45.15-.54-.08s0-.27.17-.46l.17-.19c.07-.09.1-.16.07-.22a.92.92,0,0,0-.28-.24l-.19-.11-.16-.08c-.69-.56-1.59-1.34-2.7-2.33l-1.37-1.24L682.73,505l-3.76-3.3-3.72-3.28q-4.57-4-7.37-6.38l-.34-.24-.45-.39a2.84,2.84,0,0,0-.56-.43s-.14.11-.28.32l-.19.22a.28.28,0,0,1-.2.1.55.55,0,0,1-.28-.07.4.4,0,0,1-.22-.25c-.07-.09,0-.28.26-.55l.3-.35.33-.33c.11-.12.28-.34.52-.66l.24-.34.25-.29c.67-.9,1.56-2,2.66-3.2l1.4-1.62,1.46-1.62.28-.32.36-.35a2.71,2.71,0,0,0,.49-.58V481c0-.05,0-.09,0-.11.25-.34.53-.4.82-.18l.42.41.25.29.26.27a1.39,1.39,0,0,0,.38.33l.19.11.16.14c.07.09.09.15.07.17v.06a.14.14,0,0,0,.06.11l.1.15.16.07c.1.06.16.12.16.2a.54.54,0,0,1-.33.38.69.69,0,0,1-.47.1,2.65,2.65,0,0,1-.78-.52,5.53,5.53,0,0,1-.68-.69l-.06-.06-.1-.14c0-.11-.09-.17-.13-.17s-.22.13-.42.36l-.19.28-.11.13q-1.74,1.83-3.48,3.82a3.86,3.86,0,0,1-.3.3l-.23.19-.22.25c-.41.39-.6.65-.57.79s.07.15.26.28l.22.19.22.13q1.2,1,3.15,2.79l1.63,1.46c.61.57,1.17,1.07,1.68,1.51l.16.14.26.28c.28.28.46.41.54.41s.14-.12.3-.35l.16-.25.16-.19c.3-.34.66-.71,1.09-1.12s.66-.65,1.11-1A1.44,1.44,0,0,0,679.59,492Zm-11.24-.44,1,.79,2,1.53.29.25c.13.11.11.08,0-.09q-2-1.94-3.36-3.3l-.51-.44c-.23-.2-.38-.29-.44-.27a.57.57,0,0,0-.19.17.55.55,0,0,0-.11.24.49.49,0,0,0,.17.2.47.47,0,0,0,.22.13Zm3.71,1.82c.21.18.32.26.31.21a9.47,9.47,0,0,0-1.09-1.05l-.59-.46-.54-.47c.36.35.86.8,1.49,1.35A2.67,2.67,0,0,0,672.06,493.39Zm6,4.6c-.13-.11-.16-.12-.09,0a8.14,8.14,0,0,0,.93.91l.53.41.54.47a69.11,69.11,0,0,0,6.09,5.1q-1.47-1.32-3.87-3.36l-1.94-1.61Zm3.44,4.81c-.57-.49-1-.84-1.26-1l.67.58.67.64a13.13,13.13,0,0,0,1.32,1Zm3.91,3.39a10.68,10.68,0,0,0-1-.85l.54.46.54.53a9,9,0,0,0,1.1.85Z"/><path d="M703.76,473l-.17-.24-.26-.28q-.27-.37-.39-.39c-.12,0-.35.11-.69.4l-.39.39-.21.15-.14.15-.67.59-.18.18-.2.15c-.18.14-.27.22-.28.26s0,.22.2.48l.16.3.11.23,1,2.23,1,2.17q1.22,2.66,2.23,4.56l.69,1.22.64,1.24c.52.95.94,1.8,1.29,2.55q.11.22.39,1a.83.83,0,0,0,.35-.15l.27-.14a.27.27,0,0,1,.16-.07h.15a.7.7,0,0,1,.29,0c.23.08.34.19.34.33s-.22.31-.67.64l-.25.24-.71.52a2,2,0,0,0-.28.25l-.11.14-.07,0a.58.58,0,0,1-.48,0c-.2-.09-.32-.2-.34-.32s.11-.24.33-.4l.24-.18a.62.62,0,0,0,.1-.22,2.24,2.24,0,0,0-.34-.75l-.31-.49a3.09,3.09,0,0,1-.21-.43q-3.79-7.41-5.78-11.64l-1.32-2.88L697.93,472q-1.57-3.36-2.95-5.9l-.09-.19-.12-.18c-.11-.19-.2-.36-.26-.49l-.09-.19-.1-.29c-.09-.21-.15-.32-.19-.33s-.23.12-.45.38l-.23.33a.7.7,0,0,1-.32.13.41.41,0,0,1-.29-.11.66.66,0,0,1-.26-.28c-.05-.17.11-.44.49-.82l.52-.43c.21-.19.37-.34.46-.44l.36-.37a4.64,4.64,0,0,1,.38-.33,5.7,5.7,0,0,0,.7-.61l.35-.31.35-.3.23-.18.25-.23a1.73,1.73,0,0,1,.44-.32,1.08,1.08,0,0,1,.38.09.63.63,0,0,1,.26.28,1.22,1.22,0,0,1-.07.2,1.38,1.38,0,0,1-.09.23l-.24.17q-.17.12-.18.18a3.15,3.15,0,0,0,.57.63,3.38,3.38,0,0,0,.44.4,3,3,0,0,0,.32.29l1.71,1.56,1.71,1.56q2,1.88,3.39,3.3l.65.67.7.74c.54.61,1,1.08,1.34,1.42l1.36,1.29,1.36,1.3c1.12,1,2,1.94,2.71,2.65.52.56,1.18,1.2,2,1.93l1.05,1,1,.94.16.15.16.14.45.4c.35.34.55.5.61.49a.57.57,0,0,0,.37-.21l.3-.22a.63.63,0,0,1,.55.17.59.59,0,0,1,.2.42c0,.1-.15.29-.48.56l-.88.64c-.2.15-.49.35-.87.59l-1.29.94c-.23.16-.41.23-.54.18-.53-.24-.48-.55.14-.93A153.73,153.73,0,0,1,703.76,473Zm-6.28-8.84-.77-.69-.74-.65c-.05,0-.13,0-.22.05l-.11.14-.11.13a30.91,30.91,0,0,0,3.17,3l1.62,1.37c.62.52,1.16,1,1.61,1.42-.35-.43-.83-1-1.43-1.61l-.74-.8-.77-.85C698.58,465.21,698.07,464.71,697.48,464.17Zm3.43,8.21.68-.49c.39-.28.58-.46.6-.54a1.48,1.48,0,0,0-.3-.41l-.29-.26a1.34,1.34,0,0,1-.21-.21l-1.43-1.4-.8-.66-.79-.73A27.72,27.72,0,0,1,695.6,465c.62,1.14,1.34,2.55,2.14,4.22l1,2.1,1,2.08Zm3.46-2.1q2.24,2.27,6.37,6.16Q707,472.59,704.37,470.28Zm10,10.93L711.51,479l1.26,1.22,1.19,1.21a32.42,32.42,0,0,0,2.5,2.28A7.44,7.44,0,0,0,714.32,481.21Z"/><path d="M731.62,444.26l-.11-.36c-.08-.27-.06-.47.08-.58a.82.82,0,0,1,.44-.14.42.42,0,0,1,.41.1,1.23,1.23,0,0,1,.26.52l.09.33.1.33.22.63.26.62.38.57.39.61c.3.48.42.81.37,1s-.15.21-.41.32a.87.87,0,0,1-.61.07,1,1,0,0,1-.35-.4l-.15-.25-.17-.3-.16-.25-.13-.31a1.79,1.79,0,0,0-.34-.49.87.87,0,0,0-.33-.14l-.24,0-.22-.09-.53-.28-.59-.3a2.46,2.46,0,0,0-1.16-.28,4.55,4.55,0,0,0-.57.05l-.63.13a2.6,2.6,0,0,0-.65.19,5,5,0,0,0-.61.3,1.1,1.1,0,0,0-.37.61c-.07.28-.13.56-.19.86a5.51,5.51,0,0,0,1.43,3.82,13.82,13.82,0,0,0,1.42,1.63l.69.67.36.3.3.29a21.55,21.55,0,0,0,2.11,1.75l1.12.8,1.05.88.25.26.27.21.46.44a20.07,20.07,0,0,1,3.19,2.71,29.53,29.53,0,0,1,1.92,2.38,12.83,12.83,0,0,1,1.52,3.06,5.69,5.69,0,0,1,.07,3.39A6.27,6.27,0,0,1,739.4,473a8,8,0,0,1-4.49,1.57,3.92,3.92,0,0,1-1.67-.39l-.8-.39-.78-.44a.89.89,0,0,0,0,.36l.11.36c.07.31.06.51,0,.6a.75.75,0,0,1-.52.18c-.29,0-.48,0-.56-.13a1.72,1.72,0,0,1-.17-.75l0-.4a1.61,1.61,0,0,1-.06-.34,25.36,25.36,0,0,0-.73-3l-.12-.4-.1-.46a1.6,1.6,0,0,1-.09-.65.53.53,0,0,1,.51-.17.84.84,0,0,1,.54.18,1.13,1.13,0,0,1,.3.61l0,.34.05.12V470l.09.32.08.29a1.34,1.34,0,0,0,.17.52,1.54,1.54,0,0,0,.54.41l.33.23.3.19.33.23.28.24a5,5,0,0,0,.53.37,4.46,4.46,0,0,0,1.44.62,2.46,2.46,0,0,0,1.56,0,2.84,2.84,0,0,0,1.71-1.68,5.11,5.11,0,0,0,.19-1.4,7,7,0,0,0-.13-1.5,16.83,16.83,0,0,0-2.68-6.35l-.5-.74-.48-.8a7.24,7.24,0,0,0-1-1.26,10.34,10.34,0,0,0-1.26-.93l-.74-.46-.69-.44c-.35-.24-.79-.53-1.32-.85l-1.37-.88-1.43-.9q-.88-.58-1.41-1A8.11,8.11,0,0,1,723,451.9a2,2,0,0,1-.25-.58l-.21-.5a4.94,4.94,0,0,1,.8-4,7.55,7.55,0,0,1,2.28-1.83,8.05,8.05,0,0,1,6-.31Zm-7.7,4.44,0-.05-.08,0a3.26,3.26,0,0,0,.27,2.26,4.37,4.37,0,0,0,1.41,1.82A6.87,6.87,0,0,1,723.92,448.7Zm3.44,4.38a12.31,12.31,0,0,0,2,1.56,13.87,13.87,0,0,1-3.11-3.47c-1.08-1.7-1.45-3.18-1.09-4.42a3.14,3.14,0,0,0-.31,1.86,5.71,5.71,0,0,0,.59,2A9.88,9.88,0,0,0,727.36,453.08Zm11.79,13.31a11.27,11.27,0,0,0-1.95-3.19,22,22,0,0,1,1.65,3.36,34.12,34.12,0,0,1,1,3.35A8.6,8.6,0,0,0,739.15,466.39Z"/><path d="M759.29,440.57l1.24,2,1.2,2a65.73,65.73,0,0,1,1.76-9.08,2.36,2.36,0,0,1-.8.09q-.42,0-.48-.3c-.06-.22.3-.51,1.09-.87a6.66,6.66,0,0,1,1.61-.58,1.86,1.86,0,0,1,1.32.24c.39.28.27.51-.35.7l-.24.09-.25,0a.54.54,0,0,0-.37.11c-.1.36-.16.58-.18.67a18.43,18.43,0,0,0-.67,2.25l-.27,1.15-.28,1.12c-.31,1.33-.57,2.69-.78,4.1l-.07.35-.1.4a1.65,1.65,0,0,0-.07.61,2.58,2.58,0,0,0,.17.48l.21.48a34.23,34.23,0,0,1,.91,3.76l1.11,6.42c.16.91.27,1.66.34,2.24s.2,1.3.4,2.32l.2,1.12.16,1.2v.3l0,.25a.45.45,0,0,0,.15.4.44.44,0,0,0,.18.05l.26,0a.86.86,0,0,1,.54.17.57.57,0,0,1,.16.44.5.5,0,0,1,0,.34,1.33,1.33,0,0,1-.31.18,1.82,1.82,0,0,1-.44.17,7.47,7.47,0,0,1-1.8.22l-1,.05c-.42,0-.76,0-1,.05l-.74.13a1.06,1.06,0,0,1-.55,0,.39.39,0,0,1-.19-.31.45.45,0,0,1,0-.34c0-.09.22-.2.54-.31l.17,0,.24-.08c.16,0,.26-.06.28-.1a4.72,4.72,0,0,0-.16-.95l-.1-.32-.06-.33c-.06-.22-.1-.35-.11-.41l-.66-3.08c-.26-1.18-.46-2.18-.61-3-.64-3.7-1.16-6.46-1.56-8.3l-.38-1.21-.06-.33-.1-.33a5.91,5.91,0,0,0-.15-.65,2.19,2.19,0,0,0-.36-.58l-.22-.26-.18-.31-2.24-3.37-.56-.75-.57-.84c-.49-.71-.89-1.27-1.18-1.67a.76.76,0,0,1-.17-.23L753,438a5,5,0,0,0-.38-.49.56.56,0,0,0-.26,0l-.28.09c-.26.13-.45.17-.58.1a1,1,0,0,1-.23-.34.63.63,0,0,1,0-.42c0-.09.41-.2,1.1-.32l1.28-.22.41-.11.44-.16.94-.25.45-.12.52-.18a2,2,0,0,1,.92-.07q.42.14.33.66c-.08.36-.33.49-.74.39C757.38,437.52,758.2,438.86,759.29,440.57Zm-4.77-2.46-.14-.27-.18-.31a.5.5,0,0,0-.43-.31l.34.49.35.54a3.61,3.61,0,0,0,.71.9Zm1.66,1c-.15-.4-.34-.84-.57-1.35l-.14-.31-.19-.31a.4.4,0,0,0-.57-.12l.48.77.48.82q.65,1,1,1.62A9.79,9.79,0,0,0,756.18,439.1Zm5.73,9a2.68,2.68,0,0,0-.16-.95l-.26-.51-.26-.51a26.65,26.65,0,0,0-1.91-3.42l-1.05-1.61a15.77,15.77,0,0,1-1-1.66c.57,1.32,1.36,2.95,2.38,4.87l1.22,2.39,1.22,2.39Zm1.49,16.75,0,.14a.15.15,0,0,0,.2.13c-.2-1-.45-2.32-.75-4.09l-.36-2.07-.41-2.1A68,68,0,0,0,760.2,449q.42,1.67.84,3.9l.39,2,.35,2c.6,3.47,1.14,6.07,1.6,7.78Zm.84-.61c.08.5.21.72.37.66s.16-.11.16-.28a.41.41,0,0,0,0-.25l-.05-.25c-.17-.85-.4-2-.68-3.46l-.62-3.6a39,39,0,0,0-1.75-6.4q.68,2.7,1.4,6.63Z"/><path d="M815.45,444.21l-1,2.3c-.76,1.85-1.38,3.43-1.88,4.74q-2.18,5.5-3.59,9.81l-.26.72-.26.73a8.35,8.35,0,0,0-.42,1.41,2.12,2.12,0,0,0-.08.67c0,.34,0,.53,0,.56s.17.08.45.12l.33.06.27.14.14.19.13.24a.56.56,0,0,1-.09.5q-.12.19-1.08.06l-.37-.07-.42,0-1.45-.26a4.89,4.89,0,0,0-.71-.08l-.34,0-.34,0a1,1,0,0,1-.58-.1.43.43,0,0,1-.15-.33.63.63,0,0,1,0-.38.41.41,0,0,1,.34-.24h.22a.27.27,0,0,0,.19-.1,2.43,2.43,0,0,0,0-.77v-.3l0-.26a1.3,1.3,0,0,1,0-.35c0-.66-.06-1.53,0-2.61l0-1.28,0-1.28q0-1.29-.12-3.39l-.12-3.35a15,15,0,0,1,0-1.72l0-.85,0-.86c-.12-1.42-.21-3.08-.3-5l-.25-5q-1,4.77-2.6,12.81l-1.26,6.56c-.49,2.55-.9,4.7-1.24,6.43a1.84,1.84,0,0,0,.45.12h.42a1.47,1.47,0,0,1,.73.21.74.74,0,0,1,.22.47.77.77,0,0,1-.07.63c-.08.1-.32.14-.75.12l-.59-.06-.54-.06a3.93,3.93,0,0,0-.5-.05l-.6,0a1.76,1.76,0,0,1-.82-.15c-.11-.05-.18-.19-.23-.42a.63.63,0,0,1,0-.5.37.37,0,0,1,.29-.21l.18-.05h.18a.4.4,0,0,0,.13,0h.25c.23,0,.36,0,.39,0a2.76,2.76,0,0,0,.13-.7l.17-1q.36-1.95,1.14-5.86t1.12-5.77c.35-1.93.82-4.42,1.43-7.47s1-5.27,1.29-6.73l0-.29.1-.28a1.13,1.13,0,0,0,0-.42c0-.06-.12-.11-.32-.14l-.2-.08-.23-.13a1.65,1.65,0,0,1-.24-.3c-.09-.15-.12-.26-.08-.31s.32-.2.81-.2a4.29,4.29,0,0,0,.62.07h.3l.25.05a8.52,8.52,0,0,1,3.48.79,1.38,1.38,0,0,1,.68.77c.06.26-.2.32-.8.15q.3,4.8.48,12.34l.11,6.25.17,6.22q1.5-4.77,3.9-10.83l2.09-5.21,1.07-2.63,1.08-2.66.07-.16.08-.2.2-.43a2,2,0,0,0,.2-.61,1,1,0,0,0-.37-.11l-.41-.07-.17-.25a.74.74,0,0,1-.07-.31c0-.36.38-.54,1-.54a4.44,4.44,0,0,1,.85,0l.42,0,.38,0h2.43a1.18,1.18,0,0,1,.74.39.63.63,0,0,1,.17.76.31.31,0,0,1-.41.14l-.21,0a.29.29,0,0,0-.17,0s0,.14,0,.34v.3l0,.25a61.66,61.66,0,0,1-1.36,6.62l-.81,3.32c-.28,1.26-.51,2.38-.69,3.37l-1,5.26q-.52,2.92-.87,5.13c0,.39-.15,1-.31,1.69s-.28,1.35-.35,1.73v.73l.08.23.18.2a.82.82,0,0,1,.17.46,1.45,1.45,0,0,1-.32.41.7.7,0,0,1-.55-.06l-.32-.14-.28-.09a5.52,5.52,0,0,0-.87-.16c-.24,0-.58-.09-1-.13a2.92,2.92,0,0,0-.46,0h-.51a2.16,2.16,0,0,1-.78-.18c-.12-.11-.15-.41-.09-.92.11-.15.38-.21.8-.19.23,0,.38-.22.47-.69.14-.65.31-1.48.48-2.47l.17-1.17.2-1.11q.66-3.18,1.65-9.18l.84-4.68c.29-1.79.58-3.39.86-4.79Zm-10.06-3.43.05,0c0-.72,0-1.37,0-2,0-.82,0-1.53,0-2.12l0-.34V436a2,2,0,0,0,0-.52c-.12-.33-.42-.48-.9-.46l.22,1.37.26,1.41c.15,1.08.26,2,.34,2.88ZM806,465h.26l.25,0c-.37-3.05-.65-5.65-.87-7.8-.07,1.07-.11,2.36-.09,3.87l0,1.93v1.88A1,1,0,0,0,806,465Zm.59-19.66v-1.62l-.05-1.63a15,15,0,0,0-.41-2.93l0,5.51c0,2.2.08,4,.13,5.49a95.79,95.79,0,0,0,.7,10.62Q806.61,452.57,806.59,445.3ZM817.37,449l.48-3.16c.38-2.58.74-4.69,1.1-6.33l0-.21.09-.24.09-.5c.1-.43.13-.7.06-.8s0,0-.09,0H819a27,27,0,0,0-.65,3.43c-.07.5-.15,1.07-.27,1.7l-.34,1.69-.58,3.44-.52,3.41q-.61,4.15-1.26,6.77l-.41,2.06-.42,2.06c-.33,1.73-.61,3-.82,3.91a1.19,1.19,0,0,1,.54.05l.24.09.25,0,.49-3.45.5-3.5q.59-3.95,1.11-7.35C817,451.23,817.18,450.19,817.37,449Z"/><path d="M844.31,457.8l.13-.4c.15-.33.28-.5.38-.52a.44.44,0,0,1,.42.19.71.71,0,0,1,.22.42,1.14,1.14,0,0,1-.2.56l-.26.57a6.39,6.39,0,0,0-.27.8l-.15.44-.14.4c-.26.65-.51.95-.73.91a.52.52,0,0,1-.49-.45,1.39,1.39,0,0,1,.09-.7l.27-.61c.13-.28.19-.44.17-.48s-.11-.08-.3-.14l-.25-.06-.19-.09-.52-.28L842,458l-1.06-.62a.53.53,0,0,1-.14-.1l-.21-.15c-.19-.11-.31-.17-.34-.15s-.17.15-.3.46a7.4,7.4,0,0,0-.31.78c-.44,1.1-1,2.33-1.63,3.7l-1.75,3.67q-2.32,4.81-3.4,7.51l1.82.77,1.79.72c1.52.59,2.75,1.12,3.71,1.59l.14-.31.12-.36a4,4,0,0,1,.36-.8c.34-.68.63-1,.88-1a.74.74,0,0,1,.38.08c.19.06.31.14.35.25s0,.24-.17.48l-.18.29-.12.27a5.37,5.37,0,0,0-.72,1.7l0,.13v.19a.51.51,0,0,1-.08.38c-.13.15-.41.12-.83-.1l-.21-.14-.21-.15-.37-.21c-.74-.39-1.69-.82-2.83-1.28l-1.53-.6-1.49-.58-1-.43-1.11-.5-2.25-.93-.35-.16-.31-.23c-.24-.2-.27-.38-.07-.54s.26-.07.49,0l.23.1c.1.05.17.05.22,0a.8.8,0,0,0,.16-.34l0-.21a.29.29,0,0,1,0-.17c.34-.83.83-1.91,1.47-3.26l.8-1.66.78-1.63,2.1-4.54,2.08-4.5q2.55-5.54,4-8.88a2.76,2.76,0,0,0,.14-.4l.24-.53a2.67,2.67,0,0,0,.26-.67s-.14-.1-.39-.17l-.26-.13a.25.25,0,0,1-.16-.16.51.51,0,0,1,0-.28.41.41,0,0,1,.18-.29q.1-.13.6.09l.42.19.41.23c.15.07.41.17.78.31l.4.13.34.16c1.06.38,2.33.93,3.83,1.64l1.95.88,2,.94.38.17.45.25a2.74,2.74,0,0,0,.69.31l.11,0s.08-.06.11,0c.39.14.53.39.4.73a5.12,5.12,0,0,1-.28.52l-.19.33-.2.33a1.58,1.58,0,0,0-.21.45l0,.21-.09.19c-.07.1-.12.13-.15.12l0,0a.18.18,0,0,0-.09.1l-.11.14,0,.17a.26.26,0,0,1-.14.21.51.51,0,0,1-.46-.21.74.74,0,0,1-.23-.42,2.72,2.72,0,0,1,.27-.89,5.36,5.36,0,0,1,.48-.85l0-.08.11-.13q.15-.12.12-.18c0-.07-.18-.17-.46-.3l-.32-.1-.16-.07q-2.24-1.16-4.65-2.24l-.37-.22-.25-.15-.3-.14c-.49-.29-.8-.39-.92-.33s-.13.12-.19.33l-.12.27-.07.25q-.6,1.42-1.77,3.81l-.94,2c-.37.75-.7,1.44-1,2.05l-.09.19-.19.33q-.29.51-.24.63a1.12,1.12,0,0,0,.42.19l.28.08.23.1q.62.29,1.38.72c.37.2.81.46,1.31.78A1.22,1.22,0,0,0,844.31,457.8Zm-11.92,9.64c.26-.59.43-1,.51-1.25l-.29.66-.35.67a7.91,7.91,0,0,0-.5,1.3Zm2.13-4.71c.31-.69.52-1.19.63-1.51l-.36.8-.42.83a12.58,12.58,0,0,0-.62,1.56Zm3.63-4.67c.07-.16.07-.19,0-.1a8.48,8.48,0,0,0-.62,1.15l-.23.63-.3.65a70.12,70.12,0,0,0-3.16,7.29c.57-1.19,1.28-2.74,2.12-4.67l1-2.31Zm3.39-11.15-.48,1.16c-.38,1-.68,1.74-.91,2.31l-.16.35c-.07.15,0,.13.08-.06.85-1.68,1.58-3.06,2.2-4.17l.28-.61c.13-.28.17-.44.13-.49a.51.51,0,0,0-.21-.14c-.14,0-.23-.05-.26,0s-.09.08-.15.21a.69.69,0,0,0-.06.25Zm-.69,4.07q-.18.38-.12.36a10.16,10.16,0,0,0,.7-1.34l.28-.71.29-.65c-.23.45-.52,1.05-.87,1.82A2.45,2.45,0,0,0,840.85,451Z"/><path d="M869.39,475.59l.18-.23.2-.33c.19-.24.27-.41.26-.48s-.21-.31-.58-.56l-.48-.26-.2-.16-.2-.09-.75-.47-.22-.12-.2-.15a.92.92,0,0,0-.33-.2c-.06,0-.2.1-.4.33l-.24.24-.19.17-1.86,1.6-1.79,1.58c-1.47,1.28-2.72,2.42-3.74,3.44l-1,1-1,1q-1.14,1.14-2.07,1.95c-.13.12-.4.34-.82.65a1.16,1.16,0,0,0,.25.3l.21.21a.26.26,0,0,1,.11.14v.05l0,.09a.92.92,0,0,1,0,.29c0,.24-.08.38-.22.42s-.37-.12-.81-.46l-.29-.17-.7-.54a1.69,1.69,0,0,0-.33-.19l-.16-.07-.06-.05a.63.63,0,0,1-.13-.47.53.53,0,0,1,.22-.42q.14,0,.48.21l.23.18a.5.5,0,0,0,.24,0,2.18,2.18,0,0,0,.62-.53l.39-.45a3.06,3.06,0,0,1,.35-.31q6-5.75,9.52-8.85l2.39-2.09,2.33-2.07q2.79-2.48,4.83-4.51l.16-.14.13-.17.4-.38a.9.9,0,0,1,.16-.14l.24-.18c.18-.15.27-.24.27-.28s-.18-.19-.5-.32l-.37-.13a.66.66,0,0,1-.22-.27.44.44,0,0,1,0-.3.62.62,0,0,1,.2-.33c.14-.1.45,0,.93.23l.56.38c.24.15.42.25.55.32l.45.24a2.68,2.68,0,0,1,.43.27,6,6,0,0,0,.78.49l.39.25.4.25.23.18.29.17a1.88,1.88,0,0,1,.44.33,1,1,0,0,1,0,.39.61.61,0,0,1-.2.32h-.21a.78.78,0,0,1-.24,0l-.24-.18a.53.53,0,0,0-.22-.12,3.37,3.37,0,0,0-.45.72,5.45,5.45,0,0,0-.25.55,2.59,2.59,0,0,0-.19.38l-1,2.08-1,2.09q-1.23,2.43-2.2,4.19l-.46.81-.51.87c-.43.7-.75,1.26-1,1.69l-.85,1.67-.86,1.68c-.7,1.37-1.29,2.48-1.77,3.35a26.29,26.29,0,0,0-1.29,2.45l-.67,1.28-.61,1.28-.1.2-.09.19-.26.54c-.22.43-.32.67-.29.73s.13.19.31.29l.3.23a.67.67,0,0,1,0,.57.56.56,0,0,1-.34.31c-.1,0-.32-.06-.67-.3l-.87-.66c-.2-.15-.47-.38-.81-.67l-1.27-1c-.22-.17-.33-.33-.33-.47.09-.57.4-.61.94-.12A151.26,151.26,0,0,1,869.39,475.59Zm-4.87,12.46,1.32-3.33-.81,1.55-.82,1.49c-.66,1.22-1.15,2.24-1.49,3A7.56,7.56,0,0,0,864.52,488.05Zm4.67-15.37.67.51c.37.29.6.43.68.42s.14-.14.31-.4l.16-.35a1,1,0,0,1,.15-.26l.93-1.77.41-1,.47-1a28.36,28.36,0,0,1,1.77-3.41c-.92.92-2.06,2-3.44,3.24l-1.74,1.52-1.72,1.55Zm3,2.72q-1.56,2.78-4.11,7.86Q870.72,478.57,872.19,475.4Zm3.89-8.34.45-.93.42-.89c0-.07,0-.13-.12-.2l-.16-.07-.15-.07a30.07,30.07,0,0,0-2,3.89l-.85,1.94c-.32.75-.62,1.39-.91,1.95q.48-.69,1.14-1.83l.56-.94.59-1A17.4,17.4,0,0,0,876.08,467.06Z"/><path d="M895,492.21l-2.94,2.25-3,2.27c-.75.59-1.69,1.36-2.82,2.32l-1.4,1.21-1.46,1.2c-1.86,1.53-3.27,2.73-4.21,3.62l-.68.56c-.33.3-.5.49-.5.57s.09.25.3.51l.28.27.16.19c.49.65,1.18,1.48,2.05,2.5l1.1,1.27,1,1.27a7.89,7.89,0,0,1,.59-.54,4.79,4.79,0,0,1,.75-.61c.6-.46,1-.65,1.28-.56a.68.68,0,0,1,.39.27.62.62,0,0,1,.19.5,1.17,1.17,0,0,1-.41.5l-.38.26-.65.53-.3.3a5.4,5.4,0,0,1-.61.45l-.1.08-.16.07a.5.5,0,0,1-.28.12.23.23,0,0,1-.2-.05l-.09,0h-.06a2.45,2.45,0,0,1-.57-.56l-.26-.39-1.17-1.43-1.07-1.23-1-1.21-.93-1.19c-.73-.89-1.43-1.67-2.1-2.36a11,11,0,0,0-1.59-1.41l0-.06,0,0-.2-.17a.31.31,0,0,1-.07-.49.56.56,0,0,1,.61-.12,4.08,4.08,0,0,0,.73.49,2.86,2.86,0,0,0,.64-.47l.65-.54c.61-.49,1.5-1.24,2.67-2.24l1.28-1.16,1.36-1.12c.52-.43,1.16-.94,1.94-1.54l1.06-.76,1.07-.82q2.64-2,4.11-3.33,2.43-2.15,6.68-5.38a3.87,3.87,0,0,1,.38-.26l.45-.31A2.45,2.45,0,0,0,898,485c0-.05,0-.14-.15-.25a1.64,1.64,0,0,0-.34-.27c-.33-.28-.48-.42-.46-.44.47-.31.79-.43,1-.35a1.73,1.73,0,0,1,.71.67l.13.22.16.19a.69.69,0,0,0,.3.24,1.83,1.83,0,0,1,.35.42,4.12,4.12,0,0,0,.56.68l.32.39.38.4c.59.64.86,1.05.8,1.24a.78.78,0,0,1-.23.25.79.79,0,0,1-.29.18c-.16,0-.3-.15-.44-.4l-.2-.38a2.13,2.13,0,0,0-.3-.3A43.57,43.57,0,0,1,895,492.21Zm2.37-5.32-1.8,1.37-1.84,1.4c-1.54,1.23-2.74,2.14-3.62,2.75-.38.29-.86.66-1.42,1.12l-1.37,1.18-2.63,2.22-2.64,2.28c-2.19,1.83-4,3.3-5.42,4.39-.41.3-.59.49-.56.57,0,.25.17.33.36.25l.36-.3.17-.19.2-.22a2.89,2.89,0,0,1,.33-.32.74.74,0,0,1,.31-.15,2.22,2.22,0,0,0,.32-.21,12.87,12.87,0,0,0,1.24-1.07l.62-.57.62-.56A224,224,0,0,1,899,485.91s0-.05,0-.09a4.21,4.21,0,0,0-.76.46l-.42.29ZM885.8,498.14l1.35-1,2.71-2.06a53,53,0,0,0,5-4.41l-2.62,2.05-2.65,2.06q-3.07,2.48-5.14,4.34Z"/></svg>