<?xml version="1.0" encoding="UTF-8" standalone="no"?>
<svg
   xmlns:dc="http://purl.org/dc/elements/1.1/"
   xmlns:cc="http://creativecommons.org/ns#"
   xmlns:rdf="http://www.w3.org/1999/02/22-rdf-syntax-ns#"
   xmlns:svg="http://www.w3.org/2000/svg"
   xmlns="http://www.w3.org/2000/svg"
   xmlns:sodipodi="http://sodipodi.sourceforge.net/DTD/sodipodi-0.dtd"
   xmlns:inkscape="http://www.inkscape.org/namespaces/inkscape"
   id="Слой_1"
   data-name="Слой 1"
   viewBox="0 0 370.05212 382.51935"
   version="1.1"
   sodipodi:docname="logo-333.svg"
   inkscape:version="0.92.5 (2060ec1f9f, 2020-04-08)"
   width="370.05212"
   height="382.51935">
  <metadata
     id="metadata4059">
    <rdf:RDF>
      <cc:Work
         rdf:about="">
        <dc:format>image/svg+xml</dc:format>
        <dc:type
           rdf:resource="http://purl.org/dc/dcmitype/StillImage" />
        <dc:title>Дубровской5</dc:title>
      </cc:Work>
    </rdf:RDF>
  </metadata>
  <sodipodi:namedview
     pagecolor="#ffffff"
     bordercolor="#666666"
     borderopacity="1"
     objecttolerance="10"
     gridtolerance="10"
     guidetolerance="10"
     inkscape:pageopacity="0"
     inkscape:pageshadow="2"
     inkscape:window-width="1920"
     inkscape:window-height="948"
     id="namedview4057"
     showgrid="false"
     inkscape:zoom="0.71296296"
     inkscape:cx="362.33204"
     inkscape:cy="-42.243623"
     inkscape:window-x="0"
     inkscape:window-y="27"
     inkscape:window-maximized="1"
     inkscape:current-layer="Слой_1" />
  <defs
     id="defs3916">
    <style
       id="style3914">.cls-1,.cls-4{fill:#fff;}.cls-1{stroke:#333;}.cls-1,.cls-2,.cls-3,.cls-4{stroke-miterlimit:10;}.cls-1,.cls-3,.cls-4{fill-rule:evenodd;}.cls-2,.cls-3{fill:none;}.cls-2,.cls-3,.cls-4{stroke:#000;}.cls-5{opacity:0.8;}.cls-6{fill:#de4746;}.cls-6,.cls-7,.cls-8{opacity:0.4;}.cls-7{fill:#edd7a3;}.cls-8{fill:#9ca93a;}.cls-9{fill:#333;}</style>
  </defs>
  <title
     id="title3918">Дубровской5</title>
  <g
     class="cls-5"
     id="g3958"
     transform="translate(-123.84978,-300.35391)"
     style="opacity:0.8">
    <path
       class="cls-6"
       d="m 287.43,576.39 c -2.31,1.49 -4.67,3 -7,4.79 -8,6.09 -16.2,11.22 -25.71,14.63 -18.4,6.59 -39.4,6.89 -57.2,-1.75 -7.45,-3.61 -14.36,-8.78 -18.75,-15.81 -6.32,-10.12 -6.74,-22.75 -10.87,-34 -6,-16.31 -20.1,-30.34 -19.6,-47.73 0.48,-16.2 13.84,-29.23 28.19,-36.76 a 99.82,99.82 0 0 1 39.7,-11.19 84.07,84.07 0 0 1 22.6,1.53 c 8.92,1.88 16.77,4.75 26.14,4.5 15.76,-0.42 29,-10.67 44.54,-3.1 8.92,4.34 15.75,12.05 21.42,20.18 4.54,6.51 8.58,13.67 9.54,21.55 1.85,15.17 -7.85,29.07 -17.05,41.27 l -23.7,31.39 c -3.6,4.8 -7.83,7.63 -12.25,10.5 z"
       id="path3952"
       inkscape:connector-curvature="0"
       style="opacity:0.4;fill:#de4746" />
    <path
       class="cls-7"
       d="m 396.6,587.1 c -8.19,22 -27,38.81 -47.91,49.53 -7.54,3.87 -15.6,7.11 -24.05,7.57 -8.08,0.43 -16,-1.68 -24,-2.84 -7.35,-1.06 -14.8,-1.31 -22.15,-2.2 -2.74,-0.33 -5.47,-0.75 -8.17,-1.33 -10,-2.14 -19.94,-6.94 -25.28,-15.61 -6.74,-10.93 -4.46,-25.26 0.73,-37 3.92,-8.86 9.34,-17 13.68,-25.67 a 85,85 0 0 0 3.79,-8.64 c 4.08,-11 5.19,-23.09 9,-34.16 a 52.67,52.67 0 0 1 5.37,-11.34 c 6,-9.42 13.94,-14.06 23.12,-19.75 16.53,-10.26 36,-14.87 53.59,-8.55 a 50,50 0 0 1 16.05,9.51 c 7.16,6.22 12.54,14.23 17,22.58 12.78,23.8 18.63,52.63 9.23,77.9 z"
       id="path3954"
       inkscape:connector-curvature="0"
       style="opacity:0.4;fill:#edd7a3" />
    <path
       class="cls-8"
       d="m 412.13,447.07 c 2.86,21.39 -2.24,43.9 -16.2,60.17 -7.11,8.27 -16,14.76 -24.9,21.11 -6.17,4.42 -12.63,8.94 -20.1,10.26 -11.32,2 -22.89,-3.65 -34.27,-2 -6.41,0.92 -12.49,4.14 -19,3.88 -8.91,-0.35 -16.13,-7.1 -22,-13.77 -5.45,-6.16 -10.66,-12.8 -13.22,-20.6 -3.89,-11.83 2.65,-22.4 2.87,-34.21 0.26,-14.08 1.85,-28.1 2.64,-42.15 0.81,-14.38 5.9,-28.62 21.08,-33.44 13.33,-4.25 28.4,1 41.56,-3.74 5.14,-1.85 9.69,-5.15 14.9,-6.82 8.36,-2.65 17.56,-0.76 25.61,2.73 23.54,10.2 37.7,33.62 41.03,58.58 z"
       id="path3956"
       inkscape:connector-curvature="0"
       style="opacity:0.4;fill:#9ca93a" />
  </g>
  <path
     class="cls-9"
     d="m 105.32022,356.53609 c -0.86,0 -1.94,-0.08 -3.25,-0.18 h -0.25 -0.22 a 0.57,0.57 0 0 0 -0.28,0 c 0,0 -0.07,0.18 -0.07,0.46 v 0.4 0.32 c 0,1.81 0,4.55 0.07,8.22 a 7,7 0 0 1 1.18,0 h 0.61 0.68 0.18 0.21 a 0.7,0.7 0 0 0 0.29,0 0.53,0.53 0 0 0 0.11,-0.25 v -0.36 c 0,-0.33 0.06,-0.54 0.18,-0.61 a 0.61,0.61 0 0 1 0.43,0 c 0.19,0.07 0.29,0.16 0.32,0.25 0.03,0.09 0,0.12 0,0.29 v 0.25 0.28 a 6.1,6.1 0 0 1 -0.07,0.9 c 0,0.09 0,0.26 0,0.5 v 0.54 c 0,0.47 0,0.76 -0.1,0.85 -0.1,0.09 -0.18,0.07 -0.4,0.07 a 0.52,0.52 0 0 1 -0.43,-0.14 1.4,1.4 0 0 1 0,-0.86 v -0.21 -0.22 a 0.47,0.47 0 0 0 0,-0.35 16.67,16.67 0 0 1 -2.29,0 h -0.18 -0.25 c -0.19,0 -0.3,0 -0.32,0 -0.02,0 -0.11,0.23 -0.11,0.64 v 0.43 a 1.59,1.59 0 0 1 0,0.28 q 0.08,2.48 0,6.76 v 1.76 1.71 c 0,1.36 0,2.46 0,3.29 h 0.25 l 0.22,-0.07 a 0.68,0.68 0 0 1 0.43,0.07 0.56,0.56 0 0 1 0.17,0.32 0.7,0.7 0 0 1 0,0.36 c -0.07,0.1 -0.38,0.14 -0.93,0.14 h -0.67 -0.58 a 11,11 0 0 0 -1.139998,0 h -0.64 a 2.59,2.59 0 0 1 -0.51,0 0.53,0.53 0 0 1 -0.17,-0.29 c 0,-0.12 0,-0.2 0,-0.25 0,-0.05 0.14,-0.09 0.36,-0.14 0,0 0.09,0 0.21,0 h 0.22 a 1.58,1.58 0 0 0 0.07,-0.68 v -0.5 -0.4 c 0,-0.57 0,-1.36 -0.07,-2.36 -0.07,-1 -0.07,-1.77 -0.07,-2.25 v -6.26 q 0,-3.65 0.14,-6.26 c 0,-0.88 0,-1.63 0,-2.25 0,-0.91 0,-1.69 0,-2.36 v -0.43 -0.46 a 1.56,1.56 0 0 0 0,-0.68 c 0,0 -0.08,0 -0.18,-0.07 l -0.21,-0.11 c -0.22,-0.07 -0.29,-0.19 -0.22,-0.36 0.07,-0.17 0.22,-0.17 0.57,-0.21 h 0.83 a 32.92,32.92 0 0 1 4.069998,0 l 1,0.07 h 1.07 q 1.22,0 2.22,0 h 0.29 0.28 0.4 v 0 l 0.07,-0.07 0.07,-0.08 a 0.56,0.56 0 0 1 0.33,0 0.44,0.44 0 0 1 0.25,0.29 1.35,1.35 0 0 1 0,0.57 l -0.11,0.36 -0.07,0.35 c 0,0.1 0,0.27 0,0.5 v 0.75 0.15 0.32 c 0,0.26 0,0.43 0,0.5 a 0.62,0.62 0 0 1 -0.29,0 h -0.18 -0.14 a 1.49,1.49 0 0 1 -0.21,-0.78 v -0.54 -0.21 -0.75 a 1.36,1.36 0 0 0 0,-0.5 c -0.89,-0.34 -1.95,-0.4 -3.17,-0.45 z m -5.499998,0.82 v -0.46 c 0,-0.38 -0.06,-0.59 -0.11,-0.61 -0.05,-0.02 -0.17,0 -0.22,0 v 0.07 0.07 a 10.75,10.75 0 0 0 0,1.4 v 0.75 0.78 c 0,1.17 0,2.67 0,4.51 v 2.25 2.11 l 0.07,-1.25 0.07,-1.29 q 0.1,-1.53 0.15,-2.61 c 0.09,-2 0.1,-3.81 0,-5.36 a 3.58,3.58 0 0 0 0.04,-0.36 z m 0,21.67 a 4.33,4.33 0 0 0 -0.11,-0.78 v 0.46 0.43 a 1.94,1.94 0 0 0 0.15,0.82 z m 0.209998,-11 a 35.31,35.31 0 0 0 0,8.4 z"
     id="path3960"
     inkscape:connector-curvature="0"
     style="fill:#333333" />
  <path
     class="cls-9"
     d="m 118.05022,355.49609 0.18,0.11 0.18,0.11 0.32,0.07 h 0.32 a 4.47,4.47 0 0 1 2.72,2.51 18.75,18.75 0 0 1 0.79,2 q 0.32,1.11 0.57,2.07 a 39.76,39.76 0 0 1 0.64,4.11 v 0.36 c 0,0.14 0,0.23 0,0.25 0,0.02 0.11,0.11 0.25,0.18 l 0.18,0.07 0.14,0.11 a 1.11,1.11 0 0 1 0.29,0.53 0.78,0.78 0 0 1 -0.4,0.58 l -0.14,0.1 -0.14,0.08 a 0.4,0.4 0 0 0 -0.18,0.25 1.71,1.71 0 0 0 0,0.46 v 0.47 l -0.21,2.61 -0.11,0.89 -0.07,0.82 c -0.1,0.67 -0.19,1.22 -0.29,1.65 a 11.24,11.24 0 0 1 -1.78,3.86 10.45,10.45 0 0 1 -1.22,1.39 4.88,4.88 0 0 1 -1.68,1 4.41,4.41 0 0 1 -2.11,0 3.69,3.69 0 0 1 -2.47,-1.68 10.81,10.81 0 0 1 -1.14,-2.5 23.92,23.92 0 0 1 -1.4,-9.52 37.07,37.07 0 0 1 0.72,-6.61 11.48,11.48 0 0 1 2.18,-5 4,4 0 0 1 2.68,-1.47 2.42,2.42 0 0 1 1.18,0.14 z m -5.79,16.15 a 21.92,21.92 0 0 0 0.32,2.28 14.32,14.32 0 0 0 1.07,4 c -0.36,-1.57 -0.63,-3 -0.82,-4.18 a 39.13,39.13 0 0 1 -0.54,-4.54 c 0,0 0,0 0,0 a 14.15,14.15 0 0 0 -0.03,2.44 z m 1.25,-7.51 a 23.29,23.29 0 0 0 -0.22,6.11 54.74,54.74 0 0 0 0.86,5.79 80.58,80.58 0 0 1 -0.64,-11.88 z m 1,15.91 a 1.37,1.37 0 0 0 0.5,0.57 2.23,2.23 0 0 1 -0.43,-0.61 l -0.18,-0.35 -0.21,-0.36 a 4.07,4.07 0 0 0 0.36,0.77 z m 0.53,-20.63 a 47.38,47.38 0 0 0 -0.28,12 c 0.14,1.91 0.28,3.36 0.43,4.36 a 15.91,15.91 0 0 0 0.96,3.87 5.54,5.54 0 0 0 0.53,1.11 c 0.31,0.47 0.59,0.72 0.82,0.75 a 1.47,1.47 0 0 0 0.61,-0.08 l 0.29,-0.1 0.29,-0.11 a 4.52,4.52 0 0 0 0.67,-0.43 c 0.19,-0.17 0.37,-0.33 0.54,-0.5 q 2.76,-2.82 3,-11 a 6.73,6.73 0 0 1 -3.71,-0.75 6.26,6.26 0 0 1 -2.58,-2.25 9.93,9.93 0 0 1 -1.53,-6.85 z m 2.51,-2.76 a 4.34,4.34 0 0 0 -1.26,2.15 6.74,6.74 0 0 0 -0.1,3 11.93,11.93 0 0 1 1.4,-5.16 z m 0,3.08 a 10.35,10.35 0 0 0 0.4,5.54 l 0.25,0.64 0.21,0.61 a 2.62,2.62 0 0 0 0.61,0.93 4.44,4.44 0 0 0 1.18,0.79 3,3 0 0 0 1.43,0.43 2.22,2.22 0 0 0 0.71,-0.14 c 0.29,-0.12 0.46,-0.24 0.5,-0.36 a 2.65,2.65 0 0 0 0,-0.72 v -0.46 -0.47 c -0.21,-1.57 -0.47,-3.08 -0.78,-4.54 a 12.7,12.7 0 0 0 -2.08,-4.93 1.18,1.18 0 0 0 -0.21,-0.18 l -0.25,-0.25 c -0.22,-0.19 -0.37,-0.28 -0.47,-0.25 -0.1,0.03 0,0 0,0.07 a 5.58,5.58 0 0 0 -1.43,3.31 z"
     id="path3962"
     inkscape:connector-curvature="0"
     style="fill:#333333" />
  <path
     class="cls-9"
     d="m 134.75022,355.49609 0.18,0.11 0.18,0.11 0.32,0.07 h 0.32 a 4.47,4.47 0 0 1 2.72,2.51 18.75,18.75 0 0 1 0.79,2 q 0.31,1.11 0.57,2.07 c 0.28,1.38 0.5,2.75 0.64,4.11 v 0.36 c 0,0.14 0,0.23 0,0.25 0,0.02 0.1,0.11 0.25,0.18 l 0.18,0.07 0.14,0.11 a 1.11,1.11 0 0 1 0.29,0.53 0.78,0.78 0 0 1 -0.4,0.58 l -0.14,0.1 -0.14,0.08 a 0.4,0.4 0 0 0 -0.18,0.25 1.71,1.71 0 0 0 0,0.46 v 0.47 l -0.21,2.61 -0.11,0.89 -0.07,0.82 c -0.1,0.67 -0.19,1.22 -0.29,1.65 a 11.06,11.06 0 0 1 -1.79,3.86 9.73,9.73 0 0 1 -1.21,1.39 4.88,4.88 0 0 1 -1.68,1 4.41,4.41 0 0 1 -2.11,0 3.69,3.69 0 0 1 -2.47,-1.68 10.4,10.4 0 0 1 -1.14,-2.5 23.74,23.74 0 0 1 -1.4,-9.52 36.14,36.14 0 0 1 0.72,-6.61 11.48,11.48 0 0 1 2.18,-5 4,4 0 0 1 2.68,-1.47 2.42,2.42 0 0 1 1.18,0.14 z m -5.79,16.15 a 19.51,19.51 0 0 0 0.32,2.28 14.32,14.32 0 0 0 1.07,4 c -0.36,-1.57 -0.63,-3 -0.82,-4.18 a 37.07,37.07 0 0 1 -0.54,-4.54 c 0,0 0,0 0,0 a 14.15,14.15 0 0 0 -0.03,2.44 z m 1.25,-7.51 a 22.87,22.87 0 0 0 -0.22,6.11 54.74,54.74 0 0 0 0.86,5.79 80.58,80.58 0 0 1 -0.64,-11.88 z m 1,15.91 a 1.37,1.37 0 0 0 0.5,0.57 2.23,2.23 0 0 1 -0.43,-0.61 l -0.13,-0.36 -0.22,-0.36 a 4.76,4.76 0 0 0 0.32,0.78 z m 0.53,-20.63 a 46.92,46.92 0 0 0 -0.28,12 c 0.14,1.91 0.28,3.36 0.42,4.36 a 16.9,16.9 0 0 0 0.93,3.87 5.62,5.62 0 0 0 0.54,1.11 c 0.31,0.47 0.58,0.72 0.82,0.75 a 1.47,1.47 0 0 0 0.61,-0.08 l 0.29,-0.1 0.28,-0.11 a 4.54,4.54 0 0 0 0.68,-0.43 c 0.19,-0.17 0.37,-0.33 0.54,-0.5 1.83,-1.88 2.84,-5.54 3,-11 a 6.79,6.79 0 0 1 -3.72,-0.75 6.3,6.3 0 0 1 -2.57,-2.25 9.93,9.93 0 0 1 -1.5,-6.85 z m 2.5,-2.76 a 4.41,4.41 0 0 0 -1.25,2.15 6.6,6.6 0 0 0 -0.1,3 12.06,12.06 0 0 1 1.39,-5.16 z m 0,3.08 a 10.35,10.35 0 0 0 0.39,5.54 l 0.25,0.64 0.22,0.61 a 2.62,2.62 0 0 0 0.61,0.93 4.44,4.44 0 0 0 1.18,0.79 3,3 0 0 0 1.43,0.43 2.22,2.22 0 0 0 0.71,-0.14 c 0.29,-0.12 0.46,-0.24 0.5,-0.36 a 2.65,2.65 0 0 0 0,-0.72 v -0.46 -0.47 c -0.21,-1.57 -0.48,-3.08 -0.79,-4.54 a 12.72,12.72 0 0 0 -2.07,-4.93 1.18,1.18 0 0 0 -0.21,-0.18 l -0.25,-0.25 c -0.22,-0.19 -0.37,-0.28 -0.47,-0.25 -0.1,0.03 0,0 0,0.07 a 5.58,5.58 0 0 0 -1.42,3.31 z"
     id="path3964"
     inkscape:connector-curvature="0"
     style="fill:#333333" />
  <path
     class="cls-9"
     d="m 146.87022,355.64609 0.82,0.07 0.79,0.07 a 7.5,7.5 0 0 1 4.72,1.86 9.87,9.87 0 0 1 2.47,4.22 18,18 0 0 1 0.64,6.15 49.89,49.89 0 0 1 -0.68,6.33 c -0.57,3.31 -1.79,5.52 -3.64,6.61 a 7.8,7.8 0 0 1 -2.29,0.83 22.15,22.15 0 0 1 -4.37,0.35 h -0.39 -0.39 q -0.47,0 -0.54,-0.18 v -0.25 a 0.32,0.32 0 0 1 0.18,-0.25 h 0.18 0.18 c 0.14,0 0.23,0 0.28,0 a 2.5,2.5 0 0 0 0,-0.71 v -0.82 q 0,-0.93 0,-2.43 v -1.18 -1.18 c 0,-2.58 0,-4.63 0.07,-6.16 0,-0.71 0,-1.51 0,-2.39 v -2.33 c 0,-1.93 0,-3.49 0.07,-4.68 0,-0.14 0,-0.39 0,-0.75 v -1.25 -0.5 a 1.66,1.66 0 0 0 0,-0.61 c -0.05,-0.07 -0.2,-0.1 -0.46,-0.07 h -0.29 a 0.51,0.51 0 0 1 -0.21,-0.1 0.3,0.3 0 0 1 0,-0.4 0.56,0.56 0 0 1 0.36,-0.18 l 0.54,-0.07 h 0.43 a 7,7 0 0 1 1.53,0 z m -0.72,18 v -5.26 a 89.37,89.37 0 0 0 0,10.62 c 0,-1.48 0,-3.27 0,-5.36 z m 0,-13.09 v -0.64 a 8.64,8.64 0 0 0 -0.11,-1.11 9.16,9.16 0 0 0 0.14,2.36 z m 0.53,-2.18 v -0.4 -0.42 c 0,-0.67 0,-1 -0.08,-1.11 -0.08,-0.11 -0.06,0 -0.1,0 v 0.64 0.68 a 7.5,7.5 0 0 0 0.15,1.25 2,2 0 0 1 0.11,-0.69 z m 0,22 v 0.14 c 0,0.14 0,0.26 -0.07,0.36 0,0.35 0,0.53 0.11,0.53 0.11,0 0.14,-0.08 0.14,-0.32 v -2.29 c 0,-0.64 0,-1.14 0,-1.5 v 0.75 0.72 c 0,0.57 -0.05,1.07 -0.07,1.5 z m 0.25,-15.42 v 2.11 2.15 c 0,1.69 0,3.12 0,4.29 q 0.22,-4.98 0.12,-8.57 z m 0,-1.5 a 6.68,6.68 0 0 0 0,-1 v 0.53 0.54 a 4.33,4.33 0 0 0 0.07,1 z m 4.72,16 0.25,-0.5 0.25,-0.54 a 12.78,12.78 0 0 0 0.54,-2.47 78.69,78.69 0 0 0 0.53,-11.37 l -0.07,-1.47 c 0,-0.54 -0.05,-1 -0.07,-1.43 a 9.2,9.2 0 0 0 -0.5,-2.46 4,4 0 0 0 -2.32,-2.36 5.19,5.19 0 0 0 -1.47,-0.25 l -0.43,-0.08 h -0.39 c -0.29,0 -0.43,0 -0.43,0.14 0,0.64 0,1.65 0.11,3 0.11,1.35 0.07,2.38 0.07,3.07 0,0.69 0,1.69 0,3.08 0,1.39 0,2.43 0,3.14 q 0,7.37 -0.18,12.34 c 1.72,-0.07 2.87,-0.39 3.47,-1 a 3.28,3.28 0 0 0 0.76,-0.87 z m 2.32,-13.59 a 41.53,41.53 0 0 1 -0.1,4.43 l -0.15,2.15 c 0,0.81 -0.07,1.51 -0.07,2.11 a 33.13,33.13 0 0 0 0.44,-8.72 z m 0.83,5.93 -0.25,2 c -0.1,0.83 -0.17,1.47 -0.22,1.93 l 0.15,-0.93 0.14,-1 c 0.09,-0.79 0.18,-1.48 0.25,-2.08 0.19,-1.64 0.31,-3.09 0.36,-4.32 0.12,-3.37 -0.33,-5.89 -1.33,-7.59 a 47.63,47.63 0 0 1 1.25,7.84 31.77,31.77 0 0 1 -0.23,4.12 z"
     id="path3966"
     inkscape:connector-curvature="0"
     style="fill:#333333" />
  <path
     class="cls-9"
     d="m 170.94022,355.64609 0.82,0.07 0.79,0.07 a 7.55,7.55 0 0 1 4.72,1.86 10,10 0 0 1 2.46,4.22 18,18 0 0 1 0.65,6.15 51.81,51.81 0 0 1 -0.68,6.33 c -0.57,3.31 -1.79,5.52 -3.65,6.61 a 7.61,7.61 0 0 1 -2.29,0.83 22,22 0 0 1 -4.36,0.35 h -0.39 -0.4 c -0.31,0 -0.49,-0.06 -0.53,-0.18 v -0.25 a 0.32,0.32 0 0 1 0.18,-0.25 h 0.17 0.18 c 0.15,0 0.24,0 0.29,0 a 3.52,3.52 0 0 0 0,-0.71 v -0.82 q 0,-0.93 0,-2.43 v -1.18 -1.18 q 0,-3.87 0.07,-6.16 c 0,-0.71 0,-1.51 0,-2.39 v -2.33 c 0,-1.93 0,-3.49 0.07,-4.68 q 0,-0.21 0,-0.75 v -1.25 -0.5 a 2.47,2.47 0 0 0 0,-0.61 c -0.05,-0.07 -0.2,-0.1 -0.47,-0.07 h -0.28 a 0.5,0.5 0 0 1 -0.22,-0.1 0.29,0.29 0 0 1 0,-0.4 0.56,0.56 0 0 1 0.36,-0.18 l 0.53,-0.07 h 0.43 a 7.1,7.1 0 0 1 1.55,0 z m -0.68,18 v -5.26 a 85.32,85.32 0 0 0 0,10.62 c -0.03,-1.48 -0.03,-3.27 0,-5.36 z m 0,-13.09 v -0.64 a 9.08,9.08 0 0 0 -0.1,-1.11 9.16,9.16 0 0 0 0.14,2.36 z m 0.54,-2.18 v -0.4 -0.42 c 0.05,-0.67 0,-1 -0.07,-1.11 -0.07,-0.11 -0.06,0 -0.11,0 v 0.64 0.68 a 7.63,7.63 0 0 0 0.14,1.25 2.09,2.09 0 0 1 0.07,-0.69 z m 0,22 v 0.14 c 0,0.14 -0.05,0.26 -0.08,0.36 0,0.35 0,0.53 0.11,0.53 0.11,0 0.14,-0.08 0.14,-0.32 v -2.29 q 0,-1 0,-1.5 v 0.75 0.72 c 0,0.57 0,1.07 -0.07,1.5 z m 0.25,-15.42 v 2.11 2.15 c 0,1.69 0,3.12 0,4.29 q 0.18,-4.98 0.1,-8.57 z m 0,-1.5 a 8.67,8.67 0 0 0 0,-1 v 0.53 0.54 a 4.18,4.18 0 0 0 0.08,1 z m 4.72,16 0.25,-0.5 0.25,-0.54 a 12.89,12.89 0 0 0 0.53,-2.47 77.41,77.41 0 0 0 0.54,-11.37 l -0.07,-1.47 c 0,-0.54 -0.05,-1 -0.07,-1.43 a 10.06,10.06 0 0 0 -0.5,-2.46 4,4 0 0 0 -2.33,-2.36 5.18,5.18 0 0 0 -1.46,-0.25 l -0.43,-0.08 h -0.4 c -0.28,0 -0.43,0 -0.43,0.14 0,0.64 0,1.65 0.11,3 0.11,1.35 0.07,2.38 0.07,3.07 0,0.69 0,1.69 0,3.08 0,1.39 0,2.43 0,3.14 q 0,7.37 -0.17,12.34 c 1.71,-0.07 2.87,-0.39 3.46,-1 a 3.27,3.27 0 0 0 0.72,-0.87 z m 2.38,-13.62 a 41.91,41.91 0 0 1 -0.11,4.43 l -0.14,2.15 c -0.05,0.81 -0.07,1.51 -0.07,2.11 a 33.13,33.13 0 0 0 0.32,-8.69 z m 0.82,5.93 -0.25,2 -0.21,1.93 0.14,-0.93 0.14,-1 c 0.1,-0.79 0.18,-1.48 0.26,-2.08 0.19,-1.64 0.3,-3.09 0.35,-4.32 0.12,-3.37 -0.32,-5.89 -1.32,-7.59 a 48.66,48.66 0 0 1 1.07,7.87 28.58,28.58 0 0 1 -0.17,4.12 z"
     id="path3968"
     inkscape:connector-curvature="0"
     style="fill:#333333" />
  <path
     class="cls-9"
     d="m 192.46022,365.40609 v -0.36 c 0,-0.31 0,-0.49 0.1,-0.54 a 0.4,0.4 0 0 1 0.4,0 0.73,0.73 0 0 1 0.32,0.25 1,1 0 0 1 0,0.51 v 0.53 a 6.06,6.06 0 0 0 0.08,0.72 v 0.39 0.36 c 0,0.59 -0.06,0.92 -0.25,1 a 0.44,0.44 0 0 1 -0.54,-0.18 1.37,1.37 0 0 1 -0.18,-0.57 v -0.57 a 1.41,1.41 0 0 0 0,-0.43 0.62,0.62 0 0 0 -0.29,0 h -0.21 -0.18 -0.5 l -0.5,-0.07 -1,-0.11 h -0.14 -0.22 a 0.73,0.73 0 0 0 -0.32,0 c -0.05,0 -0.07,0.18 -0.07,0.47 0,0.29 0,0.5 0,0.71 0.05,1 0.06,2.15 0,3.43 l -0.07,3.47 q -0.1,4.55 0,7 h 1.68 l 1.64,-0.08 c 1.39,-0.07 2.53,-0.09 3.44,-0.07 v -0.28 -0.33 a 4.68,4.68 0 0 1 0,-0.75 c 0,-0.64 0.13,-1 0.32,-1.1 a 0.56,0.56 0 0 1 0.32,-0.08 0.39,0.39 0 0 1 0.36,0.08 c 0.05,0 0.06,0.19 0,0.42 v 0.29 0.13 a 4.45,4.45 0 0 0 0,1.57 v 0.11 l 0.07,0.14 a 0.43,0.43 0 0 1 0.08,0.33 c -0.05,0.16 -0.28,0.23 -0.68,0.21 h -0.22 -0.21 -0.36 c -0.72,0 -1.6,0 -2.65,0 l -1.39,0.08 -1.36,0.07 h -1 -1 l -2.08,0.07 h -0.32 a 2.21,2.21 0 0 1 -0.32,-0.07 c -0.26,-0.07 -0.35,-0.2 -0.25,-0.39 0.1,-0.19 0.18,-0.14 0.39,-0.14 h 0.22 a 0.19,0.19 0 0 0 0.18,-0.08 0.78,0.78 0 0 0 0,-0.32 v -0.18 a 1.19,1.19 0 0 1 0,-0.14 c 0,-0.76 0,-1.77 0,-3 v -1.57 -1.54 -4.26 -4.22 c 0,-3.45 0,-6.22 0,-8.29 a 2.23,2.23 0 0 0 0,-0.36 v -0.5 a 2.74,2.74 0 0 0 0,-0.61 0.94,0.94 0 0 0 -0.36,0 h -0.25 a 0.24,0.24 0 0 1 -0.18,-0.07 0.52,0.52 0 0 1 -0.11,-0.21 0.39,0.39 0 0 1 0,-0.29 c 0,-0.09 0.19,-0.14 0.5,-0.14 h 0.39 0.4 0.71 0.36 0.32 c 1,-0.07 2.13,-0.09 3.54,-0.07 h 1.82 1.86 0.36 0.43 a 2.11,2.11 0 0 0 0.64,0 l 0.08,-0.07 c 0,-0.05 0,-0.07 0.07,-0.07 0.35,0 0.55,0.12 0.57,0.43 a 4.44,4.44 0 0 1 0,0.5 v 0.32 0.32 a 1.54,1.54 0 0 0 0,0.43 v 0.18 0.18 c 0,0.09 -0.05,0.14 -0.07,0.14 v 0 a 0.15,0.15 0 0 0 0,0.1 v 0.15 0.14 a 0.2,0.2 0 0 1 0,0.22 0.46,0.46 0 0 1 -0.43,0 0.63,0.63 0 0 1 -0.32,-0.26 2.08,2.08 0 0 1 -0.11,-0.78 4.32,4.32 0 0 1 0.07,-0.82 v -0.08 -0.14 q 0.08,-0.13 0,-0.18 c 0,0 -0.2,-0.07 -0.46,-0.07 h -0.29 -0.14 c -1.43,-0.07 -2.9,-0.11 -4.4,-0.11 h -0.36 -0.25 -0.28 c -0.48,-0.05 -0.75,0 -0.83,0.07 -0.08,0.07 -0.06,0.13 0,0.32 v 0.25 0.22 q 0,1.32 0,3.57 v 1.86 c 0,0.72 0,1.36 0,1.93 v 0.12 0.32 c 0,0.34 0,0.53 0,0.58 a 1.05,1.05 0 0 0 0.39,0 h 0.25 0.22 c 0.38,0 0.82,0 1.32,0.07 0.5,0.07 0.79,0.07 1.29,0.14 a 1,1 0 0 0 -0.04,-0.35 z m -6,-7.48 v 1.08 c 0,0.88 0.08,1.58 0.1,2.11 v 0.32 c 0,0.14 0,0.12 0,-0.07 0.07,-1.6 0.15,-2.94 0.25,-4 v -0.57 c 0,-0.26 0,-0.41 -0.07,-0.43 a 0.61,0.61 0 0 0 -0.22,0 c -0.12,0 -0.19,0 -0.21,0.07 -0.02,0.07 0,0.09 0,0.21 a 0.43,0.43 0 0 0 0,0.22 z m 0.11,14.74 c 0,-0.65 0,-1.11 0,-1.4 v 0.75 0.79 a 10.43,10.43 0 0 0 0.07,1.43 z m 0,4.4 c 0,-0.55 0,-0.93 0,-1.15 v 0.61 0.64 a 6.51,6.51 0 0 0 0.07,1.18 z m 0.78,-15.74 c 0,0.24 0,0.35 0,0.32 a 8.11,8.11 0 0 0 0.07,-1.28 v -0.65 -0.61 c 0,0.43 0,1 0,1.72 a 2.59,2.59 0 0 0 -0.04,0.5 z m 0.4,6.44 c 0,-0.14 0,-0.17 0,-0.07 a 6.34,6.34 0 0 0 -0.07,1.11 v 0.57 0.61 a 58.25,58.25 0 0 0 0.1,6.75 c 0,-1.12 0,-2.57 0,-4.36 v -2.14 z"
     id="path3970"
     inkscape:connector-curvature="0"
     style="fill:#333333" />
  <path
     class="cls-9"
     d="m 206.15022,362.36609 -0.11,3.15 -0.1,3.18 c 0,0.81 0,1.85 0,3.11 v 1.57 1.61 c 0,2 0,3.63 0.11,4.72 v 0.75 a 1.5,1.5 0 0 0 0.11,0.65 c 0,0 0.21,0.07 0.5,0.07 h 0.32 0.21 q 1,0 2.76,0 h 1.43 1.39 c 0,-0.22 0,-0.44 0,-0.68 a 3.73,3.73 0 0 1 0,-0.82 c 0,-0.65 0.13,-1 0.32,-1.15 a 0.55,0.55 0 0 1 0.39,-0.11 0.49,0.49 0 0 1 0.43,0.15 0.93,0.93 0 0 1 0.11,0.53 v 0.4 0.71 0.36 a 3.13,3.13 0 0 1 0,0.64 v 0.11 0.14 a 0.49,0.49 0 0 1 -0.07,0.25 0.25,0.25 0 0 1 -0.15,0.11 h -0.07 v 0 a 1.83,1.83 0 0 1 -0.67,0.07 h -0.4 -1.57 -1.4 -1.32 -1.29 c -1,0 -1.87,0 -2.68,0.11 a 9.08,9.08 0 0 0 -1.79,0.28 h -0.07 v 0 h -0.21 a 0.26,0.26 0 0 1 -0.36,-0.21 0.47,0.47 0 0 1 0.18,-0.42 7.07,7.07 0 0 0 0.72,-0.21 3.25,3.25 0 0 0 0,-0.68 v -0.72 c 0,-0.66 0,-1.65 0,-3 l -0.08,-1.47 v -1.5 c 0,-0.57 0,-1.28 0,-2.11 l 0.07,-1.11 v -1.14 c 0.07,-1.89 0.08,-3.39 0,-4.51 q -0.1,-2.76 0.07,-7.3 c 0,-0.09 0,-0.22 0,-0.39 v -0.46 a 2.42,2.42 0 0 0 0,-0.58 c 0,0 -0.11,-0.06 -0.25,0 a 1.29,1.29 0 0 0 -0.36,0.07 c -0.36,0.07 -0.54,0.1 -0.54,0.07 0.05,-0.48 0.14,-0.75 0.29,-0.82 a 1.43,1.43 0 0 1 0.82,-0.11 h 0.21 0.22 a 0.66,0.66 0 0 0 0.32,-0.07 1.09,1.09 0 0 1 0.47,0 4.54,4.54 0 0 0 0.75,0 h 0.43 0.46 c 0.74,-0.05 1.16,0 1.25,0.14 a 0.66,0.66 0 0 1 0,0.29 c 0,0.17 0,0.26 0,0.29 a 0.58,0.58 0 0 1 -0.5,0.07 l -0.36,-0.07 a 2,2 0 0 0 -0.35,0 38.53,38.53 0 0 1 0.36,6.04 z m -2.22,-4.44 -0.07,1.94 -0.07,2 c 0,1.67 -0.07,3 -0.14,3.86 0,0.41 0,0.92 0,1.54 v 1.54 2.93 l 0.07,3 q 0,3.65 0,5.94 c 0,0.43 0,0.65 0.07,0.68 0.07,0.03 0.31,0.06 0.36,-0.11 v -0.39 -0.22 -0.25 a 2.75,2.75 0 0 1 0,-0.39 0.79,0.79 0 0 1 0,-0.35 1.33,1.33 0 0 0 0,-0.32 10.13,10.13 0 0 0 0,-1.4 v -0.71 -0.72 a 191,191 0 0 1 0.11,-20.13 c 0,0 0,0 -0.07,0 a 3.34,3.34 0 0 0 -0.11,0.75 v 0.43 z m 1.22,13.72 0.07,-1.43 0.11,-2.9 a 49,49 0 0 0 -0.18,-5.67 l -0.07,2.82 -0.07,2.86 c 0,2.24 0,4.15 0.07,5.73 z"
     id="path3972"
     inkscape:connector-curvature="0"
     style="fill:#333333" />
  <path
     class="cls-9"
     d="m 221.57022,362.29609 v 1.57 l -0.07,1.61 c -0.05,1.36 -0.09,2.43 -0.11,3.22 -0.02,0.79 0,1.89 0,3.18 v 1.57 1.61 a 32.73,32.73 0 0 0 0.32,5.33 v 0.18 0.22 c 0,0.16 0.05,0.25 0.07,0.25 a 0.22,0.22 0 0 0 0.14,0 h 0.25 a 0.86,0.86 0 0 1 0.4,0.07 0.42,0.42 0 0 1 0.14,0.29 0.52,0.52 0 0 1 -0.07,0.29 c -0.05,0.07 -0.25,0.1 -0.61,0.1 h -0.78 a 12.88,12.88 0 0 0 -3.37,0.36 h -0.14 -0.18 c -0.14,0 -0.23,0 -0.25,0 a 0.31,0.31 0 0 1 -0.07,-0.36 0.69,0.69 0 0 1 0.21,-0.32 l 0.18,-0.07 h 0.22 c 0.19,0 0.3,0 0.32,-0.1 a 0.47,0.47 0 0 0 0,-0.25 v -0.22 -3.43 c 0,-1.53 0,-2.67 0,-3.43 0,-0.76 0,-1.61 0.07,-2.9 0.07,-1.29 0.07,-2.28 0.07,-3 v -0.75 -0.75 q 0,-0.93 0,-1.5 c -0.07,-1.81 -0.05,-4.25 0.07,-7.3 a 3.61,3.61 0 0 1 0,-0.39 v -0.47 a 2.24,2.24 0 0 0 0,-0.57 c 0,0 -0.12,0 -0.29,0 h -0.21 -0.18 c -0.29,0 -0.43,-0.11 -0.43,-0.32 0,-0.21 0.16,-0.37 0.47,-0.47 a 5.48,5.48 0 0 1 1.5,-0.11 h 1.5 0.43 0.54 c 0.42,0 0.67,0.05 0.75,0.14 a 0.47,0.47 0 0 1 0.07,0.29 0.43,0.43 0 0 1 -0.07,0.28 c -0.08,0.08 -0.24,0.1 -0.5,0.08 l -0.36,-0.08 a 2.2,2.2 0 0 0 -0.36,0 36.91,36.91 0 0 1 0.33,6.15 z m -2.22,-4.44 -0.07,2 -0.07,1.93 c 0,1.67 -0.08,3 -0.15,3.86 0,0.41 0,0.92 0,1.54 v 1.54 2.93 l 0.07,3 q 0,3.64 0,5.93 c 0,0.43 0,0.66 0.08,0.68 0.08,0.02 0.3,0.06 0.35,-0.1 v -0.4 -0.21 -0.22 q 0,-0.28 0,-0.42 a 0.75,0.75 0 0 1 0.07,-0.29 2,2 0 0 0 0,-0.32 9.89,9.89 0 0 0 0,-1.4 v -0.71 -0.72 a 191.27,191.27 0 0 1 0.1,-20.13 c 0,0 0,0 -0.07,0 a 4.36,4.36 0 0 0 -0.11,0.75 v 0.43 z m 1.14,13.7 0.07,-1.43 0.11,-2.9 a 44.83,44.83 0 0 0 -0.18,-5.68 l -0.07,2.86 v 2.86 c -0.05,2.21 0,4.11 0,5.68 z"
     id="path3974"
     inkscape:connector-curvature="0"
     style="fill:#333333" />
  <path
     class="cls-9"
     d="m 232.08022,367.72609 0.39,2.79 0.39,2.83 c 0.31,2.17 0.6,4 0.86,5.54 l 0.4,-2.86 0.35,-2.9 q 0.46,-3.68 0.83,-5.79 1.07,-6.36 1.86,-9.62 c 0,-0.07 0,-0.18 0.07,-0.32 l 0.14,-0.43 a 1.74,1.74 0 0 0 0.11,-0.54 c 0,0 -0.18,-0.07 -0.47,-0.07 h -0.28 a 0.41,0.41 0 0 1 -0.22,0 0.5,0.5 0 0 1 -0.11,-0.22 0.84,0.84 0 0 1 0,-0.32 c 0.08,-0.21 0.42,-0.33 1,-0.35 a 4.77,4.77 0 0 1 0.75,0 h 0.68 0.29 0.32 c 0.24,0 0.39,0.06 0.46,0.18 a 0.73,0.73 0 0 1 0.08,0.29 0.62,0.62 0 0 1 0,0.28 c -0.08,0.15 -0.35,0.21 -0.83,0.18 h -0.53 a 0.71,0.71 0 0 0 -0.43,0.11 c -0.05,0 -0.11,0.25 -0.18,0.68 a 4.68,4.68 0 0 1 -0.11,0.5 v 0.18 0.14 q -1.75,8.64 -3.43,21.56 c 0,0.09 0,0.24 0,0.43 l -0.11,0.5 a 2.69,2.69 0 0 0 0,0.68 c 0.05,0.07 0.27,0.11 0.65,0.11 a 1,1 0 0 1 0.43,0 0.44,0.44 0 0 1 0.32,0.1 0.42,0.42 0 0 1 0.07,0.15 l 0.07,0.18 a 0.45,0.45 0 0 1 -0.07,0.39 1.17,1.17 0 0 1 -0.57,0.07 4.67,4.67 0 0 1 -0.75,0 38.15,38.15 0 0 0 -3.9,0 h -0.22 l -0.25,0.07 a 0.88,0.88 0 0 1 -0.39,0 c -0.09,-0.05 -0.14,-0.17 -0.14,-0.36 a 0.82,0.82 0 0 1 0.07,-0.39 q 0.1,-0.15 0.54,-0.18 h 0.32 c 0.09,0 0.15,0 0.18,-0.07 0.03,-0.07 0,-0.09 0,-0.18 l -0.07,-0.14 v -0.18 a 0.22,0.22 0 0 1 0.08,-0.15 0.7,0.7 0 0 0 0,-0.14 2.94,2.94 0 0 0 -0.11,-0.68 l -0.1,-0.36 -0.11,-0.39 c -0.33,-1.91 -0.57,-3.38 -0.72,-4.43 l -0.17,-1.51 -0.18,-1.53 c -0.15,-1.24 -0.28,-2.28 -0.4,-3.11 l -0.39,-2.62 -0.36,-2.57 c -0.31,-2.07 -0.59,-3.81 -0.86,-5.22 0,-0.07 0,-0.19 -0.07,-0.36 l -0.07,-0.46 a 3.34,3.34 0 0 0 -0.14,-0.61 c -0.07,-0.07 -0.22,-0.08 -0.43,0 l -0.22,0.11 a 0.24,0.24 0 0 1 -0.17,0 c -0.08,0 -0.11,-0.15 -0.11,-0.32 a 0.55,0.55 0 0 1 0,-0.36 c 0.1,-0.19 0.46,-0.3 1.08,-0.32 a 4.63,4.63 0 0 1 0.75,0 h 2.89 a 0.87,0.87 0 0 1 0.54,0.11 q 0.15,0.06 0.18,0.39 a 0.73,0.73 0 0 1 -0.07,0.39 c -0.07,0.1 -0.23,0.13 -0.47,0.11 h -0.35 a 2.2,2.2 0 0 0 -0.36,0 q 0.84,4.15 1.77,11.01 z m -2.47,1.18 c -0.12,-0.71 -0.24,-1.61 -0.36,-2.68 l -0.14,-1.43 -0.18,-1.5 q -0.43,-3.87 -0.75,-5.83 v -0.22 -0.17 a 1.12,1.12 0 0 0 0,-0.29 c -0.07,-0.14 -0.25,-0.18 -0.54,-0.11 q 0.54,2.29 1.11,6 l 0.47,3.08 c 0.16,1.21 0.32,2.23 0.46,3 z m 0,-6.93 a 25.07,25.07 0 0 0 -0.21,-3.37 l -0.07,-0.53 v -0.57 c 0,-0.41 0,-0.66 0.18,-0.76 h -0.32 -0.32 z m 1.86,18.81 v 0.21 c 0.05,0.14 0.12,0.23 0.22,0.25 q -0.28,-2.07 -0.93,-5.72 l -0.5,-2.86 -0.47,-2.9 a 88.93,88.93 0 0 0 1.61,10.88 z m 0.75,-1.86 0.08,0.32 0.1,0.71 a 2.41,2.41 0 0 1 -0.07,1.25 h 0.54 c -0.26,-1.14 -0.56,-2.68 -0.9,-4.61 l -0.39,-2.36 -0.43,-2.36 c 0.1,0.95 0.25,2.09 0.47,3.4 l 0.25,1.68 0.28,1.69 z"
     id="path3976"
     inkscape:connector-curvature="0"
     style="fill:#333333" />
  <path
     class="cls-9"
     d="m 250.49022,365.40609 v -0.36 c 0,-0.31 0,-0.49 0.1,-0.54 a 0.4,0.4 0 0 1 0.4,0 0.73,0.73 0 0 1 0.32,0.25 1,1 0 0 1 0,0.51 v 0.53 a 6.06,6.06 0 0 0 0.08,0.72 v 0.39 0.36 c 0,0.59 -0.06,0.92 -0.25,1 a 0.44,0.44 0 0 1 -0.54,-0.18 1.37,1.37 0 0 1 -0.18,-0.57 v -0.57 a 1.41,1.41 0 0 0 0,-0.43 0.62,0.62 0 0 0 -0.29,0 h -0.21 -0.18 -0.5 l -0.5,-0.07 -1,-0.11 h -0.14 -0.22 a 0.73,0.73 0 0 0 -0.32,0 c -0.05,0 -0.07,0.18 -0.07,0.47 0,0.29 0,0.5 0,0.71 0.05,1 0.06,2.15 0,3.43 l -0.07,3.47 q -0.1,4.55 0,7 h 1.68 l 1.64,-0.08 c 1.39,-0.07 2.53,-0.09 3.44,-0.07 v -0.28 -0.33 a 4.68,4.68 0 0 1 0,-0.75 c 0,-0.64 0.13,-1 0.32,-1.1 a 0.56,0.56 0 0 1 0.32,-0.08 0.39,0.39 0 0 1 0.36,0.08 c 0.05,0 0.06,0.19 0,0.42 v 0.29 0.13 a 4.45,4.45 0 0 0 0,1.57 v 0.11 l 0.07,0.14 a 0.43,0.43 0 0 1 0.08,0.33 c 0,0.16 -0.28,0.23 -0.68,0.21 h -0.22 -0.21 -0.36 c -0.72,0 -1.6,0 -2.65,0 l -1.39,0.08 -1.36,0.07 h -1 -1 l -2.08,0.07 h -0.32 l -0.32,-0.07 c -0.26,-0.07 -0.35,-0.2 -0.25,-0.39 0.1,-0.19 0.18,-0.14 0.39,-0.14 h 0.22 a 0.19,0.19 0 0 0 0.18,-0.08 0.78,0.78 0 0 0 0,-0.32 v -0.18 a 1.19,1.19 0 0 1 0,-0.14 c 0,-0.76 0,-1.77 0,-3 v -1.57 -1.54 -4.26 -4.22 c 0,-3.45 0,-6.22 0,-8.29 a 2.23,2.23 0 0 0 0,-0.36 v -0.5 a 2.74,2.74 0 0 0 0,-0.61 0.94,0.94 0 0 0 -0.36,0 h -0.25 a 0.24,0.24 0 0 1 -0.18,-0.07 0.52,0.52 0 0 1 -0.11,-0.21 0.39,0.39 0 0 1 0,-0.29 c 0,-0.09 0.19,-0.14 0.5,-0.14 h 0.39 0.4 0.71 0.36 0.32 c 0.95,-0.07 2.13,-0.09 3.54,-0.07 h 1.82 1.86 0.36 0.43 a 2.11,2.11 0 0 0 0.64,0 l 0.08,-0.07 c 0,-0.05 0,-0.07 0.07,-0.07 0.35,0 0.55,0.12 0.57,0.43 a 4.44,4.44 0 0 1 0,0.5 v 0.32 0.32 a 1.54,1.54 0 0 0 0,0.43 v 0.18 0.18 c 0,0.09 -0.05,0.14 -0.07,0.14 v 0 a 0.15,0.15 0 0 0 0,0.1 v 0.15 0.14 a 0.2,0.2 0 0 1 0,0.22 0.46,0.46 0 0 1 -0.43,0 0.63,0.63 0 0 1 -0.32,-0.26 2.08,2.08 0 0 1 -0.11,-0.78 4.32,4.32 0 0 1 0.07,-0.82 v -0.08 -0.14 q 0.07,-0.13 0,-0.18 c 0,0 -0.2,-0.07 -0.46,-0.07 h -0.29 -0.14 c -1.43,-0.07 -2.9,-0.11 -4.4,-0.11 h -0.36 -0.25 -0.28 c -0.48,-0.05 -0.75,0 -0.83,0.07 -0.08,0.07 -0.05,0.13 0,0.32 v 0.25 0.22 q 0,1.32 0,3.57 v 1.86 c 0,0.72 0,1.36 0,1.93 v 0.12 0.32 c 0,0.34 0,0.53 0,0.58 a 1.05,1.05 0 0 0 0.39,0 h 0.25 0.22 c 0.38,0 0.82,0 1.32,0.07 0.5,0.07 0.79,0.07 1.29,0.14 a 1,1 0 0 0 -0.04,-0.35 z m -6,-7.48 v 1.08 c 0,0.88 0.08,1.58 0.1,2.11 v 0.32 c 0,0.14 0,0.12 0,-0.07 0.07,-1.6 0.15,-2.94 0.25,-4 v -0.57 c 0,-0.26 0,-0.41 -0.07,-0.43 a 0.61,0.61 0 0 0 -0.22,0 c -0.12,0 -0.19,0 -0.21,0.07 -0.02,0.07 0,0.09 0,0.21 a 0.43,0.43 0 0 0 0,0.22 z m 0.11,14.74 c 0,-0.65 0,-1.11 0,-1.4 v 0.75 0.79 a 10.43,10.43 0 0 0 0.07,1.43 z m 0,4.4 c 0,-0.55 0,-0.93 0,-1.15 v 0.61 0.64 a 6.51,6.51 0 0 0 0.07,1.18 z m 0.78,-15.74 c 0,0.24 0,0.35 0,0.32 a 8.11,8.11 0 0 0 0.07,-1.28 v -0.65 -0.61 c 0,0.43 0,1 0,1.72 a 2.59,2.59 0 0 0 -0.04,0.5 z m 0.4,6.44 c 0,-0.14 0,-0.17 0,-0.07 a 6.34,6.34 0 0 0 -0.07,1.11 v 0.57 0.61 a 58.25,58.25 0 0 0 0.1,6.75 c 0,-1.12 0,-2.57 0,-4.36 v -2.14 z"
     id="path3978"
     inkscape:connector-curvature="0"
     style="fill:#333333" />
  <path
     class="cls-9"
     d="m 268.15022,373.64609 c 0.07,0.38 0.16,0.91 0.25,1.58 l 0.25,1.64 a 16.89,16.89 0 0 0 0.72,3.18 l 0.07,0.22 0.07,0.21 a 2.5,2.5 0 0 0 0.21,0.5 2.55,2.55 0 0 0 0.33,0.4 1,1 0 0 0 0.32,0.21 0.41,0.41 0 0 0 0.32,-0.18 l 0.14,-0.18 0.15,-0.21 c 0.23,-0.36 0.47,-0.5 0.71,-0.43 a 0.62,0.62 0 0 1 0.22,0.14 0.73,0.73 0 0 1 0.07,0.25 0.48,0.48 0 0 1 -0.11,0.29 l -0.11,0.11 -0.14,0.18 -0.22,0.28 -0.25,0.29 a 1.46,1.46 0 0 1 -0.75,0.36 3.8,3.8 0 0 1 -2.32,-0.43 5.32,5.32 0 0 1 -0.61,-0.54 c -0.24,-0.24 -0.43,-0.44 -0.57,-0.61 -1,-1.26 -1.65,-3.76 -2.08,-7.51 a 15.15,15.15 0 0 0 -1.46,-5.72 l -0.18,-0.39 -0.21,-0.4 a 1.11,1.11 0 0 0 -0.68,-0.5 q -0.23,7.69 0,12.63 v 0.61 l 0.07,0.57 a 1.51,1.51 0 0 1 -0.25,1 0.73,0.73 0 0 0 0.36,0 h 0.36 a 0.93,0.93 0 0 1 0.61,0.07 c 0.07,0 0.11,0.11 0.14,0.25 a 0.43,0.43 0 0 1 -0.07,0.36 c -0.05,0.07 -0.25,0.1 -0.61,0.1 h -0.75 a 12.85,12.85 0 0 0 -3.36,0.36 0.24,0.24 0 0 0 -0.11,0 h -0.18 a 0.42,0.42 0 0 1 -0.28,0 0.31,0.31 0 0 1 -0.07,-0.39 0.47,0.47 0 0 1 0.21,-0.29 0.52,0.52 0 0 1 0.18,-0.1 h 0.25 a 0.81,0.81 0 0 0 0.29,-0.07 0.66,0.66 0 0 0 0,-0.29 v -0.18 -3.46 c 0,-1.53 0,-2.66 0,-3.4 0,-0.74 0,-1.61 0.07,-2.9 0.07,-1.29 0.07,-2.27 0.07,-3 v -0.75 -0.75 a 12.33,12.33 0 0 0 0,-1.5 c 0,-1.07 -0.06,-2.29 0,-3.65 v -1.79 l 0.08,-1.86 v -0.42 -0.47 a 2,2 0 0 0 0,-0.54 c 0,0 -0.1,-0.06 -0.22,0 h -0.18 -0.14 c -0.33,0.08 -0.52,0 -0.57,-0.14 -0.05,-0.14 0.07,-0.48 0.43,-0.57 a 2.1,2.1 0 0 1 0.5,-0.11 h 0.5 a 27.24,27.24 0 0 1 4.83,0.07 7.16,7.16 0 0 1 2.18,0.65 6.63,6.63 0 0 1 3.22,2.43 5.07,5.07 0 0 1 0.78,3.29 3.62,3.62 0 0 1 -0.68,1.79 5.82,5.82 0 0 1 -1.21,1.36 7.92,7.92 0 0 1 -3.69,1.32 q 2.21,2.12 3.1,7.03 z m -8.05,-13.76 -0.07,2 c 0,1.67 -0.07,3 -0.14,3.86 0,0.41 0,0.92 0,1.54 v 1.54 2.93 l 0.07,3 q 0,3.65 0,5.94 a 1.58,1.58 0 0 0 0.07,0.68 q 0.28,0.11 0.36,-0.15 a 0.4,0.4 0 0 0 0,-0.18 v -0.1 -0.29 -0.25 c 0,-0.21 -0.07,-0.34 -0.07,-0.39 a 1,1 0 0 1 0.07,-0.32 1.23,1.23 0 0 0 0,-0.29 10.46,10.46 0 0 0 0,-1.43 v -0.68 -0.72 q -0.42,-11.37 0.11,-20.13 v 0 0 a 4.06,4.06 0 0 0 -0.11,0.75 v 0.43 0.42 z m 1.19,11.76 0.07,-1.43 0.11,-2.9 a 44.9,44.9 0 0 0 -0.18,-5.68 l -0.07,2.82 v 2.86 c 0,2.22 0,4.13 0,5.73 z m 3.25,-6.36 a 2.23,2.23 0 0 1 0.5,0 l 0.58,-0.07 a 2.62,2.62 0 0 0 1,-0.18 1.47,1.47 0 0 0 0.5,-0.61 l 0.22,-0.39 0.07,-0.18 0.07,-0.18 a 6.12,6.12 0 0 0 0.47,-2.79 6.49,6.49 0 0 0 -0.68,-2.72 2,2 0 0 0 -0.58,-0.78 3.73,3.73 0 0 0 -1.43,-0.58 9.67,9.67 0 0 0 -1.71,-0.25 1.43,1.43 0 0 1 -0.29,0 h -0.36 a 2.46,2.46 0 0 0 -0.64,0.07 c -0.05,0 -0.06,0.15 0,0.43 v 0.4 0.18 0.01 a 54.22,54.22 0 0 1 0,7.69 c 0.31,0 0.7,0 1.18,0 h 0.54 z m 1.47,4 -0.25,-0.46 -0.25,-0.47 a 4.83,4.83 0 0 0 -1.18,-1.68 c 0,0 -0.1,0 -0.29,0 h -0.17 c -0.05,0 -0.09,0 -0.11,0 q 2.43,2.29 3.54,8.4 l -0.15,-1.23 -0.18,-1.22 a 20.8,20.8 0 0 0 -0.54,-2.36 8.75,8.75 0 0 0 -0.42,-1.04 z m 0.89,8.84 a 32.81,32.81 0 0 1 -0.89,-3.44 v -0.14 -0.14 c 0,-0.12 0,-0.14 -0.07,-0.07 0.46,3.43 1.24,5.71 2.36,6.83 a 11.57,11.57 0 0 1 -1.4,-3.1 z m 1.86,-14.24 0.22,-0.14 a 0.87,0.87 0 0 0 0.32,-0.36 2.54,2.54 0 0 0 0.14,-1.14 l -0.07,-0.61 c 0,-0.14 -0.05,-0.32 -0.07,-0.53 a 6.5,6.5 0 0 1 -0.71,2.93 z m 1.33,-2.93 a 3,3 0 0 0 -0.43,-1.14 l 0.11,0.57 0.07,0.57 a 9,9 0 0 1 0.1,1.29 1.91,1.91 0 0 0 0.15,-1.35 z"
     id="path3980"
     inkscape:connector-curvature="0"
     style="fill:#333333" />
  <path
     class="cls-9"
     d="m 278.60022,360.03609 0.75,1.86 0.71,1.86 a 56.69,56.69 0 0 1 2.79,-7.36 2.09,2.09 0 0 1 -0.68,0 c -0.24,-0.05 -0.35,-0.15 -0.35,-0.32 0,-0.17 0.32,-0.38 1,-0.57 a 5.49,5.49 0 0 1 1.43,-0.25 1.56,1.56 0 0 1 1.08,0.39 c 0.28,0.29 0.15,0.46 -0.4,0.54 h -0.21 -0.22 a 0.45,0.45 0 0 0 -0.32,0 5.47,5.47 0 0 0 -0.25,0.53 15.68,15.68 0 0 0 -0.89,1.79 l -0.4,0.93 -0.39,0.9 c -0.45,1.07 -0.87,2.18 -1.25,3.32 l -0.11,0.29 -0.14,0.32 a 1.23,1.23 0 0 0 -0.14,0.5 1.77,1.77 0 0 0 0.07,0.43 l 0.1,0.43 a 32.26,32.26 0 0 1 0.22,3.29 v 5.54 c 0,0.79 0,1.43 0,1.93 0,0.5 0,1.12 0,2 v 1 1 0.25 0.21 a 0.43,0.43 0 0 0 0.07,0.36 0.42,0.42 0 0 0 0.15,0.07 l 0.21,0.07 a 0.72,0.72 0 0 1 0.43,0.22 0.52,0.52 0 0 1 0.07,0.39 0.42,0.42 0 0 1 -0.07,0.29 0.92,0.92 0 0 1 -0.29,0.1 1.41,1.41 0 0 1 -0.39,0.08 6.36,6.36 0 0 1 -1.54,-0.08 l -0.86,-0.1 -0.85,-0.11 h -0.65 c -0.26,0 -0.42,0 -0.46,-0.07 a 0.33,0.33 0 0 1 -0.11,-0.29 0.36,0.36 0 0 1 0,-0.28 c 0,-0.08 0.21,-0.13 0.5,-0.18 h 0.14 0.21 a 0.52,0.52 0 0 0 0.25,0 3.06,3.06 0 0 0 0,-0.83 v -0.28 -0.29 a 2.78,2.78 0 0 1 0,-0.36 l -0.1,-2.68 c -0.05,-1 -0.08,-1.89 -0.08,-2.61 q 0,-4.79 -0.1,-7.19 l -0.15,-1.07 v -0.36 -0.28 a 2.91,2.91 0 0 0 0,-0.57 1.56,1.56 0 0 0 -0.21,-0.54 l -0.15,-0.25 -0.1,-0.29 -1.4,-3.14 -0.36,-0.72 -0.35,-0.79 c -0.31,-0.66 -0.56,-1.19 -0.75,-1.57 a 0.6,0.6 0 0 1 -0.11,-0.21 l -0.11,-0.36 a 4.9,4.9 0 0 0 -0.25,-0.47 0.58,0.58 0 0 0 -0.21,0 h -0.25 c -0.24,0.08 -0.41,0.08 -0.5,0 a 0.72,0.72 0 0 1 -0.15,-0.32 0.56,0.56 0 0 1 0,-0.36 c 0.05,-0.07 0.37,-0.1 1,-0.1 h 1.11 0.36 l 0.2,-0.03 c 0.36,0 0.64,-0.05 0.83,-0.07 a 2.75,2.75 0 0 0 0.39,0 l 0.46,-0.07 a 1.8,1.8 0 0 1 0.79,0.07 c 0.22,0.12 0.27,0.32 0.18,0.61 -0.09,0.29 -0.35,0.36 -0.68,0.22 0.32,0.8 0.81,2.04 1.48,3.63 z m -3.65,-2.75 -0.07,-0.25 -0.11,-0.29 a 0.45,0.45 0 0 0 -0.32,-0.32 l 0.21,0.47 0.22,0.5 a 3.42,3.42 0 0 0 0.46,0.86 z m 1.25,1.07 c -0.07,-0.35 -0.17,-0.76 -0.29,-1.21 l -0.07,-0.29 -0.1,-0.28 a 0.34,0.34 0 0 0 -0.47,-0.18 l 0.29,0.71 0.28,0.75 c 0.27,0.65 0.46,1.15 0.58,1.5 a 9.85,9.85 0 0 0 -0.22,-1 z m 3.51,8.37 a 2.75,2.75 0 0 0 0,-0.82 l -0.15,-0.47 -0.14,-0.46 a 23.51,23.51 0 0 0 -1.11,-3.15 l -0.64,-1.5 a 11.34,11.34 0 0 1 -0.61,-1.54 q 0.42,1.79 1.29,4.44 l 0.68,2.18 0.68,2.18 z m -1.18,14.27 v 0.11 a 0.13,0.13 0 0 0 0.14,0.14 q 0,-1.25 0,-3.54 v -1.79 -1.82 a 59.05,59.05 0 0 0 -0.43,-6.83 c 0.07,1 0.12,2.11 0.15,3.4 v 1.71 1.75 q 0,4.51 0.22,6.76 z m 0.78,-0.39 c 0,0.43 0.07,0.63 0.22,0.6 0.15,-0.03 0.15,-0.07 0.18,-0.21 a 0.37,0.37 0 0 0 0,-0.21 v -0.22 c 0,-0.74 -0.05,-1.74 -0.08,-3 v -3.11 a 33.71,33.71 0 0 0 -0.53,-5.62 q 0.18,2.35 0.21,5.76 z"
     id="path3982"
     inkscape:connector-curvature="0"
     style="fill:#333333" />
  <path
     class="cls-9"
     d="m 129.42022,213.87609 -0.24,-2.4 c 0,-2.08 0.24,-3.28 0.72,-3.61 a 2.56,2.56 0 0 1 2.64,0 4.12,4.12 0 0 1 2.16,1.68 6.75,6.75 0 0 1 0.24,3.36 v 3.61 a 39,39 0 0 0 0.48,4.8 l 0.24,2.64 0.24,2.4 q 0.24,6 -1.68,6.49 a 3,3 0 0 1 -3.6,-1.2 8.46,8.46 0 0 1 -1.2,-3.85 v -3.84 a 8.27,8.27 0 0 0 -0.24,-2.88 c -0.16,-0.16 -0.81,-0.16 -1.92,0 l -1.44,0.24 h -1.2 l -3.37,-0.24 -3.36,-0.48 -7,-0.72 a 3.93,3.93 0 0 1 -1,-0.24 l -1.44,-0.24 c -1.28,-0.16 -2,-0.16 -2.16,0 q -0.48,0.24 -0.48,3.12 a 41.38,41.38 0 0 0 0.24,4.8 q 0.47,10.1 0.24,23.05 l -0.48,23.3 q -0.72,30.5 0,47.06 l 11.28,-0.24 11,-0.48 q 13.92,-0.72 23.05,-0.48 v -1.88 l -0.24,-2.17 a 26.4,26.4 0 0 1 0,-5 q 0.24,-6.48 2.16,-7.44 a 3.93,3.93 0 0 1 2.16,-0.48 2.74,2.74 0 0 1 2.4,0.48 q 0.48,0.48 0.24,2.88 l -0.24,1.92 v 1.68 q -0.72,7.2 0.24,10.57 l 0.24,0.72 0.48,1 a 2.85,2.85 0 0 1 0.48,2.16 q -0.48,1.68 -4.56,1.44 l -1.35,-0.36 -1.44,-0.24 q -1.92,-0.24 -2.4,-0.24 a 163.12,163.12 0 0 0 -17.77,0 l -9.37,0.48 -9.12,0.48 -6.48,0.24 h -6.999998 q -8.64,0.24 -13.920005,0.48 h -2.1 q -1.2,-0.24 -2.16,-0.48 -2.64,-0.72 -1.68,-2.64 0.48,-1 2.64,-1 h 1.45 c 0.63,0 1,-0.16 1.2,-0.48 a 4.85,4.85 0 0 0 0,-2.16 l -0.25,-1.2 a 3.74,3.74 0 0 1 -0.23,-1 q -0.24,-7.69 0,-20.41 l 0.23,-10.57 0.25,-10.32 0.24,-28.58 0.24,-28.33 q 0.22,-34.81 0,-55.71 a 19.48,19.48 0 0 0 -0.24,-2.4 v -3.32 a 15.56,15.56 0 0 0 -0.24,-4.08 q -0.24,-0.24 -2.4,0 h -1.69 a 1.64,1.64 0 0 1 -1.2,-0.48 3,3 0 0 1 -0.72,-1.45 2.47,2.47 0 0 1 0.24,-1.91 c 0.16,-0.65 1.28,-1 3.37,-1 h 2.64 l 2.640005,0.24 q 1.44,0 4.8,-0.24 l 2.4,-0.24 h 2.16 q 9.599998,-0.72 23.769998,-0.48 h 12.25 l 12.49,0.24 h 2.4 l 2.88,0.24 a 17,17 0 0 0 4.32,0 l 0.48,-0.48 q 0.24,-0.48 0.48,-0.48 c 2.4,-0.16 3.68,0.81 3.84,2.88 0,0.65 -0.08,1.77 -0.24,3.37 l -0.24,2.16 -0.24,2.16 a 8.64,8.64 0 0 0 0,2.88 l 0.24,1.2 v 1.2 q -0.24,1 -0.48,1 l -0.24,0.24 a 1,1 0 0 0 -0.24,0.72 l -0.24,1 0.24,1 a 1.43,1.43 0 0 1 -0.24,1.44 3,3 0 0 1 -2.88,0 4.08,4.08 0 0 1 -2.16,-1.68 14.31,14.31 0 0 1 -0.72,-5.28 30.82,30.82 0 0 1 0.48,-5.52 v -0.48 l 0.24,-1 q 0.48,-1 0.24,-1.2 -0.48,-0.48 -3.12,-0.48 l -1.92,0.23 h -1 q -14.37,-0.72 -29.48,-0.72 c -0.32,0 -1.12,-0.08 -2.4,-0.25 l -1.68,-0.24 h -1.92 c -3.2,-0.32 -5,-0.15 -5.52,0.49 -0.33,0.16 -0.4,0.87 -0.24,2.16 v 1.68 l 0.24,1.44 q 0.24,8.88 -0.24,24 l -0.24,12.49 c -0.17,4.81 -0.24,9.13 -0.24,13 v 1.2 l -0.24,2.16 c -0.17,2.25 -0.08,3.53 0.24,3.84 q 0.24,0.25 2.64,0 l 1.68,-0.23 h 1.44 q 3.84,0 8.88,0.48 c 2.4,0.16 5.29,0.48 8.65,1 a 6.57,6.57 0 0 0 0.22,-1.99 z m -40.099998,-50.23 0.24,7.2 q 0.48,8.89 0.72,14.17 v 2.16 c 0,1 0.08,0.81 0.24,-0.48 q 0.72,-16.08 1.68,-26.89 v -3.84 q 0,-2.64 -0.48,-2.88 a 3.32,3.32 0 0 0 -1.44,-0.25 3.77,3.77 0 0 0 -1.44,0.48 2.54,2.54 0 0 0 -0.24,1.45 3.34,3.34 0 0 0 0.24,1.44 z m 0.72,98.93 q 0,-6.48 -0.24,-9.37 v 5 l -0.24,5.28 a 72.64,72.64 0 0 0 0.48,9.61 z m 0,29.53 q 0,-5.52 -0.24,-7.68 v 4.08 l -0.24,4.32 a 45.5,45.5 0 0 0 0.48,7.93 z m 5.28,-105.65 q 0,2.4 0.24,2.16 a 57.09,57.09 0 0 0 0.48,-8.64 l -0.24,-4.32 v -4.01 q -0.24,4.32 -0.24,11.52 a 15.9,15.9 0 0 0 -0.24,3.33 z m 2.64,43.22 q 0,-1.44 -0.24,-0.48 a 44.27,44.27 0 0 0 -0.48,7.45 l 0.24,3.84 v 4.16 a 388.8,388.8 0 0 0 0.72,45.38 q 0.24,-11.28 0,-29.29 l -0.24,-14.41 z"
     id="path3984"
     inkscape:connector-curvature="0"
     style="fill:#333333" />
  <path
     class="cls-9"
     d="m 266.57022,193.22609 -3.12,13.93 q -3.6,16.82 -5.76,28.57 -6.74,33.15 -10.33,58.83 l -0.72,4.33 -0.72,4.32 a 46.42,46.42 0 0 0 -1,8.4 11.15,11.15 0 0 0 0.24,3.84 c 0.16,1.93 0.4,3 0.72,3.13 a 7,7 0 0 0 2.64,0.23 h 1.92 q 1,0.26 1.68,0.48 l 1,1 1,1.2 a 3.06,3.06 0 0 1 0,2.88 q -0.48,1.2 -6,1.44 h -2.16 l -2.4,0.24 h -8.41 a 26.47,26.47 0 0 0 -4.09,0.24 l -1.92,0.24 -1.92,0.24 q -2.64,0.48 -3.36,0 -0.72,-0.24 -1.2,-1.68 a 3.59,3.59 0 0 1 -0.24,-2.16 2.24,2.24 0 0 1 1.68,-1.68 l 1.2,-0.24 a 1.55,1.55 0 0 0 1,-0.72 c 0.16,-0.32 -0.16,-1.76 -1,-4.33 l -0.24,-1.68 -0.48,-1.44 a 7.86,7.86 0 0 1 -0.48,-1.92 q -1.44,-5.52 -2.88,-14.65 l -1.2,-7.2 -1.44,-7.2 q -1.45,-7.2 -4.09,-19 l -4.08,-18.73 q -1,-3.6 -1.92,-9.61 l -1,-4.8 -1,-4.8 q -3.12,-11.76 -6.72,-27.86 l -6.49,-27.85 q -1,27.85 -1.68,74.68 l -0.45,38.18 q -0.24,22.32 -0.48,37.46 a 13.49,13.49 0 0 0 2.64,0.24 l 2.4,-0.49 a 8.44,8.44 0 0 1 4.33,0.49 4.25,4.25 0 0 1 1.68,2.4 4.15,4.15 0 0 1 0.24,3.6 c -0.33,0.64 -1.68,1.12 -4.09,1.44 l -3.36,0.24 -3.12,0.24 a 25.46,25.46 0 0 0 -2.88,0.24 l -3.36,0.48 c -2.56,0.32 -4.17,0.32 -4.8,0 q -1,-0.24 -1.68,-2.16 a 3.64,3.64 0 0 1 -0.24,-2.88 2.11,2.11 0 0 1 1.44,-1.44 l 1,-0.48 1,-0.24 a 1.89,1.89 0 0 0 0.72,-0.24 l 1.44,-0.24 a 5.85,5.85 0 0 0 2.16,-0.48 c 0.16,-0.16 0.16,-1.52 0,-4.09 v -5.76 q 0,-11.28 0.48,-34.1 0.48,-22.82 0.48,-33.61 0,-16.81 0.48,-43.46 0.48,-26.41 0.48,-39.14 v -1.69 l 0.24,-1.68 a 7.06,7.06 0 0 0 -0.24,-2.4 q -0.24,-0.48 -1.92,-0.48 l -1.2,-0.23 -1.44,-0.49 a 11.63,11.63 0 0 1 -1.68,-1.44 c -0.64,-0.79 -0.89,-1.35 -0.72,-1.68 0.16,-0.8 1.59,-1.44 4.32,-1.92 a 33.65,33.65 0 0 0 3.6,-0.24 l 1.68,-0.24 h 1.4 q 14.41,-1.44 20.41,1 c 2.41,1 3.92,2.16 4.57,3.6 0.65,1.44 -0.81,2 -4.33,1.68 q 6.5,26.66 15.13,68.92 l 7,35.06 7.15,34.78 q 3.6,-28.32 11,-64.83 l 6.48,-31.45 3.37,-15.85 3.36,-16.09 0.24,-1 0.24,-1.2 0.72,-2.64 c 0.48,-2.25 0.64,-3.44 0.48,-3.61 a 5.1,5.1 0 0 0 -2.16,-0.23 h -2.4 l -1.2,-1.21 a 5.11,5.11 0 0 1 -0.72,-1.68 q -0.24,-3.12 5.28,-4.08 a 21.8,21.8 0 0 1 4.8,-0.72 l 2.4,-0.24 2.18,-0.17 13.68,-2.4 a 6.68,6.68 0 0 1 4.56,1.44 q 2.4,1.92 1.68,4.08 a 1.74,1.74 0 0 1 -2.16,1.2 h -1.2 a 1.45,1.45 0 0 0 -1,0.24 q -0.24,0.24 0.24,1.92 l 0.24,1.69 v 1.43 q 0.72,14.42 -1,38.66 l -1.04,19.42 q -0.48,11 -0.48,19.68 v 30.5 q 0,17.05 0.24,29.77 0.24,3.38 0,9.85 c -0.16,4.48 -0.24,7.85 -0.24,10.08 l 0.72,4.08 0.72,1.2 1.2,1 a 5,5 0 0 1 1.44,2.4 q -1,2.4 -1.44,2.64 a 3.85,3.85 0 0 1 -3.12,0.24 l -1.92,-0.48 -1.68,-0.24 a 25.79,25.79 0 0 0 -5,0 q -2.16,0 -5.77,0.24 a 25.55,25.55 0 0 0 -2.64,0.24 l -2.88,0.48 q -3.6,0.24 -4.56,-0.24 -1.22,-0.72 -1.44,-5 0.72,-1.44 4.32,-1.92 1.92,-0.24 1.92,-4.33 0.24,-5.76 0.24,-14.4 l -0.24,-6.73 v -6.48 q 0.48,-18.48 0,-53.31 v -27.2 q -0.24,-15.6 0,-27.85 z m -60,-9.12 0.24,-0.24 q -1.2,-6 -1.92,-11.05 -1.2,-7 -1.92,-12 l -0.24,-1.92 -0.24,-1.69 a 9.78,9.78 0 0 0 -0.72,-2.88 c -1,-1.75 -2.81,-2.31 -5.53,-1.68 l 2.65,7.45 2.88,7.68 q 2.88,8.88 4.8,15.85 z m 11.29,24.25 -1.71,-9.12 -1.93,-9.13 a 82.41,82.41 0 0 0 -5.28,-16.09 l 5.76,31 q 3.61,18.49 6.25,30.73 7,35.07 14.64,59.07 -10.32,-45.63 -17.76,-86.46 z m 16.56,111.18 1.44,-0.25 h 1.44 q -7.68,-25.2 -12.72,-43 1,9.14 3.36,21.85 l 2.16,10.81 1.92,10.57 a 5.82,5.82 0 0 0 2.37,0.02 z m 47.73,-101.58 -0.48,-18.24 q -0.72,-22.33 -0.25,-36.74 v -1.2 l 0.25,-1.44 v -2.88 c 0.15,-2.56 0,-4.09 -0.48,-4.57 q 0,-0.23 -0.48,0 l -0.72,0.24 a 160.58,160.58 0 0 0 -0.25,19.93 c 0.16,2.88 0.25,6.17 0.25,9.85 l -0.25,9.84 0.25,19.93 0.48,19.69 q 0.72,24 -0.24,39.38 l -0.24,12 -0.25,12 q -0.24,15.14 -0.71,22.82 a 6.46,6.46 0 0 1 3.12,-0.25 l 1.44,0.25 h 1.44 l -0.69,-19.92 -0.72,-20.17 q -0.72,-22.8 -1.2,-42.5 0,-7.21 -0.27,-18.02 z"
     id="path3986"
     inkscape:connector-curvature="0"
     style="fill:#333333" />
  <path
     d="m 22.270217,91.176088 -0.54,-0.38 c -0.43,-0.37 -0.63,-0.64 -0.61,-0.79 0.02,-0.15 0.17,-0.41 0.47,-0.55 a 1.08,1.08 0 0 1 0.73,-0.15 1.93,1.93 0 0 1 0.74,0.55 l 0.75,0.65 a 10.48,10.48 0 0 0 1.08,0.76 l 0.59,0.42 0.54,0.39 c 0.86,0.68 1.21,1.19 1,1.51 a 0.81,0.81 0 0 1 -0.89,0.53 2.36,2.36 0 0 1 -1,-0.44 l -0.8,-0.69 a 2.2,2.2 0 0 0 -0.64,-0.47 c -0.06,0 -0.17,0.14 -0.34,0.4 l -0.21,0.34 -0.22,0.25 -0.65,0.65 -0.7,0.61 -1.4,1.32 a 1.24,1.24 0 0 1 -0.22,0.15 l -0.31,0.26 q -0.39,0.34 -0.39,0.45 c 0,0.09 0.17,0.31 0.56,0.65 0.39,0.34 0.72,0.59 1,0.82 q 2.18,1.710002 4.82,4.080002 l 4.74,4.27 q 6.18,5.63 9.75,8.44 l 2,-2.38 1.88,-2.37 c 1.57,-2 2.91,-3.63 4,-4.86 l -0.4,-0.35 -0.49,-0.34 a 7.15,7.15 0 0 1 -1,-0.9 c -0.86,-0.81 -1.25,-1.4 -1.15,-1.78 a 1.07,1.07 0 0 1 0.29,-0.54 0.75,0.75 0 0 1 0.53,-0.41 c 0.12,0 0.33,0.15 0.64,0.47 l 0.35,0.39 0.35,0.31 a 8.43,8.43 0 0 0 2.23,1.84 l 0.19,0.08 0.29,0.07 a 0.83,0.83 0 0 1 0.53,0.29 c 0.18,0.27 0,0.67 -0.52,1.2 l -0.31,0.26 -0.3,0.26 a 3.88,3.88 0 0 0 -0.48,0.45 44.58,44.58 0 0 0 -3.19,3.68 l -1.58,2 -1.54,2 -1.11,1.39 -1.18,1.44 c -1,1.22 -1.8,2.21 -2.39,3 l -0.39,0.45 c -0.18,0.14 -0.34,0.26 -0.49,0.36 -0.41,0.28 -0.7,0.24 -0.85,-0.12 -0.07,-0.19 0,-0.42 0.28,-0.72 l 0.25,-0.3 c 0.12,-0.14 0.16,-0.25 0.12,-0.34 a 1.23,1.23 0 0 0 -0.45,-0.38 l -0.29,-0.17 a 0.83,0.83 0 0 1 -0.24,-0.12 q -1.63,-1.33 -4.23,-3.66 l -2.14,-2 -2.1,-1.9 -5.87,-5.17 -5.83,-5.13 Q 8.3602167,94.916088 3.9902167,91.206088 c -0.1,-0.08 -0.28,-0.21 -0.54,-0.38 l -0.7,-0.6 a 3.62,3.62 0 0 0 -0.89,-0.68 c -0.06,0 -0.2,0.17 -0.43,0.49 l -0.3,0.35 a 0.4,0.4 0 0 1 -0.30999995,0.16 0.75,0.75 0 0 1 -0.43,-0.11 0.68,0.68 0 0 1 -0.35,-0.39 c -0.11,-0.15 0,-0.44 0.4,-0.87 l 0.47,-0.55 0.52999995,-0.5 c 0.17,-0.2 0.44,-0.54 0.81,-1 l 0.38,-0.54 0.39,-0.44 q 1.56,-2.13 4.16,-4.999995 l 2.19,-2.53 2.2900003,-2.54 0.43,-0.5 0.57,-0.55 a 5.16,5.16 0 0 0 0.77,-0.9 v -0.19 c 0,-0.09 0,-0.15 0,-0.18 0.4,-0.53 0.82,-0.62 1.28,-0.28 a 9,9 0 0 1 0.66,0.65 l 0.4,0.44 0.41,0.44 a 2.38,2.38 0 0 0 0.59,0.51 l 0.29,0.17 0.25,0.21 c 0.11,0.15 0.14,0.24 0.12,0.28 v 0.09 a 0.3,0.3 0 0 0 0.11,0.18 l 0.16,0.22 0.24,0.12 a 0.39,0.39 0 0 1 0.25,0.31 0.85,0.85 0 0 1 -0.51,0.6 1.15,1.15 0 0 1 -0.74,0.14 3.81,3.81 0 0 1 -1.22,-0.8 7.77,7.77 0 0 1 -1.06,-1.09 l -0.1,-0.08 -0.16,-0.22 c -0.07,-0.18 -0.14,-0.27 -0.2,-0.27 -0.06,0 -0.35,0.2 -0.66,0.56 l -0.3,0.44 -0.17,0.2 c -1.82,1.91 -3.6300003,3.9 -5.4400003,6 -0.06,0.07 -0.22,0.22 -0.48,0.459995 l -0.35,0.3 -0.35,0.4 c -0.64,0.6 -0.93,1 -0.89,1.23 0.04,0.23 0.11,0.24 0.4,0.43 l 0.35,0.31 0.35,0.21 c 1.25,1 2.89,2.48 4.9300003,4.35 l 2.54,2.29 c 1,0.89 1.85,1.68 2.64,2.37 l 0.25,0.22 0.4,0.44 q 0.66,0.64 0.84,0.63 c 0.07,0 0.22,-0.18 0.48,-0.54 l 0.25,-0.39 0.26,-0.3 c 0.46,-0.53 1,-1.12 1.69,-1.76 0.46,-0.46 1.05,-1 1.75,-1.62 a 2,2 0 0 0 -0.42,-0.43 z m -17.5800003,-0.69 1.53,1.24 3.07,2.39 0.45,0.39 c 0.19,0.17 0.18,0.13 -0.06,-0.14 -2.14,-2 -3.89,-3.74 -5.27,-5.17 l -0.8,-0.69 c -0.36,-0.31 -0.59,-0.45 -0.68,-0.41 a 1,1 0 0 0 -0.31,0.25 1.12,1.12 0 0 0 -0.16,0.39 c 0,0.06 0.09,0.16 0.26,0.3 a 0.82,0.82 0 0 0 0.34,0.21 z m 5.8000003,2.85 c 0.33,0.28 0.5,0.4 0.49,0.33 a 16.21,16.21 0 0 0 -1.7000003,-1.65 l -0.94,-0.72 -0.85,-0.73 c 0.57,0.55 1.35,1.25 2.35,2.11 a 4.18,4.18 0 0 0 0.6500003,0.66 z m 9.43,7.200002 c -0.2,-0.17 -0.25,-0.19 -0.15,0 a 13.3,13.3 0 0 0 1.46,1.44 l 0.84,0.64 0.84,0.73 a 107.41,107.41 0 0 0 9.53,8 q -2.29,-2.07 -6.06,-5.25 l -3,-2.53 z m 5.39,7.54 c -0.9,-0.78 -1.56,-1.32 -2,-1.63 l 1,0.9 1.05,1 a 18.52,18.52 0 0 0 2.08,1.62 z m 6.12,5.29 a 19.25,19.25 0 0 0 -1.64,-1.32 l 0.85,0.73 0.85,0.82 a 12.15,12.15 0 0 0 1.73,1.32 z"
     id="path3988"
     inkscape:connector-curvature="0" />
  <path
     d="m 60.150217,61.416093 -0.27,-0.37 -0.41,-0.44 c -0.28,-0.39 -0.48,-0.59 -0.61,-0.61 -0.13,-0.02 -0.54,0.18 -1.08,0.63 l -0.62,0.61 -0.32,0.23 -0.22,0.25 -1,0.92 -0.28,0.28 -0.32,0.23 c -0.28,0.21 -0.43,0.35 -0.44,0.41 -0.01,0.06 0.06,0.33 0.31,0.75 l 0.25,0.47 0.18,0.35 1.57,3.5 1.59,3.4 q 1.89,4.15 3.5,7.14 l 1.06,1.91 1,1.939995 q 1.2,2.22 2,4 c 0.12,0.24 0.32,0.74 0.61,1.51 a 1.61,1.61 0 0 0 0.56,-0.24 l 0.41,-0.22 a 0.35,0.35 0 0 1 0.25,-0.1 h 0.09 0.15 a 1.23,1.23 0 0 1 0.46,0.07 c 0.35,0.12 0.53,0.29 0.53,0.51 0,0.22 -0.35,0.49 -1.06,1 l -0.38,0.36 -1.12,0.81 a 3.25,3.25 0 0 0 -0.44,0.41 l -0.17,0.21 -0.11,0.07 a 0.93,0.93 0 0 1 -0.75,0 c -0.32,-0.14 -0.5,-0.31 -0.53,-0.51 -0.03,-0.2 0.17,-0.36 0.52,-0.62 l 0.37,-0.27 a 0.75,0.75 0 0 0 0.15,-0.36 3.35,3.35 0 0 0 -0.52,-1.16 l -0.49,-0.78 a 4,4 0 0 1 -0.32,-0.67 q -6,-11.609995 -9.06,-18.219995 l -2.07,-4.51 -2.09,-4.43 q -2.46,-5.28 -4.62,-9.24 l -0.14,-0.31 -0.2,-0.26 c -0.17,-0.31 -0.3,-0.57 -0.4,-0.77 0,0 -0.07,-0.14 -0.14,-0.31 l -0.16,-0.45 c -0.14,-0.33 -0.23,-0.5 -0.3,-0.51 -0.07,-0.01 -0.35,0.18 -0.7,0.59 l -0.36,0.51 a 0.89,0.89 0 0 1 -0.51,0.2 0.6,0.6 0 0 1 -0.44,-0.16 1,1 0 0 1 -0.4,-0.44 c -0.09,-0.26 0.17,-0.69 0.76,-1.29 l 0.82,-0.67 c 0.32,-0.3 0.56,-0.53 0.71,-0.69 l 0.57,-0.57 a 5.94,5.94 0 0 1 0.59,-0.52 10.24,10.24 0 0 0 1.1,-1 l 0.54,-0.48 0.55,-0.48 0.37,-0.27 0.39,-0.37 a 2.35,2.35 0 0 1 0.69,-0.5 1.55,1.55 0 0 1 0.59,0.14 1,1 0 0 1 0.4,0.44 1.71,1.71 0 0 1 -0.1,0.32 2.44,2.44 0 0 1 -0.15,0.35 l -0.37,0.27 c -0.18,0.13 -0.27,0.22 -0.28,0.29 a 5,5 0 0 0 0.88,1 7.24,7.24 0 0 0 0.71,0.63 4,4 0 0 0 0.49,0.45 l 2.68,2.45 2.65,2.42 q 3.1,2.94 5.31,5.16 l 1,1.05 1.09,1.16 c 0.85,0.95 1.56,1.69 2.1,2.22 l 2.13,2 2.13,2 q 2.63,2.49 4.25,4.15 c 0.8,0.88 1.84,1.89 3.1,3 l 1.64,1.57 1.65,1.49 0.25,0.22 0.25,0.23 0.7,0.63 c 0.54,0.52 0.86,0.78 1,0.76 a 1,1 0 0 0 0.57,-0.33 l 0.48,-0.35 a 1,1 0 0 1 0.85,0.27 1,1 0 0 1 0.32,0.67 q 0,0.22 -0.75,0.87 l -1.38,1 c -0.32,0.24 -0.77,0.54 -1.37,0.92 l -2,1.47 c -0.35,0.26 -0.63,0.36 -0.84,0.29 -0.82,-0.38 -0.74,-0.87 0.23,-1.47 a 235.15,235.15 0 0 1 -19.81,-18.21 z m -9.84,-13.83 -1.2,-1.08 -1.16,-1 c -0.08,0 -0.2,0 -0.34,0.09 l -0.17,0.21 -0.18,0.21 a 47.06,47.06 0 0 0 5,4.68 l 2.53,2.14 c 1,0.81 1.81,1.56 2.53,2.23 q -0.84,-1 -2.25,-2.52 l -1.16,-1.26 -1.21,-1.32 a 29.09,29.09 0 0 0 -2.41,-2.38 z m 5.38,12.85 1.06,-0.77 c 0.6,-0.44 0.91,-0.72 0.93,-0.85 0.02,-0.13 -0.14,-0.27 -0.46,-0.63 l -0.46,-0.41 a 2.89,2.89 0 0 1 -0.32,-0.33 c -0.6,-0.59 -1.35,-1.33 -2.25,-2.19 l -1.25,-1 -1.23,-1.14 a 44,44 0 0 1 -4.34,-4.16 c 1,1.79 2.09,4 3.34,6.6 l 1.51,3.29 1.56,3.26 z m 5.41,-3.3 q 3.49,3.57 10,9.66 -5.95,-6.04 -10.02,-9.66 z m 15.59,17.13 -4.4,-3.46 2,1.9 1.86,1.94 q 2.33,2.3 3.91,3.58 a 11.79,11.79 0 0 0 -3.39,-3.96 z"
     id="path3990"
     inkscape:connector-curvature="0" />
  <path
     d="m 103.75022,16.406093 -0.17,-0.57 a 0.84,0.84 0 0 1 0.11,-0.91 1.61,1.61 0 0 1 0.7,-0.22 c 0.31,0 0.52,0 0.63,0.16 a 1.89,1.89 0 0 1 0.42,0.83 l 0.15,0.51 0.14,0.51 0.35,1 0.41,1 0.59,0.89 0.62,1 c 0.46,0.76 0.65,1.27 0.58,1.54 -0.07,0.27 -0.25,0.32 -0.65,0.49 a 1.25,1.25 0 0 1 -0.95,0.11 1.63,1.63 0 0 1 -0.55,-0.62 l -0.24,-0.4 -0.27,-0.46 -0.24,-0.4 -0.2,-0.48 a 2.69,2.69 0 0 0 -0.54,-0.77 1.41,1.41 0 0 0 -0.52,-0.21 l -0.38,-0.06 -0.34,-0.14 -0.83,-0.44 -0.91,-0.47 a 4.31,4.31 0 0 0 -1.829998,-0.44 c -0.24,0 -0.54,0 -0.89,0.09 l -1,0.21 a 3.56,3.56 0 0 0 -1,0.28 6.76,6.76 0 0 0 -0.94,0.47 1.83,1.83 0 0 0 -0.6,1 c -0.1,0.43 -0.2,0.87 -0.29,1.34 -0.18,1.83 0.57,3.83 2.24,6 a 21.7,21.7 0 0 0 2.23,2.56 l 1.079998,1 0.56,0.47 0.47,0.45 a 34.06,34.06 0 0 0 3.3,2.75 l 1.75,1.26 c 0.66,0.53 1.21,1 1.65,1.37 l 0.39,0.41 0.42,0.32 0.72,0.69 a 31.66,31.66 0 0 1 5,4.25 45.37,45.37 0 0 1 3,3.72 20.5,20.5 0 0 1 2.38,4.78 9,9 0 0 1 0.1,5.32 q -0.72,2.52 -4.47,5 a 12.55,12.55 0 0 1 -7,2.47 6.32,6.32 0 0 1 -2.61,-0.61 l -1.26,-0.61 -1.22,-0.7 a 1.35,1.35 0 0 0 0,0.56 l 0.17,0.57 c 0.11,0.48 0.09,0.8 0,0.94 a 1.2,1.2 0 0 1 -0.81,0.28 c -0.46,0 -0.75,0 -0.88,-0.21 a 2.81,2.81 0 0 1 -0.28,-1.16 v -0.63 a 1.76,1.76 0 0 1 -0.09,-0.53 37.93,37.93 0 0 0 -1.14,-4.73 l -0.2,-0.63 -0.16,-0.72 a 2.65,2.65 0 0 1 -0.14,-1 0.88,0.88 0 0 1 0.82,-0.28 1.33,1.33 0 0 1 0.83,0.29 1.61,1.61 0 0 1 0.47,0.95 l 0.09,0.53 0.07,0.18 v 0.21 l 0.14,0.51 0.12,0.45 a 2.26,2.26 0 0 0 0.27,0.82 2.8,2.8 0 0 0 0.85,0.64 l 0.51,0.36 0.48,0.29 0.5,0.36 0.45,0.38 a 8,8 0 0 0 0.82,0.58 7.15,7.15 0 0 0 2.27,1 3.85,3.85 0 0 0 2.44,0 4.45,4.45 0 0 0 2.67,-2.63 7.65,7.65 0 0 0 0.29,-2.19 10.06,10.06 0 0 0 -0.2,-2.34 q -0.59,-4.26 -4.2,-9.94 l -0.78,-1.17 -0.75,-1.25 a 12.15,12.15 0 0 0 -1.61,-2 15.57,15.57 0 0 0 -2,-1.45 l -1.16,-0.72 -1.08,-0.69 c -0.54,-0.39 -1.23,-0.84 -2.06,-1.34 l -2.159998,-1.38 -2.25,-1.51 c -0.93,-0.6 -1.66,-1.11 -2.21,-1.49 a 13.06,13.06 0 0 1 -3.62,-3.68 4,4 0 0 1 -0.39,-0.91 l -0.33,-0.79 a 7.7,7.7 0 0 1 1.26,-6.32 11.62,11.62 0 0 1 3.57,-2.86 q 4,-2.06 9.439998,-0.49 z m -12.059998,7 v -0.09 l -0.12,0.05 a 5.11,5.11 0 0 0 0.42,3.53 6.75,6.75 0 0 0 2.21,2.86 10.69,10.69 0 0 1 -2.51,-6.39 z m 5.39,6.85 a 18.45,18.45 0 0 0 3.179998,2.45 22.08,22.08 0 0 1 -4.869998,-5.44 c -1.7,-2.67 -2.27,-5 -1.71,-6.92 a 4.9,4.9 0 0 0 -0.48,2.92 8.54,8.54 0 0 0 0.92,3.18 15.24,15.24 0 0 0 2.96,3.77 z m 18.449998,20.85 a 17.39,17.39 0 0 0 -3,-5 33.53,33.53 0 0 1 2.58,5.26 c 0.64,1.73 1.18,3.48 1.64,5.24 a 13.3,13.3 0 0 0 -1.22,-5.54 z"
     id="path3992"
     inkscape:connector-curvature="0" />
  <path
     d="m 147.07022,10.646093 1.95,3.14 1.88,3.14 a 103.14,103.14 0 0 1 2.74,-14.2800001 3.81,3.81 0 0 1 -1.24,0.15 c -0.45,0 -0.7,-0.17 -0.75,-0.48 -0.05,-0.31 0.47,-0.79 1.7,-1.36000005 a 10.23,10.23 0 0 1 2.52,-0.9 2.83,2.83 0 0 1 2.07,0.38 c 0.6,0.43 0.42,0.79000005 -0.55,1.09000005 l -0.38,0.14 -0.39,0.06 a 0.88,0.88 0 0 0 -0.57,0.17 9.72,9.72 0 0 0 -0.28,1 27.11,27.11 0 0 0 -1.06,3.52 l -0.43,1.81 -0.43,1.74 q -0.72,3.1300001 -1.23,6.4200001 l -0.1,0.56 -0.16,0.62 a 2.57,2.57 0 0 0 -0.1,1 4,4 0 0 0 0.26,0.75 l 0.33,0.75 a 55.84,55.84 0 0 1 1.42,5.89 l 1.74,10.05 q 0.38,2.13 0.54,3.51 0.16,1.38 0.63,3.63 l 0.3,1.75 0.26,1.89 v 0.47 l 0.06,0.38 a 0.77,0.77 0 0 0 0.24,0.63 0.82,0.82 0 0 0 0.29,0.09 l 0.41,0.06 a 1.33,1.33 0 0 1 0.84,0.25 1,1 0 0 1 0.26,0.69 0.79,0.79 0 0 1 0,0.54 1.92,1.92 0 0 1 -0.49,0.29 2.82,2.82 0 0 1 -0.69,0.25 11.11,11.11 0 0 1 -2.81,0.35 l -1.59,0.08 -1.59,0.07 -1.16,0.2 a 1.52,1.52 0 0 1 -0.87,0 0.57,0.57 0 0 1 -0.28,-0.48 0.71,0.71 0 0 1 0,-0.53 c 0.06,-0.15 0.35,-0.31 0.85,-0.49 h 0.26 l 0.38,-0.13 c 0.26,-0.05 0.41,-0.1 0.44,-0.15 a 6.58,6.58 0 0 0 -0.26,-1.49 l -0.15,-0.5 -0.09,-0.52 c -0.1,-0.34 -0.16,-0.55 -0.18,-0.64 l -1,-4.83 c -0.41,-1.84 -0.73,-3.41 -0.95,-4.71 q -1.5,-8.69 -2.45,-13 l -0.59,-1.9 -0.09,-0.52 -0.16,-0.51 a 6,6 0 0 0 -0.24,-1 3.44,3.44 0 0 0 -0.56,-0.91 l -0.34,-0.41 -0.28,-0.48 -3.6,-5.29 -0.87,-1.18 -0.89,-1.32 q -1.15,-1.6700001 -1.86,-2.6100001 a 2.08,2.08 0 0 1 -0.26,-0.36 l -0.32,-0.53 a 5.4,5.4 0 0 0 -0.6,-0.77 0.88,0.88 0 0 0 -0.4,0 l -0.44,0.15 c -0.41,0.2 -0.71,0.26 -0.9,0.15 a 1.31,1.31 0 0 1 -0.36,-0.53 0.92,0.92 0 0 1 -0.05,-0.66 c 0.06,-0.15 0.63,-0.31 1.71,-0.5 l 2,-0.35 0.64,-0.18 0.69,-0.25 c 0.64,-0.15 1.13,-0.28 1.47,-0.38 l 0.7,-0.19 0.82,-0.28 a 3.31,3.31 0 0 1 1.45,-0.12 c 0.43,0.15 0.6,0.5 0.52,1.05 -0.08,0.55 -0.52,0.76 -1.17,0.6 0.86,1.46 2.13,3.56 3.84,6.2600001 z m -7.47,-3.8400001 -0.21,-0.43 -0.28,-0.49 a 0.81,0.81 0 0 0 -0.69,-0.48 l 0.54,0.77 0.54,0.84 a 5.88,5.88 0 0 0 1.11,1.41 z m 2.6,1.55 c -0.24,-0.63 -0.54,-1.33 -0.89,-2.12 l -0.22,-0.49 -0.29,-0.49 a 0.63,0.63 0 0 0 -0.9,-0.17 l 0.75,1.2 0.75,1.27 c 0.68,1.09 1.18,1.94 1.51,2.5500001 a 13.54,13.54 0 0 0 -0.71,-1.7700001 z m 9,14.0700001 a 4.25,4.25 0 0 0 -0.26,-1.49 l -0.4,-0.8 -0.41,-0.8 a 41.76,41.76 0 0 0 -3,-5.35 l -1.64,-2.53 a 25.79,25.79 0 0 1 -1.59,-2.5900001 q 1.35,3.1000001 3.73,7.6300001 l 1.91,3.74 1.92,3.74 z m 2.31,26.22 v 0.21 a 0.23,0.23 0 0 0 0.31,0.21 q -0.47,-2.25 -1.18,-6.41 l -0.56,-3.24 -0.64,-3.29 a 110.1,110.1 0 0 0 -2.91,-12.25 q 0.64,2.63 1.32,6.11 l 0.6,3.11 0.55,3.17 q 1.41,8.17 2.51,12.19 z m 1.31,-1 c 0.13,0.78 0.32,1.12 0.58,1 0.26,-0.12 0.25,-0.18 0.25,-0.45 a 0.56,0.56 0 0 0 -0.07,-0.39 l -0.06,-0.39 c -0.28,-1.33 -0.63,-3.14 -1.07,-5.42 l -1,-5.64 a 60.09,60.09 0 0 0 -2.73,-10 q 1.07,4.23 2.19,10.37 z"
     id="path3994"
     inkscape:connector-curvature="0" />
  <path
     d="m 235.00022,16.326093 -1.51,3.6 c -1.19,2.91 -2.17,5.38 -2.94,7.43 q -3.42,8.6 -5.63,15.36 l -0.4,1.13 -0.41,1.13 a 13.23,13.23 0 0 0 -0.66,2.22 3.25,3.25 0 0 0 -0.12,1.05 c -0.05,0.52 0,0.82 0,0.87 a 1.72,1.72 0 0 0 0.7,0.2 l 0.52,0.09 a 4.34,4.34 0 0 1 0.43,0.21 l 0.21,0.31 0.2,0.37 a 0.8,0.8 0 0 1 -0.14,0.77 c -0.12,0.2 -0.69,0.24 -1.69,0.1 l -0.58,-0.1 -0.66,-0.05 -2.17,-0.37 a 7.81,7.81 0 0 0 -1.12,-0.14 h -0.52 -0.53 a 1.6,1.6 0 0 1 -0.91,-0.16 0.68,0.68 0 0 1 -0.24,-0.51 1,1 0 0 1 0,-0.6 0.61,0.61 0 0 1 0.53,-0.37 h 0.34 a 0.43,0.43 0 0 0 0.29,-0.15 3.34,3.34 0 0 0 -0.05,-1.21 v -0.46 l -0.06,-0.41 a 2.06,2.06 0 0 1 0,-0.55 c -0.08,-1 -0.1,-2.4 -0.07,-4.08 v -2 -2 c 0,-1.34 -0.09,-3.11 -0.19,-5.31 l -0.19,-5.25 a 24.11,24.11 0 0 1 -0.05,-2.68 v -1.34 -1.34 q -0.27,-3.33 -0.46,-7.84 l -0.4,-7.8200001 q -1.62,7.4500001 -4.07,20.0000001 l -2,10.27 q -1.14,6 -1.94,10.08 a 3.4,3.4 0 0 0 0.7,0.19 h 0.67 a 2.3,2.3 0 0 1 1.15,0.34 1.21,1.21 0 0 1 0.33,0.73 1.12,1.12 0 0 1 -0.11,1 c -0.11,0.16 -0.5,0.22 -1.17,0.19 l -0.92,-0.1 -0.85,-0.08 a 7,7 0 0 0 -0.79,-0.08 h -0.93 a 3.18,3.18 0 0 1 -1.29,-0.23 c -0.17,-0.08 -0.28,-0.3 -0.35,-0.67 a 1,1 0 0 1 0.07,-0.78 0.58,0.58 0 0 1 0.46,-0.32 l 0.28,-0.09 h 0.28 0.2 0.4 a 1.46,1.46 0 0 0 0.61,0 4,4 0 0 0 0.19,-1.1 l 0.28,-1.55 q 0.56,-3 1.78,-9.17 1.22,-6.17 1.76,-9 0.81,-4.53 2.23,-11.7 1.42,-7.1700001 2,-10.5300001 l 0.08,-0.45 0.15,-0.44 a 1.91,1.91 0 0 0 0.05,-0.66 c 0,-0.1 -0.19,-0.17 -0.49,-0.22 l -0.31,-0.13 -0.37,-0.2 a 3,3 0 0 1 -0.38,-0.47 c -0.14,-0.24 -0.17,-0.41000005 -0.12,-0.49000005 0.05,-0.08 0.5,-0.31 1.26,-0.3 0.26,0 0.59,0.08 1,0.11 h 0.46 l 0.39,0.07 a 13.19,13.19 0 0 1 5.46,1.25000005 2.1,2.1 0 0 1 1.05,1.19 c 0.1,0.42 -0.31,0.5 -1.25,0.24 q 0.47,7.5100001 0.75,19.3200001 l 0.18,9.79 0.26,9.74 q 2.34,-7.47 6.11,-16.95 l 3.27,-8.17 1.68,-4.11 1.68,-4.1800001 0.11,-0.24 0.13,-0.31 0.32,-0.68 c 0.24,-0.58 0.34,-0.9 0.3,-1 -0.04,-0.1 -0.22,-0.11 -0.57,-0.17 l -0.65,-0.12 -0.26,-0.38 a 1.47,1.47 0 0 1 -0.12,-0.49 c 0.06,-0.57 0.6,-0.85 1.63,-0.84 a 5.72,5.72 0 0 1 1.33,0 l 0.66,0.05 h 0.59 3.81 a 1.87,1.87 0 0 1 1.16,0.61 1,1 0 0 1 0.25,1.18 0.47,0.47 0 0 1 -0.64,0.22 l -0.32,-0.06 a 0.43,0.43 0 0 0 -0.27,0 c -0.05,0 -0.06,0.21 0,0.53 v 0.47 l -0.07,0.39 a 90.93,90.93 0 0 1 -2.13,10.3700001 l -1.26,5.19 q -0.66,3 -1.08,5.29 l -1.48,8.22 c -0.55,3.07 -1,5.74 -1.37,8 -0.07,0.61 -0.23,1.5 -0.48,2.65 -0.25,1.15 -0.44,2.11 -0.55,2.71 v 1.14 l 0.14,0.36 0.28,0.31 a 1.44,1.44 0 0 1 0.27,0.72 c -0.25,0.4 -0.42,0.61 -0.52,0.64 a 1.06,1.06 0 0 1 -0.85,-0.08 l -0.5,-0.23 -0.44,-0.14 a 7,7 0 0 0 -1.36,-0.25 c -0.38,-0.07 -0.91,-0.14 -1.56,-0.21 l -0.73,-0.06 h -0.8 a 3.08,3.08 0 0 1 -1.21,-0.29 c -0.2,-0.17 -0.25,-0.64 -0.15,-1.43 0.18,-0.23 0.6,-0.34 1.26,-0.31 0.35,0 0.59,-0.33 0.73,-1.07 0.22,-1 0.48,-2.32 0.76,-3.87 l 0.26,-1.83 0.31,-1.74 c 0.69,-3.31 1.54,-8.1 2.58,-14.38 l 1.31,-7.32 q 0.69,-4.22 1.35,-7.51 z m -15.74,-5.37 0.07,-0.05 c 0,-1.1200001 0,-2.1500001 0,-3.0700001 0,-1.29 0,-2.41 0.06,-3.33 v -0.53 -0.47 a 2.37,2.37 0 0 0 -0.06,-0.81 c -0.17,-0.52 -0.64,-0.76 -1.4,-0.72 l 0.35,2.13 0.4,2.22 c 0.23,1.68 0.41,3.19 0.53,4.5000001 z m 1,37.87 h 0.4 l 0.38,0.07 q -0.84,-7.17 -1.35,-12.2 c -0.12,1.67 -0.17,3.68 -0.15,6.05 l 0.06,3 v 2.94 a 1.91,1.91 0 0 0 0.62,0.14 z m 0.89,-30.78 v -2.55 l -0.08,-2.55 a 22.26,22.26 0 0 0 -0.65,-4.5900001 l 0.06,8.6300001 q 0.07,5.16 0.19,8.59 a 151.18,151.18 0 0 0 1.1,16.63 q -0.62,-12.79 -0.62,-24.16 z m 16.88,5.7 0.76,-5 c 0.59,-4 1.16,-7.34 1.71,-9.9100001 l 0.06,-0.33 0.13,-0.37 0.14,-0.78 c 0.17,-0.68 0.2,-1.1 0.09,-1.25 -0.11,-0.15 0,-0.05 -0.13,0 h -0.2 a 44,44 0 0 0 -1,5.3700001 c -0.1,0.78 -0.23,1.67 -0.41,2.66 l -0.54,2.64 -0.9,5.39 -0.82,5.33 q -1,6.51 -2,10.61 l -0.65,3.22 -0.65,3.23 q -0.79,4.07 -1.29,6.12 a 1.75,1.75 0 0 1 0.85,0.08 l 0.38,0.14 0.38,0.07 0.77,-5.41 0.79,-5.48 q 0.9,-6.18 1.73,-11.51 c 0.21,-1.25 0.48,-2.87 0.78,-4.82 z"
     id="path3996"
     inkscape:connector-curvature="0" />
  <path
     d="m 280.15022,37.646093 0.21,-0.63 c 0.24,-0.52 0.43,-0.79 0.59,-0.81 a 0.71,0.71 0 0 1 0.66,0.29 1.12,1.12 0 0 1 0.35,0.67 1.89,1.89 0 0 1 -0.32,0.87 l -0.41,0.9 a 9.1,9.1 0 0 0 -0.42,1.25 l -0.24,0.68 -0.21,0.63 c -0.41,1 -0.8,1.49 -1.15,1.43 a 0.8,0.8 0 0 1 -0.76,-0.71 2.17,2.17 0 0 1 0.13,-1.09 l 0.43,-1 a 2.28,2.28 0 0 0 0.27,-0.75 q 0,-0.09 -0.48,-0.21 l -0.39,-0.11 -0.3,-0.13 -0.81,-0.44 -0.78,-0.5 -1.66,-1 a 0.93,0.93 0 0 1 -0.21,-0.17 l -0.33,-0.22 c -0.31,-0.18 -0.49,-0.27 -0.54,-0.25 -0.05,0.02 -0.26,0.25 -0.48,0.73 a 11,11 0 0 0 -0.48,1.23 q -1,2.56 -2.54,5.78 l -2.75,5.75 q -3.63,7.54 -5.32,11.75 l 2.84,1.22 2.81,1.12 c 2.38,0.93 4.31,1.76 5.81,2.49 l 0.22,-0.48 0.18,-0.57 a 7.55,7.55 0 0 1 0.57,-1.26 c 0.53,-1.06 1,-1.59 1.38,-1.61 a 1.22,1.22 0 0 1 0.6,0.12 c 0.29,0.09 0.48,0.22 0.54,0.4 0.06,0.18 0,0.36 -0.26,0.74 l -0.28,0.45 -0.19,0.42 a 8.38,8.38 0 0 0 -1.13,2.67 v 0.21 0.29 a 0.78,0.78 0 0 1 -0.13,0.59 c -0.2,0.24 -0.64,0.19 -1.3,-0.15 l -0.33,-0.23 -0.33,-0.22 c -0.31,-0.18 -0.5,-0.3 -0.58,-0.33 a 46.22,46.22 0 0 0 -4.43,-2 l -2.39,-0.93 -2.33,-0.92 -1.65,-0.67 -1.74,-0.79 c -1.45,-0.61 -2.63,-1.09 -3.53,-1.45 l -0.54,-0.24 c -0.18,-0.13 -0.34,-0.25 -0.48,-0.37 -0.39,-0.32 -0.43,-0.6 -0.12,-0.85 0.15,-0.12 0.4,-0.1 0.76,0.06 l 0.36,0.17 a 0.35,0.35 0 0 0 0.36,0 1.36,1.36 0 0 0 0.24,-0.54 l 0.08,-0.32 a 0.84,0.84 0 0 1 0,-0.27 c 0.54,-1.3 1.3,-3 2.3,-5.1 l 1.26,-2.61 1.22,-2.54 3.29,-7.11 3.26,-7.05 q 4,-8.65 6.29,-13.9 a 3.87,3.87 0 0 0 0.21,-0.62 l 0.38,-0.84 a 4.12,4.12 0 0 0 0.4,-1.05 q 0,-0.09 -0.6,-0.27 l -0.42,-0.19 a 0.44,0.44 0 0 1 -0.24,-0.26 0.89,0.89 0 0 1 0,-0.44 0.73,0.73 0 0 1 0.28,-0.45 c 0.11,-0.14 0.43,-0.09 0.95,0.14 l 0.66,0.3 0.63,0.36 c 0.24,0.11 0.65,0.27 1.22,0.48 l 0.63,0.21 0.54,0.24 c 1.65,0.61 3.65,1.46 6,2.57 l 3.05,1.39 3.09,1.47 0.6,0.27 0.69,0.38 a 4.66,4.66 0 0 0 1.08,0.49 l 0.18,-0.07 c 0.07,-0.06 0.13,-0.08 0.17,-0.06 0.62,0.23 0.83,0.62 0.63,1.15 -0.07,0.16 -0.22,0.43 -0.43,0.81 l -0.31,0.52 -0.3,0.51 a 2.42,2.42 0 0 0 -0.33,0.72 l -0.07,0.32 -0.14,0.3 c -0.11,0.14 -0.19,0.21 -0.23,0.19 h -0.08 a 0.26,0.26 0 0 0 -0.15,0.16 l -0.17,0.21 v 0.26 a 0.43,0.43 0 0 1 -0.23,0.34 0.84,0.84 0 0 1 -0.72,-0.33 1.1,1.1 0 0 1 -0.34,-0.66 3.74,3.74 0 0 1 0.41,-1.4 9,9 0 0 1 0.75,-1.33 l 0.05,-0.12 0.17,-0.21 c 0.15,-0.12 0.21,-0.21 0.19,-0.27 -0.02,-0.06 -0.28,-0.27 -0.72,-0.48 l -0.51,-0.15 -0.24,-0.11 c -2.34,-1.2 -4.77,-2.38 -7.29,-3.51 -0.08,0 -0.27,-0.15 -0.57,-0.34 l -0.39,-0.25 -0.48,-0.21 c -0.76,-0.44 -1.24,-0.61 -1.43,-0.51 -0.19,0.1 -0.2,0.18 -0.31,0.52 l -0.19,0.41 -0.1,0.39 q -0.94,2.25 -2.77,6 l -1.47,3.09 c -0.59,1.18 -1.09,2.24 -1.53,3.21 l -0.13,0.3 -0.31,0.51 c -0.29,0.54 -0.42,0.87 -0.37,1 0.05,0.13 0.24,0.16 0.66,0.3 l 0.44,0.13 0.36,0.16 c 0.64,0.29 1.36,0.67 2.17,1.13 0.58,0.31 1.26,0.71 2,1.21 a 1.77,1.77 0 0 0 0.29,-0.4 z m -18.67,15.09 c 0.42,-0.92 0.69,-1.57 0.81,-1.94 l -0.46,1 -0.55,1 a 13.05,13.05 0 0 0 -0.77,2 z m 3.34,-7.37 c 0.49,-1.08 0.82,-1.87 1,-2.37 l -0.57,1.26 -0.66,1.29 a 21.07,21.07 0 0 0 -1,2.46 z m 5.69,-7.32 c 0.11,-0.24 0.11,-0.28 0,-0.14 a 11.57,11.57 0 0 0 -1,1.8 l -0.38,1 -0.46,1 a 110.21,110.21 0 0 0 -5,11.41 c 0.89,-1.86 2,-4.29 3.31,-7.31 l 1.57,-3.62 z m 5.3,-17.45 -0.75,1.82 c -0.59,1.52 -1.06,2.72 -1.42,3.62 l -0.24,0.54 c -0.11,0.24 -0.07,0.21 0.11,-0.09 1.33,-2.63 2.48,-4.8 3.46,-6.53 l 0.43,-1 c 0.2,-0.43 0.27,-0.69 0.21,-0.77 a 1,1 0 0 0 -0.34,-0.22 1,1 0 0 0 -0.41,0 c -0.06,0 -0.13,0.13 -0.22,0.33 a 1.07,1.07 0 0 0 -0.11,0.38 z m -1.07,6.37 c -0.19,0.4 -0.25,0.59 -0.19,0.57 a 16.48,16.48 0 0 0 1.1,-2.11 l 0.43,-1.1 0.46,-1 c -0.37,0.7 -0.82,1.65 -1.37,2.85 a 4.46,4.46 0 0 0 -0.39,0.75 z"
     id="path3998"
     inkscape:connector-curvature="0" />
  <path
     d="m 319.47022,65.466093 0.28,-0.37 0.31,-0.51 c 0.29,-0.38 0.43,-0.64 0.41,-0.76 -0.02,-0.12 -0.33,-0.47 -0.91,-0.86 l -0.76,-0.42 -0.31,-0.24 -0.3,-0.15 -1.18,-0.73 -0.35,-0.19 -0.32,-0.24 a 1.58,1.58 0 0 0 -0.51,-0.31 c -0.09,0 -0.31,0.15 -0.63,0.51 l -0.38,0.38 -0.29,0.27 -2.9,2.5 -2.82,2.48 q -3.45,3 -5.85,5.38 l -1.53,1.56 -1.58,1.53 q -1.79,1.78 -3.25,3.06 c -0.2,0.18 -0.62,0.52 -1.28,1 a 1.71,1.71 0 0 0 0.39,0.47 l 0.33,0.33 a 0.42,0.42 0 0 1 0.17,0.21 v 0.09 l 0.06,0.14 a 1.43,1.43 0 0 1 0.07,0.46 c 0,0.37 -0.13,0.59 -0.34,0.65 -0.21,0.06 -0.57,-0.19 -1.27,-0.72 l -0.46,-0.27 -1.09,-0.84 a 3,3 0 0 0 -0.51,-0.31 l -0.25,-0.1 -0.11,-0.08 a 1,1 0 0 1 -0.16,-0.74 c 0,-0.35 0.16,-0.57 0.34,-0.66 0.18,-0.09 0.4,0.06 0.74,0.33 l 0.37,0.28 a 0.84,0.84 0 0 0 0.38,0 3.48,3.48 0 0 0 1,-0.83 l 0.61,-0.69 a 3.84,3.84 0 0 1 0.55,-0.5 q 9.45,-9 14.91,-13.85 l 3.74,-3.27 3.65,-3.25 q 4.36,-3.87 7.55,-7.05 l 0.26,-0.23 0.2,-0.26 c 0.24,-0.25 0.45,-0.45 0.62,-0.6 l 0.25,-0.22 0.39,-0.28 c 0.28,-0.23 0.42,-0.37 0.41,-0.43 -0.01,-0.06 -0.27,-0.3 -0.77,-0.51 l -0.59,-0.2 a 1,1 0 0 1 -0.34,-0.43 0.65,0.65 0 0 1 0,-0.47 1,1 0 0 1 0.31,-0.51 c 0.23,-0.16 0.72,0 1.46,0.37 l 0.87,0.59 c 0.38,0.23 0.66,0.39 0.87,0.49 l 0.7,0.38 a 5.72,5.72 0 0 1 0.67,0.42 9.56,9.56 0 0 0 1.23,0.78 l 0.61,0.39 0.62,0.38 0.36,0.28 0.46,0.27 a 2.62,2.62 0 0 1 0.68,0.52 1.45,1.45 0 0 1 0,0.61 1,1 0 0 1 -0.3,0.51 h -0.33 a 1.76,1.76 0 0 1 -0.38,0 l -0.37,-0.28 c -0.17,-0.13 -0.29,-0.2 -0.35,-0.19 a 4.94,4.94 0 0 0 -0.7,1.13 6,6 0 0 0 -0.4,0.85 5.39,5.39 0 0 0 -0.3,0.6 l -1.58,3.26 -1.58,3.27 q -1.92,3.83 -3.44,6.56 l -0.73,1.27 -0.8,1.37 c -0.67,1.09 -1.17,2 -1.52,2.64 l -1.33,2.62 -1.34,2.62 q -1.63,3.23 -2.77,5.25 c -0.62,0.999995 -1.29,2.299995 -2,3.829995 l -1,2 -1,2 -0.14,0.31 -0.15,0.3 -0.4,0.85 c -0.35,0.67 -0.51,1.05 -0.46,1.14 a 1,1 0 0 0 0.48,0.45 l 0.47,0.36 a 1.05,1.05 0 0 1 0,0.9 1,1 0 0 1 -0.55,0.49 c -0.15,0 -0.5,-0.11 -1,-0.47 l -1.36,-1 c -0.32,-0.24 -0.74,-0.59 -1.27,-1.05 l -2,-1.52 c -0.35,-0.27 -0.52,-0.51 -0.52,-0.73 0.13,-0.9 0.62,-1 1.47,-0.2 a 236.71,236.71 0 0 1 11.86,-24.169995 z m -7.64,19.499995 2.08,-5.209995 -1.27,2.43 -1.29,2.329995 q -1.54,2.86 -2.32,4.76 a 11.72,11.72 0 0 0 2.8,-4.31 z m 7.32,-24.059995 1,0.8 a 3.14,3.14 0 0 0 1.07,0.66 q 0.09,0 0.48,-0.63 l 0.26,-0.55 a 2.46,2.46 0 0 1 0.23,-0.41 c 0.4,-0.74 0.89,-1.66 1.46,-2.77 l 0.64,-1.49 0.74,-1.51 a 45.44,45.44 0 0 1 2.77,-5.34 q -2.16,2.16 -5.38,5.08 l -2.74,2.38 -2.68,2.42 z m 4.69,4.26 q -2.43,4.35 -6.43,12.3 4.13,-7.35 6.43,-12.3 z m 6.1,-13.06 0.7,-1.45 0.66,-1.41 q 0,-0.14 -0.18,-0.3 l -0.25,-0.11 -0.25,-0.11 a 47.16,47.16 0 0 0 -3.09,6.09 l -1.33,3 c -0.5,1.16 -1,2.18 -1.42,3.05 0.5,-0.72 1.09,-1.68 1.78,-2.86 l 0.88,-1.48 0.92,-1.53 a 26.62,26.62 0 0 0 1.58,-2.89 z"
     id="path4000"
     inkscape:connector-curvature="0" />
  <path
     d="m 359.58022,91.486088 -4.6,3.52 -4.65,3.56 q -1.77,1.36 -4.42,3.630002 l -2.2,1.89 -2.28,1.88 q -4.38,3.58 -6.59,5.67 l -1.06,0.87 c -0.52,0.48 -0.78,0.78 -0.79,0.91 -0.01,0.13 0.14,0.38 0.48,0.79 l 0.43,0.42 0.25,0.3 q 1.15,1.52 3.21,3.92 l 1.72,2 1.63,2 a 9.51,9.51 0 0 1 0.93,-0.84 9.16,9.16 0 0 1 1.16,-1 c 1,-0.71 1.61,-1 2,-0.87 a 1,1 0 0 1 0.61,0.43 1,1 0 0 1 0.3,0.78 1.88,1.88 0 0 1 -0.64,0.78 l -0.6,0.4 -1,0.84 -0.46,0.47 a 9.16,9.16 0 0 1 -1,0.7 l -0.15,0.12 -0.25,0.12 a 0.86,0.86 0 0 1 -0.44,0.19 0.41,0.41 0 0 1 -0.32,-0.08 l -0.13,-0.06 h -0.1 a 3.53,3.53 0 0 1 -0.89,-0.88 l -0.41,-0.6 -1.84,-2.23 -1.67,-1.95 -1.55,-1.88 -1.45,-1.87 q -1.71,-2.08 -3.29,-3.69 a 17.87,17.87 0 0 0 -2.49,-2.2 l -0.08,-0.1 h -0.06 l -0.3,-0.27 a 0.48,0.48 0 0 1 -0.11,-0.76 0.85,0.85 0 0 1 0.95,-0.18 10.66,10.66 0 0 0 1.14,0.77 5.8,5.8 0 0 0 1,-0.75 l 1,-0.83 c 0.95,-0.78 2.34,-2 4.17,-3.52 l 2,-1.81 2.13,-1.76 c 0.81,-0.670002 1.83,-1.470002 3,-2.410002 l 1.66,-1.19 1.67,-1.29 c 2.76,-2.1 4.91,-3.83 6.44,-5.21 q 3.79,-3.36 10.46,-8.419995 a 4.71,4.71 0 0 1 0.6,-0.4 l 0.7,-0.5 a 3.54,3.54 0 0 0 0.81,-0.66 c 0,-0.09 0,-0.23 -0.24,-0.4 a 3.2,3.2 0 0 0 -0.52,-0.43 c -0.52,-0.42 -0.76,-0.65 -0.73,-0.68 0.74,-0.48 1.24,-0.67 1.51,-0.55 a 2.71,2.71 0 0 1 1.11,1 l 0.2,0.35 0.25,0.31 a 1.07,1.07 0 0 0 0.48,0.37 2.43,2.43 0 0 1 0.54,0.66 7.08,7.08 0 0 0 0.88,1.07 l 0.5,0.61 0.59,0.619995 c 0.93,1 1.35,1.64 1.26,1.94 a 1.41,1.41 0 0 1 -0.36,0.39 c -0.24,0.19 -0.39,0.29 -0.45,0.28 q -0.37,0 -0.69,-0.63 l -0.32,-0.59 a 2.86,2.86 0 0 0 -0.46,-0.46 70.08,70.08 0 0 1 -8.18,7.39 z m 3.71,-8.33 -2.83,2.15 -2.87,2.19 c -2.41,1.92 -4.29,3.35 -5.66,4.31 -0.61,0.44 -1.35,1 -2.23,1.74 l -2.14,1.85 -4.13,3.48 -4.13,3.560002 q -5.14,4.32 -8.48,6.89 c -0.64,0.46 -0.94,0.76 -0.89,0.89 0.09,0.38 0.28,0.51 0.57,0.38 l 0.56,-0.46 0.27,-0.3 0.31,-0.34 a 5.49,5.49 0 0 1 0.52,-0.51 1.49,1.49 0 0 1 0.49,-0.23 4.34,4.34 0 0 0 0.5,-0.33 17.82,17.82 0 0 0 1.94,-1.68 l 1,-0.89 1,-0.88 a 349.21,349.21 0 0 1 28.69,-23.329997 c 0,0 0,-0.08 0,-0.15 a 7.35,7.35 0 0 0 -1.2,0.73 l -0.65,0.45 z m -18.14,17.620002 2.12,-1.570002 4.24,-3.23 a 84.11,84.11 0 0 0 7.87,-6.9 l -4.1,3.2 -4.13,3.24 q -4.82,3.87 -8,6.780002 z"
     id="path4002"
     inkscape:connector-curvature="0" />
</svg>
