<?xml version="1.0" encoding="UTF-8" standalone="no"?>
<svg
   xmlns:dc="http://purl.org/dc/elements/1.1/"
   xmlns:cc="http://creativecommons.org/ns#"
   xmlns:rdf="http://www.w3.org/1999/02/22-rdf-syntax-ns#"
   xmlns:svg="http://www.w3.org/2000/svg"
   xmlns="http://www.w3.org/2000/svg"
   xmlns:sodipodi="http://sodipodi.sourceforge.net/DTD/sodipodi-0.dtd"
   xmlns:inkscape="http://www.inkscape.org/namespaces/inkscape"
   id="Слой_1"
   data-name="Слой 1"
   viewBox="0 0 271.7991 259.74301"
   version="1.1"
   sodipodi:docname="logo-primary-without.svg"
   inkscape:version="0.92.5 (2060ec1f9f, 2020-04-08)"
   width="271.7991"
   height="259.74301"
   inkscape:export-filename="/home/george/projects/easy-meal/public/logo-primary.png"
   inkscape:export-xdpi="16.061934"
   inkscape:export-ydpi="16.061934">
  <metadata
     id="metadata4059">
    <rdf:RDF>
      <cc:Work
         rdf:about="">
        <dc:format>image/svg+xml</dc:format>
        <dc:type
           rdf:resource="http://purl.org/dc/dcmitype/StillImage" />
        <dc:title>Дубровской5</dc:title>
      </cc:Work>
    </rdf:RDF>
  </metadata>
  <sodipodi:namedview
     pagecolor="#ffffff"
     bordercolor="#666666"
     borderopacity="1"
     objecttolerance="10"
     gridtolerance="10"
     guidetolerance="10"
     inkscape:pageopacity="0"
     inkscape:pageshadow="2"
     inkscape:window-width="1920"
     inkscape:window-height="948"
     id="namedview4057"
     showgrid="false"
     inkscape:zoom="0.71296296"
     inkscape:cx="106.02465"
     inkscape:cy="168.15303"
     inkscape:window-x="0"
     inkscape:window-y="27"
     inkscape:window-maximized="1"
     inkscape:current-layer="Слой_1" />
  <defs
     id="defs3916">
    <style
       id="style3914">.cls-1,.cls-4{fill:#fff;}.cls-1{stroke:#333;}.cls-1,.cls-2,.cls-3,.cls-4{stroke-miterlimit:10;}.cls-1,.cls-3,.cls-4{fill-rule:evenodd;}.cls-2,.cls-3{fill:none;}.cls-2,.cls-3,.cls-4{stroke:#000;}.cls-5{opacity:0.8;}.cls-6{fill:#de4746;}.cls-6,.cls-7,.cls-8{opacity:0.4;}.cls-7{fill:#edd7a3;}.cls-8{fill:#9ca93a;}.cls-9{fill:#333;}</style>
  </defs>
  <title
     id="title3918">Дубровской5</title>
  <g
     class="cls-5"
     id="g3958"
     transform="translate(-148.28704,-384.51392)"
     style="opacity:0.8">
    <path
       class="cls-6"
       d="m 287.43,576.39 c -2.31,1.49 -4.67,3 -7,4.79 -8,6.09 -16.2,11.22 -25.71,14.63 -18.4,6.59 -39.4,6.89 -57.2,-1.75 -7.45,-3.61 -14.36,-8.78 -18.75,-15.81 -6.32,-10.12 -6.74,-22.75 -10.87,-34 -6,-16.31 -20.1,-30.34 -19.6,-47.73 0.48,-16.2 13.84,-29.23 28.19,-36.76 a 99.82,99.82 0 0 1 39.7,-11.19 84.07,84.07 0 0 1 22.6,1.53 c 8.92,1.88 16.77,4.75 26.14,4.5 15.76,-0.42 29,-10.67 44.54,-3.1 8.92,4.34 15.75,12.05 21.42,20.18 4.54,6.51 8.58,13.67 9.54,21.55 1.85,15.17 -7.85,29.07 -17.05,41.27 l -23.7,31.39 c -3.6,4.8 -7.83,7.63 -12.25,10.5 z"
       id="path3952"
       inkscape:connector-curvature="0"
       style="opacity:0.4;fill:#de4746" />
    <path
       class="cls-7"
       d="m 396.6,587.1 c -8.19,22 -27,38.81 -47.91,49.53 -7.54,3.87 -15.6,7.11 -24.05,7.57 -8.08,0.43 -16,-1.68 -24,-2.84 -7.35,-1.06 -14.8,-1.31 -22.15,-2.2 -2.74,-0.33 -5.47,-0.75 -8.17,-1.33 -10,-2.14 -19.94,-6.94 -25.28,-15.61 -6.74,-10.93 -4.46,-25.26 0.73,-37 3.92,-8.86 9.34,-17 13.68,-25.67 a 85,85 0 0 0 3.79,-8.64 c 4.08,-11 5.19,-23.09 9,-34.16 a 52.67,52.67 0 0 1 5.37,-11.34 c 6,-9.42 13.94,-14.06 23.12,-19.75 16.53,-10.26 36,-14.87 53.59,-8.55 a 50,50 0 0 1 16.05,9.51 c 7.16,6.22 12.54,14.23 17,22.58 12.78,23.8 18.63,52.63 9.23,77.9 z"
       id="path3954"
       inkscape:connector-curvature="0"
       style="opacity:0.4;fill:#edd7a3" />
    <path
       class="cls-8"
       d="m 412.13,447.07 c 2.86,21.39 -2.24,43.9 -16.2,60.17 -7.11,8.27 -16,14.76 -24.9,21.11 -6.17,4.42 -12.63,8.94 -20.1,10.26 -11.32,2 -22.89,-3.65 -34.27,-2 -6.41,0.92 -12.49,4.14 -19,3.88 -8.91,-0.35 -16.13,-7.1 -22,-13.77 -5.45,-6.16 -10.66,-12.8 -13.22,-20.6 -3.89,-11.83 2.65,-22.4 2.87,-34.21 0.26,-14.08 1.85,-28.1 2.64,-42.15 0.81,-14.38 5.9,-28.62 21.08,-33.44 13.33,-4.25 28.4,1 41.56,-3.74 5.14,-1.85 9.69,-5.15 14.9,-6.82 8.36,-2.65 17.56,-0.76 25.61,2.73 23.54,10.2 37.7,33.62 41.03,58.58 z"
       id="path3956"
       inkscape:connector-curvature="0"
       style="opacity:0.4;fill:#9ca93a" />
  </g>
  <path
     class="cls-9"
     d="m 104.98296,129.71608 -0.24,-2.4 c 0,-2.08 0.24,-3.28 0.72,-3.61 a 2.56,2.56 0 0 1 2.64,0 4.12,4.12 0 0 1 2.16,1.68 6.75,6.75 0 0 1 0.24,3.36 v 3.61 a 39,39 0 0 0 0.48,4.8 l 0.24,2.64 0.24,2.4 q 0.24,6 -1.68,6.49 a 3,3 0 0 1 -3.6,-1.2 8.46,8.46 0 0 1 -1.2,-3.85 v -3.84 a 8.27,8.27 0 0 0 -0.24,-2.88 c -0.16,-0.16 -0.81,-0.16 -1.92,0 l -1.44,0.24 h -1.2 l -3.370001,-0.24 -3.36,-0.48 -7,-0.72 a 3.93,3.93 0 0 1 -1,-0.24 l -1.44,-0.24 c -1.28,-0.16 -2,-0.16 -2.16,0 q -0.48,0.24 -0.48,3.12 a 41.38,41.38 0 0 0 0.24,4.8 q 0.47,10.1 0.24,23.05 l -0.48,23.3 q -0.72,30.5 0,47.06 l 11.28,-0.24 11.000001,-0.48 q 13.92,-0.72 23.05,-0.48 v -1.88 l -0.24,-2.17 a 26.4,26.4 0 0 1 0,-5 q 0.24,-6.48 2.16,-7.44 a 3.93,3.93 0 0 1 2.16,-0.48 2.74,2.74 0 0 1 2.4,0.48 q 0.48,0.48 0.24,2.88 l -0.24,1.92 v 1.68 q -0.72,7.2 0.24,10.57 l 0.24,0.72 0.48,1 a 2.85,2.85 0 0 1 0.48,2.16 q -0.48,1.68 -4.56,1.44 l -1.35,-0.36 -1.44,-0.24 q -1.92,-0.24 -2.4,-0.24 a 163.12,163.12 0 0 0 -17.77,0 l -9.370001,0.48 -9.12,0.48 -6.48,0.24 h -6.999998 q -8.64,0.24 -13.920005,0.48 h -2.1 q -1.2,-0.24 -2.16,-0.48 -2.64,-0.72 -1.68,-2.64 0.48,-1 2.64,-1 h 1.45 c 0.63,0 1,-0.16 1.2,-0.48 a 4.85,4.85 0 0 0 0,-2.16 l -0.25,-1.2 a 3.74,3.74 0 0 1 -0.23,-1 q -0.24,-7.69 0,-20.41 l 0.23,-10.57 0.25,-10.32 0.24,-28.58 0.24,-28.33 q 0.22,-34.81 0,-55.709999 a 19.48,19.48 0 0 0 -0.24,-2.4 v -3.32 a 15.56,15.56 0 0 0 -0.24,-4.08 q -0.24,-0.24 -2.4,0 h -1.69 a 1.64,1.64 0 0 1 -1.2,-0.48 3,3 0 0 1 -0.72,-1.45 2.47,2.47 0 0 1 0.24,-1.91 c 0.16,-0.65 1.28,-1 3.37,-1 h 2.64 l 2.640005,0.24 q 1.44,0 4.8,-0.24 l 2.4,-0.24 h 2.16 q 9.599998,-0.72 23.769998,-0.48 h 12.250001 l 12.49,0.24 h 2.4 l 2.88,0.24 a 17,17 0 0 0 4.32,0 l 0.48,-0.48 q 0.24,-0.48 0.48,-0.48 c 2.4,-0.16 3.68,0.81 3.84,2.88 0,0.65 -0.08,1.77 -0.24,3.37 l -0.24,2.16 -0.24,2.16 a 8.64,8.64 0 0 0 0,2.88 l 0.24,1.2 v 1.2 q -0.24,1 -0.48,1 l -0.24,0.24 a 1,1 0 0 0 -0.24,0.72 l -0.24,1 0.24,1 a 1.43,1.43 0 0 1 -0.24,1.44 3,3 0 0 1 -2.88,0 4.08,4.08 0 0 1 -2.16,-1.68 14.31,14.31 0 0 1 -0.72,-5.28 30.82,30.82 0 0 1 0.48,-5.52 v -0.48 l 0.24,-1 q 0.48,-1 0.24,-1.2 -0.48,-0.48 -3.12,-0.48 l -1.92,0.23 h -1 q -14.37,-0.72 -29.480001,-0.72 c -0.32,0 -1.12,-0.08 -2.4,-0.25 l -1.68,-0.24 h -1.92 c -3.2,-0.32 -5,-0.15 -5.52,0.49 -0.33,0.16 -0.4,0.87 -0.24,2.16 v 1.68 l 0.24,1.44 q 0.24,8.88 -0.24,24 l -0.24,12.489999 c -0.17,4.81 -0.24,9.13 -0.24,13 v 1.2 l -0.24,2.16 c -0.17,2.25 -0.08,3.53 0.24,3.84 q 0.24,0.25 2.64,0 l 1.68,-0.23 h 1.44 q 3.84,0 8.88,0.48 c 2.4,0.16 5.290001,0.48 8.650001,1 a 6.57,6.57 0 0 0 0.22,-1.99 z m -40.099999,-50.229999 0.24,7.2 q 0.48,8.89 0.72,14.169999 v 2.16 c 0,1 0.08,0.81 0.24,-0.48 q 0.72,-16.079999 1.68,-26.889999 v -3.84 q 0,-2.64 -0.48,-2.88 a 3.32,3.32 0 0 0 -1.44,-0.25 3.77,3.77 0 0 0 -1.44,0.48 2.54,2.54 0 0 0 -0.24,1.45 3.34,3.34 0 0 0 0.24,1.44 z m 0.72,98.929999 q 0,-6.48 -0.24,-9.37 v 5 l -0.24,5.28 a 72.64,72.64 0 0 0 0.48,9.61 z m 0,29.53 q 0,-5.52 -0.24,-7.68 v 4.08 l -0.24,4.32 a 45.5,45.5 0 0 0 0.48,7.93 z m 5.28,-105.65 q 0,2.4 0.24,2.16 a 57.09,57.09 0 0 0 0.48,-8.639999 l -0.24,-4.32 v -4.01 q -0.24,4.32 -0.24,11.52 a 15.9,15.9 0 0 0 -0.24,3.329999 z m 2.64,43.22 q 0,-1.44 -0.24,-0.48 a 44.27,44.27 0 0 0 -0.48,7.45 l 0.24,3.84 v 4.16 a 388.8,388.8 0 0 0 0.72,45.38 q 0.24,-11.28 0,-29.29 l -0.24,-14.41 z"
     id="path3984"
     inkscape:connector-curvature="0"
     style="fill:#333333" />
  <path
     class="cls-9"
     d="m 242.13296,109.06608 -3.12,13.93 q -3.6,16.82 -5.76,28.57 -6.74,33.15 -10.33,58.83 l -0.72,4.33 -0.72,4.32 a 46.42,46.42 0 0 0 -1,8.4 11.15,11.15 0 0 0 0.24,3.84 c 0.16,1.93 0.4,3 0.72,3.13 a 7,7 0 0 0 2.64,0.23 h 1.92 q 1,0.26 1.68,0.48 l 1,1 1,1.2 a 3.06,3.06 0 0 1 0,2.88 q -0.48,1.2 -6,1.44 h -2.16 l -2.4,0.24 h -8.41 a 26.47,26.47 0 0 0 -4.09,0.24 l -1.92,0.24 -1.92,0.24 q -2.64,0.48 -3.36,0 -0.72,-0.24 -1.2,-1.68 a 3.59,3.59 0 0 1 -0.24,-2.16 2.24,2.24 0 0 1 1.68,-1.68 l 1.2,-0.24 a 1.55,1.55 0 0 0 1,-0.72 c 0.16,-0.32 -0.16,-1.76 -1,-4.33 l -0.24,-1.68 -0.48,-1.44 a 7.86,7.86 0 0 1 -0.48,-1.92 q -1.44,-5.52 -2.88,-14.65 l -1.2,-7.2 -1.44,-7.2 q -1.45,-7.2 -4.09,-19 l -4.08,-18.73 q -1,-3.6 -1.92,-9.61 l -1,-4.8 -1,-4.8 q -3.12,-11.76 -6.72,-27.86 l -6.49,-27.849999 q -1,27.849999 -1.68,74.679999 l -0.45,38.18 q -0.24,22.32 -0.48,37.46 a 13.49,13.49 0 0 0 2.64,0.24 l 2.4,-0.49 a 8.44,8.44 0 0 1 4.33,0.49 4.25,4.25 0 0 1 1.68,2.4 4.15,4.15 0 0 1 0.24,3.6 c -0.33,0.64 -1.68,1.12 -4.09,1.44 l -3.36,0.24 -3.12,0.24 a 25.46,25.46 0 0 0 -2.88,0.24 l -3.36,0.48 c -2.56,0.32 -4.17,0.32 -4.8,0 q -1,-0.24 -1.68,-2.16 a 3.64,3.64 0 0 1 -0.24,-2.88 2.11,2.11 0 0 1 1.44,-1.44 l 1,-0.48 1,-0.24 a 1.89,1.89 0 0 0 0.72,-0.24 l 1.44,-0.24 a 5.85,5.85 0 0 0 2.16,-0.48 c 0.16,-0.16 0.16,-1.52 0,-4.09 v -5.76 q 0,-11.28 0.48,-34.1 0.48,-22.82 0.48,-33.61 0,-16.81 0.48,-43.46 0.48,-26.409999 0.48,-39.139999 v -1.69 l 0.24,-1.68 a 7.06,7.06 0 0 0 -0.24,-2.4 q -0.24,-0.48 -1.92,-0.48 l -1.2,-0.23 -1.44,-0.49 a 11.63,11.63 0 0 1 -1.68,-1.44 c -0.64,-0.79 -0.89,-1.35 -0.72,-1.68 0.16,-0.8 1.59,-1.44 4.32,-1.92 a 33.65,33.65 0 0 0 3.6,-0.24 l 1.68,-0.24 h 1.4 q 14.41,-1.44 20.41,1 c 2.41,1 3.92,2.16 4.57,3.6 0.65,1.44 -0.81,2 -4.33,1.68 q 6.5,26.66 15.13,68.919999 l 7,35.06 7.15,34.78 q 3.6,-28.32 11,-64.83 l 6.48,-31.45 3.37,-15.849999 3.36,-16.09 0.24,-1 0.24,-1.2 0.72,-2.64 c 0.48,-2.25 0.64,-3.44 0.48,-3.61 a 5.1,5.1 0 0 0 -2.16,-0.23 h -2.4 l -1.2,-1.21 a 5.11,5.11 0 0 1 -0.72,-1.68 q -0.24,-3.12 5.28,-4.08 a 21.8,21.8 0 0 1 4.8,-0.72 l 2.4,-0.24 2.18,-0.17 13.68,-2.4 a 6.68,6.68 0 0 1 4.56,1.44 q 2.4,1.92 1.68,4.08 a 1.74,1.74 0 0 1 -2.16,1.2 h -1.2 a 1.45,1.45 0 0 0 -1,0.24 q -0.24,0.24 0.24,1.92 l 0.24,1.69 v 1.43 q 0.72,14.42 -1,38.659999 l -1.04,19.42 q -0.48,11 -0.48,19.68 v 30.5 q 0,17.05 0.24,29.77 0.24,3.38 0,9.85 c -0.16,4.48 -0.24,7.85 -0.24,10.08 l 0.72,4.08 0.72,1.2 1.2,1 a 5,5 0 0 1 1.44,2.4 q -1,2.4 -1.44,2.64 a 3.85,3.85 0 0 1 -3.12,0.24 l -1.92,-0.48 -1.68,-0.24 a 25.79,25.79 0 0 0 -5,0 q -2.16,0 -5.77,0.24 a 25.55,25.55 0 0 0 -2.64,0.24 l -2.88,0.48 q -3.6,0.24 -4.56,-0.24 -1.22,-0.72 -1.44,-5 0.72,-1.44 4.32,-1.92 1.92,-0.24 1.92,-4.33 0.24,-5.76 0.24,-14.4 l -0.24,-6.73 v -6.48 q 0.48,-18.48 0,-53.31 v -27.2 q -0.24,-15.6 0,-27.849999 z m -60,-9.119999 0.24,-0.24 q -1.2,-6 -1.92,-11.05 -1.2,-7 -1.92,-12 l -0.24,-1.92 -0.24,-1.69 a 9.78,9.78 0 0 0 -0.72,-2.88 c -1,-1.75 -2.81,-2.31 -5.53,-1.68 l 2.65,7.45 2.88,7.68 q 2.88,8.88 4.8,15.85 z m 11.29,24.249999 -1.71,-9.12 -1.93,-9.13 a 82.41,82.41 0 0 0 -5.28,-16.089999 l 5.76,30.999999 q 3.61,18.49 6.25,30.73 7,35.07 14.64,59.07 -10.32,-45.63 -17.76,-86.46 z m 16.56,111.18 1.44,-0.25 h 1.44 q -7.68,-25.2 -12.72,-43 1,9.14 3.36,21.85 l 2.16,10.81 1.92,10.57 a 5.82,5.82 0 0 0 2.37,0.02 z m 47.73,-101.58 -0.48,-18.24 q -0.72,-22.329999 -0.25,-36.739999 v -1.2 l 0.25,-1.44 v -2.88 c 0.15,-2.56 0,-4.09 -0.48,-4.57 q 0,-0.23 -0.48,0 l -0.72,0.24 a 160.58,160.58 0 0 0 -0.25,19.93 c 0.16,2.88 0.25,6.17 0.25,9.85 l -0.25,9.839999 0.25,19.93 0.48,19.69 q 0.72,24 -0.24,39.38 l -0.24,12 -0.25,12 q -0.24,15.14 -0.71,22.82 a 6.46,6.46 0 0 1 3.12,-0.25 l 1.44,0.25 h 1.44 l -0.69,-19.92 -0.72,-20.17 q -0.72,-22.8 -1.2,-42.5 0,-7.21 -0.27,-18.02 z"
     id="path3986"
     inkscape:connector-curvature="0"
     style="fill:#333333" />
</svg>
